<?xml version="1.0" encoding="utf-8"?>
<!-- Generator: Adobe Illustrator 16.0.0, SVG Export Plug-In . SVG Version: 6.00 Build 0)  -->
<!DOCTYPE svg PUBLIC "-//W3C//DTD SVG 1.1//EN" "http://www.w3.org/Graphics/SVG/1.1/DTD/svg11.dtd">
<svg version="1.1" id="Capa_1" xmlns="http://www.w3.org/2000/svg" xmlns:xlink="http://www.w3.org/1999/xlink" x="0px" y="0px"
	 width="595.281px" height="841.891px" viewBox="0 0 595.281 841.891" enable-background="new 0 0 595.281 841.891"
	 xml:space="preserve">
<g>
	<path fill="#818181" d="M118.93,329.393c24.023,0,43.799,8.595,59.326,25.781c15.527,17.189,23.291,39.111,23.291,65.771
		c0,26.857-7.716,48.83-23.145,65.918c-15.431,17.091-35.255,25.635-59.473,25.635c-23.927,0-43.703-8.617-59.326-25.854
		c-15.626-17.235-23.438-39.134-23.438-65.698c0-26.756,7.738-48.706,23.218-65.845C74.861,337.962,94.709,329.393,118.93,329.393z
		 M118.93,363.377c-12.598,0-22.485,5.079-29.663,15.234C82.089,388.769,78.5,402.88,78.5,420.945
		c0,18.068,3.612,32.227,10.84,42.48c7.226,10.254,17.088,15.381,29.59,15.381c12.598,0,22.508-5.102,29.736-15.308
		c7.226-10.204,10.84-24.39,10.84-42.554c0-18.065-3.589-32.176-10.767-42.334C141.562,368.456,131.624,363.377,118.93,363.377z"/>
	<path fill="#818181" d="M335.58,337.596c1.465-3.124,3.124-5.273,4.98-6.445c1.854-1.172,4.688-1.758,8.496-1.758
		c5.662,0,9.302,1.051,10.913,3.149c1.611,2.101,2.513,6.276,2.71,12.524l0.586,28.125v1.611c0,5.763-1.149,9.792-3.442,12.085
		c-2.296,2.296-6.178,3.442-11.646,3.442c-6.936,0-12.11-3.71-15.527-11.133c-0.49-1.073-0.879-1.952-1.172-2.637
		c-3.028-6.054-7.13-10.62-12.305-13.696c-5.178-3.076-11.279-4.614-18.311-4.614c-8.789,0-15.894,2.028-21.313,6.079
		c-5.42,4.054-8.13,9.254-8.13,15.601c0,8.986,12.4,16.065,37.207,21.24c4.197,0.879,7.519,1.563,9.961,2.051
		c18.75,4.102,32.322,10.353,40.723,18.75c8.397,8.4,12.598,19.874,12.598,34.424c0,17.97-6.104,31.812-18.311,41.528
		c-12.209,9.718-29.688,14.575-52.441,14.575c-8.888,0-16.823-0.586-23.804-1.758c-6.983-1.172-13.747-2.978-20.288-5.42
		c-1.563,2.541-3.369,4.369-5.42,5.493c-2.051,1.122-4.885,1.685-8.496,1.685c-6.152,0-10.451-1.172-12.891-3.516
		c-2.442-2.344-3.713-6.493-3.809-12.451l-0.586-34.424v-1.611c0-6.445,1.194-10.936,3.589-13.477
		c2.392-2.538,6.566-3.809,12.524-3.809c6.347,0,11.668,4.592,15.967,13.77c0.975,2.248,1.758,3.955,2.344,5.127
		c3.809,7.521,9.104,13.136,15.894,16.846c6.786,3.713,15.11,5.566,24.976,5.566c8.983,0,15.967-1.854,20.947-5.566
		c4.98-3.71,7.471-8.936,7.471-15.674c0-10.448-11.279-18.358-33.838-23.73c-6.738-1.561-12.062-2.879-15.967-3.955
		c-18.947-4.98-32.08-11.206-39.404-18.677s-10.986-17.699-10.986-30.688c0-16.699,6.273-30.345,18.823-40.942
		c12.547-10.595,28.784-15.894,48.706-15.894c6.64,0,13.158,0.685,19.556,2.051C322.858,332.812,329.23,334.863,335.58,337.596z"/>
	<path fill="#818181" d="M417.318,475.877V366.6h-2.49c-5.273,0-9.279-1.366-12.012-4.102c-2.735-2.733-4.102-6.738-4.102-12.012
		c0-5.663,1.465-9.789,4.395-12.378c2.93-2.586,7.665-3.882,14.209-3.882h27.539h8.643c20.409,0,35.351,0.879,44.824,2.637
		c9.471,1.758,17.527,4.688,24.17,8.789c11.814,7.031,20.874,17.065,27.173,30.103s9.448,28.103,9.448,45.19
		c0,18.068-3.589,33.863-10.767,47.388c-7.178,13.526-17.358,23.756-30.542,30.688c-5.958,3.127-12.941,5.396-20.947,6.812
		c-8.009,1.417-19.922,2.124-35.742,2.124h-16.26h-27.539c-6.738,0-11.524-1.245-14.355-3.735c-2.834-2.49-4.248-6.665-4.248-12.524
		c0-5.175,1.366-9.105,4.102-11.792c2.732-2.685,6.738-4.028,12.012-4.028H417.318z M455.111,366.014v109.863h8.35
		c18.457,0,32.08-4.516,40.869-13.55c8.789-9.032,13.184-22.925,13.184-41.675c0-18.457-4.468-32.227-13.403-41.309
		s-22.39-13.623-40.356-13.623c-2.344,0-4.127,0.025-5.347,0.073C457.185,365.844,456.086,365.917,455.111,366.014z"/>
</g>
</svg>
