<?xml version="1.0" encoding="utf-8"?>
<svg version="1.2" baseProfile="tiny" xmlns="http://www.w3.org/2000/svg" xmlns:xlink="http://www.w3.org/1999/xlink" viewBox="21 -0.5 24 19">
<g>
    <path fill="#FFA724" d="M33.99,12.12c0,0-2.7,1.32-1.82,3.78c1.01,2.86,5.72,2.52,8.48,1.34c2.35-0.99,0.39-1.78,0.39-1.78
        l-2.43-1.37l-3.7-2.29L33.99,12.12z"/>
    <path fill="#3A3A3A" d="M40.4,14.31c-1.73-0.73-2.96-1.81-4.2-2.28c0.65-0.28,1.25-0.7,1.63-1.05c0.41-0.39,0.54-0.88,0.51-1.34
        c1.29,0.88,2.81,0.93,3.59,0.98c0.81,0.05,1.57,0.21,1.73,0.59c0,0,0.25-4.38-8.76-7.28c0,0,2.69,1.22,3.53,2.2
        c0,0-0.96-0.06-1.36,0.56C36.86,6.99,36.82,7.47,37,8c-0.15-0.02-0.32-0.05-0.5-0.06L22.19,0.03l1.5,3.24l-1.41-0.49l0.42,0.8
        c0.01,0.01,0.59,1.14,1.97,3.54c1.08,1.89,3.02,2.84,5.58,2.72c0.09,0,0.21-0.01,0.32-0.02c0.65-0.05,1.65-0.14,2.62-0.23
        c-0.07,0.35-0.06,0.77,0.03,1.29c0.11,0.59,0.35,0.97,0.66,1.2c-0.74,0.36-1.41,1.04-1.74,1.86l0,0c-0.01,0.02-0.02,0.05-0.02,0.07
        l0,0c-0.22,0.52-0.27,1.16-0.01,1.9v0.01c0.06,0.15,0.11,0.3,0.21,0.46c0.08,0.15,0.18,0.3,0.31,0.42c1.6,1.89,5.47,1.58,7.91,0.56
        c0.03-0.01,0.07-0.02,0.1-0.05c0.19-0.08,0.39-0.17,0.58-0.26c0.03-0.02,0.08-0.03,0.11-0.06c0.21-0.1,0.41-0.21,0.62-0.33
        c2.43-1.41,3.22-3.07,3.22-3.07S42.74,15.3,40.4,14.31z M41.01,7.81c0.68,0.3,1.74,2.01,1.74,2.01c-0.88-0.14-2.63-0.71-2.81-1.37
        C39.75,7.79,40.33,7.52,41.01,7.81z M30.21,9.12c-0.92,0.05-1.75-0.07-2.48-0.32c-1.06-0.38-1.88-1.06-2.45-2.04
        c-0.71-1.23-1.2-2.13-1.52-2.71l1.29,0.44l-1.29-2.77L35.05,8c-0.31,0.05-0.62,0.14-0.89,0.27l-7.24-2.92l6.21,3.53
        C32.01,8.99,30.8,9.09,30.21,9.12z M32.31,15.56c-0.13-0.48-0.08-0.96,0.03-1.38c0.66,0.44,1.65,0.68,3.04,0.16
        C35.38,14.34,34.4,15.56,32.31,15.56z M35.61,17.86c-0.46-0.06-0.92-0.17-1.37-0.35c-0.24-0.1-0.44-0.21-0.64-0.32
        c0.9-0.21,2.05-0.71,3.15-1.95C36.75,15.24,36.62,16.59,35.61,17.86z M38.73,17.61c-0.24,0.07-0.5,0.13-0.76,0.17
        c0.41-0.32,0.79-0.81,0.8-1.48C38.76,16.3,38.94,16.87,38.73,17.61z M42.08,16.09c-0.13-0.33-0.18-0.99-0.18-0.99
        c0.75,0.07,1.66-0.24,1.66-0.24C42.96,15.6,42.08,16.09,42.08,16.09z"/>
    <path fill="#FFA724" d="M36.48,8.4c0,0-2.62-0.65-2.99,1.37c-0.15,0.83,0.16,1.61,0.59,1.91c0.22-0.09,0.5-0.23,1.07-0.22
        c-0.13-0.06-0.31-0.3-0.46-0.62c0.17,0.03,0.38,0.06,0.62,0.02c0,0-0.63-0.21-0.84-0.98c0-0.01,0-0.01,0-0.02
        c0.09,0.06,0.21,0.1,0.35,0.13c0,0-0.5-0.42-0.09-0.98C35.01,8.63,35.54,8.38,36.48,8.4z"/>
    <path fill="#FFFFFF" d="M30.21,9.12c-0.92,0.05-1.75-0.07-2.48-0.32c-1.06-0.38-1.88-1.06-2.45-2.04c-0.71-1.23-1.2-2.13-1.52-2.71
        l1.29,0.44l-1.29-2.77L35.05,8c-0.31,0.05-0.62,0.14-0.89,0.27l-7.24-2.92l6.21,3.53C32.01,8.99,30.8,9.09,30.21,9.12z"/>
    <path fill="#FFFFFF" d="M41.01,7.81c0.68,0.3,1.74,2.01,1.74,2.01c-0.88-0.14-2.63-0.71-2.81-1.37
        C39.75,7.79,40.33,7.52,41.01,7.81z"/>
    <path fill="#FFFFFF" d="M42.08,16.09c-0.13-0.33-0.18-0.99-0.18-0.99c0.75,0.07,1.66-0.24,1.66-0.24
        C42.96,15.6,42.08,16.09,42.08,16.09z"/>
</g>
</svg>
