<?xml version="1.0" encoding="utf-8"?>
<svg version="1.2" baseProfile="tiny" xmlns="http://www.w3.org/2000/svg" xmlns:xlink="http://www.w3.org/1999/xlink" viewBox="21 -0.5 24 19">
<path fill="#FFA724" d="M40.41,14.34c-1.73-0.73-2.96-1.82-4.21-2.29c0.65-0.29,1.25-0.7,1.63-1.05c0.41-0.39,0.54-0.88,0.51-1.35
    c1.29,0.88,2.82,0.94,3.59,0.98c0.81,0.05,1.57,0.21,1.73,0.59c0,0,0.25-4.39-8.77-7.31c0,0,2.69,1.22,3.54,2.21
    c0,0-0.96-0.06-1.36,0.56C36.87,7,36.83,7.48,37.01,8c-0.15-0.02-0.32-0.05-0.5-0.06L22.19,0l1.51,3.25l-1.41-0.49l0.42,0.8
    c0.01,0.01,0.59,1.14,1.97,3.56c1.08,1.9,3.02,2.85,5.59,2.73c0.09,0,0.21-0.01,0.32-0.02c0.65-0.05,1.65-0.14,2.62-0.23
    c-0.07,0.35-0.06,0.78,0.03,1.29c0.11,0.59,0.35,0.97,0.66,1.21c-0.76,0.37-1.46,1.07-1.77,1.92l0,0c-0.22,0.53-0.27,1.17-0.01,1.91
    v0.01c0.06,0.15,0.11,0.3,0.21,0.46c0.08,0.15,0.18,0.3,0.31,0.42c1.6,1.9,5.47,1.59,7.91,0.56c0.03-0.01,0.07-0.02,0.1-0.05
    c0.19-0.08,0.39-0.17,0.58-0.26c0.03-0.02,0.08-0.03,0.11-0.06c0.21-0.1,0.41-0.21,0.62-0.33c2.43-1.42,3.23-3.08,3.23-3.08
    S42.76,15.33,40.41,14.34z M41.03,7.82c0.68,0.3,1.74,2.01,1.74,2.01c-0.88-0.14-2.63-0.71-2.82-1.37S40.34,7.51,41.03,7.82z
    M38.77,16.33c0,0,0.18,0.57-0.03,1.31c-0.24,0.07-0.5,0.13-0.76,0.17C38.39,17.49,38.77,17.01,38.77,16.33z M26.94,5.34l6.21,3.54
    C32.02,9,30.81,9.1,30.2,9.14c-0.92,0.05-1.76-0.07-2.49-0.32c-1.06-0.38-1.88-1.06-2.45-2.05c-0.71-1.23-1.2-2.14-1.52-2.72
    l1.29,0.45l-1.29-2.78L35.05,8c-0.31,0.05-0.62,0.14-0.89,0.27L26.94,5.34z M33.54,9.77c0.44-2.1,3.14-1.44,3.14-1.44
    c-0.98-0.02-1.55,0.25-1.84,0.64c-0.42,0.58,0.1,1.03,0.1,1.03c-0.15-0.02-0.27-0.07-0.36-0.14c0,0.01,0,0.02,0,0.02
    c0.23,0.81,0.89,1.03,0.89,1.03c-0.25,0.03-0.47,0.02-0.65-0.02c0.15,0.34,0.34,0.59,0.48,0.65c-0.59,0-0.9,0.14-1.13,0.23
    C33.7,11.45,33.35,10.68,33.54,9.77z M35.39,14.37c0,0-0.98,1.22-3.08,1.22c-0.13-0.48-0.08-0.96,0.03-1.38
    C33.01,14.65,34.01,14.9,35.39,14.37z M33.61,17.22c0.9-0.21,2.05-0.71,3.15-1.96c0,0-0.13,1.35-1.14,2.63
    c-0.46-0.06-0.92-0.17-1.37-0.35C34.02,17.45,33.81,17.33,33.61,17.22z M42.1,16.12c-0.13-0.33-0.18-0.99-0.18-0.99
    c0.75,0.07,1.66-0.24,1.66-0.24C42.98,15.63,42.1,16.12,42.1,16.12z"/>
</svg>
