<?xml version="1.0" encoding="utf-8"?>
<!-- Generator: Adobe Illustrator 24.0.0, SVG Export Plug-In . SVG Version: 6.00 Build 0)  -->
<svg version="1.2" baseProfile="tiny" id="Ebene_1" xmlns="http://www.w3.org/2000/svg" xmlns:xlink="http://www.w3.org/1999/xlink"
	 x="0px" y="0px" viewBox="0 0 141.7 18.2" xml:space="preserve">
<path fill="#FFBB00" d="M40.41,14.34c-1.73-0.73-2.96-1.82-4.21-2.29c0.65-0.29,1.25-0.7,1.63-1.05c0.41-0.39,0.54-0.88,0.51-1.35
	c1.29,0.88,2.82,0.94,3.59,0.98c0.81,0.05,1.57,0.21,1.73,0.59c0,0,0.25-4.39-8.77-7.31c0,0,2.69,1.22,3.54,2.21
	c0,0-0.96-0.06-1.36,0.56C36.87,7,36.83,7.48,37.01,8c-0.15-0.02-0.32-0.05-0.5-0.06L22.19,0l1.51,3.25l-1.41-0.49l0.42,0.8
	c0.01,0.01,0.59,1.14,1.97,3.56c1.08,1.9,3.02,2.85,5.59,2.73c0.09,0,0.21-0.01,0.32-0.02c0.65-0.05,1.65-0.14,2.62-0.23
	c-0.07,0.35-0.06,0.78,0.03,1.29c0.11,0.59,0.35,0.97,0.66,1.21c-0.76,0.37-1.46,1.07-1.77,1.92l0,0c-0.22,0.53-0.27,1.17-0.01,1.91
	v0.01c0.06,0.15,0.11,0.3,0.21,0.46c0.08,0.15,0.18,0.3,0.31,0.42c1.6,1.9,5.47,1.59,7.91,0.56c0.03-0.01,0.07-0.02,0.1-0.05
	c0.19-0.08,0.39-0.17,0.58-0.26c0.03-0.02,0.08-0.03,0.11-0.06c0.21-0.1,0.41-0.21,0.62-0.33c2.43-1.42,3.23-3.08,3.23-3.08
	S42.76,15.33,40.41,14.34z M41.03,7.82c0.68,0.3,1.74,2.01,1.74,2.01c-0.88-0.14-2.63-0.71-2.82-1.37S40.34,7.51,41.03,7.82z
	 M38.77,16.33c0,0,0.18,0.57-0.03,1.31c-0.24,0.07-0.5,0.13-0.76,0.17C38.39,17.49,38.77,17.01,38.77,16.33z M26.94,5.34l6.21,3.54
	C32.02,9,30.81,9.1,30.2,9.14c-0.92,0.05-1.76-0.07-2.49-0.32c-1.06-0.38-1.88-1.06-2.45-2.05c-0.71-1.23-1.2-2.14-1.52-2.72
	l1.29,0.45l-1.29-2.78L35.05,8c-0.31,0.05-0.62,0.14-0.89,0.27L26.94,5.34z M33.54,9.77c0.44-2.1,3.14-1.44,3.14-1.44
	c-0.98-0.02-1.55,0.25-1.84,0.64c-0.42,0.58,0.1,1.03,0.1,1.03c-0.15-0.02-0.27-0.07-0.36-0.14c0,0.01,0,0.02,0,0.02
	c0.23,0.81,0.89,1.03,0.89,1.03c-0.25,0.03-0.47,0.02-0.65-0.02c0.15,0.34,0.34,0.59,0.48,0.65c-0.59,0-0.9,0.14-1.13,0.23
	C33.7,11.45,33.35,10.68,33.54,9.77z M35.39,14.37c0,0-0.98,1.22-3.08,1.22c-0.13-0.48-0.08-0.96,0.03-1.38
	C33.01,14.65,34.01,14.9,35.39,14.37z M33.61,17.22c0.9-0.21,2.05-0.71,3.15-1.96c0,0-0.13,1.35-1.14,2.63
	c-0.46-0.06-0.92-0.17-1.37-0.35C34.02,17.45,33.81,17.33,33.61,17.22z M42.1,16.12c-0.13-0.33-0.18-0.99-0.18-0.99
	c0.75,0.07,1.66-0.24,1.66-0.24C42.98,15.63,42.1,16.12,42.1,16.12z"/>
<g>
	<path fill="#FFBB00" d="M50.74,8.35h4.14c2,0,2.02,1.13,1.74,1.9c-0.27,0.77-0.79,1.18-1.46,1.49c0.59,0.23,1.04,0.78,0.65,1.89
		c-0.54,1.52-2.13,2.31-3.47,2.31h-4.29L50.74,8.35z M51.04,14.12h1.37c0.49,0,0.96-0.14,1.16-0.72c0.16-0.45-0.02-0.69-0.57-0.69
		h-1.46L51.04,14.12z M52.03,11.3h1.23c0.49,0,0.84-0.14,1.01-0.63c0.14-0.38-0.14-0.53-0.62-0.53h-1.23L52.03,11.3z"/>
	<path fill="#FFBB00" d="M58.71,8.35h6.26l-0.68,1.94h-3.93l-0.33,0.95h3.57l-0.64,1.81h-3.57L59.05,14h4.05l-0.68,1.94h-6.37
		L58.71,8.35z"/>
	<path fill="#FFBB00" d="M67.18,10.29h-2.12l0.68-1.94h6.57l-0.68,1.94h-2.12l-2,5.64h-2.33L67.18,10.29z"/>
	<path fill="#FFBB00" d="M74.47,8.35h2.28l0.08,7.58h-2.42l0.07-1.09h-2.41l-0.72,1.09h-2.34L74.47,8.35z M74.57,13.22l0.15-2.33
		H74.7l-1.56,2.33H74.57z"/>
	<path fill="#FFFFFF" d="M80.14,8.35h5.85l-0.68,1.94h-3.52l-0.33,0.95h3.02l-0.64,1.81h-3.02l-1.03,2.89h-2.33L80.14,8.35z"/>
	<path fill="#FFFFFF" d="M86.87,8.35h2.33l-1.98,5.64h3.35l-0.68,1.94H84.2L86.87,8.35z"/>
	<path fill="#FFFFFF" d="M93.39,8.35h2.33l-2.68,7.58h-2.33L93.39,8.35z"/>
	<path fill="#FFFFFF" d="M100.13,15.15c-0.75,0.67-1.66,0.96-2.49,0.96c-2.24,0-3-1.74-2.24-3.9c1.03-2.89,3.46-4.05,5.17-4.05
		c1.93,0,2.77,1.05,2.49,2.84h-2.24c0.11-0.55-0.22-0.95-0.76-0.95c-1.6,0-2.14,1.69-2.33,2.21c-0.25,0.71-0.4,1.96,1.01,1.96
		c0.54,0,1.19-0.27,1.51-0.83h-1.03l0.57-1.62h3.09l-1.47,4.17h-1.47L100.13,15.15z"/>
	<path fill="#FFFFFF" d="M105.4,8.35h2.33l-0.94,2.63h2.18l0.94-2.63h2.33l-2.67,7.58h-2.33l1.06-3.01h-2.18l-1.06,3.01h-2.33
		L105.4,8.35z"/>
	<path fill="#FFFFFF" d="M114.45,10.29h-2.12l0.68-1.94h6.57l-0.68,1.94h-2.12l-2,5.64h-2.33L114.45,10.29z"/>
</g>
</svg>
