<?xml version="1.0" encoding="UTF-8" standalone="no"?>
<!-- Generator: Adobe Illustrator 19.1.0, SVG Export Plug-In . SVG Version: 6.00 Build 0)  -->

<svg
   xmlns:dc="http://purl.org/dc/elements/1.1/"
   xmlns:cc="http://creativecommons.org/ns#"
   xmlns:rdf="http://www.w3.org/1999/02/22-rdf-syntax-ns#"
   xmlns:svg="http://www.w3.org/2000/svg"
   xmlns="http://www.w3.org/2000/svg"
   xmlns:sodipodi="http://sodipodi.sourceforge.net/DTD/sodipodi-0.dtd"
   xmlns:inkscape="http://www.inkscape.org/namespaces/inkscape"
   version="1.1"
   id="Ebene_1"
   x="0px"
   y="0px"
   viewBox="-70 61.5 141.7 18.2"
   style="enable-background:new -70 61.5 141.7 18.2;"
   xml:space="preserve"
   sodipodi:docname="cf_logo_white.svg"
   inkscape:version="0.92.4 (5da689c313, 2019-01-14)"><metadata
   id="metadata3793"><rdf:RDF><cc:Work
       rdf:about=""><dc:format>image/svg+xml</dc:format><dc:type
         rdf:resource="http://purl.org/dc/dcmitype/StillImage" /><dc:title></dc:title></cc:Work></rdf:RDF></metadata><defs
   id="defs3791" /><sodipodi:namedview
   pagecolor="#ffffff"
   bordercolor="#666666"
   borderopacity="1"
   objecttolerance="10"
   gridtolerance="10"
   guidetolerance="10"
   inkscape:pageopacity="0"
   inkscape:pageshadow="2"
   inkscape:window-width="1920"
   inkscape:window-height="1017"
   id="namedview3789"
   showgrid="true"
   inkscape:zoom="12.455893"
   inkscape:cx="57.803965"
   inkscape:cy="9.1000004"
   inkscape:window-x="-8"
   inkscape:window-y="-8"
   inkscape:window-maximized="1"
   inkscape:current-layer="Ebene_1"><inkscape:grid
     type="xygrid"
     id="grid4600" /></sodipodi:namedview>
<style
   type="text/css"
   id="style3754">
	.st0{fill:#FFBB00;}
	.st1{fill:#424242;}
	.st2{fill:#3A3A3A;}
</style>
<g
   id="g3786"
   style="stroke:#fcfcfc;stroke-width:0.405;stroke-miterlimit:0;stroke-dasharray:none;stroke-opacity:1;paint-order:markers stroke fill">
	<g
   id="g3776"
   style="stroke:#fcfcfc;stroke-width:0.405;stroke-miterlimit:0;stroke-dasharray:none;stroke-opacity:1;paint-order:markers stroke fill">
		<path
   class="st0"
   d="m -19.5,70.1 h 4.1 c 2,0 2,1.1 1.7,1.9 -0.3,0.8 -0.8,1.2 -1.4,1.5 0.6,0.2 1,0.8 0.6,1.9 -0.5,1.5 -2.1,2.3 -3.4,2.3 h -4.2 z m 0.3,5.7 h 1.4 c 0.5,0 0.9,-0.1 1.2,-0.7 0.2,-0.4 0,-0.7 -0.6,-0.7 h -1.4 z m 1,-2.8 h 1.2 c 0.5,0 0.8,-0.1 1,-0.6 0.1,-0.4 -0.1,-0.5 -0.6,-0.5 h -1.2 z"
   id="path3756"
   inkscape:connector-curvature="0"
   style="fill:#ffbb00;stroke:#fcfcfc;stroke-width:0.405;stroke-miterlimit:0;stroke-dasharray:none;stroke-opacity:1;paint-order:markers stroke fill" />
		<path
   class="st0"
   d="m -11.6,70.1 h 6.2 L -6.1,72 H -10 l -0.3,0.9 h 3.5 l -0.6,1.8 h -3.5 l -0.3,0.9 h 4 l -0.7,1.9 h -6.3 z"
   id="path3758"
   inkscape:connector-curvature="0"
   style="fill:#ffbb00;stroke:#fcfcfc;stroke-width:0.405;stroke-miterlimit:0;stroke-dasharray:none;stroke-opacity:1;paint-order:markers stroke fill" />
		<path
   class="st0"
   d="m -3.2,72 h -2.1 l 0.7,-1.9 H 1.9 L 1.2,72 h -2.1 l -2,5.6 h -2.3 z"
   id="path3760"
   inkscape:connector-curvature="0"
   style="fill:#ffbb00;stroke:#fcfcfc;stroke-width:0.405;stroke-miterlimit:0;stroke-dasharray:none;stroke-opacity:1;paint-order:markers stroke fill" />
		<path
   class="st0"
   d="m 4,70.1 h 2.3 l 0.1,7.5 H 3.9 L 4,76.5 H 1.6 l -0.7,1.1 h -2.3 z m 0.1,4.8 0.1,-2.3 v 0 l -1.5,2.3 z"
   id="path3762"
   inkscape:connector-curvature="0"
   style="fill:#ffbb00;stroke:#fcfcfc;stroke-width:0.405;stroke-miterlimit:0;stroke-dasharray:none;stroke-opacity:1;paint-order:markers stroke fill" />
		<path
   class="st1"
   d="m 9.6,70.1 h 5.8 L 14.7,72 h -3.5 l -0.3,0.9 h 3 l -0.6,1.8 h -3 l -1,2.9 H 7 Z"
   id="path3764"
   inkscape:connector-curvature="0"
   style="fill:#424242;stroke:#fcfcfc;stroke-width:0.405;stroke-miterlimit:0;stroke-dasharray:none;stroke-opacity:1;paint-order:markers stroke fill" />
		<path
   class="st1"
   d="m 16.3,70.1 h 2.3 l -2,5.6 h 3.3 l -0.7,1.9 h -5.6 z"
   id="path3766"
   inkscape:connector-curvature="0"
   style="fill:#424242;stroke:#fcfcfc;stroke-width:0.405;stroke-miterlimit:0;stroke-dasharray:none;stroke-opacity:1;paint-order:markers stroke fill" />
		<path
   class="st1"
   d="M 22.7,70.1 H 25 l -2.7,7.5 H 20 Z"
   id="path3768"
   inkscape:connector-curvature="0"
   style="fill:#424242;stroke:#fcfcfc;stroke-width:0.405;stroke-miterlimit:0;stroke-dasharray:none;stroke-opacity:1;paint-order:markers stroke fill" />
		<path
   class="st1"
   d="m 29.4,76.8 c -0.7,0.7 -1.6,0.9 -2.5,0.9 -2.2,0 -3,-1.7 -2.2,-3.8 1,-2.9 3.4,-4 5.1,-4 1.9,0 2.7,1 2.5,2.8 h -2.2 c 0.1,-0.5 -0.2,-0.9 -0.8,-0.9 -1.6,0 -2.1,1.7 -2.3,2.2 -0.2,0.7 -0.4,1.9 1,1.9 0.5,0 1.2,-0.3 1.5,-0.8 h -1 l 0.6,-1.6 h 3.1 l -1.5,4.1 h -1.5 z"
   id="path3770"
   inkscape:connector-curvature="0"
   style="fill:#424242;stroke:#fcfcfc;stroke-width:0.405;stroke-miterlimit:0;stroke-dasharray:none;stroke-opacity:1;paint-order:markers stroke fill" />
		<path
   class="st1"
   d="m 34.6,70.1 h 2.3 L 36,72.7 h 2.2 l 0.9,-2.6 h 2.3 l -2.7,7.5 h -2.3 l 1.1,-3 h -2.2 l -1.1,3 h -2.3 z"
   id="path3772"
   inkscape:connector-curvature="0"
   style="fill:#424242;stroke:#fcfcfc;stroke-width:0.405;stroke-miterlimit:0;stroke-dasharray:none;stroke-opacity:1;paint-order:markers stroke fill" />
		<path
   class="st1"
   d="m 43.6,72 h -2.1 l 0.7,-1.9 h 6.5 L 48,72 h -2.1 l -2,5.6 h -2.3 z"
   id="path3774"
   inkscape:connector-curvature="0"
   style="fill:#424242;stroke:#fcfcfc;stroke-width:0.405;stroke-miterlimit:0;stroke-dasharray:none;stroke-opacity:1;paint-order:markers stroke fill" />
	</g>
	<g
   id="g3784"
   style="stroke:#fcfcfc;stroke-width:0.405;stroke-miterlimit:0;stroke-dasharray:none;stroke-opacity:1;paint-order:markers stroke fill">
		<path
   class="st0"
   d="m -36.4,73.5 c 0,0 -2.5,1.2 -1.7,3.5 0.9,2.6 5.3,2.3 7.9,1.2 2.2,-0.9 0.4,-1.6 0.4,-1.6 l -2.3,-1.3 -3.4,-2.1 z"
   id="path3778"
   inkscape:connector-curvature="0"
   style="fill:#ffbb00;stroke:#fcfcfc;stroke-width:0.405;stroke-miterlimit:0;stroke-dasharray:none;stroke-opacity:1;paint-order:markers stroke fill" />
		<path
   class="st2"
   d="m -30.3,75.5 c -1.7,-0.7 -2.9,-1.7 -4,-2.2 0.6,-0.3 1.2,-0.7 1.6,-1 0.4,-0.4 0.5,-0.8 0.5,-1.3 1.2,0.8 2.7,0.9 3.5,0.9 0.8,0 1.5,0.2 1.7,0.6 0,0 0.2,-4.2 -8.4,-7 0,0 2.6,1.2 3.4,2.1 0,0 -0.9,-0.1 -1.3,0.5 -0.2,0.3 -0.2,0.8 -0.1,1.3 -0.1,0 -0.3,0 -0.5,-0.1 l -13.7,-7.6 1.4,3.1 -1.4,-0.5 0.4,0.8 c 0,0 0.6,1.1 1.9,3.4 1,1.8 2.9,2.7 5.4,2.6 0.1,0 0.2,0 0.3,0 0.6,0 1.6,-0.1 2.5,-0.2 -0.1,0.3 -0.1,0.7 0,1.2 0.1,0.6 0.3,0.9 0.6,1.2 -0.7,0.3 -1.4,1 -1.7,1.8 0,0 0,0 0,0 0,0 0,0 0,0.1 0,0 0,0 0,0 -0.2,0.5 -0.3,1.1 0,1.8 0,0 0,0 0,0 0,0.1 0.1,0.3 0.2,0.4 0.1,0.1 0.2,0.3 0.3,0.4 1.5,1.8 5.3,1.5 7.6,0.5 0,0 0.1,0 0.1,0 0.2,-0.1 0.4,-0.2 0.6,-0.3 0,0 0.1,0 0.1,-0.1 0.2,-0.1 0.4,-0.2 0.6,-0.3 2.3,-1.4 3.1,-2.9 3.1,-2.9 0,0 -2.5,1.8 -4.7,0.8 z m 0.6,-6.2 c 0.7,0.3 1.7,1.9 1.7,1.9 -0.8,-0.1 -2.5,-0.7 -2.7,-1.3 -0.2,-0.6 0.3,-0.9 1,-0.6 z m -10.4,1.2 c -0.9,0 -1.7,-0.1 -2.4,-0.3 -1,-0.4 -1.8,-1 -2.3,-2 -0.7,-1.2 -1.2,-2 -1.5,-2.6 l 1.2,0.4 -1.2,-2.7 10.8,6 c -0.3,0 -0.6,0.1 -0.9,0.3 l -6.9,-2.8 6,3.4 c -1.1,0.2 -2.2,0.3 -2.8,0.3 z m 2,6.2 c -0.1,-0.5 -0.1,-0.9 0,-1.3 0.6,0.4 1.6,0.7 2.9,0.2 0.1,-0.1 -0.9,1.1 -2.9,1.1 z m 3.2,2.2 c -0.4,-0.1 -0.9,-0.2 -1.3,-0.3 -0.2,-0.1 -0.4,-0.2 -0.6,-0.3 0.9,-0.2 2,-0.7 3,-1.9 0,0 -0.1,1.3 -1.1,2.5 z m 3,-0.3 c -0.2,0.1 -0.5,0.1 -0.7,0.2 0.4,-0.3 0.8,-0.7 0.8,-1.4 0,0 0.2,0.8 -0.1,1.2 z m 3.2,-1.5 c -0.1,-0.3 -0.2,-0.9 -0.2,-0.9 0.7,0.1 1.6,-0.2 1.6,-0.2 -0.6,0.6 -1.4,1.1 -1.4,1.1 z"
   id="path3780"
   inkscape:connector-curvature="0"
   style="fill:#3a3a3a;stroke:#fcfcfc;stroke-width:0.405;stroke-miterlimit:0;stroke-dasharray:none;stroke-opacity:1;paint-order:markers stroke fill" />
		<path
   class="st0"
   d="m -34.1,69.8 c 0,0 -2.5,-0.6 -2.9,1.3 -0.1,0.8 0.2,1.5 0.6,1.8 0.2,-0.1 0.5,-0.2 1,-0.2 -0.1,0 -0.3,-0.3 -0.4,-0.6 0.2,0 0.4,0.1 0.6,0 0,0 -0.6,-0.2 -0.8,-0.9 0,0 0,0 0,0 0.1,0.1 0.2,0.1 0.3,0.1 0,0 -0.5,-0.4 -0.1,-0.9 0.3,-0.3 0.8,-0.6 1.7,-0.6 z"
   id="path3782"
   inkscape:connector-curvature="0"
   style="fill:#ffbb00;stroke:#fcfcfc;stroke-width:0.405;stroke-miterlimit:0;stroke-dasharray:none;stroke-opacity:1;paint-order:markers stroke fill" />
	</g>
</g>
</svg>