<svg id="Layer_1" data-name="Layer 1" xmlns="http://www.w3.org/2000/svg" viewBox="0 0 1024 1024"><defs><style>.cls-1{fill:#4267b2;}.cls-2{fill:#fff;}</style></defs><title>flogo_RGB_HEX-1024</title><path class="cls-1" d="M967.48,0h-911A56.51,56.51,0,0,0,0,56.52v911A56.51,56.51,0,0,0,56.52,1024H547V628H414V473H547V358.93c0-132.26,80.77-204.28,198.76-204.28,56.51,0,105.08,4.21,119.24,6.09V299l-81.37,0c-64.2,0-76.63,30.51-76.63,75.28V473H860.49l-20,155H707v396H967.48A56.51,56.51,0,0,0,1024,967.48v-911A56.51,56.51,0,0,0,967.48,0Z"/><path id="f" class="cls-2" d="M707,1024V628H840.5l20-155H707V374.28c0-44.77,12.43-75.28,76.63-75.28L865,299V160.74c-14.16-1.88-62.73-6.09-119.24-6.09-118,0-198.76,72-198.76,204.28V473H414V628H547v396Z"/><path class="cls-1" d="M967.48,0h-911A56.51,56.51,0,0,0,0,56.52v911A56.51,56.51,0,0,0,56.52,1024H547V628H414V473H547V358.93c0-132.26,80.77-204.28,198.76-204.28,56.51,0,105.08,4.21,119.24,6.09V299l-81.37,0c-64.2,0-76.63,30.51-76.63,75.28V473H860.49l-20,155H707v396H967.48A56.51,56.51,0,0,0,1024,967.48v-911A56.51,56.51,0,0,0,967.48,0Z"/><path id="f-2" data-name="f" class="cls-2" d="M707,1024V628H840.5l20-155H707V374.28c0-44.77,12.43-75.28,76.63-75.28L865,299V160.74c-14.16-1.88-62.73-6.09-119.24-6.09-118,0-198.76,72-198.76,204.28V473H414V628H547v396Z"/></svg>