<?xml version="1.0" encoding="UTF-8" standalone="no"?>
<!-- Generator: Adobe Illustrator 19.1.0, SVG Export Plug-In . SVG Version: 6.00 Build 0)  -->

<svg
   xmlns:dc="http://purl.org/dc/elements/1.1/"
   xmlns:cc="http://creativecommons.org/ns#"
   xmlns:rdf="http://www.w3.org/1999/02/22-rdf-syntax-ns#"
   xmlns:svg="http://www.w3.org/2000/svg"
   xmlns="http://www.w3.org/2000/svg"
   xmlns:sodipodi="http://sodipodi.sourceforge.net/DTD/sodipodi-0.dtd"
   xmlns:inkscape="http://www.inkscape.org/namespaces/inkscape"
   version="1.1"
   id="svg4057"
   sodipodi:docname="light-wide-2-compact.svg"
   inkscape:version="0.92.4 (5da689c313, 2019-01-14)"
   x="0px"
   y="0px"
   viewBox="-21 39.4 167.7 18.6"
   xml:space="preserve"
   width="167.7"
   height="18.6"><metadata
   id="metadata3781"><rdf:RDF><cc:Work
       rdf:about=""><dc:format>image/svg+xml</dc:format><dc:type
         rdf:resource="http://purl.org/dc/dcmitype/StillImage" /><dc:title></dc:title></cc:Work></rdf:RDF></metadata><defs
   id="defs3779" />
<style
   type="text/css"
   id="style3748">
	.st0{fill:#FFBB00;}
	.st1{fill:#FFFFFF;}
</style>
<sodipodi:namedview
   inkscape:window-maximized="1"
   inkscape:pageopacity="0.0"
   inkscape:current-layer="g3776"
   inkscape:showpageshadow="false"
   inkscape:window-y="-8"
   inkscape:window-height="837"
   inkscape:pageshadow="2"
   fit-margin-bottom="0"
   inkscape:window-x="-8"
   fit-margin-right="0"
   inkscape:window-width="1600"
   inkscape:document-units="px"
   id="base"
   borderopacity="1.0"
   bordercolor="#666666"
   fit-margin-left="0"
   inkscape:cx="75.420679"
   inkscape:zoom="3.959798"
   showgrid="true"
   inkscape:cy="-2.46571"
   fit-margin-top="0"
   borderlayer="false"
   showborder="true"
   showguides="false"
   pagecolor="#ffffff">
	<inkscape:grid
   type="xygrid"
   id="grid4093"
   originy="-961.9602"
   originx="-40.900311" />
</sodipodi:namedview>
<g
   id="g3776"
   transform="translate(-30.859,-43.699999)">
	<g
   id="g3772"
   transform="translate(-40.041,21.699999)">
		<path
   class="st0"
   d="m 56.2,61.9 h 9.7 c 4.7,0 4.7,2.6 4.1,4.4 -0.6,1.8 -1.8,2.8 -3.4,3.5 1.4,0.5 2.4,1.8 1.5,4.4 -1.3,3.6 -5,5.4 -8.1,5.4 H 49.9 Z m 0.7,13.5 h 3.2 c 1.1,0 2.3,-0.3 2.7,-1.7 0.4,-1 0,-1.6 -1.3,-1.6 h -3.4 z m 2.3,-6.6 h 2.9 c 1.1,0 2,-0.3 2.4,-1.5 0.3,-0.9 -0.3,-1.2 -1.4,-1.2 h -2.9 z"
   id="path3752"
   inkscape:connector-curvature="0"
   style="fill:#ffbb00" />
		<path
   class="st0"
   d="M 74.9,61.9 H 89.6 L 88,66.4 h -9.3 l -0.8,2.2 h 8.4 l -1.5,4.2 H 76.4 L 75.7,75 h 9.5 l -1.6,4.5 h -15 z"
   id="path3754"
   inkscape:connector-curvature="0"
   style="fill:#ffbb00" />
		<path
   class="st0"
   d="m 94.7,66.4 h -5 l 1.6,-4.5 h 15.4 l -1.6,4.5 h -5 l -4.7,13.2 h -5.5 z"
   id="path3756"
   inkscape:connector-curvature="0"
   style="fill:#ffbb00" />
		<path
   class="st0"
   d="m 111.8,61.9 h 5.3 l 0.2,17.7 h -5.6 l 0.2,-2.5 h -5.6 l -1.7,2.5 h -5.5 z m 0.3,11.4 0.3,-5.5 v 0 l -3.7,5.5 z"
   id="path3758"
   inkscape:connector-curvature="0"
   style="fill:#ffbb00" />
		<path
   class="st1"
   d="m 125.1,61.9 h 13.7 l -1.6,4.5 H 129 l -0.8,2.2 h 7.1 l -1.5,4.2 h -7.1 l -2.4,6.8 h -5.5 z"
   id="path3760"
   inkscape:connector-curvature="0"
   style="fill:#ffffff" />
		<path
   class="st1"
   d="m 140.9,61.9 h 5.5 L 141.7,75 h 7.9 l -1.6,4.5 h -13.3 z"
   id="path3762"
   inkscape:connector-curvature="0"
   style="fill:#ffffff" />
		<path
   class="st1"
   d="m 156.2,61.9 h 5.5 l -6.3,17.7 h -5.5 z"
   id="path3764"
   inkscape:connector-curvature="0"
   style="fill:#ffffff" />
		<path
   class="st1"
   d="m 172,77.8 c -1.8,1.6 -3.9,2.2 -5.8,2.2 -5.2,0 -7,-4.1 -5.2,-9.1 2.4,-6.8 8.1,-9.5 12.1,-9.5 4.5,0 6.5,2.5 5.8,6.6 h -5.2 c 0.3,-1.3 -0.5,-2.2 -1.8,-2.2 -3.8,0 -5,4 -5.5,5.2 -0.6,1.7 -0.9,4.6 2.4,4.6 1.3,0 2.8,-0.6 3.5,-2 h -2.4 l 1.3,-3.8 h 7.3 l -3.5,9.8 h -3.5 z"
   id="path3766"
   inkscape:connector-curvature="0"
   style="fill:#ffffff" />
		<path
   class="st1"
   d="m 184.3,61.9 h 5.5 l -2.2,6.2 h 5.1 l 2.2,-6.2 h 5.5 l -6.3,17.7 h -5.5 l 2.5,-7 H 186 l -2.5,7 H 178 Z"
   id="path3768"
   inkscape:connector-curvature="0"
   style="fill:#ffffff" />
		<path
   class="st1"
   d="m 205.6,66.4 h -5 l 1.6,-4.5 h 15.4 l -1.6,4.5 h -5 l -4.7,13.2 h -5.5 z"
   id="path3770"
   inkscape:connector-curvature="0"
   style="fill:#ffffff" />
	</g>
	
</g>
</svg>