<svg height="200pt" viewBox="0 0 200 200" width="200pt" xmlns="http://www.w3.org/2000/svg" xmlns:xlink="http://www.w3.org/1999/xlink">
    <symbol id="a" overflow="visible">
        <path d="m2.679688-13.863281v-1.886719c1.777343-.171875 3.015624-.460938 3.71875-.867188.703124-.40625 1.226562-1.367187 1.570312-2.878906h1.945312v19.496094h-2.625v-13.863281zm0 0"/>
    </symbol>
    <symbol id="b" overflow="visible">
        <path d="m1.921875-4.402344c.605469-1.25 1.789063-2.382812 3.546875-3.402344l2.625-1.519531c1.175781-.683593 2-1.265625 2.476562-1.75.746094-.757812 1.117188-1.621093 1.117188-2.597656 0-1.140625-.339844-2.042969-1.023438-2.714844-.683593-.667969-1.59375-1.003906-2.734374-1.003906-1.6875 0-2.851563.636719-3.5 1.914063-.347657.683593-.539063 1.632812-.574219 2.84375h-2.503907c.027344-1.703126.34375-3.09375.945313-4.171876 1.066406-1.894531 2.949219-2.84375 5.648437-2.84375 2.242188 0 3.878907.609376 4.914063 1.820313s1.550781 2.5625 1.550781 4.046875c0 1.566406-.550781 2.90625-1.652344 4.019531-.640624.648438-1.785156 1.429688-3.433593 2.351563l-1.871094 1.039062c-.894531.492188-1.597656.960938-2.109375 1.410156-.910156.792969-1.484375 1.671876-1.71875 2.636719h10.6875v2.324219h-13.4375c.089844-1.6875.441406-3.152344 1.046875-4.402344zm0 0"/>
    </symbol>
    <symbol id="c" overflow="visible">
        <path d="m2.234375-1.375c-1.042969-1.269531-1.5625-2.816406-1.5625-4.640625h2.570313c.109374 1.265625.34375 2.1875.710937 2.761719.636719 1.03125 1.789063 1.542968 3.457031 1.542968 1.292969 0 2.332032-.34375 3.117188-1.039062.785156-.691406 1.175781-1.585938 1.175781-2.679688 0-1.347656-.414063-2.289062-1.238281-2.828124-.824219-.539063-1.96875-.804688-3.4375-.804688-.164063 0-.332032 0-.5.003906-.167969.003906-.339844.011719-.511719.019532v-2.171876c.253906.027344.46875.046876.640625.054688.175781.007812.363281.015625.5625.015625.921875 0 1.675781-.148437 2.269531-.4375 1.039063-.511719 1.558594-1.421875 1.558594-2.734375 0-.976562-.347656-1.730469-1.039063-2.257812-.691406-.527344-1.5-.792969-2.421874-.792969-1.640626 0-2.773438.546875-3.402344 1.640625-.347656.601562-.542969 1.457031-.589844 2.570312h-2.429688c0-1.457031.289063-2.699218.875-3.71875 1-1.824218 2.765626-2.734375 5.289063-2.734375 1.996094 0 3.539063.445313 4.632813 1.332031 1.09375.890626 1.640624 2.175782 1.640624 3.863282 0 1.203125-.320312 2.179687-.96875 2.925781-.402343.464844-.921874.828125-1.558593 1.09375 1.03125.28125 1.835937.828125 2.414062 1.632813.578125.808593.867188 1.792968.867188 2.960937 0 1.867187-.613281 3.390625-1.847657 4.566406-1.230468 1.1757815-2.972656 1.761719-5.234374 1.761719-2.316407 0-3.996094-.632812-5.039063-1.90625zm0 0"/>
    </symbol>
    <symbol id="d" overflow="visible">
        <path d="m9.257812-6.929688v-8.875l-6.277343 8.875zm.039063 6.929688v-4.785156h-8.585937v-2.40625l8.96875-12.441406h2.078124v12.703124h2.882813v2.144532h-2.882813v4.785156zm0 0"/>
    </symbol>
    <g transform="translate(0 -.000002)">
        <path d="m40 40h120m-60 0v100m0 0 40 20m-40-20-40 20" style="fill:none;stroke:#b8b8b8;stroke-width:28;stroke-linecap:round;stroke-linejoin:round;stroke-miterlimit:10"/>
        <use height="100%" width="100%" x="53" xlink:href="#a" y="167"/>
        <use height="100%" width="100%" x="153" xlink:href="#b" y="47"/>
        <use height="100%" width="100%" x="133" xlink:href="#c" y="167"/>
        <use height="100%" width="100%" x="33" xlink:href="#d" y="47"/>
        <path d="m100 80v40" fill="none" stroke="#fa0500" stroke-linejoin="bevel" stroke-miterlimit="10" stroke-width="12"/>
        <path d="m100 75-15 15h30z" fill="#fa0500"/>
        <g fill="none" stroke="#51ab1c" stroke-miterlimit="10" stroke-width="3">
            <path d="m131.31185 133.51893c14.70793-4.7789 30.50316 3.26917 35.28205 17.97711 4.77891 14.70794-3.26917 30.50316-17.9771 35.28206-14.70794 4.77889-30.50316-3.26917-35.28206-17.97711s3.26917-30.50316 17.97711-35.28206m33.60291 39.34248-16.60135 3.27474m16.60135-3.27474 5.19173 15.97849"/>
            <path d="m31.408913 13.332514c14.707941-4.7788979 30.50316 3.269172 35.282058 17.977109 4.778899 14.707936-3.269164 30.503158-17.977106 35.282057-14.707941 4.7789-30.50316-3.269169-35.282059-17.977106-4.7788982-14.707937 3.269167-30.503159 17.977107-35.28206m-16.297963 13.916701 16.601353-3.274759m-16.601353 3.274759-5.1917267-15.978492"/>
            <path d="m51.383202 186.61785c-14.707937-4.7789-22.756005-20.57412-17.977106-35.28206 4.778898-14.70794 20.574121-22.756 35.282058-17.97711 14.707937 4.7789 22.756005 20.57413 17.977107 35.28206-4.7789 14.70794-20.574123 22.75601-35.282059 17.97711m-16.297963-13.9167 16.601352 3.27476m-16.601352-3.27476-5.191727 15.97849"/>
            <path d="m151.37451 66.641311c-14.70793-4.778898-22.75601-20.574112-17.9771-35.282058 4.77889-14.707937 20.57412-22.7560051 35.28205-17.977107 14.70795 4.7789 22.75601 20.574121 17.97711 35.282058-4.7789 14.707947-20.57412 22.756007-35.28206 17.977107m33.60292-39.342466-16.60136-3.274748m16.60136 3.274748 5.19172-15.978491"/>
        </g>
    </g>
</svg>
