<svg height="200pt" viewBox="0 0 200 200" width="200pt" xmlns="http://www.w3.org/2000/svg" xmlns:xlink="http://www.w3.org/1999/xlink">
    <symbol id="a" overflow="visible">
        <path d="m2.679688-13.863281v-1.886719c1.777343-.171875 3.015624-.460938 3.71875-.867188.703124-.40625 1.226562-1.367187 1.570312-2.878906h1.945312v19.496094h-2.625v-13.863281zm0 0"/>
    </symbol>
    <symbol id="b" overflow="visible">
        <path d="m1.921875-4.402344c.605469-1.25 1.789063-2.382812 3.546875-3.402344l2.625-1.519531c1.175781-.683593 2-1.265625 2.476562-1.75.746094-.757812 1.117188-1.621093 1.117188-2.597656 0-1.140625-.339844-2.042969-1.023438-2.714844-.683593-.667969-1.59375-1.003906-2.734374-1.003906-1.6875 0-2.851563.636719-3.5 1.914063-.347657.683593-.539063 1.632812-.574219 2.84375h-2.503907c.027344-1.703126.34375-3.09375.945313-4.171876 1.066406-1.894531 2.949219-2.84375 5.648437-2.84375 2.242188 0 3.878907.609376 4.914063 1.820313s1.550781 2.5625 1.550781 4.046875c0 1.566406-.550781 2.90625-1.652344 4.019531-.640624.648438-1.785156 1.429688-3.433593 2.351563l-1.871094 1.039062c-.894531.492188-1.597656.960938-2.109375 1.410156-.910156.792969-1.484375 1.671876-1.71875 2.636719h10.6875v2.324219h-13.4375c.089844-1.6875.441406-3.152344 1.046875-4.402344zm0 0"/>
    </symbol>
    <symbol id="c" overflow="visible">
        <path d="m2.234375-3.703125c.035156.652344.191406 1.179687.460937 1.585937.515626.761719 1.425782 1.140626 2.726563 1.140626.582031 0 1.113281-.082032 1.59375-.25.925781-.324219 1.390625-.902344 1.390625-1.734376 0-.625-.195312-1.070312-.585938-1.335937-.394531-.261719-1.015624-.488281-1.859374-.679687l-1.554688-.351563c-1.015625-.230469-1.734375-.480469-2.15625-.757813-.730469-.480468-1.09375-1.195312-1.09375-2.148437 0-1.03125.355469-1.878906 1.070312-2.539063.714844-.660156 1.722657-.992187 3.03125-.992187 1.203126 0 2.226563.289063 3.066407.871094.839843.582031 1.261719 1.507812 1.261719 2.785156h-1.460938c-.078125-.613281-.246094-1.085937-.5-1.414063-.472656-.597656-1.277344-.898437-2.414062-.898437-.917969 0-1.574219.191406-1.976563.578125s-.601563.832031-.601563 1.34375c0 .5625.234376.972656.703126 1.234375.308593.167969 1.003906.375 2.085937.625l1.609375.367187c.777344.175782 1.375.417969 1.796875.726563.730469.535156 1.09375 1.316406 1.09375 2.335937 0 1.269532-.460937 2.179688-1.386719 2.726563-.925781.546875-2 .820313-3.222656.820313-1.425781 0-2.542969-.3632818-3.351562-1.09375-.808594-.722657-1.203126-1.707032-1.1875-2.945313zm0 0"/>
    </symbol>
    <symbol id="d" overflow="visible">
        <path d="m1.53125-7.921875v-1.078125c1.015625-.097656 1.722656-.265625 2.125-.496094.402344-.230468.699219-.78125.898438-1.644531h1.109374v11.140625h-1.5v-7.921875zm0 0"/>
    </symbol>
    <symbol id="e" overflow="visible">
        <path d="m1.097656-2.515625c.347656-.714844 1.023438-1.363281 2.027344-1.945313l1.5-.867187c.671875-.390625 1.144531-.722656 1.414062-1 .425782-.433594.640626-.925781.640626-1.484375 0-.652344-.195313-1.167969-.585938-1.550781-.390625-.382813-.910156-.574219-1.5625-.574219-.964844 0-1.628906.363281-2 1.09375-.199219.390625-.308594.933594-.328125 1.625h-1.429687c.015624-.972656.195312-1.769531.539062-2.382812.609375-1.082032 1.683594-1.625 3.226562-1.625 1.28125 0 2.21875.347656 2.808594 1.039062s.886719 1.464844.886719 2.3125c0 .894531-.316406 1.660156-.945313 2.296875-.363281.371094-1.019531.816406-1.960937 1.34375l-1.070313.59375c-.511718.28125-.910156.550781-1.203124.804687-.519532.453126-.847657.957032-.984376 1.507813h6.109376v1.328125h-7.679688c.050781-.964844.25-1.800781.597656-2.515625zm0 0"/>
    </symbol>
    <path d="m40 100h120" style="fill:none;stroke:#b8b8b8;stroke-width:28;stroke-linecap:round;stroke-linejoin:round;stroke-miterlimit:10"/>
    <path d="m151.31219 126.6218c-14.70793-4.77889-22.75601-20.57411-17.9771-35.282056 4.77889-14.707937 20.57412-22.756005 35.28205-17.977107 14.70794 4.778898 22.75601 20.574121 17.97711 35.282063-4.7789 14.70794-20.57412 22.756-35.28206 17.9771m33.60292-39.342464-16.60136-3.274748m16.60136 3.274748 5.19172-15.978491" fill="none" stroke="#51ab1c" stroke-miterlimit="10" stroke-width="3"/>
    <use height="100%" width="100%" x="33" xlink:href="#a" y="107"/>
    <path d="m31.382856 73.362637c14.707936-4.778898 30.503159 3.26917 35.282058 17.977107 4.778898 14.707936-3.26917 30.503166-17.977107 35.282056-14.70794 4.7789-30.50316-3.26916-35.282058-17.9771-4.778898-14.707942 3.269166-30.503163 17.977107-35.282063m-16.297964 13.916699 16.601353-3.274758m-16.601353 3.274758-5.191726-15.978491" fill="none" stroke="#51ab1c" stroke-miterlimit="10" stroke-width="3"/>
    <use height="100%" width="100%" x="153" xlink:href="#b" y="107"/>
    <path d="m64 120h28v28h-28zm0 0" fill="none" stroke="#000" stroke-miterlimit="10" stroke-width="3"/>
    <g>
        <use height="100%" width="100%" x="68" xlink:href="#c" y="140"/>
        <use height="100%" width="100%" x="78.671875" xlink:href="#d" y="140"/>
    </g>
    <path d="m108 120h28v28h-28zm0 0" fill="none" stroke="#000" stroke-miterlimit="10" stroke-width="3"/>
    <g>
        <use height="100%" width="100%" x="112" xlink:href="#c" y="140"/>
        <use height="100%" width="100%" x="122.67188" xlink:href="#e" y="140"/>
    </g>
    <path d="m100 70v40" fill="none" stroke="#fa0500" stroke-linejoin="bevel" stroke-miterlimit="10" stroke-width="12"/>
    <path d="m100 65-15 15h30z" fill="#fa0500"/>
</svg>
