<?xml version="1.0" encoding="UTF-8" standalone="no" ?>
<!DOCTYPE svg PUBLIC "-//W3C//DTD SVG 1.1//EN" "http://www.w3.org/Graphics/SVG/1.1/DTD/svg11.dtd">
<svg xmlns="http://www.w3.org/2000/svg" xmlns:xlink="http://www.w3.org/1999/xlink" version="1.1" width="450" height="900" viewBox="0 0 450 900" xml:space="preserve">
<desc>Created with Fabric.js 5.2.4</desc>
<defs>
</defs>
<rect x="0" y="0" width="100%" height="100%" fill="transparent"></rect>
<g transform="matrix(1 0 0 1 225 450)" id="aac0ab0c-0de7-4322-98a6-973221013106"  >
<rect style="stroke: none; stroke-width: 1; stroke-dasharray: none; stroke-linecap: butt; stroke-dashoffset: 0; stroke-linejoin: miter; stroke-miterlimit: 4; fill: rgb(255,255,255); fill-rule: nonzero; opacity: 1; visibility: hidden;" vector-effect="non-scaling-stroke"  x="-225" y="-450" rx="0" ry="0" width="450" height="900" />
</g>
<g transform="matrix(0 0 0 0 0 0)" id="4625b281-81dd-4d6b-8a2e-67794831c758"  >
</g>
<g transform="matrix(9.21 0 0 9.21 224.96 449.89)"  >
<path style="stroke: rgb(21,20,20); stroke-width: 1; stroke-dasharray: none; stroke-linecap: butt; stroke-dashoffset: 0; stroke-linejoin: miter; stroke-miterlimit: 4; fill: rgb(202,202,202); fill-rule: nonzero; opacity: 1;" vector-effect="non-scaling-stroke"  transform=" translate(-49.4, -49.88)" d="M 48.3991241 3.1817861 C 48.3760643 3.1826616 48.3529167 3.1829913 48.3298683 3.1839204 C 48.2997932 3.1851392 48.2697983 3.1879804 48.239730800000004 3.1894145 C 48.1697616 3.1931376 48.099403300000006 3.1950497999999996 48.029617300000005 3.1994667 C 47.966949500000005 3.203439 47.904422800000006 3.2088253 47.8418465 3.2136595 C 47.816658100000005 3.2156119 47.7914505 3.2172951 47.766277300000006 3.2193689 C 47.61308290000001 3.2319796000000003 47.460071600000006 3.247061 47.3072433 3.2639606 C 47.2624244 3.2689630999999997 47.2176589 3.2743694999999997 47.17287820000001 3.2796952999999998 C 47.0676612 3.2920903999999998 46.962589200000004 3.3055225 46.85758580000001 3.3194997999999996 C 46.74645220000001 3.3343794999999994 46.63539880000001 3.3499188999999996 46.52444450000001 3.3661785999999996 C 46.45996850000001 3.3756316999999996 46.39548100000001 3.3849699999999996 46.33108890000001 3.3948269999999994 C 46.28967650000001 3.4011693999999992 46.24809250000001 3.4067710999999994 46.20671450000001 3.4132547999999994 C 46.17842090000001 3.417691799999999 46.15025320000001 3.4228220999999994 46.121967200000014 3.4272925999999995 C 45.879726300000016 3.4654409999999993 45.637748600000016 3.5051781999999996 45.39594260000001 3.5449626999999992 C 44.544010100000015 3.685167399999999 43.69395440000001 3.846661599999999 42.84676730000001 4.0129022999999995 C 42.78292070000001 4.025432199999999 42.71924200000001 4.038998599999999 42.65542590000001 4.0517641 C 42.535514700000014 4.07576 42.41561500000001 4.0998503 42.29587160000001 4.124795499999999 C 42.18429550000001 4.1480841999999996 42.07296740000001 4.1725112 41.96159350000001 4.196735899999999 C 41.90191260000002 4.209716799999999 41.84208670000001 4.2220045 41.78247440000001 4.235288199999999 C 41.757842900000014 4.240775599999999 41.73333730000001 4.246821499999999 41.708713400000015 4.252356099999999 C 41.602989100000016 4.2761363999999995 41.49745930000002 4.3008256 41.39197530000001 4.325643099999999 C 41.29261010000001 4.349073399999999 41.19338980000001 4.373075999999999 41.09428010000001 4.397556299999999 C 40.998653300000015 4.421148299999999 40.90311420000001 4.445056399999999 40.80777730000001 4.469766099999999 C 40.713310100000015 4.4942196999999995 40.61920540000001 4.5200266 40.525039600000014 4.5456050999999995 C 40.44506070000001 4.5673316999999996 40.364643000000015 4.5874293999999995 40.284904400000016 4.6100182 C 40.256229300000015 4.6181377999999995 40.22803490000002 4.6278061 40.199413200000016 4.636087799999999 C 40.119514400000014 4.659214899999999 40.04028690000002 4.6844768 39.96078100000002 4.7088493 C 39.85765830000002 4.740311999999999 39.75430290000002 4.7709869 39.65174860000002 4.804374999999999 C 39.64664450000002 4.8060382 39.64147560000002 4.8074587 39.63637160000002 4.809128599999999 C 39.45433420000002 4.868599699999999 39.273704500000015 4.932211699999999 39.09412760000002 4.998691899999999 C 39.07030100000002 5.007518599999999 39.04683680000002 5.017301399999999 39.023040700000024 5.026242599999999 C 38.86688230000002 5.084831599999999 38.711585900000024 5.1457169999999985 38.557262300000026 5.209039599999999 C 38.481540600000024 5.240198999999999 38.406509300000025 5.272987799999998 38.33123390000003 5.305231499999999 C 38.22601310000003 5.350233999999999 38.12093350000003 5.395566399999999 38.01664340000003 5.442716499999999 C 37.98506150000003 5.456996799999999 37.95287690000003 5.4698699999999985 37.92137900000003 5.484345299999998 C 37.87311160000003 5.506530099999998 37.82561870000003 5.530505999999998 37.77750010000003 5.553047499999998 C 37.726451800000035 5.576935599999998 37.674797000000034 5.599557699999998 37.623970000000035 5.623883599999998 C 37.57285310000004 5.648343899999999 37.52243800000004 5.674305799999998 37.471504200000034 5.699163799999998 C 37.38191220000003 5.7428868999999985 37.29235080000004 5.786690599999998 37.20330810000004 5.831585299999999 C 37.132782000000034 5.867027199999999 37.062721200000034 5.903404599999998 36.992523200000036 5.939539799999999 C 36.589878100000035 6.146830399999999 36.192764300000036 6.3648064999999985 35.801525100000035 6.592140999999999 C 35.757354700000036 6.617658499999999 35.71275710000003 6.6424892999999985 35.668712600000035 6.668195099999999 C 35.65839770000004 6.674214699999999 35.64817810000004 6.680476 35.63786310000003 6.6865084999999995 C 35.62498850000003 6.694096399999999 35.61186590000003 6.701300499999999 35.59900660000003 6.7089089 C 35.46679300000003 6.7871578999999995 35.33413690000003 6.8660468 35.20153800000003 6.9454807 C 35.19628900000003 6.948625 35.19103610000003 6.9517826000000005 35.185783300000026 6.954934 C 34.57936470000003 7.3185614 33.975959700000026 7.7002866999999995 33.435588800000026 8.1522158 C 33.262332900000025 8.297106600000001 33.104858400000026 8.4536789 32.958538000000026 8.6185463 C 32.767387300000024 8.8284157 32.593215900000025 9.054323 32.441341300000026 9.3019836 C 32.297744700000024 9.536124899999999 32.170814400000026 9.7799346 32.05382530000003 10.0287206 C 32.049793200000025 10.037311299999999 32.04548260000003 10.0456941 32.04147710000003 10.0543048 C 32.03593050000003 10.0662152 32.03081880000003 10.0783345 32.02531800000003 10.090265 C 31.95335760000003 10.2463061 31.884191400000027 10.403713 31.819845100000027 10.5631539 C 31.592626500000026 11.1162707 31.403507100000027 11.6865021 31.243616000000028 12.2621133 C 31.23296350000003 12.300429999999999 31.22274390000003 12.338827799999999 31.212354600000026 12.3771846 C 31.199157700000026 12.4258964 31.185462900000026 12.4745214 31.172664600000026 12.5232875 C 31.106588300000027 12.7749612 31.049877100000025 13.0284326 30.999954200000026 13.2830817 C 30.994035700000026 13.312962200000001 30.986637100000028 13.3425395 30.980934100000027 13.372461 C 30.976846700000028 13.393911 30.974086700000026 13.4155375 30.970121300000027 13.4370085 C 30.945741600000026 13.5689455 30.92375170000003 13.701204899999999 30.903646400000028 13.833694099999999 C 30.894739100000027 13.892095199999998 30.88653180000003 13.9505965 30.878377800000028 14.009111999999998 C 30.858503200000026 14.153012899999998 30.83961090000003 14.297042499999998 30.824212900000028 14.441467899999997 C 30.82271180000003 14.455290499999997 30.821580800000028 14.469147299999998 30.820119700000028 14.482976599999997 C 30.79948980000003 14.678195599999997 30.78222070000003 14.873879099999996 30.769037100000027 15.070033699999996 C 30.719180900000026 15.812754299999996 30.714877900000026 16.559674899999997 30.722377600000026 17.303722099999995 C 30.727784900000028 17.839946499999996 30.735837800000027 18.376056399999996 30.742563100000027 18.912273099999993 C 30.750549200000027 19.547067299999995 30.758487600000027 20.181851999999992 30.766445000000026 20.81664629999999 C 30.767413900000026 20.901338299999992 30.768390500000027 20.986051299999993 30.769359400000027 21.07073759999999 C 30.78171520000003 22.14725849999999 30.794069100000026 23.22378709999999 30.806424900000028 24.30030799999999 C 30.819108800000027 25.414560099999992 30.831909000000028 26.52881219999999 30.84470160000003 27.64295169999999 C 30.85595110000003 28.62472129999999 30.86720830000003 29.60648509999999 30.87845980000003 30.58825469999999 C 30.88618270000003 31.26909419999999 30.89401230000003 31.94982509999999 30.90184200000003 32.63066459999999 C 30.90283950000003 32.719367799999986 30.90416520000003 32.80807469999999 30.90540490000003 32.89677789999999 C 30.90397630000003 33.11725209999999 30.90225970000003 33.33773399999999 30.90141850000003 33.558147199999986 C 30.89910300000003 34.166183199999985 30.89689430000003 34.77421549999999 30.89457680000003 35.38225149999999 C 30.89424870000003 35.47756169999999 30.893911100000032 35.57275749999999 30.89347440000003 35.66806769999999 C 30.89346680000003 35.67151239999999 30.89394550000003 35.67610529999999 30.89410570000003 35.679916099999986 C 30.89382340000003 35.72611209999999 30.89352780000003 35.77229659999998 30.893245500000027 35.818492599999985 C 30.893062400000026 35.81901519999998 30.893110100000026 35.81977819999999 30.892921300000026 35.82029699999998 C 30.876487600000026 35.864753499999985 30.800809700000027 35.88780569999998 30.756137700000025 35.913619799999985 C 30.658618800000024 35.96976449999998 30.562318700000024 36.028011099999986 30.466899700000024 36.08779889999999 C 30.424383000000024 36.114433099999985 30.383117500000022 36.14319589999999 30.341083400000024 36.170680799999985 C 30.276819100000022 36.211623899999985 30.213025900000023 36.25354749999998 30.149776300000024 36.296706999999984 C 30.124448600000026 36.31408289999998 30.099428000000024 36.331897599999984 30.074308200000026 36.34957869999998 C 30.035230400000025 36.37700259999998 29.996045900000027 36.40416319999998 29.957364800000025 36.43254839999998 C 29.947448500000025 36.43982679999998 29.937524600000025 36.44755539999998 29.927598700000026 36.45489489999998 C 29.602435800000027 36.69539629999998 29.275510500000024 36.971282799999976 29.030246500000025 37.300285199999976 C 29.016855000000024 37.31824099999998 29.003434900000027 37.33617769999998 28.990556500000025 37.35446149999998 C 28.975616200000026 37.375373699999976 28.960950600000025 37.396484199999975 28.946739000000026 37.41787319999998 C 28.916656300000025 37.46316509999998 28.888343600000027 37.509555599999985 28.861823800000025 37.556972299999984 C 28.860362800000026 37.55960059999998 28.858571800000025 37.56203819999998 28.857124100000025 37.56467039999998 C 28.852376700000026 37.57331449999998 28.848775600000025 37.58292749999998 28.844190400000024 37.591716599999984 C 28.826692400000024 37.62459169999998 28.808944500000024 37.65733319999998 28.793592300000025 37.69139459999998 C 28.788019000000027 37.70376949999998 28.783708400000027 37.71670889999998 28.778423200000024 37.72921349999998 C 28.773185600000023 37.74159979999998 28.768365800000023 37.75415779999998 28.763402800000023 37.76666619999998 C 28.747238000000024 37.80714399999998 28.732829900000024 37.84876989999998 28.719087500000022 37.89078879999998 C 28.711095700000023 37.91596199999998 28.70247070000002 37.940898699999984 28.695455500000023 37.96642279999998 C 28.693664500000022 37.972652199999985 28.692365600000024 37.97909519999998 28.69062800000002 37.985351299999984 C 28.601968700000022 38.304286699999984 28.57899660000002 38.65399139999998 28.62225530000002 38.973880499999986 C 28.63267900000002 39.11297959999999 28.66011430000002 39.29818319999998 28.75747110000002 39.375186699999986 C 28.76786040000002 39.38388419999998 28.778995500000022 39.39165469999999 28.791559200000023 39.39749889999999 C 28.791997900000023 39.39769339999999 28.792373600000023 39.397994799999985 28.792812300000023 39.39818549999999 C 28.80490490000002 39.40349169999999 28.817663100000022 39.40767649999999 28.831539100000022 39.40993479999999 C 28.832138000000022 39.410026399999985 28.832765500000022 39.409972899999985 28.833364400000022 39.410068299999985 C 28.83362000000002 39.410110299999985 28.83380880000002 39.410236099999985 28.83406440000002 39.410278099999985 C 28.83569330000002 39.41051839999999 28.83743660000002 39.41028949999998 28.83907310000002 39.410499399999985 C 28.851085600000022 39.41205579999998 28.86343380000002 39.412154999999984 28.87580100000002 39.41214729999999 C 29.01590530000002 39.412101499999984 29.17631520000002 39.319396799999986 29.29461090000002 39.270072699999986 C 29.81648060000002 39.052715099999986 30.33833110000002 38.83675359999999 30.86212530000002 38.62467549999999 C 30.85651010000002 39.287368499999985 30.85088910000002 39.95007679999999 30.84538070000002 40.61276979999999 C 30.83544910000002 41.78747149999999 30.825525200000023 42.962169399999986 30.815595500000022 44.136760399999986 C 30.81129250000002 44.64297839999998 30.80158410000002 45.14952439999998 30.80346290000002 45.655852999999986 C 30.80374520000002 45.73245979999999 30.80402750000002 45.809066499999986 30.80430980000002 45.885673299999986 C 30.80482290000002 46.17444969999999 30.80637740000002 46.46325659999999 30.80720520000002 46.75201389999999 C 30.80963710000002 47.57526749999999 30.81195260000002 48.39840289999999 30.81437680000002 49.22165649999999 C 30.81669230000002 50.034541799999985 30.819122300000018 50.84742329999999 30.82143970000002 51.66030089999999 C 30.82242960000002 52.00447049999999 30.82110970000002 52.34886139999999 30.824415200000022 52.69303099999999 C 30.825634000000022 52.81629149999999 30.828245200000023 52.93950619999999 30.83035280000002 53.062759099999994 C 30.83102040000002 53.16778529999999 30.83097270000002 53.272822999999995 30.83202940000002 53.37784169999999 C 30.836998000000023 53.86971639999999 30.848026300000022 54.36170549999999 30.85607920000002 54.85358019999999 C 30.87427910000002 55.969047299999986 30.89237030000002 57.084510499999986 30.910568300000023 58.19997379999999 C 30.92921260000002 59.34555409999999 30.947855100000023 60.49113059999999 30.966497500000024 61.63671089999999 C 30.975870200000024 62.21118139999999 30.986993900000023 62.78576259999999 30.994493600000023 63.36035129999999 C 30.999757900000024 64.07926909999999 31.005138500000022 64.79808779999999 31.010402800000023 65.51701329999999 C 31.014152600000024 66.03425569999999 31.01316460000002 66.55106329999998 31.00962840000002 67.06842019999999 C 31.00641640000002 67.53495 30.999469900000022 68.00114419999998 30.99132930000002 68.46739939999999 C 30.980705400000023 68.98397039999999 30.969057200000023 69.5003965 30.94939620000002 70.016815 C 30.90659530000002 71.141548 30.86390310000002 72.2662809 30.82110220000002 73.3910063 C 30.79749690000002 74.0131605 30.77389150000002 74.6352003 30.75414470000002 75.2574766 C 30.73976900000002 75.7106626 30.72570420000002 76.1637419 30.71308710000002 76.61685920000001 C 30.71302030000002 76.6186521 30.71295930000002 76.620445 30.71289260000002 76.6222379 C 30.69888120000002 77.0109708 30.69237720000002 77.3994825 30.68509300000002 77.7884366 C 30.68498430000002 77.7941586 30.68496520000002 77.7998807 30.68485650000002 77.8056027 C 30.68390090000002 77.85346949999999 30.68234450000002 77.9012982 30.68145000000002 77.9491726 C 30.66689310000002 78.7299496 30.65972340000002 79.5112759 30.66479310000002 80.29217489999999 C 30.666685200000018 80.58579209999999 30.670738300000018 80.87930259999999 30.67598350000002 81.1727749 C 30.67705920000002 81.24330099999999 30.677644800000017 81.3138271 30.67880450000002 81.38435329999999 C 30.67953690000002 81.42893949999998 30.68160450000002 81.47352569999998 30.68249330000002 81.51811179999999 C 30.68391430000002 81.58930169999998 30.686573100000018 81.66047629999998 30.68839080000002 81.73167379999998 C 30.694564900000017 81.96270709999999 30.70234110000002 82.19371759999999 30.711458300000018 82.42468989999998 C 30.71646700000002 82.55155909999998 30.72101220000002 82.67842829999998 30.727010800000016 82.80527459999998 C 30.731218400000017 82.89428669999998 30.738020000000017 82.98316159999997 30.743223300000018 83.07213559999998 C 30.743707800000017 83.08039059999999 30.74395000000002 83.08866849999998 30.74444210000002 83.09693109999998 C 30.74518980000002 83.10951199999998 30.74626740000002 83.12209279999998 30.747028500000017 83.13467369999998 C 30.756183800000017 83.28452259999997 30.765907400000017 83.43429529999997 30.777776900000017 83.58396869999999 C 30.790931900000018 83.75438649999998 30.805597500000015 83.92472029999999 30.822044600000016 84.09487109999999 C 30.835994900000017 84.2356868 30.850673900000015 84.37642629999999 30.867094300000016 84.51695969999999 C 30.871868400000015 84.55781509999998 30.876858000000016 84.59863999999999 30.881880100000014 84.63944959999999 C 30.888666400000016 84.69461779999999 30.894584900000016 84.7499003 30.901855800000014 84.8049846 C 30.907822000000014 84.850143 30.915174800000013 84.894958 30.921522500000012 84.9400096 C 30.931305300000012 85.012382 30.939709100000012 85.0849528 30.950170900000014 85.1572108 C 30.952494100000013 85.1732783 30.955322600000013 85.1892543 30.957712600000015 85.2053065 L 30.957457000000016 85.2053065 C 30.957617200000016 85.20580240000001 30.957787000000017 85.2063136 30.957947200000017 85.2068095 C 31.019701400000017 85.6211543 31.10235450000002 86.03153180000001 31.18741650000002 86.44148200000001 C 31.19295160000002 86.4686884 31.19819680000002 86.495872 31.203777700000018 86.5230784 C 31.276882600000018 86.8795924 31.34873620000002 87.2360072 31.414011400000017 87.5937037 C 31.42885060000002 87.6819682 31.44323770000002 87.77026310000001 31.45630690000002 87.85868780000001 C 31.48504300000002 88.11080880000002 31.525438800000018 88.36136570000001 31.57665680000002 88.60977120000001 C 31.59052510000002 88.70445200000002 31.60450980000002 88.79914040000001 31.61803670000002 88.89386700000001 C 31.694542400000017 89.47306010000001 31.75912900000002 90.05483960000001 31.84227990000002 90.63305610000002 C 31.85627220000002 90.74215640000001 31.872490400000018 90.85088290000002 31.890203900000017 90.95928900000001 C 31.891046900000017 90.96459140000002 31.891693500000017 90.96993200000001 31.892548000000016 90.97522680000002 C 31.893583700000015 90.98165080000001 31.895105800000017 90.98792210000002 31.896170100000017 90.99433840000002 C 31.930830400000016 91.19988950000001 31.973705700000018 91.40369360000001 32.03508040000002 91.60289710000002 C 32.11415140000002 91.85945070000002 32.21943330000002 92.10845890000002 32.34098860000002 92.34938760000001 C 32.34832810000002 92.36410470000001 32.355873500000015 92.37870740000001 32.36335420000002 92.39337110000001 C 32.39319660000002 92.4511714 32.42314200000002 92.50876570000001 32.45502900000002 92.56542920000001 C 32.498489800000016 92.64343980000001 32.54354520000002 92.72073320000001 32.590927600000015 92.79691270000001 C 32.59513900000002 92.8036876 32.59893080000001 92.8106609 32.60317280000002 92.81742050000001 C 32.60483600000002 92.82007550000002 32.60668610000002 92.8225627 32.60835700000002 92.8252101 C 32.64724020000002 92.88645120000001 32.68695500000002 92.9470744 32.72794780000002 93.00660660000001 C 32.73310530000002 93.01410630000001 32.738651800000014 93.02126270000001 32.743847500000015 93.02871660000001 C 32.747399000000016 93.0338054 32.75112590000001 93.03872640000002 32.754696500000016 93.0437923 C 33.03994810000002 93.44947010000001 33.384655600000016 93.8047329 33.78991000000001 94.09206350000001 C 33.803257600000016 94.10153160000002 33.81713170000001 94.1101986 33.830578500000016 94.1195217 C 33.83359210000002 94.1216122 33.836689600000014 94.12360340000001 33.839714700000016 94.12568630000001 C 33.90017380000002 94.16787690000001 33.96223900000002 94.20828210000002 34.02521580000002 94.2476651 C 34.03355850000002 94.252876 34.04140160000002 94.2586591 34.04979390000002 94.2638242 C 34.06115790000002 94.2708204 34.072960600000016 94.2770078 34.08437410000002 94.2839277 C 34.14438310000002 94.32029700000001 34.20499100000002 94.3555982 34.26624740000002 94.3896864 C 34.28202880000002 94.3984602 34.29766140000002 94.4074781 34.31353060000002 94.416107 C 34.39037390000002 94.4579542 34.46795720000002 94.49842819999999 34.54648270000002 94.5370253 C 34.54752410000002 94.5375365 34.54852740000002 94.5380934 34.54956500000002 94.5386046 C 34.62313530000002 94.5747145 34.697685900000025 94.6088637 34.772537900000025 94.6423567 C 34.813076700000025 94.66042309999999 34.85389780000003 94.6778334 34.89474550000003 94.6951826 C 34.92733830000003 94.7090681 34.95999210000003 94.7228086 34.99278320000003 94.73626689999999 C 35.04246200000003 94.7565992 35.09224760000003 94.77668739999999 35.14225070000003 94.79605849999999 C 35.16131660000003 94.80345139999999 35.18048540000002 94.81056199999999 35.19960090000003 94.81781749999999 C 35.25424640000003 94.83856949999999 35.30893390000003 94.8591917 35.36382740000003 94.87891369999998 C 35.38254610000003 94.88564279999999 35.40160050000003 94.89135719999999 35.420365000000025 94.89794899999998 C 35.527313900000024 94.93565349999999 35.63467850000003 94.97215249999998 35.74269930000003 95.00644659999999 C 35.76275700000003 95.01281709999999 35.78278030000003 95.01928689999998 35.802857100000026 95.02555819999999 C 35.91903750000002 95.0617978 36.035450600000026 95.09699219999999 36.152096400000026 95.130203 C 36.155281700000025 95.1311109 36.158486000000025 95.13191959999999 36.16167130000002 95.1328199 C 36.308582900000026 95.1745908 36.45610490000002 95.2143476 36.603768000000024 95.2536161 C 37.18310990000003 95.4076612 37.767540600000025 95.5439832 38.35401210000003 95.6668623 C 38.43206840000003 95.6832121 38.510578700000025 95.6975554 38.58876860000003 95.7133482 C 38.65477810000003 95.726898 38.72069610000003 95.7408293 38.78677430000003 95.7541197 C 38.909897500000035 95.7788847 39.033238100000034 95.80251290000001 39.15664350000003 95.8257902 C 39.19512240000003 95.833061 39.23360120000003 95.8402784 39.27210290000003 95.8474272 C 39.57935770000003 95.9044569 39.887264800000025 95.9577788 40.19588520000003 96.0065306 C 40.19591950000003 96.00667560000001 40.19594620000003 96.0068129 40.19598060000003 96.00695780000001 L 40.195965300000026 96.00654580000001 C 40.25798080000003 96.01634190000001 40.320057400000024 96.02558880000001 40.38212250000002 96.03501870000001 C 40.42775770000002 96.0420835 40.47333190000002 96.0495451 40.51898620000002 96.05648020000001 C 40.53066680000002 96.0582502 40.54241610000002 96.05955480000002 40.55410050000002 96.0613172 C 40.581573900000016 96.0653379 40.60897110000002 96.0699689 40.63645600000002 96.0739133 C 40.77887010000002 96.0943601 40.92141010000002 96.1128842 41.063942400000016 96.1315381 C 41.45136690000002 96.1833798 41.839394100000014 96.2308881 42.22825670000002 96.2699353 C 42.47129870000002 96.2943494 42.71465730000002 96.3155667 42.95810750000002 96.3357465 C 42.97160770000002 96.3369291 42.98504690000002 96.33847779999999 42.99854710000002 96.3396527 C 43.08962300000002 96.347572 43.18080950000002 96.35423250000001 43.271938800000015 96.3615185 C 43.47897000000002 96.37765470000001 43.68605090000001 96.393066 43.89322710000002 96.4068753 C 43.92123460000002 96.4087369 43.949219200000016 96.41117829999999 43.97723440000002 96.4130093 C 43.99029970000002 96.4138638 44.003391800000024 96.4143444 44.016457100000025 96.4151837 C 44.302914200000025 96.4336163 44.589512400000025 96.4490048 44.87617540000002 96.4630276 C 44.941505900000024 96.4662319 45.00684020000002 96.4694973 45.072174500000024 96.47253380000001 C 45.11192750000002 96.4743725 45.15166900000003 96.4765316 45.19142190000002 96.47831690000001 C 45.22457920000002 96.47980460000001 45.25773280000002 96.48098720000002 45.29089390000002 96.4824597 C 45.49195510000002 96.4915921 45.69300500000002 96.5008389 45.89410820000002 96.5098645 C 46.41113700000002 96.5330273 46.92860450000002 96.5490262 47.445961400000016 96.561813 C 47.46613350000002 96.5623165 47.48629800000002 96.562759 47.506470100000016 96.5632626 C 47.507553500000014 96.5632931 47.508629200000016 96.5633389 47.509716400000016 96.5633618 C 47.520718000000016 96.5636365 47.53171190000002 96.5638577 47.54271350000002 96.5641247 C 48.15644490000002 96.57945219999999 48.77018390000002 96.59577139999999 49.38412510000002 96.5974423 C 49.97842060000002 96.5991894 50.57304420000002 96.5810925 51.16703830000002 96.5663144 C 51.17263450000002 96.56616939999999 51.178226800000026 96.5660321 51.183823000000025 96.56588719999999 C 51.186550500000024 96.56581849999999 51.189281800000025 96.56574989999999 51.192009300000024 96.56568119999999 C 51.71521790000002 96.55266549999999 52.23897590000002 96.53953529999998 52.761848800000024 96.51603669999999 C 52.88138230000003 96.51068089999998 53.00085480000003 96.50492069999999 53.12036930000002 96.49949619999998 C 53.64185750000002 96.47717259999999 54.16321600000002 96.45159119999998 54.68423110000002 96.42073029999999 C 54.68701200000002 96.42057009999999 54.68979670000002 96.42034879999999 54.69257770000002 96.42018099999999 C 54.705715500000025 96.41941809999999 54.71886480000002 96.41885349999998 54.73199880000002 96.41808289999999 C 54.76985200000002 96.41583989999998 54.80768240000002 96.41255159999999 54.84553560000002 96.41020169999999 C 55.04607800000002 96.39775819999998 55.24659000000002 96.38380399999998 55.44704090000002 96.36846129999999 C 55.51585040000002 96.3632428 55.58465990000002 96.3579709 55.65345040000002 96.3524319 C 55.89622920000002 96.3327175 56.13890110000002 96.3116986 56.38116110000002 96.28834499999999 C 56.38446080000002 96.28803219999999 56.38777580000002 96.28778809999999 56.39107170000002 96.28747519999999 C 56.40298500000002 96.28632319999998 56.414852500000016 96.28476679999999 56.42676580000002 96.28360709999998 C 56.59383810000002 96.26713519999998 56.76083410000002 96.25003009999999 56.92762030000002 96.23155169999998 C 57.00342600000002 96.22315169999999 57.07913630000002 96.21355399999999 57.15490760000002 96.20471909999998 C 57.22512470000002 96.19653279999997 57.295341900000025 96.18843799999998 57.365517000000025 96.17985489999998 C 57.629635200000024 96.14739949999998 57.893494000000025 96.11270099999999 58.156822500000025 96.07410389999998 C 58.163063300000026 96.07318839999998 58.16933090000003 96.07250939999999 58.17557560000002 96.07159379999999 C 58.25606570000002 96.05975299999999 58.336510000000025 96.04717969999999 58.41698110000002 96.03488119999999 C 58.47721140000002 96.02568779999999 58.53741110000002 96.01629599999998 58.59762230000002 96.00687369999999 L 58.59762230000002 96.00695759999999 C 58.59762990000002 96.0069271 58.59763760000002 96.0069042 58.59764140000002 96.00687369999999 C 58.61873670000002 96.00357779999999 58.639843400000025 96.00041159999999 58.66093100000002 95.99705469999999 C 59.06038320000002 95.9334942 59.45911830000002 95.8638302 59.855499600000016 95.7846752 C 60.43871340000002 95.66818959999999 61.021595300000016 95.54750779999999 61.598740000000014 95.403442 C 61.61451760000001 95.3995052 61.63027990000001 95.395454 61.64605370000001 95.3915173 C 62.19022410000001 95.2592465 62.73433720000001 95.1173397 63.26438560000001 94.93593560000001 C 63.27864110000001 94.93108330000001 63.29311790000001 94.92694820000001 63.30735050000001 94.9220425 C 63.324066500000015 94.9162747 63.34067570000001 94.9100415 63.357376400000014 94.9041821 C 63.37983350000001 94.8963009 63.40222960000001 94.8881985 63.42464860000001 94.8801648 C 63.49975240000001 94.8531033 63.57464250000001 94.82544680000001 63.64906340000001 94.79653900000001 C 63.65262250000001 94.79515810000001 63.65623880000001 94.7939221 63.65979410000001 94.79254120000002 C 63.66126280000001 94.79196140000002 63.662708500000015 94.79132050000001 63.66417720000001 94.79074830000002 C 63.91347910000001 94.69366430000002 64.1584552 94.58476990000001 64.3953402 94.46078460000003 C 64.4000857 94.45829740000002 64.4048006 94.45576450000003 64.4095461 94.45326960000003 C 64.4832918 94.41442840000003 64.5561525 94.37401540000003 64.6280748 94.33206900000003 C 64.63382739999999 94.32871970000004 64.6396257 94.32544670000003 64.64536299999999 94.32207450000003 C 64.72858439999999 94.27312430000003 64.81098949999999 94.22280080000003 64.89141099999999 94.16928820000003 C 64.95581069999999 94.12642630000002 65.01843279999999 94.08143570000003 65.08015459999999 94.03538470000002 C 65.09369679999999 94.02529100000002 65.10691089999999 94.01481590000002 65.12032339999999 94.00456190000003 C 65.16357439999999 93.97181650000003 65.20582599999999 93.93774370000003 65.24784869999999 93.90337320000003 C 65.2804415 93.87643380000003 65.31314869999999 93.84961650000004 65.34488699999999 93.82174630000003 C 65.35330989999999 93.81441450000003 65.36137409999999 93.80664010000002 65.36973589999998 93.79923960000004 C 65.41534439999998 93.75889540000003 65.46135729999997 93.71906230000003 65.50518819999998 93.67652840000004 C 65.59188859999998 93.59238380000004 65.67373679999997 93.50298260000004 65.75330369999998 93.41136120000004 C 65.75471509999997 93.40974380000004 65.75609609999998 93.40810340000004 65.75749989999997 93.40647840000004 C 65.80812859999997 93.34805250000004 65.85675829999997 93.28772690000004 65.90438859999998 93.22647810000004 C 65.92356889999998 93.20191910000004 65.94216169999997 93.17692520000004 65.96086899999997 93.15196180000004 C 65.97199269999997 93.13700820000004 65.98368089999997 93.12255050000003 65.99462909999997 93.10743670000004 C 66.00154129999997 93.09790000000004 66.00761429999997 93.08771470000003 66.01446549999997 93.07813220000004 C 66.07241839999998 92.99768020000005 66.12811299999997 92.91563370000004 66.18123639999997 92.83177140000004 C 66.18399059999997 92.82743030000003 66.18685929999998 92.82318070000004 66.18960579999998 92.81883190000003 C 66.24977879999999 92.72318980000003 66.30795299999998 92.62628890000003 66.36180119999999 92.52703040000003 C 66.37863159999999 92.49600930000003 66.3963776 92.46544590000003 66.41258239999999 92.43413490000003 C 66.41637419999999 92.42691750000003 66.4198074 92.41952460000003 66.42356869999999 92.41228430000004 C 66.53964989999999 92.18846840000003 66.64015959999999 91.95670260000004 66.72103119999998 91.71927590000004 C 66.82951359999998 91.40080970000004 66.88875579999998 91.07208960000004 66.93440249999999 90.74073740000004 C 66.96775819999999 90.51166480000005 66.99465179999999 90.28120370000005 67.02163699999998 90.05093330000004 C 67.08185579999999 89.56931250000004 67.14679719999998 89.08852330000003 67.21724699999999 88.60828350000004 C 67.21750639999999 88.60703990000005 67.21768189999999 88.60578110000004 67.21793359999998 88.60452980000004 C 67.24197379999998 88.47354070000004 67.26850119999997 88.34299420000004 67.28990169999999 88.21135660000003 C 67.29149619999998 88.20154520000003 67.29369349999999 88.19187110000003 67.29520409999999 88.18204450000003 C 67.2996139 88.15341900000003 67.302803 88.12470200000003 67.30677789999999 88.09603830000003 C 67.31414789999998 88.04278510000003 67.32151029999999 87.98953200000003 67.32826989999998 87.93624060000003 C 67.33828729999998 87.85729160000004 67.35037989999998 87.77856390000004 67.36217489999999 87.69982090000003 C 67.41976919999999 87.37428230000003 67.48204789999998 87.04966680000004 67.54858389999998 86.72538700000004 C 67.58866869999999 86.52988380000004 67.62830339999998 86.33454840000005 67.66708369999998 86.13911380000005 C 67.69860069999997 85.98031560000004 67.72861479999997 85.82127320000005 67.75740049999997 85.66201720000005 C 67.77381129999998 85.57116640000005 67.79072569999997 85.48041470000005 67.80555719999998 85.38925870000006 C 67.80918119999998 85.36700380000006 67.81379689999999 85.34494720000005 67.81731409999998 85.32267700000006 C 67.82287589999997 85.28742160000006 67.82707969999997 85.25195250000006 67.83245079999998 85.21666660000005 C 67.83371729999998 85.21279850000005 67.83500659999997 85.20895330000005 67.83627309999997 85.20508520000006 L 67.83410639999997 85.20508520000006 C 67.83635709999997 85.19017740000005 67.83827199999996 85.17522370000006 67.84049219999997 85.16030830000005 C 67.84985349999997 85.09818210000006 67.86042019999996 85.03631540000005 67.86892699999997 84.97398320000005 C 67.87413789999997 84.93577520000005 67.87846369999997 84.89745270000004 67.88348389999997 84.85922180000004 C 67.89330289999997 84.78435460000004 67.90290069999998 84.70945680000004 67.91198729999998 84.63449800000004 C 67.92223359999998 84.55055180000004 67.93167879999997 84.46650640000004 67.94092559999997 84.38243810000003 C 67.95003509999997 84.29991090000003 67.95947269999998 84.21742190000003 67.96772769999997 84.13480320000004 C 67.98356629999996 83.97483010000003 67.99822239999997 83.81474250000004 68.01090239999996 83.65450230000003 C 68.01299289999996 83.62843270000003 68.01459499999996 83.60231720000003 68.01660919999996 83.57623230000003 C 68.02490239999996 83.46874940000004 68.03319549999996 83.36125890000002 68.04013059999997 83.25368440000003 C 68.04228209999997 83.22027530000003 68.04327389999997 83.18678990000002 68.04532619999996 83.15336550000002 C 68.04696649999997 83.12631170000002 68.04927059999996 83.09928070000002 68.05084229999996 83.07221930000001 C 68.06267549999995 82.86791940000002 68.07263189999996 82.66351260000002 68.08132939999996 82.45904490000001 C 68.08591469999996 82.35123390000001 68.08943179999996 82.24336950000001 68.09323889999996 82.13552810000002 C 68.09863289999996 81.98175770000002 68.10350039999996 81.82797960000002 68.10746769999996 81.67418620000002 C 68.10913849999996 81.60907690000002 68.11203009999996 81.54399820000002 68.11348729999996 81.47888900000002 C 68.11444859999996 81.43577530000002 68.11474619999996 81.39261580000003 68.11563879999996 81.34949450000002 C 68.11669169999996 81.29876670000002 68.11722569999996 81.24800830000002 68.11817179999996 81.19727280000002 C 68.12081919999996 81.04824020000002 68.12339789999996 80.89920760000003 68.12507639999995 80.75017500000003 C 68.12528239999996 80.73228410000003 68.12512979999995 80.71438550000002 68.12531289999995 80.69649460000002 C 68.12878429999995 80.40897320000002 68.13093579999996 80.12145950000003 68.12925729999995 79.83404500000002 C 68.12922679999996 79.82837640000001 68.12918859999995 79.82270010000002 68.12915809999996 79.81703150000001 C 68.12745669999995 79.5175396 68.12596139999995 79.21807830000002 68.12361149999995 78.9186245 C 68.12235259999996 78.765617 68.12287909999995 78.61252560000001 68.12077339999995 78.45956380000001 C 68.11898049999995 78.32662920000001 68.11563879999994 78.19374810000001 68.11335759999994 78.06082880000001 C 68.11295319999995 78.03753630000001 68.11293039999994 78.01425900000001 68.11249549999994 77.9909664 C 68.10455329999994 77.56262930000001 68.09937289999993 77.1342922 68.08392339999993 76.7061764 C 68.08191689999994 76.6505734 68.07991029999994 76.59496270000001 68.07790379999993 76.5393597 C 68.07446289999993 76.4221493 68.07188419999993 76.3049313 68.06816109999993 76.1877133 C 68.04719549999993 75.52860989999999 68.02777869999993 74.8693921 68.00273899999992 74.21028869999999 C 67.96303559999993 73.16641209999999 67.92343139999991 72.12253539999999 67.88372039999992 71.07866639999999 C 67.87532039999992 70.85742919999998 67.86602019999992 70.63616149999999 67.85680389999992 70.41487089999998 C 67.85235599999992 70.29156459999999 67.84790799999992 70.16825839999998 67.84345249999991 70.04494439999998 C 67.83242039999992 69.73673209999998 67.82017519999991 69.42863429999997 67.81410979999991 69.12020839999998 C 67.81368259999991 69.09862479999998 67.81332399999991 69.07705649999998 67.81289669999991 69.05547299999998 C 67.79862209999992 68.31072969999998 67.7889632999999 67.56638299999997 67.78293609999992 66.82155579999998 C 67.78077699999992 66.44416019999998 67.77934269999992 66.06683319999999 67.78211209999992 65.68942229999999 C 67.78651429999992 65.0859448 67.79098509999992 64.482536 67.79542539999991 63.87908519999999 C 67.79799649999991 63.561759599999995 67.80057519999991 63.24449119999999 67.80551149999991 62.92710459999999 C 67.8060149999999 62.89658699999999 67.80630499999991 62.866057999999995 67.8068084999999 62.83554039999999 C 67.8198241999999 62.02233089999999 67.8328552999999 61.20913279999999 67.8457641999999 60.39593469999999 C 67.8526458999999 59.96639599999999 67.8595046999999 59.53692209999999 67.86637879999991 59.10741389999999 C 67.87005619999991 58.87792549999999 67.87374119999991 58.64844099999999 67.8774261999999 58.41894119999999 C 67.8914260999999 57.545825699999995 67.90544129999991 56.67260709999999 67.9194488999999 55.79949159999999 C 67.93007659999991 55.13338439999999 67.94079589999991 54.467181899999986 67.95143129999991 53.80106329999999 C 67.9538039999999 53.66257449999999 67.95629119999991 53.52407429999999 67.9587859999999 53.38556649999999 C 67.9595412999999 53.38308689999999 67.9603881999999 53.38087819999999 67.9611434999999 53.37838719999999 L 67.9589004999999 53.37944389999999 C 67.9621505999999 53.19881039999999 67.9646682999999 53.01816159999999 67.9668579999999 52.837505099999994 C 67.9674530999999 52.79320119999999 67.9684906999999 52.7489126 67.96898659999991 52.704612499999996 C 67.97116859999991 52.5122831 67.9714126999999 52.319957499999994 67.9715042999999 52.1276357 C 67.97288519999991 51.7305448 67.9735794999999 51.3334348 67.9743805999999 50.9363324 C 67.9758606999999 50.434337299999996 67.9773254999999 49.9323499 67.9787979999999 49.4303624 C 67.9809112999999 48.7012936 67.9830246999999 47.9722211 67.9851303999999 47.2431485 C 67.9854431999999 47.1337468 67.9857635999999 47.0243451 67.9860763999999 46.9149434 C 67.9872131999999 46.5084073 67.98982239999991 46.1017644 67.9895782999999 45.6951177 C 67.9895629999999 45.6665876 67.9898834999999 45.638057499999995 67.9898300999999 45.609523499999995 C 67.98956309999991 45.41881529999999 67.98778539999991 45.228069 67.9858017999999 45.03732649999999 C 67.98257459999991 44.63523449999999 67.97861489999991 44.23314249999999 67.9749832999999 43.83106199999999 C 67.97048959999991 43.297843599999986 67.9660034999999 42.76462139999999 67.96147929999991 42.23136109999999 C 67.95452129999991 41.407004999999984 67.9475708999999 40.58276339999998 67.9406281999999 39.758403499999986 C 67.9374314999999 39.38040129999999 67.93423479999991 39.002509799999984 67.93104569999991 38.62450759999999 C 68.40988179999991 38.81837809999999 68.88719189999992 39.01548359999999 69.36419689999991 39.21412249999999 C 69.41428389999992 39.23547339999999 69.46450819999991 39.25621009999999 69.51483169999992 39.27705359999999 C 69.63266769999991 39.32820489999999 69.78689589999992 39.41376469999999 69.92202769999992 39.41196039999999 C 69.92786419999992 39.41188029999999 69.93363959999992 39.41160179999999 69.93939979999992 39.41117839999999 C 69.94606789999992 39.41069389999999 69.95298779999992 39.41125469999999 69.95953379999992 39.41027809999999 C 69.96570599999991 39.409362599999994 69.97076429999991 39.40683719999999 69.97650919999992 39.405299899999996 C 69.98084269999993 39.40417839999999 69.98553479999993 39.40469339999999 69.98977669999992 39.4032018 C 69.99304209999993 39.4020498 69.99580389999993 39.400062299999995 69.99896249999992 39.3987233 C 70.00070199999992 39.3979832 70.00231939999992 39.3970448 70.00402079999992 39.3962514 C 70.01650249999992 39.390205099999996 70.02753459999992 39.3822286 70.03784949999992 39.373348 C 70.14197549999992 39.2904775 70.16890719999992 39.0882261 70.17668919999993 38.9298284 C 70.21631629999993 38.5868986 70.18132019999993 38.213592299999995 70.07164009999993 37.8827169 C 70.06397259999993 37.8596151 70.05561069999993 37.8369711 70.04721839999992 37.8143232 C 70.03739939999993 37.787177799999995 70.02816779999992 37.759826399999994 70.01706699999993 37.733157899999995 C 69.99682619999993 37.684501399999995 69.97460179999993 37.636607899999994 69.94984439999993 37.58979779999999 C 69.94725039999993 37.58488069999999 69.94420629999993 37.58019999999999 69.94156649999994 37.57530199999999 C 69.93972019999994 37.57188779999999 69.93834689999994 37.56806929999999 69.93648529999993 37.56467039999999 C 69.93176269999994 37.55607969999999 69.92599489999994 37.54808029999999 69.92115019999993 37.53955439999999 C 69.89403529999993 37.49179819999999 69.86592859999993 37.44460279999999 69.83528899999993 37.398906499999995 C 69.83435059999994 37.397487399999996 69.83341979999993 37.396053099999996 69.83248139999993 37.394630199999995 C 69.79607389999994 37.34059119999999 69.75684359999994 37.2883108 69.71614839999994 37.237014499999994 C 69.32487489999994 36.732898399999996 68.74793249999993 36.3442647 68.22281649999994 36.023601299999996 C 68.13346869999994 35.968997699999996 68.04312139999993 35.915935299999994 67.95167539999994 35.865081599999996 C 67.89616389999995 35.834132999999994 67.90289309999994 35.8401449 67.90026849999994 35.7870024 C 67.89940639999993 35.6480482 67.89853659999994 35.5090979 67.89766689999993 35.3701437 C 67.89801019999993 35.3379133 67.89839169999993 35.3056791 67.89828489999994 35.2735975 C 67.89596559999994 34.6517713 67.89364619999994 34.0298383 67.89133449999994 33.4080198 C 67.89071649999994 33.238895199999995 67.88961029999994 33.0697401 67.88857269999994 32.9005888 C 67.88948059999994 32.827079600000005 67.89035799999994 32.7535704 67.89120479999994 32.6800688 C 67.89881129999993 32.0160025 67.90642539999995 31.352035400000002 67.91403959999994 30.6880758 C 67.92517089999994 29.7149103 67.93631739999994 28.7417524 67.94745629999994 27.7685869 C 67.96025079999994 26.6563204 67.97293849999994 25.5441683 67.98573299999994 24.431901699999997 C 67.99820709999995 23.3474348 68.01055899999994 22.2629697 68.02301789999994 21.178502799999997 C 68.02569579999994 20.944961299999996 68.02836609999994 20.711404599999998 68.03104399999994 20.477849699999997 C 68.03800959999994 19.922605299999997 68.04497529999993 19.367360799999997 68.05194849999994 18.812116399999997 C 68.05834189999993 18.3046892 68.06661979999994 17.797145599999997 68.07102959999993 17.289710799999998 C 68.07296749999993 17.066881 68.07310479999992 16.843971099999997 68.07187649999993 16.6210459 C 68.07199859999993 16.6212214 68.07211299999993 16.6213892 68.07223509999993 16.621564699999997 L 68.07187649999993 16.621005799999995 C 68.07166289999994 16.581664799999995 68.07083889999993 16.542339099999996 68.07049559999993 16.502998099999996 C 68.06961059999993 16.401319299999997 68.06874849999993 16.299640399999994 68.06694789999993 16.197967299999995 C 68.06540679999993 16.109658999999994 68.06277459999993 16.021390699999994 68.06037899999993 15.933103299999996 C 68.05789179999992 15.841698399999995 68.05699919999992 15.750225799999996 68.05357359999992 15.658875199999995 C 68.05164339999992 15.607267099999996 68.04767609999992 15.555815399999995 68.04534909999992 15.504234999999996 C 68.03848259999992 15.344235199999996 68.03022759999992 15.184302999999996 68.01981349999993 15.024485299999997 C 68.01784509999993 14.994349199999997 68.01686859999992 14.964152999999996 68.01477049999993 14.934023599999996 C 67.99609369999993 14.666076399999996 67.96821589999993 14.399105799999996 67.93321989999993 14.133150799999996 C 67.92636109999992 14.081012499999996 67.92009729999992 14.028798799999995 67.91261289999993 13.976753899999995 C 67.91186519999992 13.971374199999994 67.91099549999993 13.966021199999995 67.91023249999992 13.960642499999995 C 67.89317319999992 13.842985799999996 67.87393949999992 13.725679099999995 67.85365289999991 13.608541199999996 C 67.84594719999991 13.563134899999996 67.84004209999992 13.517512999999996 67.83174129999992 13.472180999999996 C 67.82552329999992 13.438253999999995 67.81735229999992 13.404744799999996 67.81085959999992 13.370878899999996 C 67.78633109999991 13.243055099999996 67.76043689999992 13.115528799999996 67.73204029999991 12.988547099999996 C 67.7209013999999 12.938238899999996 67.7088697999999 12.888120399999996 67.6971433999999 12.837926599999996 C 67.6622617999999 12.688571699999995 67.6257398999999 12.539560099999996 67.5857694999999 12.391357199999996 C 67.4216611999999 11.782626899999997 67.2254484999999 11.177108499999996 66.9861142999999 10.591303599999996 C 66.9824216999999 10.582268499999996 66.9790189999999 10.573104599999997 66.9753110999999 10.564082899999995 C 66.9735562999999 10.559739899999995 66.9716565999999 10.555457899999995 66.9698941999999 10.551122499999995 C 66.8054654999999 10.145777499999994 66.6187283999999 9.749320799999994 66.39593479999989 9.374126299999995 C 66.2122875999999 9.064900299999994 65.9969250999999 8.786813599999995 65.7550808999999 8.532830099999995 C 65.7186199999999 8.494540099999995 65.6818386999999 8.456539999999995 65.6441570999999 8.419361899999995 C 65.6317211999999 8.406905999999994 65.6191021999999 8.394591199999995 65.6065059999999 8.382256299999995 C 65.5036464999999 8.281526399999995 65.3972545999999 8.183408499999995 65.2830272999999 8.090993699999995 C 64.61520349999991 7.550581799999995 63.8653140999999 7.100181399999995 63.1247936999999 6.667979999999995 C 63.0892368999999 6.647228999999995 63.0531040999999 6.627360599999995 63.0174671999999 6.606724499999995 C 62.874816599999896 6.524132499999995 62.7318569999999 6.441998699999995 62.5878750999999 6.361534399999995 C 62.5504833999999 6.340676099999994 62.5128475999999 6.320248399999994 62.4753491999999 6.299565099999994 C 62.348899599999896 6.229610699999994 62.221736699999894 6.160922299999994 62.0941922999999 6.092940599999994 C 62.0069348999999 6.046639199999994 61.9194943999999 6.000714099999994 61.8317448999999 5.955388799999994 C 61.7527195999999 5.914432799999994 61.6733090999999 5.874278299999994 61.593845099999896 5.834217799999994 C 61.4956814999999 5.784751699999994 61.397430199999896 5.735467199999994 61.298705799999894 5.687246599999994 C 61.27711459999989 5.676702799999994 61.255775199999896 5.665586699999993 61.23415729999989 5.6551039999999935 C 61.13880129999989 5.608842699999993 61.042205499999895 5.565166299999993 60.946044699999895 5.520561499999993 C 60.89582419999989 5.497299499999993 60.846317099999894 5.472441499999993 60.795909699999896 5.449597199999993 C 60.7885167999999 5.446244099999993 60.780963699999894 5.443349199999993 60.7735631999999 5.440009399999993 C 60.6293866999999 5.374976899999993 60.4841115999999 5.312422099999993 60.338229899999895 5.251308199999993 C 60.3370511999999 5.250816599999993 60.3358685999999 5.2503520999999935 60.334689899999894 5.249860499999993 C 59.971721499999894 5.097893499999993 59.60377859999989 4.957863499999993 59.23057539999989 4.8330637999999935 C 59.154113599999896 4.807492499999993 59.07678589999989 4.784950499999994 58.99996169999989 4.760625099999993 C 58.98702219999989 4.756524799999993 58.974063699999896 4.752484999999993 58.96111659999989 4.748418099999993 C 58.806224599999894 4.699234699999993 58.65011959999989 4.653518899999993 58.49377419999989 4.608469299999993 C 58.4510193 4.5961552 58.4088326 4.5822182 58.3659782 4.5702 C 58.305046 4.5531187 58.2434806 4.5380373 58.1823806 4.5214744 C 58.1568374 4.5145531 58.1312026 4.5079413 58.1056327 4.5011076999999995 C 57.495201 4.3379506999999995 56.8773803 4.198930699999999 56.2575606 4.075201 C 56.144725699999995 4.0526732999999995 56.031955599999996 4.029458 55.9190596 4.0078325 C 55.8822516 4.0007829 55.845374899999996 3.9939425 55.8085593 3.9868998 C 55.4999007 3.9267957 55.191017 3.8679373000000004 54.8821143 3.8102636000000003 C 54.8358992 3.8016321000000004 54.7895316 3.793674 54.7433013 3.7850964000000005 C 54.6067275 3.7596664000000004 54.4700622 3.7347953000000005 54.3333854 3.7099309000000007 C 54.3333587 3.709843400000001 54.333354899999996 3.7097557000000005 54.3333282 3.7096682000000007 L 54.3333473 3.7099173000000008 C 54.175239499999996 3.681154700000001 54.0171318 3.652486100000001 53.8588562 3.624726800000001 C 53.7845306 3.611692000000001 53.7100945 3.5994113000000008 53.6357231 3.586639000000001 C 53.5058784 3.564333000000001 53.3761062 3.5415357000000007 53.2461128 3.520145500000001 C 53.1145859 3.498499200000001 52.983001699999996 3.477189900000001 52.8513794 3.456156600000001 C 52.8022919 3.4483195000000006 52.7533569 3.4393781000000008 52.704246499999996 3.4316758000000007 C 52.64783859999999 3.4228357000000007 52.591167399999996 3.4155372000000006 52.534706099999994 3.4070202000000007 C 52.35721589999999 3.3799070000000007 52.1796112 3.3536018000000007 52.001743299999994 3.3295118000000006 C 51.945945699999996 3.3219506000000005 51.8900909 3.3147937000000005 51.834243799999996 3.3076233000000004 C 51.713955 3.2921781000000006 51.5935364 3.2778572000000006 51.472999599999994 3.2645127000000005 C 51.382190699999995 3.2544741000000004 51.29133229999999 3.2449338000000005 51.200386099999996 3.2363290000000005 C 51.1361619 3.2302157000000005 51.071914699999994 3.2243177000000003 51.007595099999996 3.2189786000000002 C 50.87969209999999 3.2083542 50.7516556 3.1988475000000003 50.623359699999995 3.1916365000000004 C 50.60866169999999 3.1908082000000006 50.593822499999995 3.1905996000000005 50.579116799999994 3.1898052000000003 C 50.56486509999999 3.1890780000000003 50.5506706 3.1875765000000005 50.536418899999994 3.1868965000000005 C 50.47471999999999 3.1839475000000004 50.4127769 3.1827828000000005 50.350997899999996 3.1803591000000004 C 49.7023277 3.151973 49.0482292 3.1521549 48.3991241 3.1817861 z M 56.0074272 26.5279846 C 56.023098000000005 26.5321064 56.038696300000005 26.5364685 56.0543518 26.540636 C 56.1895447 26.5765361 56.3243179 26.6139697 56.4587326 26.6527042 C 56.470580999999996 26.6561184 56.4824371 26.6595306 56.494281799999996 26.662965699999997 C 56.782661499999996 26.746702099999997 57.0693741 26.836282699999998 57.3549004 26.929551999999997 C 57.812183399999995 27.079843399999998 58.264778199999995 27.242393399999997 58.7155953 27.410722699999997 C 58.7959252 27.441080099999997 58.876003299999994 27.472038199999997 58.9561272 27.502921999999998 C 59.0618592 27.5433654 59.1674157 27.584247499999996 59.2727127 27.6259651 C 59.3695297 27.664321899999997 59.466114 27.702960899999997 59.5625343 27.742328599999997 C 59.825336400000005 27.848962699999998 60.086631700000005 27.959401999999997 60.3463325 28.073442399999998 C 60.3774299 28.0870838 60.4085693 28.100595399999996 60.4396209 28.1143379 C 60.5156097 28.148035 60.5913848 28.182170799999998 60.6670493 28.2165622 C 60.7358588 28.2477493 60.8044661 28.279380699999997 60.873001 28.311185799999997 C 60.926326700000004 28.335935599999996 60.979637000000004 28.360706299999997 61.032772 28.385866099999998 C 61.127201 28.4305858 61.221168500000005 28.4762687 61.3149261 28.522422699999996 C 61.351947700000004 28.540628299999998 61.3891944 28.558355199999998 61.426116900000004 28.576783999999996 C 61.544616700000006 28.635925199999996 61.662387800000005 28.696513999999997 61.779685900000004 28.758024099999997 C 61.83715050000001 28.788154499999997 61.894130600000004 28.819179399999996 61.951286200000006 28.849908699999997 C 62.02168640000001 28.887739099999997 62.09193030000001 28.925826899999997 62.161834600000006 28.964555599999997 C 62.202220800000006 28.986928799999998 62.242408600000005 29.0096644 62.2826232 29.032348499999998 C 62.2942237 29.038892599999997 62.3058776 29.045335599999998 62.3174666 29.051900699999997 C 62.4111136 29.1049956 62.5041731 29.1591204 62.5968321 29.2139605 C 62.6238173 29.229936499999997 62.6509779 29.245597699999998 62.677875300000004 29.2617224 C 62.7139242 29.2833689 62.749694600000005 29.3058089 62.7856863 29.3276499 C 63.1785505 29.5671252 63.5636633 29.819929000000002 63.938754800000005 30.0863474 C 64.1078641 30.206476000000002 64.26560950000001 30.3474539 64.43813300000001 30.4615152 C 64.4762723 30.4867303 64.5420225 30.4994485 64.5600584 30.5293214 L 64.270401 32.023632 L 63.53125000000001 35.836975 L 63.35742950000001 36.7337417 L 62.99126050000001 38.6228179 L 61.95634460000001 43.962005500000004 C 61.956283600000006 43.9623069 61.95620730000001 43.962604400000004 61.956146200000006 43.9629058 C 61.16190720000001 43.7072066 60.367561300000006 43.4573516 59.55577850000001 43.2624358 C 58.73551180000001 43.0655326 57.90508650000001 42.9179343 57.07300950000001 42.7809295 C 56.271820100000014 42.6489982 55.46544650000001 42.5430984 54.658744800000015 42.4507713 C 53.822586000000015 42.3550224 52.98510740000002 42.2791214 52.14519880000002 42.2269516 C 51.339157100000016 42.1768723 50.531127900000016 42.1556892 49.72364800000002 42.151825 C 48.903816200000016 42.1478539 48.08266820000002 42.154586800000004 47.26360310000002 42.1947327 C 46.40428150000002 42.236873700000004 45.54804600000002 42.302398700000005 44.69214620000002 42.3893204 C 43.898456500000016 42.4699593 43.10532370000002 42.569458000000004 42.31660450000002 42.689582900000005 C 41.47801960000002 42.817325700000005 40.63998780000002 42.952785600000006 39.81067260000002 43.132484500000004 C 39.02636320000002 43.302475 38.24976710000002 43.5080949 37.48586640000002 43.7540856 C 37.26976760000002 43.823692400000006 37.05355820000002 43.893303 36.83745940000002 43.962799100000005 C 36.83733730000002 43.96221930000001 36.83719620000002 43.96163560000001 36.837074100000024 43.961055800000004 L 35.802413800000025 38.6231385 L 35.43630590000002 36.734382700000005 L 35.262390000000025 35.837154500000004 L 34.706169000000024 32.9675828 L 34.52321990000002 32.0237199 L 34.23048770000002 30.513500300000004 C 34.23053350000002 30.513446900000005 34.23054110000002 30.513311500000004 34.23059070000002 30.513258100000005 C 34.23643480000002 30.506088400000007 34.287509800000024 30.498695500000004 34.297107600000025 30.494615700000004 C 34.322593600000026 30.483801000000003 34.34564580000003 30.468471700000006 34.36826310000003 30.452696000000003 C 34.55468740000003 30.322530900000004 34.73019390000003 30.175039400000003 34.91595830000003 30.043110000000002 C 34.954193000000025 30.015949400000004 34.993118200000026 29.989698500000003 35.03173050000003 29.963030000000003 C 35.10136020000003 29.915146000000004 35.17110050000003 29.867464200000004 35.24119550000003 29.820387000000004 C 35.28684600000003 29.789867500000003 35.33239730000003 29.759220200000005 35.378162200000034 29.728868600000006 C 35.463573300000036 29.672224200000006 35.54920940000003 29.616233900000005 35.63556650000003 29.561018100000005 C 35.76618170000003 29.477504800000006 35.89742640000003 29.395046300000004 36.02990700000003 29.314785100000005 C 36.17916850000003 29.224092600000006 36.32945230000003 29.135111000000006 36.48129250000003 29.048803400000004 C 36.49098560000003 29.043310200000004 36.50078180000003 29.037996400000004 36.51048640000003 29.032524200000005 C 36.537853000000034 29.017070900000004 36.56537990000003 29.001909300000005 36.592822800000036 28.986604800000006 C 36.681155900000036 28.937328400000006 36.76981330000004 28.888643400000007 36.85893610000004 28.840812800000005 C 36.898162600000035 28.819759500000007 36.93745400000004 28.798866400000005 36.97682170000004 28.778089600000005 C 37.195525900000035 28.663118400000005 37.41661050000004 28.553144500000005 37.63916000000004 28.446233800000005 C 37.72259120000004 28.406152800000005 37.80601490000004 28.366066000000004 37.88990390000004 28.326948200000004 C 38.004646200000046 28.273387900000003 38.11951430000004 28.220285400000005 38.235065300000045 28.168483800000004 C 38.348964500000044 28.117307700000005 38.463436000000044 28.067335200000006 38.57796080000004 28.017486600000005 C 38.62192520000004 27.998352100000005 38.66560730000004 27.978624400000005 38.70965560000004 27.959665300000005 C 38.74765000000004 27.943304100000006 38.78599910000004 27.927621800000004 38.82407360000004 27.911409400000004 C 39.17043670000004 27.765111900000004 39.51971030000004 27.625263200000003 39.87070830000004 27.490385100000005 C 39.95393360000004 27.458450400000004 40.03682690000004 27.425655400000004 40.12028870000004 27.394428300000005 C 40.145099500000036 27.385440900000006 40.16992170000004 27.376478200000005 40.19466000000004 27.367267700000006 C 40.391998100000045 27.293785200000006 40.589538400000045 27.221023700000007 40.78788360000004 27.150598600000006 C 40.79606990000004 27.147697500000007 40.804237200000046 27.144727800000005 40.812423500000044 27.141824800000006 C 41.02724050000004 27.065757800000007 41.24272900000005 26.991668800000006 41.458938400000044 26.919756000000007 C 41.73471050000004 26.828041100000007 42.011611700000046 26.739772900000006 42.290675900000046 26.658327200000006 C 42.89815880000005 26.480943800000006 43.51259210000005 26.335884200000006 44.13573820000005 26.226017100000007 C 44.23784240000005 26.208013600000008 44.34037000000005 26.191902300000006 44.44280990000005 26.17542660000001 C 44.89080030000005 26.10545930000001 45.34057980000005 26.048883600000007 45.79099260000005 25.996803400000008 C 45.80113970000005 25.995714300000007 45.81129440000005 25.994568000000008 45.821441500000056 25.99348460000001 C 45.90216050000006 25.984220600000008 45.98314270000006 25.97699560000001 46.06395710000005 25.96841250000001 C 46.702594600000054 25.90425500000001 47.34156790000005 25.84952360000001 47.98225390000005 25.80970580000001 C 48.215881200000055 25.79561240000001 48.44961920000005 25.783493100000012 48.683532600000056 25.77473460000001 C 49.16304000000006 25.75682460000001 49.640613400000056 25.75411810000001 50.119918700000056 25.76836600000001 C 50.172042700000056 25.77015700000001 50.22416290000005 25.771516900000012 50.276275500000054 25.77365130000001 C 50.324726000000055 25.77562920000001 50.373161200000055 25.777670100000012 50.421596400000055 25.779926500000013 C 50.535831300000055 25.78511070000001 50.65003570000005 25.791075000000014 50.764205800000056 25.797949000000013 C 50.79984650000006 25.800050900000013 50.83548340000006 25.802070800000013 50.871116500000056 25.804290900000012 C 50.94920340000006 25.80927480000001 51.02726350000005 25.814640200000014 51.105323700000056 25.820148600000014 C 51.25860970000006 25.830738200000013 51.411777400000055 25.842090700000014 51.56487270000006 25.854316800000014 C 51.60790250000006 25.857757700000015 51.65095900000006 25.860996300000014 51.69397730000006 25.864536400000013 C 51.798892900000055 25.872839100000014 51.903724600000054 25.882837400000014 52.008617300000054 25.891906900000013 C 52.25971210000005 25.913625900000014 52.51050940000005 25.938120100000013 52.761058700000056 25.965240600000012 C 52.76324830000006 25.96547710000001 52.76542650000005 25.96571170000001 52.76760850000006 25.96594820000001 C 53.06129820000006 25.99761780000001 53.35456450000006 26.03299340000001 53.64754470000006 26.07118810000001 C 53.70126710000006 26.07834640000001 53.75503520000006 26.08514610000001 53.80870800000006 26.09261910000001 C 53.83208070000006 26.09587110000001 53.85539610000006 26.09951990000001 53.87875730000006 26.10283300000001 C 54.05078870000006 26.12690950000001 54.222442500000064 26.15364670000001 54.39377580000006 26.18255060000001 C 54.46524420000006 26.19460890000001 54.53675830000006 26.20632950000001 54.60808170000006 26.21921750000001 C 54.65416710000006 26.22754500000001 54.70016470000006 26.23629210000001 54.74619280000006 26.24496290000001 C 54.84957490000006 26.26433970000001 54.95278150000006 26.284612900000013 55.05580890000006 26.305788200000013 C 55.08826820000006 26.312473500000014 55.12073120000006 26.31907860000001 55.15315230000006 26.325931700000012 C 55.27599320000006 26.35188690000001 55.398578500000056 26.379034200000014 55.52083950000006 26.407541400000014 C 55.537780600000055 26.411493400000015 55.554786500000056 26.415123100000013 55.57171230000006 26.419122800000014 C 55.7174721 26.4534664 55.8626938 26.4898567 56.0074272 26.5279846 z M 65.3443832 52.8924065 L 62.434871599999994 54.6061631 C 62.4467849 54.2881318 62.45833579999999 53.970096700000006 62.47010029999999 53.652065400000005 C 62.488445199999994 53.1547319 62.50679389999999 52.65747460000001 62.52513879999999 52.160206 C 62.536281499999994 51.864792 62.54790489999999 51.569374200000006 62.56034079999999 51.2739832 C 62.56614299999999 51.1426851 62.57151789999999 51.0113909 62.57809439999999 50.880127200000004 C 62.59191499999999 50.5819819 62.60781849999999 50.2839053 62.62364189999999 49.985813400000005 C 62.64786139999999 49.50048470000001 62.67756649999999 49.015465000000006 62.70663829999999 48.530334700000004 C 62.720977699999985 48.303497500000006 62.735641399999984 48.0766756 62.75195689999999 47.849979600000005 C 62.75250239999999 47.84231210000001 62.75300209999999 47.834656 62.75355139999999 47.826996 C 62.76324069999999 47.6932336 62.77335349999999 47.5594713 62.78409949999999 47.42577 C 62.80208959999999 47.2020113 62.82263179999999 46.9784624 62.84667579999999 46.7552874 C 62.84740819999999 46.7484553 62.84802239999999 46.7416079 62.848770099999996 46.734772 C 62.8565445 46.6633113 62.865383099999995 46.5919688 62.8740501 46.5206149 C 62.8939476 46.3537829 62.917995399999995 46.1874049 62.941761 46.021015399999996 C 63.0069351 45.580795499999994 63.082141899999996 45.1427157 63.162754 44.704853299999996 C 63.1670837 44.681537899999995 63.1713523 44.658214799999996 63.1757087 44.634899399999995 C 63.2118186 44.4404414 63.2498512 44.246311399999996 63.288585600000005 44.05232649999999 C 63.302185 43.98421509999999 63.3158607 43.91612649999999 63.329708000000004 43.84807229999999 C 63.3684615 43.65766549999999 63.4076232 43.46734259999999 63.447776700000006 43.27722569999999 C 63.492561200000004 43.06538409999999 63.536468400000004 42.85334799999999 63.580810500000005 42.64140339999999 C 63.600639300000005 42.54662719999999 63.621517100000005 42.45208379999999 63.64164350000001 42.357364899999986 C 63.67684170000001 42.191738399999984 63.71170420000001 42.02602789999999 63.748813600000005 41.86083249999999 C 63.872367800000006 41.310516599999985 63.995998400000005 40.76029229999999 64.11957550000001 40.210079499999985 C 64.12899780000001 40.16828189999998 64.13851170000001 40.12650329999998 64.1479187 40.08469799999998 C 64.2575989 39.59739709999998 64.3666687 39.10998559999998 64.4768524 38.62279539999998 L 65.6462555 38.62278399999998 L 65.3443832 52.8924065 z M 64.9818573 70.0297546 L 64.88139340000001 74.778778 C 64.8813858 74.7789001 64.8813705 74.7790298 64.8813705 74.7791595 C 64.84095 74.6845626 64.8004837 74.5899734 64.7601089 74.4955673 C 64.754631 74.48255160000001 64.7493362 74.468811 64.7438049 74.4559479 C 64.6944503 74.3412171 64.6451263 74.2264862 64.5957718 74.11175539999999 C 64.40003209999999 73.65380859999999 64.204422 73.1957856 64.0075913 72.73829649999999 C 63.6350709 71.87246699999999 63.2626648 71.00674439999999 62.8901406 70.14091489999998 C 62.7951089 69.92007439999999 62.6992799 69.70001979999998 62.612560300000005 69.47689049999998 C 62.4506493 69.05365749999999 62.339542400000006 68.62393179999998 62.28541190000001 68.17131039999998 C 62.27244960000001 68.06301879999998 62.26260760000001 67.95433799999998 62.252559700000006 67.84574119999998 C 62.252513900000004 67.83258809999998 62.25246810000001 67.81943499999998 62.252418600000006 67.80628199999998 C 62.251720500000005 67.61470029999998 62.251026200000005 67.42312619999998 62.250312900000004 67.23155209999999 C 62.250507400000004 67.2130127 62.251026200000005 67.19437409999999 62.251106400000005 67.1758728 C 62.255409400000005 66.23612209999999 62.259712400000005 65.29627989999999 62.264015300000004 64.3565369 C 62.2652932 64.0802307 62.266552100000006 63.80390549999999 62.267818600000005 63.5275803 C 62.27240390000001 62.904903499999996 62.276966200000004 62.2822228 62.281578200000006 61.659542099999996 C 62.28226480000001 61.56346129999999 62.28290570000001 61.467392 62.28360000000001 61.371314999999996 C 62.287914400000005 61.138984699999995 62.29293070000001 60.906662 62.296882800000006 60.674358399999996 C 62.301449000000005 60.40556719999999 62.30600760000001 60.136772199999996 62.310569900000004 59.867984799999995 C 62.31686800000001 59.5641518 62.3231546 59.2603112 62.3294488 58.9564781 C 62.3405915 58.4197693 62.3516961 57.8831329 62.3628121 57.346485099999995 C 62.3672333 57.3418655 62.3729058 57.337657899999996 62.3815575 57.33376689999999 L 65.2634049 56.720539099999996 L 64.9818573 70.0297546 z M 33.9122124 74.7790451 L 33.8117447 70.029747 L 33.530197199999996 56.720539099999996 L 36.416419999999995 57.334701499999994 C 36.4226761 57.3380088 36.42707059999999 57.34203719999999 36.4305191 57.346679599999995 C 36.4402695 57.818466099999995 36.4500046 58.29024879999999 36.4597816 58.762001 C 36.468116699999996 59.1642112 36.4764518 59.5663871 36.484786899999996 59.9685669 C 36.4923133 60.4124298 36.4998473 60.8562927 36.507400399999995 61.3001556 C 36.509353499999996 61.416545799999994 36.50988759999999 61.5328903 36.5115966 61.64924619999999 C 36.516536599999995 62.320861799999996 36.5214729 62.992416399999996 36.5264167 63.66402819999999 C 36.5286178 64.143425 36.5308189 64.622818 36.5329932 65.10224149999999 C 36.5362319 65.81377409999999 36.5395316 66.52531429999999 36.5427893 67.23683929999999 C 36.542110300000004 67.41977689999999 36.5414313 67.60271449999999 36.540748400000005 67.78564449999999 C 36.540481400000004 67.7929382 36.539928200000006 67.80023949999999 36.539630700000004 67.80754089999999 C 36.538204 67.8427277 36.536388200000005 67.877945 36.5342253 67.91316219999999 C 36.526126700000006 67.99927519999999 36.518463000000004 68.08544159999998 36.5081824 68.17131039999998 C 36.4493865 68.66296379999999 36.3263892 69.12802879999998 36.140514200000005 69.58660119999998 C 36.050701000000004 69.80829609999998 35.955814200000006 70.02815999999997 35.86053830000001 70.24781789999997 C 35.82952480000001 70.31843559999997 35.79864100000001 70.38902269999997 35.76832560000001 70.45960229999997 C 35.67794020000001 70.66991419999997 35.58758140000001 70.88021079999997 35.49721130000001 71.09050749999997 C 35.29214840000001 71.56732939999998 35.08708940000001 72.04412839999998 34.88197690000001 72.52098079999998 C 34.604659900000016 73.16596979999997 34.327224600000015 73.81095879999998 34.04979310000001 74.45594779999998 C 34.04011140000001 74.47843929999998 34.03080350000001 74.50230399999998 34.02127820000001 74.52523799999997 C 33.9849281 74.6098404 33.9485626 74.6944427 33.9122124 74.7790451 z M 33.1473541 38.6231728 L 34.316547400000005 38.6231614 C 34.4121857 39.0459977 34.506877900000006 39.4690743 34.6020393 39.8919907 C 34.7462692 40.533207000000004 34.8905906 41.1744156 35.0348358 41.8156319 C 35.0379257 41.8296128 35.0411033 41.8435746 35.044185600000006 41.8575592 C 35.08813850000001 42.0530128 35.129398300000005 42.249099699999995 35.1708793 42.4451408 C 35.1936759 42.5523567 35.2169456 42.6594467 35.239494300000004 42.7667274 C 35.288387300000004 43.0012893 35.3368644 43.2359352 35.38646310000001 43.4702568 C 35.49699780000001 43.9925766 35.595836600000005 44.5172234 35.69301600000001 45.0421867 C 35.71625900000001 45.1677703 35.73820870000001 45.293571400000005 35.75938790000001 45.4194984 C 35.761638600000005 45.432888 35.764060900000004 45.4462585 35.76628490000001 45.459651900000004 C 35.78647610000001 45.581199600000005 35.80565260000001 45.70290370000001 35.82399750000001 45.82472610000001 C 35.82607650000001 45.83854290000001 35.828361500000014 45.852325400000005 35.830421500000014 45.86614230000001 C 35.87076960000002 46.13679510000001 35.906692600000014 46.408126900000006 35.93834690000001 46.679973600000004 C 35.953472200000014 46.8098183 35.96714400000001 46.939888 35.97971350000002 47.07010270000001 C 36.011711200000015 47.40444180000001 36.03588110000002 47.73964310000001 36.058403100000014 48.07466130000001 C 36.062332200000014 48.13466650000001 36.06650170000001 48.19469070000001 36.07027830000001 48.25466540000001 C 36.10445420000001 48.79727940000001 36.13806550000001 49.34011460000001 36.164867500000014 49.883056700000004 C 36.17667020000001 50.110736900000006 36.188667400000014 50.33842860000001 36.200256400000015 50.56614690000001 C 36.209446000000014 50.74681480000001 36.21849450000001 50.92749030000001 36.22583390000001 51.108215400000006 C 36.22662350000001 51.12522130000001 36.22739030000001 51.14222720000001 36.228164700000015 51.159237000000005 C 36.243816400000014 51.5553704 36.25946430000001 51.9514695 36.27511980000001 52.3475686 C 36.28873450000001 52.716388800000004 36.30234530000001 53.085205200000004 36.31593320000001 53.4540597 C 36.33012770000001 53.8379937 36.34428400000001 54.2220079 36.35845180000001 54.6060029 L 33.449214900000015 52.8924066 L 33.1473541 38.6231728 z M 60.0073929 91.7025146 C 59.7315064 91.9743194 59.302394899999996 92.0842971 58.9422302 92.18854520000001 C 58.422660799999996 92.33889 57.890853899999996 92.44269560000001 57.359046899999996 92.53833010000001 C 57.17853159999999 92.57078550000001 56.99742499999999 92.60029600000001 56.81641379999999 92.630249 C 56.47376619999999 92.6869583 56.13069529999999 92.74131770000001 55.78733819999999 92.7924881 C 55.24438849999999 92.8733444 54.70000449999999 92.9475861 54.154739299999996 93.0109024 C 53.8714599 93.04378510000001 53.587737999999995 93.0732346 53.303356099999995 93.09463500000001 C 53.084941799999996 93.1109619 52.860900799999996 93.1276169 52.642703899999994 93.10059360000001 C 52.42560949999999 93.07378390000001 52.218116699999996 92.99314880000001 52.00753389999999 92.93755340000001 C 51.800041099999994 92.88272860000001 51.59022509999999 92.84610750000002 51.37578189999999 92.83506770000001 C 50.837909599999996 92.80749510000001 50.292091299999996 92.84014890000002 49.75321949999999 92.83904260000001 C 49.22428119999999 92.83793630000001 48.69511779999999 92.845436 48.1661757 92.83827200000002 C 47.690956 92.83187090000001 47.2364768 92.81719960000002 46.773166499999995 92.94086450000002 C 46.56258379999999 92.99711600000002 46.35475519999999 93.07742300000002 46.1370009 93.10224150000002 C 45.9127387 93.12783810000002 45.6828497 93.10985560000002 45.458701899999994 93.09220120000002 C 44.91155609999999 93.04907220000003 44.36661889999999 92.98078920000002 43.8227881 92.90753930000002 C 43.2484015 92.83021540000003 42.676101499999994 92.74098200000003 42.103587999999995 92.65118400000003 C 42.0607146 92.64445490000003 42.0179061 92.63719170000003 41.9750441 92.63031000000002 C 41.5167387 92.55674740000002 41.0594252 92.47460170000002 40.605678399999995 92.37695310000002 C 40.117992199999996 92.27204130000003 39.6097906 92.15533440000003 39.1558607 91.94309230000002 C 38.8940962 91.82077020000001 38.658473799999996 91.64680480000001 38.5957029 91.34973900000001 C 38.5595205 91.17842860000002 38.570769999999996 90.99894710000001 38.58831 90.82619470000002 C 38.6151121 90.56211850000001 38.6578062 90.29901880000001 38.702148199999996 90.03736110000001 C 38.785102599999995 89.54725640000001 38.8724706 89.02581780000001 39.077537299999996 88.56967920000001 C 39.17185189999999 88.3598709 39.3139341 88.18977350000002 39.45977 88.01415250000001 L 39.460716 88.01415250000001 C 39.465095299999994 88.01679990000001 39.4693143 88.0196762 39.4736974 88.0223083 C 39.9209554 88.29085540000001 40.410857899999996 88.4648437 40.9115369 88.60321040000001 C 40.9162252 88.60449980000001 40.9207837 88.6060104 40.925468200000005 88.60729210000001 C 40.92749380000001 88.60784900000002 40.92955370000001 88.60829160000002 40.931583200000006 88.6088409 C 40.9431074 88.6120071 40.9545553 88.6154174 40.96609480000001 88.61854550000001 C 41.12770830000001 88.66232300000001 41.290187700000004 88.70252990000002 41.453056200000006 88.7410583 C 41.51237090000001 88.7550964 41.571857300000005 88.76834860000001 41.63131320000001 88.7817687 C 41.74334700000001 88.8071517 41.85562500000001 88.8314742 41.968109000000005 88.8548278 C 42.037235100000004 88.86917109999999 42.106307900000004 88.8838042 42.1755751 88.89749139999999 C 42.329421800000006 88.92790219999999 42.4835051 88.95714559999999 42.6378592 88.9848861 C 42.6544302 88.9878616 42.671066100000004 88.990425 42.6876448 88.99337 C 42.689029500000004 88.9936141 42.6904181 88.9938354 42.6918028 88.9940795 C 42.8852385 89.0278396 43.0790365 89.0594405 43.272975699999996 89.0895232 C 43.276222 89.0900267 43.279460699999994 89.0906142 43.282706999999995 89.0911177 C 43.286605599999994 89.0917204 43.29051569999999 89.092224 43.29441429999999 89.0928267 C 43.44786049999999 89.1165465 43.601585199999995 89.1384428 43.75533649999999 89.1601256 C 43.89551519999999 89.1795958 44.03576629999999 89.1984709 44.17611289999999 89.2166976 C 44.21227619999999 89.2213897 44.24841289999999 89.2263564 44.28457999999999 89.2309875 C 44.29347589999999 89.2321319 44.30240229999999 89.2330398 44.31129429999999 89.234169 C 44.496165999999995 89.2577438 44.68143439999999 89.2789383 44.866668399999995 89.300209 C 45.07659879999999 89.3237686 45.286662799999995 89.3459243 45.4968831 89.3665618 C 45.5654714 89.3732986 45.6339909 89.3807525 45.7025983 89.3871917 C 45.718826 89.3887176 45.7350652 89.3898696 45.7512891 89.39136500000001 C 45.803787 89.3961029 45.8561818 89.4022369 45.9086911 89.4067153 C 45.991309799999996 89.4137572 46.074062 89.4193648 46.1567151 89.4261092 C 46.2613789 89.4346618 46.3660809 89.4426955 46.4707906 89.4506759 C 46.8608167 89.4803771 47.2510602 89.5073013 47.6417844 89.5256271 C 47.7253949 89.5295486 47.809043599999995 89.5307617 47.8926656 89.53401179999999 C 47.9815252 89.53798669999999 48.0703237 89.54255669999999 48.1592252 89.54615019999999 C 48.136279800000004 89.72904969999999 48.1449926 89.91723629999998 48.1640851 90.09935759999999 C 48.1715314 90.16968539999999 48.1816442 90.24168399999999 48.2064893 90.30824279999999 C 48.214813 90.33065029999999 48.2247617 90.35247039999999 48.2368772 90.37337489999999 C 48.3510511 90.57016749999998 48.594947600000005 90.58131399999999 48.7972562 90.58572379999998 C 49.234527299999996 90.59520709999998 49.6833875 90.61208339999999 50.1197774 90.58020769999999 C 50.309291599999995 90.56630689999999 50.497268399999996 90.51964559999999 50.579555199999994 90.32727039999999 C 50.618491799999994 90.2362594 50.626987099999994 90.13433059999998 50.63504 90.03692619999998 C 50.648612699999994 89.87410729999998 50.6547887 89.70874779999998 50.634380099999994 89.54615009999998 L 50.634238999999994 89.54615009999998 C 50.634212299999994 89.54592879999997 50.63420469999999 89.54570759999997 50.63417799999999 89.54548629999998 C 50.73059449999999 89.54164109999998 50.82702239999999 89.53748309999997 50.92347699999999 89.53375229999997 C 50.96163159999999 89.53228749999998 50.99977479999999 89.53198229999998 51.03793319999999 89.53037249999997 C 51.08455259999999 89.52840409999997 51.13111099999999 89.52564229999997 51.17770749999999 89.52343739999996 C 51.18420769999999 89.52312459999996 51.19070799999999 89.52297199999997 51.19720819999999 89.52265159999996 C 51.204982599999994 89.52227009999996 51.21274549999999 89.52170559999996 51.22052359999999 89.52131649999995 C 51.42084479999999 89.51132959999995 51.62105919999999 89.49995419999995 51.82114769999999 89.48699189999995 C 51.82303979999999 89.48686979999995 51.82493189999999 89.48676299999995 51.82681629999999 89.48664089999995 C 52.02476859999999 89.47379299999996 52.22257969999999 89.45931999999995 52.42031449999999 89.44374079999996 C 52.44085659999999 89.44214629999996 52.46140639999999 89.44047539999995 52.48195619999999 89.43885799999995 C 52.572173799999995 89.43177029999995 52.662402799999995 89.42478939999995 52.75260899999999 89.41741939999996 C 53.069377599999996 89.39156339999995 53.38597459999999 89.35967249999996 53.702254999999994 89.32509609999995 C 53.702659399999995 89.32505799999996 53.703063699999994 89.32501219999995 53.703468099999995 89.32497399999995 C 53.867408499999996 89.30760189999995 54.0312231 89.28864279999995 54.195014699999994 89.26936329999995 C 54.23978019999999 89.26383199999995 54.28476309999999 89.25956719999995 54.329482799999994 89.25384509999995 C 54.33176399999999 89.25355519999995 54.33406039999999 89.25333389999994 54.3363416 89.25304399999995 C 54.349323 89.25138839999994 54.3622777 89.24961079999994 54.3752515 89.24794759999995 C 54.7941091 89.19670859999995 55.212131199999995 89.13828269999995 55.628814399999996 89.07198319999995 C 55.78583879999999 89.04744709999994 55.942733499999996 89.02193439999995 56.099441199999994 88.99481189999995 C 56.175494799999996 88.98165119999994 56.251391999999996 88.96727739999994 56.327354099999994 88.95337669999995 C 56.36235009999999 88.94697559999994 56.39737289999999 88.94085689999994 56.432345999999995 88.93428799999995 C 56.47005049999999 88.92731469999995 56.507766399999994 88.91994469999996 56.545482299999996 88.91281129999996 C 57.01749769999999 88.82349399999995 57.488830199999995 88.71848299999996 57.94987449999999 88.58410649999996 C 58.05052909999999 88.55542759999996 58.150802199999994 88.52552039999996 58.250320099999996 88.49343109999997 C 58.27166329999999 88.48645779999997 58.2929799 88.47941589999996 58.31426209999999 88.47228999999997 C 58.349723499999996 88.46042629999997 58.38551679999999 88.44940179999998 58.42080279999999 88.43708029999998 C 58.43173189999999 88.43326559999997 58.44222229999999 88.42865739999998 58.45310949999999 88.42476649999998 C 58.714801499999986 88.33145139999998 58.97011539999999 88.22147369999998 59.21362279999999 88.08419029999997 C 59.25366189999999 88.06161489999998 59.29293799999999 88.03771969999997 59.33227509999999 88.01393119999997 L 59.33372469999999 88.01393119999997 C 59.48584719999999 88.19704429999997 59.63156479999999 88.37398519999998 59.72687499999999 88.59438319999997 C 59.82361949999999 88.81820669999996 59.885944099999996 89.05747219999996 59.941981999999996 89.29431149999996 C 60.0618894 89.80118559999997 60.1562078 90.32229609999996 60.206618999999996 90.84098049999996 C 60.2359581 91.1433411 60.2389412 91.4743881 60.0073929 91.7025146 z M 64.26474 85.2051086 C 64.2609253 85.2870178 64.257988 85.3690033 64.25358580000001 85.4508514 C 64.2357178 85.78189850000001 64.23141480000001 86.1311416 64.15683740000001 86.45545960000001 C 64.14437860000001 86.50983430000001 64.12639610000001 86.61187740000001 64.05336760000002 86.60680390000002 C 63.98155590000002 86.60183720000002 63.92264940000002 86.48513030000002 63.89220430000002 86.43196110000002 C 63.72166830000002 86.13368230000002 63.61664960000002 85.79215240000002 63.50600820000002 85.46849830000002 C 63.47610860000002 85.38107310000002 63.44817360000002 85.29291540000003 63.41926200000002 85.20511630000001 C 63.214656900000016 84.58382420000001 63.03248600000002 83.95430000000002 62.86499410000002 83.32228850000001 C 62.67890550000002 82.62005610000001 62.48552330000002 81.90490720000001 62.47361380000002 81.17431640000001 C 62.45993810000002 80.33705900000001 62.50450520000002 79.49660490000001 62.523479500000015 78.65956120000001 C 62.53936010000002 77.9567719 62.563961100000014 77.25309760000002 62.608303100000015 76.5514145 C 62.61999130000002 76.393776 62.628383700000015 76.2341538 62.65595250000001 76.07817080000001 C 62.668422700000015 76.0079041 62.69555670000001 75.8885498 62.74695970000001 76.0092316 C 62.747924800000014 76.01147460000001 62.74858480000001 76.0139084 62.74953460000001 76.0161743 C 62.81022260000001 76.1610946 62.84291080000001 76.3241958 62.88374710000001 76.4749603 C 62.98831940000001 76.860939 63.084404000000006 77.24923700000001 63.18180850000001 77.6370926 C 63.35709000000001 78.3356934 63.52355580000001 79.0392532 63.66673660000001 79.7451325 C 63.82746120000001 80.53705599999999 63.971195200000004 81.331955 64.12662510000001 82.12487039999999 C 64.19390870000001 82.46859749999999 64.27366640000001 82.79975139999999 64.28955080000001 83.1509782 C 64.30741880000002 83.5456773 64.30080420000002 83.9416963 64.29396060000002 84.33660139999999 C 64.28976440000002 84.580124 64.28126530000002 84.82366189999999 64.27100380000002 85.06709299999999 C 64.2690582 85.1131134 64.2668762 85.1591034 64.26474 85.2051086 z M 34.5039406 83.1509781 C 34.519825 82.7997513 34.5995827 82.46859740000001 34.6668701 82.1248703 C 34.8222999 81.331955 34.9660301 80.53705599999999 35.126758599999995 79.7451324 C 35.2699394 79.0392532 35.436401399999994 78.3356933 35.6116829 77.63709250000001 C 35.7090874 77.24923700000001 35.805172 76.86093890000001 35.9097481 76.47496020000001 C 35.9505806 76.32419570000002 35.983268800000005 76.16109450000002 36.0439606 76.01617420000001 C 36.0449105 76.01390830000001 36.045570399999995 76.0114745 36.046531699999996 76.00923150000001 C 36.0979386 75.88854970000001 36.12506869999999 76.00790400000001 36.137538899999996 76.07817070000002 C 36.165226 76.23415370000002 36.173606899999996 76.39377590000001 36.18518829999999 76.55141440000001 C 36.22953029999999 77.25309740000002 36.25413129999999 77.95677180000001 36.270015699999995 78.65956110000002 C 36.28899 79.49660490000002 36.33355329999999 80.33705900000002 36.3198776 81.17431630000002 C 36.3079681 81.90490710000002 36.1145859 82.62005600000002 35.9284973 83.32228840000002 C 35.7609863 83.95436080000002 35.578800199999996 84.58393850000002 35.374176 85.20528400000002 C 35.3452797 85.29302200000002 35.3173637 85.38112630000002 35.2874832 85.46849810000002 C 35.1768417 85.79215230000003 35.071823099999996 86.13368210000002 34.9012871 86.43196090000002 C 34.870841999999996 86.48513020000001 34.811935399999996 86.60183700000002 34.7401238 86.60680370000001 C 34.6670991 86.61187720000001 34.6491166 86.50983410000002 34.636654 86.45545940000001 C 34.5620805 86.13114150000001 34.5577775 85.78189830000001 34.5399095 85.4508512 C 34.5355073 85.3690641 34.53257 85.2871473 34.5287668 85.2052839 C 34.5266268 85.1592252 34.5244371 85.1131742 34.5224916 85.0670927 C 34.5122224 84.82366160000001 34.5037271 84.5801237 34.4995309 84.33660110000001 C 34.492691 83.9416962 34.4860725 83.5456772 34.5039406 83.1509781 z M 31.9482479 13.8218851 C 31.960165 13.3088293 32.035282099999996 12.7961025 32.1612625 12.2989292 C 32.2880096 11.798665 32.4720116 11.3125267 32.6963806 10.8480072 C 32.902217799999995 10.422101 33.1408233 10.005122199999999 33.4651375 9.6575317 C 33.825527199999996 9.2712211 34.2463646 8.9331178 34.6594773 8.6053838 C 35.0837365 8.2689361 35.5239831 7.9554347000000005 35.9890519 7.6777791 C 36.4563256 7.398803600000001 36.9426881 7.1522535000000005 37.4300462 6.910564300000001 C 37.6612588 6.795951200000001 37.8932458 6.680233800000001 38.130851899999996 6.579187300000001 C 38.251533699999996 6.527781900000001 38.386989699999994 6.466889800000001 38.521350999999996 6.464243800000001 C 38.80688489999999 6.458521300000001 38.680504 6.736634600000001 38.584877199999994 6.889611600000001 C 38.33834089999999 7.1261233000000015 38.121017599999995 7.401368500000001 37.9094698 7.6519650000000015 C 37.516655199999995 8.117366600000002 37.1334345 8.5915946 36.7567179 9.070124500000002 C 36.3530924 9.582851300000002 35.9464876 10.093813800000003 35.549473 10.611610300000002 C 35.1463968 11.137243200000002 34.7435381 11.662877000000002 34.3507235 12.196226000000003 C 33.9412501 12.752190500000003 33.5432475 13.315662300000003 33.1459086 13.880346200000004 C 33.1127284 13.927516800000003 33.0742152 13.969900000000003 33.0504572 14.018787300000003 L 33.0319407 14.042621500000003 C 32.9687312 14.141344900000004 32.9007838 14.236985100000004 32.829853299999996 14.330309800000002 C 32.701675699999996 14.498866000000001 32.563019 14.674263900000001 32.3923609 14.802443400000001 C 32.3142588 14.861126800000001 32.2116701 14.921244500000002 32.1213305 14.851970600000001 C 32.0574343 14.802982300000002 32.0250437 14.718808100000002 32.0051463 14.636000600000001 C 32.0053752 14.6356239 32.0056041 14.6352396 32.0058329 14.634862900000002 L 32.0051348 14.635947200000002 C 31.9963209 14.599252700000003 31.9897101 14.562814700000002 31.9843237 14.529864300000002 C 31.9462624 14.2972174 31.9428425 14.0569563 31.9482479 13.8218851 z M 60.3470383 6.4729562 C 60.5681038 6.5129966999999995 60.7793465 6.6286062999999995 60.9798928 6.7245764999999995 C 61.2852326 6.870739499999999 61.588142500000004 7.021535399999999 61.8895112 7.1757512 C 62.4316903 7.453184599999999 62.9635011 7.753005 63.462768600000004 8.1024732 C 63.9784737 8.4634075 64.46825410000001 8.8631772 64.93785100000001 9.2820281 C 65.36486060000001 9.6629313 65.6962357 10.0811223 65.96484380000001 10.5870084 C 66.24304200000002 11.1110934 66.46631630000002 11.6681689 66.6174469 12.242116900000001 C 66.7692337 12.818603500000002 66.8538437 13.4199075 66.846344 14.0165786 C 66.8451843 14.105688 66.8523254 14.4165506 66.7915802 14.640753700000001 L 66.78776549999999 14.634862900000002 C 66.7890015 14.636916200000002 66.79026789999999 14.638956100000001 66.7915039 14.641010300000001 C 66.7477875 14.8021603 66.6691894 14.918780300000002 66.526001 14.874357200000002 C 66.3472977 14.818979200000003 66.19484709999999 14.615129400000002 66.0823288 14.479993800000003 C 65.9668808 14.341384900000003 65.8638611 14.193787600000002 65.7615967 14.045530300000003 C 65.7615433 14.044594700000003 65.7614823 14.043651600000002 65.7614289 14.042716000000002 L 65.761467 14.045341500000003 C 65.7171173 13.981042900000002 65.6728211 13.916684200000002 65.62785339999999 13.852768900000003 C 65.23094939999999 13.288751600000003 64.83295439999999 12.726384200000002 64.4239197 12.171078700000002 C 64.0338593 11.641472800000003 63.6333199 11.119704300000002 63.233112399999996 10.597713500000003 C 62.8379822 10.082341200000004 62.4334679 9.573587400000003 62.03138739999999 9.063620600000004 C 61.64761359999999 8.576815600000003 61.25733189999999 8.094542500000003 60.857456299999996 7.620866300000004 C 60.65570459999999 7.381856900000004 60.447544199999996 7.123881300000004 60.214004599999996 6.898552900000004 C 60.156223399999995 6.811335600000004 60.0791245 6.684132100000004 60.0874749 6.5822778000000035 C 60.0976181 6.4579554 60.2541504 6.4560838 60.3470383 6.4729562 z" stroke-linecap="round" />
</g>
<g transform="matrix(2.68 0 0 2.68 225.16 128.07)" id="566884a0-9250-4ec2-b996-3e38e4f3b3e9"  >
<rect style="stroke: rgb(0,0,0); stroke-width: 0; stroke-dasharray: none; stroke-linecap: butt; stroke-dashoffset: 0; stroke-linejoin: miter; stroke-miterlimit: 4; fill: rgb(110,20,20); fill-rule: nonzero; opacity: 1;" vector-effect="non-scaling-stroke"  x="-33.085" y="-33.085" rx="0" ry="0" width="66.17" height="66.17" />
</g>
<g transform="matrix(3.09 0 0 3.09 224.96 675.67)" id="074104bf-7d61-4d97-9a49-75920d001193"  >
<circle style="stroke: rgb(0,0,0); stroke-width: 0; stroke-dasharray: none; stroke-linecap: butt; stroke-dashoffset: 0; stroke-linejoin: miter; stroke-miterlimit: 4; fill: rgb(18,67,135); fill-rule: nonzero; opacity: 1;" vector-effect="non-scaling-stroke"  cx="0" cy="0" r="35" />
</g>
<g transform="matrix(2.88 0 0 2.88 225 131.39)" id="62b97147-a73e-4043-b698-a5c2e42a2758"  >
<path style="stroke: rgb(0,0,0); stroke-width: 0; stroke-dasharray: none; stroke-linecap: butt; stroke-dashoffset: 0; stroke-linejoin: miter; stroke-miterlimit: 4; fill: rgb(255,255,255); fill-rule: nonzero; opacity: 1;" vector-effect="non-scaling-stroke"  transform=" translate(-24.86, -27.36)" d="M 0 33.76 L 4.47 33.37 Q 4.79 36.06 5.94 37.78 Q 7.1 39.5 9.55 40.56 Q 11.99 41.63 15.04 41.63 Q 17.75 41.63 19.82 40.82 Q 21.9 40.01 22.91 38.61 Q 23.93 37.21 23.93 35.55 Q 23.93 33.86 22.95 32.6 Q 21.97 31.35 19.73 30.49 Q 18.29 29.93 13.35 28.75 Q 8.42 27.56 6.45 26.51 Q 3.88 25.17 2.62 23.18 Q 1.37 21.19 1.37 18.73 Q 1.37 16.02 2.91 13.66 Q 4.44 11.3 7.4 10.08 Q 10.35 8.86 13.96 8.86 Q 17.94 8.86 20.98 10.14 Q 24.02 11.43 25.66 13.92 Q 27.29 16.41 27.42 19.56 L 22.88 19.9 Q 22.51 16.5 20.4 14.77 Q 18.29 13.04 14.16 13.04 Q 9.86 13.04 7.9 14.61 Q 5.93 16.19 5.93 18.41 Q 5.93 20.34 7.32 21.58 Q 8.69 22.83 14.47 24.13 Q 20.24 25.44 22.39 26.42 Q 25.51 27.86 27 30.07 Q 28.49 32.28 28.49 35.16 Q 28.49 38.01 26.86 40.54 Q 25.22 43.07 22.16 44.47 Q 19.09 45.87 15.26 45.87 Q 10.4 45.87 7.12 44.46 Q 3.83 43.04 1.97 40.2 Q 0.1 37.35 0 33.76 Z M 49.73 45.26 L 45.34 45.26 L 45.34 17.26 Q 43.75 18.77 41.17 20.29 Q 38.6 21.8 36.55 22.56 L 36.55 18.31 Q 40.23 16.58 42.99 14.11 Q 45.75 11.65 46.9 9.33 L 49.73 9.33 L 49.73 45.26 Z" stroke-linecap="round" />
</g>
<g transform="matrix(2.73 0 0 2.73 225 677.41)" id="aa67c3cf-9816-41d7-9d00-86c8b3ea2ec5"  >
<path style="stroke: rgb(0,0,0); stroke-width: 0; stroke-dasharray: none; stroke-linecap: butt; stroke-dashoffset: 0; stroke-linejoin: miter; stroke-miterlimit: 4; fill: rgb(255,255,255); fill-rule: nonzero; opacity: 1;" vector-effect="non-scaling-stroke"  transform=" translate(-28.29, -27.3)" d="M 0 45.26 L 0 9.47 L 7.13 9.47 L 15.6 34.81 Q 16.77 38.35 17.31 40.11 Q 17.92 38.16 19.21 34.38 L 27.78 9.47 L 34.16 9.47 L 34.16 45.26 L 29.59 45.26 L 29.59 15.31 L 19.19 45.26 L 14.92 45.26 L 4.57 14.79 L 4.57 45.26 L 0 45.26 Z M 56.57 45.26 L 52.17 45.26 L 52.17 17.26 Q 50.59 18.77 48.01 20.29 Q 45.43 21.8 43.38 22.56 L 43.38 18.31 Q 47.07 16.58 49.83 14.11 Q 52.59 11.65 53.74 9.33 L 56.57 9.33 L 56.57 45.26 Z" stroke-linecap="round" />
</g>
</svg>