<svg height="200pt" viewBox="0 0 200 200" width="200pt" xmlns="http://www.w3.org/2000/svg" xmlns:xlink="http://www.w3.org/1999/xlink">
    <symbol id="a" overflow="visible">
        <path d="m2.964844-4.277344c.140625 1.203125.699218 2.035156 1.675781 2.496094.5.234375 1.078125.351562 1.734375.351562 1.25 0 2.175781-.398437 2.777344-1.195312.601562-.796875.902344-1.679688.902344-2.648438 0-1.171874-.359376-2.078124-1.070313-2.71875-.714844-.640624-1.574219-.960937-2.574219-.960937-.726562 0-1.347656.140625-1.871094.421875-.519531.28125-.960937.671875-1.328124 1.171875l-1.828126-.105469 1.277344-9.035156h8.71875v2.039062h-7.136718l-.714844 4.664063c.390625-.296875.761718-.519531 1.113281-.667969.625-.257812 1.347656-.386718 2.167969-.386718 1.539062 0 2.84375.496093 3.914062 1.488281 1.070313.992187 1.605469 2.25 1.605469 3.773437 0 1.585938-.492187 2.984375-1.46875 4.195313-.980469 1.210937-2.546875 1.816406-4.695313 1.816406-1.367187 0-2.578124-.3828125-3.625-1.15625-1.050781-.769531-1.640624-1.949219-1.765624-3.542969zm0 0"/>
    </symbol>
    <symbol id="b" overflow="visible">
        <path d="m1.648438-3.773438c.519531-1.070312 1.53125-2.042968 3.039062-2.917968l2.25-1.300782c1.007812-.585937 1.714844-1.085937 2.121094-1.5.640625-.648437.960937-1.390624.960937-2.226562 0-.976562-.292969-1.75-.878906-2.328125-.585937-.574219-1.367187-.859375-2.34375-.859375-1.445313 0-2.445313.546875-3 1.640625-.296875.585937-.460937 1.398437-.492187 2.4375h-2.144532c.023438-1.460937.292969-2.652344.808594-3.574219.914062-1.625 2.527344-2.4375 4.839844-2.4375 1.921875 0 3.324218.519532 4.214844 1.558594.886718 1.039062 1.328124 2.195312 1.328124 3.46875 0 1.34375-.472656 2.492188-1.417968 3.445312-.546875.554688-1.527344 1.226563-2.941406 2.015626l-1.605469.890624c-.765625.421876-1.367188.824219-1.804688 1.207032-.78125.679687-1.273437 1.433594-1.476562 2.261718h9.164062v1.992188h-11.519531c.078125-1.445312.375-2.703125.898438-3.773438zm0 0"/>
    </symbol>
    <symbol id="c" overflow="visible">
        <path d="m2.296875-11.882812v-1.617188c1.523437-.148438 2.585937-.398438 3.1875-.742188.601563-.347656 1.050781-1.171874 1.347656-2.46875h1.664063v16.710938h-2.25v-11.882812zm0 0"/>
    </symbol>
    <symbol id="d" overflow="visible">
        <path d="m10.9375-15.390625c.738281.972656 1.109375 1.972656 1.109375 3.003906h-2.085937c-.125-.664062-.324219-1.183593-.597657-1.558593-.507812-.703126-1.277343-1.054688-2.308593-1.054688-1.179688 0-2.117188.546875-2.8125 1.632812-.695313 1.089844-1.082032 2.652344-1.160157 4.683594.484375-.710937 1.09375-1.242187 1.828125-1.59375.671875-.3125 1.421875-.46875 2.25-.46875 1.40625 0 2.632813.449219 3.679688 1.347656 1.046875.898438 1.570312 2.238282 1.570312 4.019532 0 1.523437-.496094 2.871094-1.488281 4.050781-.992187 1.175781-2.40625 1.761719-4.242187 1.761719-1.570313 0-2.925782-.597656-4.066407-1.785156-1.140625-1.191407-1.710937-3.199219-1.710937-6.019532 0-2.085937.253906-3.855468.761718-5.308594.976563-2.78125 2.761719-4.171874 5.355469-4.171874 1.875 0 3.183594.484374 3.917969 1.460937zm-1.578125 12.828125c.550781-.746094.824219-1.625.824219-2.640625 0-.859375-.246094-1.679687-.738282-2.453125-.492187-.777344-1.386718-1.167969-2.683593-1.167969-.90625 0-1.699219.300781-2.386719.902344-.683594.601563-1.023438 1.507813-1.023438 2.71875 0 1.0625.3125 1.953125.929688 2.679687.621094.722657 1.484375 1.082032 2.585938 1.082032 1.109374 0 1.9375-.371094 2.492187-1.121094zm0 0"/>
    </symbol>
    <symbol id="e" overflow="visible">
        <path d="m1.914062-1.179688c-.894531-1.089843-1.339843-2.414062-1.339843-3.976562h2.203125c.09375 1.085938.296875 1.875.609375 2.367188.546875.882812 1.535156 1.324218 2.964843 1.324218 1.109376 0 2-.296875 2.671876-.890625.671874-.59375 1.007812-1.359375 1.007812-2.296875 0-1.15625-.351562-1.964844-1.0625-2.425781-.707031-.460937-1.6875-.691406-2.945312-.691406-.140626 0-.28125.003906-.429688.003906-.144531.003906-.289062.011719-.4375.019531v-1.863281c.21875.023437.402344.039063.550781.046875.148438.007812.308594.011719.480469.011719.789062 0 1.4375-.125 1.945312-.375.890626-.4375 1.335938-1.21875 1.335938-2.34375 0-.835938-.296875-1.480469-.890625-1.933594s-1.285156-.679687-2.074219-.679687c-1.40625 0-2.378906.46875-2.917968 1.40625-.296876.515624-.464844 1.25-.503907 2.203124h-2.085937c0-1.25.25-2.3125.75-3.1875.859375-1.5625 2.371094-2.34375 4.535156-2.34375 1.710938 0 3.035156.382813 3.972656 1.140626.9375.761718 1.40625 1.867187 1.40625 3.3125 0 1.03125-.277344 1.867187-.832031 2.507812-.34375.398438-.789063.710938-1.335937.9375.882812.242188 1.570312.710938 2.070312 1.398438.496094.691406.742188 1.539062.742188 2.539062 0 1.601562-.527344 2.90625-1.582032 3.914062-1.054687 1.007813-2.550781 1.511719-4.488281 1.511719-1.984375 0-3.421875-.5429685-4.320313-1.636719zm0 0"/>
    </symbol>
    <symbol id="f" overflow="visible">
        <path d="m7.933594-5.941406v-7.605469l-5.378906 7.605469zm.035156 5.941406v-4.101562h-7.359375v-2.0625l7.6875-10.664063h1.78125v10.886719h2.472656v1.839844h-2.472656v4.101562zm0 0"/>
    </symbol>
    <path d="m100 40v120m51.96094-90-103.921878 60m103.921878 0-103.921878-60" style="fill:none;stroke:#b8b8b8;stroke-width:28;stroke-linecap:round;stroke-linejoin:round;stroke-miterlimit:10"/>
    <use height="100%" width="100%" x="94" xlink:href="#a" y="46"/>
    <use height="100%" width="100%" x="145.96094" xlink:href="#b" y="76"/>
    <use height="100%" width="100%" x="145.96094" xlink:href="#c" y="136"/>
    <use height="100%" width="100%" x="94" xlink:href="#d" y="166"/>
    <use height="100%" width="100%" x="42.039062" xlink:href="#e" y="136"/>
    <use height="100%" width="100%" x="42.039062" xlink:href="#f" y="76"/>
    <path d="m100 80v40" fill="none" stroke="#fa0500" stroke-linejoin="bevel" stroke-miterlimit="10" stroke-width="12"/>
    <path d="m100 75-15 15h30z" fill="#fa0500"/>
    <g fill="none" stroke="#fb0" stroke-miterlimit="10" stroke-width="3">
        <path d="m92.56411 136.90817c12.60522-4.09568 26.14608 2.80374 30.24177 15.40895 4.09568 12.60522-2.80374 26.14608-15.40895 30.24177-12.605212 4.09568-26.146086-2.80374-30.241768-15.40895-4.095684-12.60522 2.80374-26.14609 15.408948-30.24177m-3.4782 44.20723-13.69372 4.44936m13.69372-4.44936-2.807296-14.22726"/>
        <path d="m25.178716 122.37599c4.095681-12.60522 17.636554-19.50463 30.241766-15.40895 12.605219 4.09568 19.504624 17.63654 15.408943 30.24176-4.095685 12.60521-17.636547 19.50463-30.241756 15.40896-12.605212-4.09569-19.504639-17.63656-15.408953-30.24177m1.439773 18.30981-4.449364 13.69372m4.449364-13.69372 14.227253 2.8073"/>
        <path d="m25.178715 77.455798c-4.095687-12.605216 2.803734-26.14608 15.408943-30.241761 12.60522-4.095685 26.14608 2.803732 30.241767 15.408947 4.095685 12.605216-2.803733 26.146082-15.408945 30.24176-12.60521 4.09568-26.146088-2.803724-30.241765-15.408946m1.439775-18.309812-4.449365-13.693728m4.449365 13.693728 14.227254-2.8073"/>
        <path d="m92.56411 62.923626c-12.605216-4.095684-19.504632-17.636546-15.408948-30.241764 4.095683-12.605215 17.636548-19.504634 30.241768-15.40895 12.60522 4.095682 19.50463 17.63655 15.40895 30.241766-4.09568 12.605218-17.63655 19.504632-30.24177 15.408948m-3.4782-44.20723-13.693729-4.449363m13.693729 4.449363-2.807305 14.227264"/>
        <path d="m127.95448 73.794325c-2.07336-13.090724 6.85937-25.385577 19.9501-27.458943 13.09073-2.073364 25.38558 6.85936 27.45894 19.950094 2.07338 13.090726-6.85936 25.385578-19.95009 27.45894-13.09072 2.073368-25.38558-6.859356-27.45895-19.950091m37.81372-23.169375.54712 14.491268m-.54712-14.491268 14.22117-2.252409"/>
        <path d="m127.95448 126.03745c2.07337-13.09072 14.36821-22.02346 27.45894-19.95008 13.09073 2.07336 22.02346 14.36822 19.9501 27.45894-2.07337 13.09072-14.36823 22.02346-27.45894 19.95009-13.09074-2.07337-22.02346-14.36821-19.9501-27.45895m37.81371 23.16938.54711-14.49127m-.54711 14.49127 14.22117 2.25241"/>
    </g>
</svg>
