<svg height="200pt" viewBox="0 0 200 200" width="200pt" xmlns="http://www.w3.org/2000/svg" xmlns:xlink="http://www.w3.org/1999/xlink">
    <symbol id="a" overflow="visible">
        <path d="m1.371094-3.144531c.433594-.890625 1.277344-1.703125 2.535156-2.433594l1.875-1.082031c.839844-.488282 1.429688-.90625 1.765625-1.25.535156-.539063.804687-1.160156.804687-1.855469 0-.8125-.246093-1.460937-.734374-1.9375-.488282-.480469-1.140626-.71875-1.953126-.71875-1.203124 0-2.039062.457031-2.5 1.367187-.246093.488282-.382812 1.164063-.410156 2.03125h-1.785156c.019531-1.21875.242188-2.210937.671875-2.976562.761719-1.355469 2.105469-2.03125 4.03125-2.03125 1.601563 0 2.773437.429688 3.511719 1.296875.738281.867187 1.109375 1.828125 1.109375 2.890625 0 1.121094-.394531 2.078125-1.183594 2.871094-.453125.460937-1.269531 1.023437-2.449219 1.679687l-1.339844.742188c-.636718.351562-1.136718.6875-1.5 1.003906-.652343.566406-1.0625 1.195313-1.234374 1.886719h7.640624v1.660156h-9.601562c.066406-1.203125.3125-2.253906.746094-3.144531zm0 0"/>
    </symbol>
    <symbol id="b" overflow="visible">
        <path d="m9.117188-12.828125c.613281.8125.921874 1.648437.921874 2.507813h-1.738281c-.105469-.554688-.269531-.988282-.496093-1.300782-.425782-.585937-1.066407-.878906-1.925782-.878906-.984375 0-1.765625.453125-2.34375 1.363281-.578125.90625-.902344 2.207031-.964844 3.902344.402344-.59375.910157-1.039063 1.523438-1.328125.558594-.261719 1.183594-.390625 1.875-.390625 1.171875 0 2.191406.371094 3.0625 1.121094.875.75 1.3125 1.863281 1.3125 3.347656 0 1.269531-.414062 2.394531-1.242188 3.375-.828124.980469-2.003906 1.46875-3.535156 1.46875-1.308594 0-2.4375-.496094-3.386718-1.488281-.953126-.992188-1.429688-2.664063-1.429688-5.011719 0-1.738281.214844-3.214844.636719-4.425781.8125-2.316406 2.300781-3.476563 4.464843-3.476563 1.5625 0 2.648438.40625 3.265626 1.214844zm-1.320313 10.695313c.460937-.621094.6875-1.355469.6875-2.203126 0-.714843-.203125-1.398437-.613281-2.046874-.410156-.648438-1.15625-.96875-2.238282-.96875-.753906 0-1.414062.25-1.984374.75-.570313.5-.855469 1.257812-.855469 2.265624 0 .886719.257812 1.628907.777343 2.230469.515626.601563 1.234376.902344 2.152344.902344.925782 0 1.617188-.308594 2.074219-.929687zm0 0"/>
    </symbol>
    <symbol id="c" overflow="visible">
        <path d="m1.597656-.980469c-.746094-.910156-1.121094-2.015625-1.121094-3.316406h1.835938c.078125.90625.25 1.5625.507812 1.972656.457032.734375 1.28125 1.105469 2.472657 1.105469.925781 0 1.667969-.25 2.226562-.742188.558594-.496093.839844-1.132812.839844-1.914062 0-.964844-.292969-1.640625-.882813-2.023438-.589843-.382812-1.410156-.578124-2.457031-.578124-.117187 0-.234375.003906-.355469.007812-.121093.003906-.242187.007812-.367187.015625v-1.554687c.183594.019531.335937.03125.460937.039062.121094.007812.253907.007812.398438.007812.65625 0 1.199219-.101562 1.621094-.3125.742187-.363281 1.113281-1.015624 1.113281-1.953124 0-.695313-.246094-1.230469-.742187-1.609376-.496094-.378906-1.070313-.566406-1.726563-.566406-1.171875 0-1.984375.390625-2.433594 1.171875-.246093.429688-.386719 1.042969-.417969 1.835938h-1.742187c0-1.042969.210937-1.925781.625-2.65625.71875-1.300781 1.976563-1.953125 3.78125-1.953125 1.425781 0 2.53125.316406 3.3125.953125.78125.632812 1.171875 1.554687 1.171875 2.757812 0 .859375-.234375 1.554688-.695312 2.089844-.285157.332031-.65625.59375-1.113282.78125.734375.203125 1.308594.589844 1.722656 1.167969.414063.574218.621094 1.28125.621094 2.113281 0 1.335937-.441406 2.421875-1.316406 3.261719-.878906.8398435-2.128906 1.261718-3.742188 1.261718-1.652343 0-2.851562-.4570308-3.597656-1.363281zm0 0"/>
    </symbol>
    <symbol id="d" overflow="visible">
        <path d="m10.460938-13.75v1.53125c-.449219.4375-1.046876 1.195312-1.792969 2.277344-.746094 1.082031-1.40625 2.246094-1.980469 3.496094-.566406 1.21875-.992188 2.328124-1.289062 3.328124-.1875.644532-.429688 1.683594-.730469 3.117188h-1.941407c.441407-2.667969 1.417969-5.324219 2.929688-7.96875.890625-1.550781 1.828125-2.886719 2.8125-4.015625h-7.734375v-1.765625zm0 0"/>
    </symbol>
    <symbol id="e" overflow="visible">
        <path d="m6.609375-4.953125v-6.335937l-4.480469 6.335937zm.03125 4.953125v-3.417969h-6.132813v-1.71875l6.40625-8.886719h1.484376v9.070313h2.0625v1.535156h-2.0625v3.417969zm0 0"/>
    </symbol>
    <symbol id="f" overflow="visible">
        <path d="m7.257812-8.773438c.433594-.433593.652344-.949218.652344-1.546874 0-.523438-.207031-1-.625-1.4375-.417968-.4375-1.050781-.65625-1.902344-.65625-.847656 0-1.460937.21875-1.835937.65625-.378906.4375-.570313.945312-.570313 1.53125 0 .660156.246094 1.171874.734376 1.546874.488281.371094 1.0625.554688 1.726562.554688.777344 0 1.382812-.214844 1.820312-.648438zm.316407 6.914063c.535156-.441406.804687-1.097656.804687-1.96875 0-.90625-.277344-1.59375-.832031-2.0625-.550781-.46875-1.261719-.703125-2.125-.703125-.839844 0-1.527344.242188-2.058594.71875-.53125.480469-.792969 1.140625-.792969 1.988281 0 .730469.242188 1.359375.726563 1.890625s1.234375.792969 2.25.792969c.8125 0 1.488281-.21875 2.027344-.65625zm-5.667969-6.324219c-.515625-.519531-.773438-1.199218-.773438-2.03125 0-1.042968.378907-1.9375 1.132813-2.683594.753906-.75 1.828125-1.125 3.210937-1.125 1.34375 0 2.394532.351563 3.15625 1.058594.761719.707032 1.140626 1.53125 1.140626 2.476563 0 .871093-.21875 1.578125-.664063 2.121093-.246094.304688-.628906.601563-1.148437.898438.578124.265625 1.03125.570312 1.367187.914062.617187.652344.925781 1.5.925781 2.539063 0 1.230469-.414062 2.277344-1.238281 3.132813-.828125.8554682-1.996094 1.28125-3.507813 1.28125-1.359374 0-2.511718-.367188-3.453124-1.105469-.941407-.738281-1.410157-1.8125-1.410157-3.21875 0-.828125.203125-1.542969.605469-2.144531.402344-.601563 1.003906-1.0625 1.796875-1.382813-.488281-.207031-.867187-.449219-1.140625-.730469zm0 0"/>
    </symbol>
    <symbol id="g" overflow="visible">
        <path d="m1.914062-9.902344v-1.347656c1.269532-.125 2.15625-.332031 2.65625-.621094.5-.289062.875-.972656 1.125-2.054687h1.382813v13.925781h-1.875v-9.902344zm0 0"/>
    </symbol>
    <symbol id="h" overflow="visible">
        <path d="m2.46875-3.5625c.117188 1 .585938 1.695312 1.398438 2.078125.417968.195313.898437.292969 1.445312.292969 1.042969 0 1.8125-.332032 2.3125-.996094.503906-.664062.753906-1.398438.753906-2.207031 0-.976563-.296875-1.730469-.894531-2.265625-.59375-.535156-1.308594-.800782-2.140625-.800782-.605469 0-1.125.117188-1.558594.351563s-.804687.558594-1.109375.976563l-1.523437-.085938 1.066406-7.53125h7.265625v1.699219h-5.949219l-.597656 3.886719c.328125-.246094.636719-.433594.929688-.554688.519531-.214844 1.125-.324219 1.804687-.324219 1.285156 0 2.371094.414063 3.265625 1.238281.890625.828126 1.335938 1.875 1.335938 3.148438 0 1.320312-.410157 2.484375-1.226563 3.492188-.816406 1.011718-2.121094 1.515624-3.910156 1.515624-1.140625 0-2.148438-.320312-3.023438-.960937s-1.363281-1.625-1.46875-2.953125zm0 0"/>
    </symbol>
    <path d="m126.78906 35.328125-53.578122 129.343745m91.460932-91.460932-129.343745 53.578122m129.343745 0-129.343745-53.578122m91.460935 91.460932-53.578122-129.343745" style="fill:none;stroke:#b8b8b8;stroke-width:20;stroke-linecap:round;stroke-linejoin:round;stroke-miterlimit:10"/>
    <path d="m184.67188 73.18c0 11.046875-8.95703 20-20 20-11.04687 0-20-8.953125-20-20s8.95313-20 20-20c11.04297 0 20 8.953125 20 20m-5.85937-14.140625-1.44141 12m1.44141-12h12" fill="none" stroke="#fb0" stroke-miterlimit="10" stroke-width="3"/>
    <use height="100%" width="100%" x="121.78906" xlink:href="#a" y="40.328125"/>
    <path d="m146.78906 35.32812c0 11.046874-8.95312 20-20 20-11.04687 0-20-8.953126-20-20 0-11.042969 8.95313-20 20-20 11.04688 0 20 8.957031 20 20m-5.85937-14.140626v-12m0 12-12 1.441407" fill="none" stroke="#fb0" stroke-miterlimit="10" stroke-width="3"/>
    <use height="100%" width="100%" x="159.67188" xlink:href="#b" y="78.210938"/>
    <path d="m146.78906 164.67188c0 11.04297-8.95312 20-20 20-11.04687 0-20-8.95703-20-20 0-11.04687 8.95313-20 20-20 11.04688 0 20 8.95313 20 20m-5.85937 14.14063v12m0-12-12-1.44141" fill="none" stroke="#fb0" stroke-miterlimit="10" stroke-width="3"/>
    <use height="100%" width="100%" x="159.67188" xlink:href="#c" y="131.78906"/>
    <path d="m184.67188 126.78906c0 11.04688-8.95703 20-20 20-11.04687 0-20-8.95312-20-20 0-11.04687 8.95313-20 20-20 11.04297 0 20 8.95313 20 20m-5.85937 14.14063-1.44141-12m1.44141 12h12" fill="none" stroke="#fb0" stroke-miterlimit="10" stroke-width="3"/>
    <use height="100%" width="100%" x="121.78906" xlink:href="#d" y="169.67188"/>
    <path d="m55.328125 126.78906c0 11.04688-8.953126 20-20 20-11.042969 0-20-8.95312-20-20 0-11.04687 8.957031-20 20-20 11.046874 0 20 8.95313 20 20m-34.140626 14.14063 1.441407-12m-1.441407 12h-12" fill="none" stroke="#fb0" stroke-miterlimit="10" stroke-width="3"/>
    <use height="100%" width="100%" x="68.210938" xlink:href="#e" y="169.67188"/>
    <path d="m93.210938 164.67187c0 11.04297-8.953125 20-20 20s-20-8.95703-20-20c0-11.04687 8.953125-20 20-20s20 8.95313 20 20m-34.140625 14.14063v12m0-12 12-1.44141" fill="none" stroke="#fb0" stroke-miterlimit="10" stroke-width="3"/>
    <use height="100%" width="100%" x="30.328125" xlink:href="#f" y="131.78906"/>
    <path d="m93.210938 35.32812c0 11.046874-8.953125 20-20 20s-20-8.953126-20-20c0-11.042969 8.953125-20 20-20s20 8.957031 20 20m-34.140625-14.140626v-12m0 12 12 1.441407" fill="none" stroke="#fb0" stroke-miterlimit="10" stroke-width="3"/>
    <use height="100%" width="100%" x="30.328125" xlink:href="#g" y="78.210938"/>
    <path d="m55.328125 73.21094c0 11.046875-8.953126 20-20 20-11.042969 0-20-8.953125-20-20s8.957031-20 20-20c11.046874 0 20 8.953125 20 20m-34.140626-14.140625 1.441407 12m-1.441407-12h-12" fill="none" stroke="#fb0" stroke-miterlimit="10" stroke-width="3"/>
    <use height="100%" width="100%" x="68.210938" xlink:href="#h" y="40.328125"/>
    <path d="m100 80v40" fill="none" stroke="#fa0500" stroke-linejoin="bevel" stroke-miterlimit="10" stroke-width="12"/>
    <path d="m100 75-15 15h30z" fill="#fa0500"/>
</svg>
