<svg height="200pt" viewBox="0 0 200 200" width="200pt" xmlns="http://www.w3.org/2000/svg" xmlns:xlink="http://www.w3.org/1999/xlink">
    <symbol id="a" overflow="visible">
        <path d="m3.460938-4.992188c.164062 1.40625.8125 2.375 1.953124 2.914063.582032.273437 1.257813.410156 2.023438.410156 1.457031 0 2.539062-.464843 3.242188-1.394531.699218-.929688 1.050781-1.960938 1.050781-3.089844 0-1.367187-.417969-2.425781-1.25-3.171875-.835938-.746093-1.835938-1.121093-3.003907-1.121093-.847656 0-1.574218.164062-2.179687.492187s-1.121094.785156-1.550781 1.367187l-2.132813-.125 1.488281-10.539062h10.171876v2.378906h-8.324219l-.832031 5.441406c.453124-.347656.886718-.605468 1.296874-.78125.730469-.300781 1.570313-.449218 2.53125-.449218 1.792969 0 3.316407.578125 4.5625 1.738281 1.25 1.15625 1.875 2.625 1.875 4.398437 0 1.851563-.570312 3.484376-1.714843 4.898438-1.144531 1.410156-2.96875 2.117188-5.476563 2.117188-1.59375 0-3.003906-.4492192-4.230468-1.347657-1.226563-.898437-1.914063-2.277343-2.058594-4.136719zm0 0"/>
    </symbol>
    <symbol id="b" overflow="visible">
        <path d="m12.761719-17.957031c.863281 1.132812 1.292969 2.300781 1.292969 3.503906h-2.433594c-.144532-.773437-.378906-1.378906-.699219-1.816406-.589844-.820313-1.488281-1.230469-2.691406-1.230469-1.375 0-2.46875.636719-3.28125 1.90625-.8125 1.273438-1.261719 3.09375-1.355469 5.460938.566406-.828126 1.277344-1.445313 2.132812-1.859376.785157-.363281 1.660157-.546874 2.625-.546874 1.640626 0 3.074219.527343 4.296876 1.574218 1.21875 1.046875 1.828124 2.613282 1.828124 4.691406 0 1.777344-.578124 3.351563-1.734374 4.722657-1.15625 1.371093-2.808594 2.058593-4.949219 2.058593-1.832031 0-3.414063-.695312-4.746094-2.085937-1.328125-1.390625-1.992187-3.730469-1.992187-7.023437 0-2.433594.292968-4.496094.886718-6.191407 1.140625-3.246093 3.222656-4.867187 6.246094-4.867187 2.1875 0 3.714844.566406 4.574219 1.703125zm-1.84375 14.96875c.640625-.871094.964843-1.898438.964843-3.082031 0-1.003907-.289062-1.957032-.863281-2.863282s-1.617187-1.363281-3.128906-1.363281c-1.058594 0-1.988281.351563-2.785156 1.054687-.796875.703126-1.195313 1.757813-1.195313 3.171876 0 1.238281.363282 2.28125 1.085938 3.125.726562.84375 1.730468 1.265624 3.015625 1.265624 1.292969 0 2.261719-.4375 2.90625-1.308593zm0 0"/>
    </symbol>
    <symbol id="c" overflow="visible">
        <path d="m14.640625-19.25v2.148438c-.628906.609374-1.464844 1.671874-2.507813 3.183593-1.042968 1.511719-1.964843 3.144531-2.765624 4.894531-.792969 1.703126-1.398438 3.257813-1.804688 4.664063-.265625.902344-.609375 2.355469-1.027344 4.359375h-2.722656c.621094-3.738281 1.988281-7.457031 4.101562-11.15625 1.25-2.167969 2.5625-4.042969 3.9375-5.617188h-10.828124v-2.476562zm0 0"/>
    </symbol>
    <symbol id="d" overflow="visible">
        <path d="m10.15625-12.285156c.613281-.605469.917969-1.328125.917969-2.167969 0-.726563-.292969-1.398437-.875-2.007813-.582031-.609374-1.472657-.914062-2.667969-.914062-1.183594 0-2.039062.304688-2.570312.914062-.527344.609376-.789063 1.328126-.789063 2.148438 0 .917969.339844 1.640625 1.023437 2.15625.683594.519531 1.492188.78125 2.421876.78125 1.082031 0 1.929687-.304688 2.539062-.910156zm.445312 9.679687c.753907-.613281 1.128907-1.53125 1.128907-2.753906 0-1.265625-.386719-2.226563-1.160157-2.882813-.777343-.65625-1.769531-.984374-2.984374-.984374-1.175782 0-2.132813.332031-2.875 1.003906-.742188.667968-1.117188 1.597656-1.117188 2.78125 0 1.019531.339844 1.902344 1.019531 2.644531.679688.742187 1.730469 1.117187 3.152344 1.117187 1.140625 0 2.085937-.308593 2.835937-.925781zm-7.9375-8.851562c-.71875-.730469-1.078124-1.675781-1.078124-2.84375 0-1.457031.527343-2.710938 1.585937-3.761719 1.058594-1.046875 2.554687-1.570312 4.5-1.570312 1.875 0 3.347656.496093 4.414063 1.484374 1.066406.988282 1.601562 2.144532 1.601562 3.464844 0 1.222656-.3125 2.210938-.929688 2.964844-.347656.429688-.886718.851562-1.617187 1.257812.8125.375 1.453125.804688 1.914063 1.289063.867187.910156 1.300781 2.09375 1.300781 3.554687 0 1.722657-.578125 3.179688-1.738281 4.378907-1.15625 1.1992185-2.792969 1.800781-4.90625 1.800781-1.90625 0-3.515626-.5195312-4.832032-1.554688-1.316406-1.035156-1.976562-2.535156-1.976562-4.503906 0-1.15625.28125-2.15625.847656-3s1.402344-1.488281 2.515625-1.933594c-.683594-.292968-1.21875-.636718-1.601563-1.027343zm0 0"/>
    </symbol>
    <symbol id="e" overflow="visible">
        <path d="m2.679688-13.863281v-1.886719c1.777343-.171875 3.015624-.460938 3.71875-.867188.703124-.40625 1.226562-1.367187 1.570312-2.878906h1.945312v19.496094h-2.625v-13.863281zm0 0"/>
    </symbol>
    <symbol id="f" overflow="visible">
        <path d="m1.921875-4.402344c.605469-1.25 1.789063-2.382812 3.546875-3.402344l2.625-1.519531c1.175781-.683593 2-1.265625 2.476562-1.75.746094-.757812 1.117188-1.621093 1.117188-2.597656 0-1.140625-.339844-2.042969-1.023438-2.714844-.683593-.667969-1.59375-1.003906-2.734374-1.003906-1.6875 0-2.851563.636719-3.5 1.914063-.347657.683593-.539063 1.632812-.574219 2.84375h-2.503907c.027344-1.703126.34375-3.09375.945313-4.171876 1.066406-1.894531 2.949219-2.84375 5.648437-2.84375 2.242188 0 3.878907.609376 4.914063 1.820313s1.550781 2.5625 1.550781 4.046875c0 1.566406-.550781 2.90625-1.652344 4.019531-.640624.648438-1.785156 1.429688-3.433593 2.351563l-1.871094 1.039062c-.894531.492188-1.597656.960938-2.109375 1.410156-.910156.792969-1.484375 1.671876-1.71875 2.636719h10.6875v2.324219h-13.4375c.089844-1.6875.441406-3.152344 1.046875-4.402344zm0 0"/>
    </symbol>
    <symbol id="g" overflow="visible">
        <path d="m2.234375-1.375c-1.042969-1.269531-1.5625-2.816406-1.5625-4.640625h2.570313c.109374 1.265625.34375 2.1875.710937 2.761719.636719 1.03125 1.789063 1.542968 3.457031 1.542968 1.292969 0 2.332032-.34375 3.117188-1.039062.785156-.691406 1.175781-1.585938 1.175781-2.679688 0-1.347656-.414063-2.289062-1.238281-2.828124-.824219-.539063-1.96875-.804688-3.4375-.804688-.164063 0-.332032 0-.5.003906-.167969.003906-.339844.011719-.511719.019532v-2.171876c.253906.027344.46875.046876.640625.054688.175781.007812.363281.015625.5625.015625.921875 0 1.675781-.148437 2.269531-.4375 1.039063-.511719 1.558594-1.421875 1.558594-2.734375 0-.976562-.347656-1.730469-1.039063-2.257812-.691406-.527344-1.5-.792969-2.421874-.792969-1.640626 0-2.773438.546875-3.402344 1.640625-.347656.601562-.542969 1.457031-.589844 2.570312h-2.429688c0-1.457031.289063-2.699218.875-3.71875 1-1.824218 2.765626-2.734375 5.289063-2.734375 1.996094 0 3.539063.445313 4.632813 1.332031 1.09375.890626 1.640624 2.175782 1.640624 3.863282 0 1.203125-.320312 2.179687-.96875 2.925781-.402343.464844-.921874.828125-1.558593 1.09375 1.03125.28125 1.835937.828125 2.414062 1.632813.578125.808593.867188 1.792968.867188 2.960937 0 1.867187-.613281 3.390625-1.847657 4.566406-1.230468 1.1757815-2.972656 1.761719-5.234374 1.761719-2.316407 0-3.996094-.632812-5.039063-1.90625zm0 0"/>
    </symbol>
    <symbol id="h" overflow="visible">
        <path d="m9.257812-6.929688v-8.875l-6.277343 8.875zm.039063 6.929688v-4.785156h-8.585937v-2.40625l8.96875-12.441406h2.078124v12.703124h2.882813v2.144532h-2.882813v4.785156zm0 0"/>
    </symbol>
    <g fill="none" stroke="#fb0" stroke-miterlimit="10" stroke-width="3">
        <path d="m57.836417 29.999998c0 15.464844-12.535156 28.000002-28 28.000002s-27.9999998-12.535158-27.9999998-28.000002 12.5351558-28 27.9999998-28 28 12.535156 28 28m-8.199219-19.800781v-16.800781m0 16.800781-16.800781 2.015625"/>
        <path d="m197.84583 30c0 15.464844-12.53516 28-28 28s-28-12.535156-28-28 12.53516-28 28-28 28 12.535156 28 28m-47.80078-19.800781v-16.800781m0 16.800781 16.80078 2.015625"/>
        <path d="m57.836417 170c0 15.46484-12.535156 28-28 28s-27.9999998-12.53516-27.9999998-28 12.5351558-28 27.9999998-28 28 12.53516 28 28m-8.199219 19.80078v16.80078m0-16.80078-16.800781-2.01562"/>
        <path d="m197.84583 170c0 15.46484-12.53516 28-28 28s-28-12.53516-28-28 12.53516-28 28-28 28 12.53516 28 28m-47.80078 19.80078v16.80078m0-16.80078 16.80078-2.01562"/>
    </g>
    <use height="100%" width="100%" x="171" xlink:href="#a" y="191"/>
    <use height="100%" width="100%" x="171" xlink:href="#b" y="27"/>
    <use height="100%" width="100%" x="13" xlink:href="#c" y="191"/>
    <use height="100%" width="100%" x="13" xlink:href="#d" y="27"/>
    <path d="m50 50 100 100m-100 0 100-100" style="fill:none;stroke:#b8b8b8;stroke-width:28;stroke-linecap:round;stroke-linejoin:round;stroke-miterlimit:10"/>
    <path d="m178 150c0 15.46484-12.53516 28-28 28s-28-12.53516-28-28 12.53516-28 28-28 28 12.53516 28 28" fill="#fff" fill-opacity=".533333"/>
    <use height="100%" width="100%" x="143" xlink:href="#e" y="147"/>
    <path d="m178 50c0 15.464844-12.53516 28-28 28s-28-12.535156-28-28 12.53516-28 28-28 28 12.535156 28 28" fill="#fff" fill-opacity=".533333"/>
    <use height="100%" width="100%" x="143" xlink:href="#f" y="69"/>
    <path d="m78 150c0 15.46484-12.535156 28-28 28s-28-12.53516-28-28 12.535156-28 28-28 28 12.53516 28 28" fill="#fff" fill-opacity=".533333"/>
    <use height="100%" width="100%" x="43" xlink:href="#g" y="147"/>
    <path d="m78 50c0 15.464844-12.535156 28-28 28s-28-12.535156-28-28 12.535156-28 28-28 28 12.535156 28 28" fill="#fff" fill-opacity=".533333"/>
    <use height="100%" width="100%" x="43" xlink:href="#h" y="69"/>
    <path d="m100 80v40" fill="none" stroke="#fa0500" stroke-linejoin="bevel" stroke-miterlimit="10" stroke-width="12"/>
    <path d="m100 75-15 15h30z" fill="#fa0500"/>
    <path d="m178 150.04207c0 15.46484-12.53516 28-28 28s-28-12.53516-28-28 12.53516-27.99999 28-27.99999 28 12.53515 28 27.99999m-8.19922-19.80077-2.01562 16.80077m2.01562-16.80077h16.80078" fill="none" stroke="#fb0" stroke-miterlimit="10" stroke-width="3"/>
    <path d="m78 150.04207c0 15.46485-12.535156 28-28 28s-28-12.53515-28-28c0-15.46484 12.535156-27.99999 28-27.99999s28 12.53515 28 27.99999m-47.800781-19.80078 2.015625 16.80078m-2.015625-16.80078h-16.800781" fill="none" stroke="#fb0" stroke-miterlimit="10" stroke-width="3"/>
    <path d="m178 50.01739c0 15.464844-12.53516 28.000004-28 28.000004s-28-12.53516-28-28.000004 12.53516-28 28-28 28 12.535156 28 28m-8.19922 19.800784-2.01562-16.800784m2.01562 16.800784h16.80078" fill="none" stroke="#fb0" stroke-miterlimit="10" stroke-width="3"/>
    <path d="m77.952873 50.01739c0 15.464844-12.535156 28-28 28s-28-12.535156-28-28 12.535156-28 28-28 28 12.535156 28 28m-47.800781 19.800781 2.015625-16.800781m-2.015625 16.800781h-16.800781" fill="none" stroke="#fb0" stroke-miterlimit="10" stroke-width="3"/>
</svg>
