<svg height="200pt" viewBox="0 0 200 200" width="200pt" xmlns="http://www.w3.org/2000/svg" xmlns:xlink="http://www.w3.org/1999/xlink">
    <symbol id="a" overflow="visible">
        <path d="m2.679688-13.863281v-1.886719c1.777343-.171875 3.015624-.460938 3.71875-.867188.703124-.40625 1.226562-1.367187 1.570312-2.878906h1.945312v19.496094h-2.625v-13.863281zm0 0"/>
    </symbol>
    <symbol id="b" overflow="visible">
        <path d="m1.921875-4.402344c.605469-1.25 1.789063-2.382812 3.546875-3.402344l2.625-1.519531c1.175781-.683593 2-1.265625 2.476562-1.75.746094-.757812 1.117188-1.621093 1.117188-2.597656 0-1.140625-.339844-2.042969-1.023438-2.714844-.683593-.667969-1.59375-1.003906-2.734374-1.003906-1.6875 0-2.851563.636719-3.5 1.914063-.347657.683593-.539063 1.632812-.574219 2.84375h-2.503907c.027344-1.703126.34375-3.09375.945313-4.171876 1.066406-1.894531 2.949219-2.84375 5.648437-2.84375 2.242188 0 3.878907.609376 4.914063 1.820313s1.550781 2.5625 1.550781 4.046875c0 1.566406-.550781 2.90625-1.652344 4.019531-.640624.648438-1.785156 1.429688-3.433593 2.351563l-1.871094 1.039062c-.894531.492188-1.597656.960938-2.109375 1.410156-.910156.792969-1.484375 1.671876-1.71875 2.636719h10.6875v2.324219h-13.4375c.089844-1.6875.441406-3.152344 1.046875-4.402344zm0 0"/>
    </symbol>
    <symbol id="c" overflow="visible">
        <path d="m2.234375-1.375c-1.042969-1.269531-1.5625-2.816406-1.5625-4.640625h2.570313c.109374 1.265625.34375 2.1875.710937 2.761719.636719 1.03125 1.789063 1.542968 3.457031 1.542968 1.292969 0 2.332032-.34375 3.117188-1.039062.785156-.691406 1.175781-1.585938 1.175781-2.679688 0-1.347656-.414063-2.289062-1.238281-2.828124-.824219-.539063-1.96875-.804688-3.4375-.804688-.164063 0-.332032 0-.5.003906-.167969.003906-.339844.011719-.511719.019532v-2.171876c.253906.027344.46875.046876.640625.054688.175781.007812.363281.015625.5625.015625.921875 0 1.675781-.148437 2.269531-.4375 1.039063-.511719 1.558594-1.421875 1.558594-2.734375 0-.976562-.347656-1.730469-1.039063-2.257812-.691406-.527344-1.5-.792969-2.421874-.792969-1.640626 0-2.773438.546875-3.402344 1.640625-.347656.601562-.542969 1.457031-.589844 2.570312h-2.429688c0-1.457031.289063-2.699218.875-3.71875 1-1.824218 2.765626-2.734375 5.289063-2.734375 1.996094 0 3.539063.445313 4.632813 1.332031 1.09375.890626 1.640624 2.175782 1.640624 3.863282 0 1.203125-.320312 2.179687-.96875 2.925781-.402343.464844-.921874.828125-1.558593 1.09375 1.03125.28125 1.835937.828125 2.414062 1.632813.578125.808593.867188 1.792968.867188 2.960937 0 1.867187-.613281 3.390625-1.847657 4.566406-1.230468 1.1757815-2.972656 1.761719-5.234374 1.761719-2.316407 0-3.996094-.632812-5.039063-1.90625zm0 0"/>
    </symbol>
    <symbol id="d" overflow="visible">
        <path d="m9.257812-6.929688v-8.875l-6.277343 8.875zm.039063 6.929688v-4.785156h-8.585937v-2.40625l8.96875-12.441406h2.078124v12.703124h2.882813v2.144532h-2.882813v4.785156zm0 0"/>
    </symbol>
    <path d="m40 40 120 120m-120 0 120-120" style="fill:none;stroke:#b8b8b8;stroke-width:28;stroke-linecap:round;stroke-linejoin:round;stroke-miterlimit:10"/>
    <path d="m160 68c-15.46484 0-28-12.53515-28-28 0-15.46484 12.53516-28 28-28s28 12.53516 28 28c0 15.46485-12.53516 28-28 28m19.80078-47.80078-16.80078 2.01563m16.80078-2.01563v-16.80078" fill="none" stroke="#fb0" stroke-miterlimit="10" stroke-width="3"/>
    <use height="100%" width="100%" x="33" xlink:href="#a" y="47"/>
    <path d="m40 12c15.464844 0 28 12.53516 28 28s-12.535156 28-28 28-28-12.53516-28-28 12.535156-28 28-28m-19.800781 8.19922 16.800781 2.01562m-16.800781-2.01562v-16.80078" fill="none" stroke="#fb0" stroke-miterlimit="10" stroke-width="3"/>
    <use height="100%" width="100%" x="153" xlink:href="#b" y="47"/>
    <path d="m40 188c-15.46484 0-28-12.53516-28-28s12.53516-28 28-28 28 12.53516 28 28-12.53516 28-28 28m-19.80078-8.19922 16.80078-2.01562m-16.80078 2.01562v16.80078" fill="none" stroke="#fb0" stroke-miterlimit="10" stroke-width="3"/>
    <use height="100%" width="100%" x="153" xlink:href="#c" y="167"/>
    <path d="m160 132c15.46484 0 28 12.53516 28 28s-12.53516 28-28 28-28-12.53516-28-28 12.53516-28 28-28m19.80078 47.80078-16.80078-2.01562m16.80078 2.01562v16.80078" fill="none" stroke="#fb0" stroke-miterlimit="10" stroke-width="3"/>
    <use height="100%" width="100%" x="33" xlink:href="#d" y="167"/>
    <path d="m100 80v40" fill="none" stroke="#fa0500" stroke-linejoin="bevel" stroke-miterlimit="10" stroke-width="12"/>
    <path d="m100 75-15 15h30z" fill="#fa0500"/>
</svg>
