<svg height="200pt" viewBox="0 0 200 200" width="200pt" xmlns="http://www.w3.org/2000/svg" xmlns:xlink="http://www.w3.org/1999/xlink">
    <symbol id="a" overflow="visible">
        <path d="m2.679688-13.863281v-1.886719c1.777343-.171875 3.015624-.460938 3.71875-.867188.703124-.40625 1.226562-1.367187 1.570312-2.878906h1.945312v19.496094h-2.625v-13.863281zm0 0"/>
    </symbol>
    <symbol id="b" overflow="visible">
        <path d="m1.921875-4.402344c.605469-1.25 1.789063-2.382812 3.546875-3.402344l2.625-1.519531c1.175781-.683593 2-1.265625 2.476562-1.75.746094-.757812 1.117188-1.621093 1.117188-2.597656 0-1.140625-.339844-2.042969-1.023438-2.714844-.683593-.667969-1.59375-1.003906-2.734374-1.003906-1.6875 0-2.851563.636719-3.5 1.914063-.347657.683593-.539063 1.632812-.574219 2.84375h-2.503907c.027344-1.703126.34375-3.09375.945313-4.171876 1.066406-1.894531 2.949219-2.84375 5.648437-2.84375 2.242188 0 3.878907.609376 4.914063 1.820313s1.550781 2.5625 1.550781 4.046875c0 1.566406-.550781 2.90625-1.652344 4.019531-.640624.648438-1.785156 1.429688-3.433593 2.351563l-1.871094 1.039062c-.894531.492188-1.597656.960938-2.109375 1.410156-.910156.792969-1.484375 1.671876-1.71875 2.636719h10.6875v2.324219h-13.4375c.089844-1.6875.441406-3.152344 1.046875-4.402344zm0 0"/>
    </symbol>
    <symbol id="c" overflow="visible">
        <path d="m2.234375-1.375c-1.042969-1.269531-1.5625-2.816406-1.5625-4.640625h2.570313c.109374 1.265625.34375 2.1875.710937 2.761719.636719 1.03125 1.789063 1.542968 3.457031 1.542968 1.292969 0 2.332032-.34375 3.117188-1.039062.785156-.691406 1.175781-1.585938 1.175781-2.679688 0-1.347656-.414063-2.289062-1.238281-2.828124-.824219-.539063-1.96875-.804688-3.4375-.804688-.164063 0-.332032 0-.5.003906-.167969.003906-.339844.011719-.511719.019532v-2.171876c.253906.027344.46875.046876.640625.054688.175781.007812.363281.015625.5625.015625.921875 0 1.675781-.148437 2.269531-.4375 1.039063-.511719 1.558594-1.421875 1.558594-2.734375 0-.976562-.347656-1.730469-1.039063-2.257812-.691406-.527344-1.5-.792969-2.421874-.792969-1.640626 0-2.773438.546875-3.402344 1.640625-.347656.601562-.542969 1.457031-.589844 2.570312h-2.429688c0-1.457031.289063-2.699218.875-3.71875 1-1.824218 2.765626-2.734375 5.289063-2.734375 1.996094 0 3.539063.445313 4.632813 1.332031 1.09375.890626 1.640624 2.175782 1.640624 3.863282 0 1.203125-.320312 2.179687-.96875 2.925781-.402343.464844-.921874.828125-1.558593 1.09375 1.03125.28125 1.835937.828125 2.414062 1.632813.578125.808593.867188 1.792968.867188 2.960937 0 1.867187-.613281 3.390625-1.847657 4.566406-1.230468 1.1757815-2.972656 1.761719-5.234374 1.761719-2.316407 0-3.996094-.632812-5.039063-1.90625zm0 0"/>
    </symbol>
    <symbol id="d" overflow="visible">
        <path d="m2.234375-3.703125c.035156.652344.191406 1.179687.460937 1.585937.515626.761719 1.425782 1.140626 2.726563 1.140626.582031 0 1.113281-.082032 1.59375-.25.925781-.324219 1.390625-.902344 1.390625-1.734376 0-.625-.195312-1.070312-.585938-1.335937-.394531-.261719-1.015624-.488281-1.859374-.679687l-1.554688-.351563c-1.015625-.230469-1.734375-.480469-2.15625-.757813-.730469-.480468-1.09375-1.195312-1.09375-2.148437 0-1.03125.355469-1.878906 1.070312-2.539063.714844-.660156 1.722657-.992187 3.03125-.992187 1.203126 0 2.226563.289063 3.066407.871094.839843.582031 1.261719 1.507812 1.261719 2.785156h-1.460938c-.078125-.613281-.246094-1.085937-.5-1.414063-.472656-.597656-1.277344-.898437-2.414062-.898437-.917969 0-1.574219.191406-1.976563.578125s-.601563.832031-.601563 1.34375c0 .5625.234376.972656.703126 1.234375.308593.167969 1.003906.375 2.085937.625l1.609375.367187c.777344.175782 1.375.417969 1.796875.726563.730469.535156 1.09375 1.316406 1.09375 2.335937 0 1.269532-.460937 2.179688-1.386719 2.726563-.925781.546875-2 .820313-3.222656.820313-1.425781 0-2.542969-.3632818-3.351562-1.09375-.808594-.722657-1.203126-1.707032-1.1875-2.945313zm0 0"/>
    </symbol>
    <symbol id="e" overflow="visible">
        <path d="m1.53125-7.921875v-1.078125c1.015625-.097656 1.722656-.265625 2.125-.496094.402344-.230468.699219-.78125.898438-1.644531h1.109374v11.140625h-1.5v-7.921875zm0 0"/>
    </symbol>
    <path d="m40 40h120m-60 0v120" style="fill:none;stroke:#b8b8b8;stroke-width:28;stroke-linecap:round;stroke-linejoin:round;stroke-miterlimit:10"/>
    <use height="100%" width="100%" x="93" xlink:href="#a" y="167"/>
    <path d="m40 68c-15.464844 0-28-12.53516-28-28s12.535156-28 28-28 28 12.53516 28 28-12.535156 28-28 28m20-48-17 2m17-2v-17" fill="none" stroke="#fb0" stroke-miterlimit="10" stroke-width="3"/>
    <use height="100%" width="100%" x="153" xlink:href="#b" y="47"/>
    <path d="m160 12c15.46484 0 28 12.53516 28 28s-12.53516 28-28 28-28-12.53516-28-28 12.53516-28 28-28m-19.80078 8.19922 16.80078 2.01562m-16.80078-2.01562v-16.80078" fill="none" stroke="#fb0" stroke-miterlimit="10" stroke-width="3"/>
    <use height="100%" width="100%" x="33" xlink:href="#c" y="47"/>
    <path d="m140 140h28v28h-28zm0 0" fill="none" stroke="#000" stroke-miterlimit="10" stroke-width="3"/>
    <g>
        <use height="100%" width="100%" x="144" xlink:href="#d" y="160"/>
        <use height="100%" width="100%" x="154.67188" xlink:href="#e" y="160"/>
    </g>
    <path d="m100 70v40" fill="none" stroke="#fa0500" stroke-linejoin="bevel" stroke-miterlimit="10" stroke-width="12"/>
    <path d="m100 65-15 15h30z" fill="#fa0500"/>
    <path d="m128 160c0 15.46484-12.53516 28-28 28s-28-12.53516-28-28 12.53516-28 28-28 28 12.53516 28 28m-48-20 2 17m-2-17h-17" fill="none" stroke="#fb0" stroke-miterlimit="10" stroke-width="3"/>
</svg>
