<?xml version="1.0" encoding="UTF-8" standalone="no"?>
<!-- Generator: Adobe Illustrator 19.1.0, SVG Export Plug-In . SVG Version: 6.00 Build 0)  -->

<svg
   xmlns:dc="http://purl.org/dc/elements/1.1/"
   xmlns:cc="http://creativecommons.org/ns#"
   xmlns:rdf="http://www.w3.org/1999/02/22-rdf-syntax-ns#"
   xmlns:svg="http://www.w3.org/2000/svg"
   xmlns="http://www.w3.org/2000/svg"
   xmlns:sodipodi="http://sodipodi.sourceforge.net/DTD/sodipodi-0.dtd"
   xmlns:inkscape="http://www.inkscape.org/namespaces/inkscape"
   version="1.1"
   id="svg4057"
   sodipodi:docname="jruz-light-wide-2.svg"
   inkscape:version="0.92.0 r15299"
   x="0px"
   y="0px"
   viewBox="-21 39.4 239.9 62.3"
   xml:space="preserve"
   width="255.89333"
   height="66.453331"><metadata
   id="metadata27"><rdf:RDF><cc:Work
       rdf:about=""><dc:format>image/svg+xml</dc:format><dc:type
         rdf:resource="http://purl.org/dc/dcmitype/StillImage" /><dc:title></dc:title></cc:Work></rdf:RDF></metadata><defs
   id="defs25" />
<style
   type="text/css"
   id="style2">
	.st0{fill:#FFBB00;}
	.st1{fill:#FFFFFF;}
</style>
<sodipodi:namedview
   inkscape:window-maximized="1"
   inkscape:pageopacity="0"
   inkscape:current-layer="svg4057"
   inkscape:showpageshadow="false"
   inkscape:window-y="124"
   inkscape:window-height="706"
   inkscape:pageshadow="2"
   fit-margin-bottom="0"
   inkscape:window-x="1432"
   fit-margin-right="0"
   inkscape:window-width="1366"
   inkscape:document-units="px"
   id="base"
   borderopacity="1.0"
   bordercolor="#666666"
   fit-margin-left="0"
   inkscape:cx="150.24208"
   inkscape:zoom="1.4"
   showgrid="true"
   inkscape:cy="-40.407035"
   fit-margin-top="0"
   borderlayer="false"
   showborder="true"
   showguides="false"
   pagecolor="#464646">
	<inkscape:grid
   type="xygrid"
   id="grid4093"
   originy="-961.96023"
   originx="-10.04131"
   spacingx="1"
   spacingy="1" />
</sodipodi:namedview>
<g
   id="g22">
	<g
   id="g18">
		<path
   class="st1"
   d="m 125.1,61.9 h 13.7 l -1.6,4.5 H 129 l -0.8,2.2 h 7.1 l -1.5,4.2 h -7.1 l -2.4,6.8 h -5.5 z"
   id="path6"
   inkscape:connector-curvature="0"
   style="fill:#ffffff" />
		<path
   class="st1"
   d="m 140.9,61.9 h 5.5 L 141.7,75 h 7.9 l -1.6,4.5 h -13.3 z"
   id="path8"
   inkscape:connector-curvature="0"
   style="fill:#ffffff" />
		<path
   class="st1"
   d="m 156.2,61.9 h 5.5 l -6.3,17.7 h -5.5 z"
   id="path10"
   inkscape:connector-curvature="0"
   style="fill:#ffffff" />
		<path
   class="st1"
   d="m 172,77.8 c -1.8,1.6 -3.9,2.2 -5.8,2.2 -5.2,0 -7,-4.1 -5.2,-9.1 2.4,-6.8 8.1,-9.5 12.1,-9.5 4.5,0 6.5,2.5 5.8,6.6 h -5.2 c 0.3,-1.3 -0.5,-2.2 -1.8,-2.2 -3.8,0 -5,4 -5.5,5.2 -0.6,1.7 -0.9,4.6 2.4,4.6 1.3,0 2.8,-0.6 3.5,-2 h -2.4 l 1.3,-3.8 h 7.3 l -3.5,9.8 h -3.5 z"
   id="path12"
   inkscape:connector-curvature="0"
   style="fill:#ffffff" />
		<path
   class="st1"
   d="m 184.3,61.9 h 5.5 l -2.2,6.2 h 5.1 l 2.2,-6.2 h 5.5 l -6.3,17.7 h -5.5 l 2.5,-7 H 186 l -2.5,7 H 178 Z"
   id="path14"
   inkscape:connector-curvature="0"
   style="fill:#ffffff" />
		<path
   class="st1"
   d="m 205.6,66.4 h -5 l 1.6,-4.5 h 15.4 l -1.6,4.5 h -5 l -4.7,13.2 h -5.5 z"
   id="path16"
   inkscape:connector-curvature="0"
   style="fill:#ffffff" />
	</g>
	<path
   class="st0"
   d="m 30.5,84 c -4.8,-2 -8.3,-5 -11.7,-6.3 1.8,-0.8 3.5,-1.9 4.5,-2.9 1.1,-1.1 1.5,-2.4 1.4,-3.7 3.6,2.4 7.8,2.6 10,2.7 2.2,0.1 4.4,0.6 4.8,1.6 0,0 0.7,-12.2 -24.4,-20.3 0,0 7.5,3.4 9.8,6.1 0,0 -2.7,-0.2 -3.8,1.6 -0.6,0.9 -0.7,2.2 -0.2,3.7 -0.4,-0.1 -0.9,-0.1 -1.4,-0.2 l -39.8,-22.1 4.2,9 -3.9,-1.4 1.2,2.2 c 0,0 1.7,3.2 5.5,9.9 3,5.3 8.4,7.9 15.6,7.6 0.3,0 0.6,0 0.9,0 1.8,-0.1 4.6,-0.4 7.3,-0.6 -0.2,1 -0.2,2.2 0.1,3.6 0.3,1.6 1,2.7 1.8,3.3 -2.1,1 -4.1,3 -4.9,5.3 0,0 0,0 0,0 -0.6,1.5 -0.8,3.2 0,5.3 0,0 0,0 0,0 0.1,0.4 0.3,0.8 0.6,1.3 0.2,0.4 0.5,0.8 0.9,1.2 4.4,5.3 15.2,4.4 22,1.6 0.1,0 0.2,-0.1 0.3,-0.1 0.5,-0.2 1.1,-0.5 1.6,-0.7 0.1,-0.1 0.2,-0.1 0.3,-0.2 0.6,-0.3 1.1,-0.6 1.7,-0.9 6.7,-3.9 9,-8.5 9,-8.5 0,0 -6.9,4.6 -13.4,1.9 z m 1.7,-18.1 c 1.9,0.8 4.8,5.6 4.8,5.6 -2.4,-0.4 -7.3,-2 -7.8,-3.8 -0.5,-1.8 1.1,-2.6 3,-1.8 z m -6.3,23.6 c 0,0 0.5,1.6 -0.1,3.7 -0.7,0.2 -1.4,0.3 -2.1,0.5 1.2,-0.9 2.2,-2.3 2.2,-4.2 z M -7,59 10.3,68.8 c -3.2,0.3 -6.5,0.6 -8.2,0.7 -2.6,0.1 -4.9,-0.2 -6.9,-0.9 -3,-1 -5.2,-3 -6.8,-5.7 -2,-3.4 -3.3,-5.9 -4.2,-7.5 l 3.6,1.2 -3.6,-7.7 31.5,17.4 C 14.8,66.4 14,66.7 13.2,67 Z m 18.4,12.3 c 1.2,-5.8 8.7,-4 8.7,-4 -2.7,0 -4.3,0.7 -5.1,1.8 -1.2,1.6 0.3,2.9 0.3,2.9 -0.4,-0.1 -0.8,-0.2 -1,-0.4 0,0 0,0 0,0.1 0.6,2.3 2.5,2.9 2.5,2.9 -0.7,0.1 -1.3,0 -1.8,-0.1 0.4,0.9 1,1.6 1.3,1.8 -1.7,0 -2.5,0.4 -3.1,0.6 -1.3,-0.9 -2.4,-3.1 -1.8,-5.6 z m 5.1,12.8 c 0,0 -2.7,3.4 -8.6,3.4 -0.3,-1.3 -0.2,-2.6 0.1,-3.8 1.9,1.2 4.7,1.8 8.5,0.4 z M 11.6,92 c 2.5,-0.6 5.7,-2 8.7,-5.4 0,0 -0.4,3.8 -3.2,7.3 -1.3,-0.2 -2.6,-0.5 -3.8,-1 -0.6,-0.3 -1.2,-0.6 -1.7,-0.9 z m 23.6,-3.1 c -0.3,-0.9 -0.5,-2.8 -0.5,-2.8 2.1,0.2 4.6,-0.7 4.6,-0.7 -1.7,2.2 -4.1,3.5 -4.1,3.5 z"
   id="path20"
   inkscape:connector-curvature="0"
   style="fill:#ffbb00" />
</g>
<text
   xml:space="preserve"
   style="font-style:normal;font-weight:normal;font-size:12.5px;line-height:23.4375px;font-family:sans-serif;letter-spacing:0px;word-spacing:0px;fill:#000000;fill-opacity:1;stroke:none;stroke-width:0.93750006"
   x="47.797173"
   y="79.52655"
   id="text846"><tspan
     sodipodi:role="line"
     x="47.797173"
     y="79.52655"
     id="tspan844"
     style="stroke-width:0.93750006"><tspan
       x="47.797173"
       y="79.52655"
       style="font-style:italic;font-variant:normal;font-weight:bold;font-stretch:normal;font-size:25px;font-family:sans-serif;-inkscape-font-specification:'sans-serif Bold Italic';fill:#ffbb00;fill-opacity:1;stroke-width:0.93750006"
       id="tspan842">JRUZ</tspan></tspan></text>
</svg>