<?xml version="1.0" encoding="utf-8"?>
<svg viewBox="0 0 500 500" xmlns="http://www.w3.org/2000/svg">
  <path d="M 498.25 249.524 C 498.25 386.831 386.941 498.14 249.634 498.14 C 112.327 498.14 1.018 386.831 1.018 249.524 C 1.018 112.217 112.327 0.908 249.634 0.908 C 322.597 0.908 388.219 32.339 433.7 82.399 C 334.451 142.436 269.55 216.455 213.055 312.593 L 127.757 151.63 L 54.042 218.642 L 216.387 447.914 C 305.243 286.114 350.541 188.665 450.938 103.594 C 480.699 144.577 498.25 195.001 498.25 249.524 Z" style="fill: rgb(255, 187, 0); fill-rule: nonzero; paint-order: fill;"/>
  <path d="M 498.75 249.524 C 498.75 318.28 470.839 380.622 425.786 425.676 C 380.732 470.729 318.39 498.64 249.634 498.64 C 180.878 498.64 118.536 470.729 73.482 425.676 C 28.429 380.622 0.518 318.28 0.518 249.524 C 0.518 180.768 28.429 118.426 73.482 73.372 C 118.536 28.319 180.878 0.408 249.634 0.408 C 318.39 0.408 380.732 28.319 425.786 73.372 C 470.839 118.426 498.75 180.768 498.75 249.524 Z M 425.079 74.079 C 380.151 29.152 318.185 1.408 249.634 1.408 C 181.083 1.408 119.117 29.152 74.189 74.079 C 29.262 119.007 1.518 180.973 1.518 249.524 C 1.518 318.075 29.262 380.041 74.189 424.969 C 119.117 469.896 181.083 497.64 249.634 497.64 C 318.185 497.64 380.151 469.896 425.079 424.969 C 470.006 380.041 497.75 318.075 497.75 249.524 C 497.75 180.973 470.006 119.007 425.079 74.079 Z" style="fill: none;"/>
  <path d="M 498.75 249.524 C 498.75 318.28 470.839 380.622 425.786 425.676 C 380.732 470.729 318.39 498.64 249.634 498.64 C 180.878 498.64 118.536 470.729 73.482 425.676 C 28.429 380.622 0.518 318.28 0.518 249.524 C 0.518 180.768 28.429 118.426 73.482 73.372 C 118.536 28.319 180.878 0.408 249.634 0.408 C 318.39 0.408 380.732 28.319 425.786 73.372 C 470.839 118.426 498.75 180.768 498.75 249.524 Z M 425.079 74.079 C 380.151 29.152 318.185 1.408 249.634 1.408 C 181.083 1.408 119.117 29.152 74.189 74.079 C 29.262 119.007 1.518 180.973 1.518 249.524 C 1.518 318.075 29.262 380.041 74.189 424.969 C 119.117 469.896 181.083 497.64 249.634 497.64 C 318.185 497.64 380.151 469.896 425.079 424.969 C 470.006 380.041 497.75 318.075 497.75 249.524 C 497.75 180.973 470.006 119.007 425.079 74.079 Z" style="fill: none;"/>
</svg>