<?xml version="1.0" encoding="utf-8"?>
<svg viewBox="0 0 500 500" xmlns="http://www.w3.org/2000/svg">
  <path d="M 499.204 185.669 C 499.204 287.561 416.604 370.161 314.712 370.161 C 212.82 370.161 130.22 287.561 130.22 185.669 C 130.22 83.777 212.82 1.177 314.712 1.177 C 416.604 1.177 499.204 83.777 499.204 185.669 Z M 314.712 48.304 C 238.662 48.304 177.012 109.954 177.012 186.004 C 177.012 262.054 238.662 323.704 314.712 323.704 C 390.762 323.704 452.412 262.054 452.412 186.004 C 452.412 109.954 390.762 48.304 314.712 48.304 Z" style="stroke-width: 50px; fill: rgb(255, 187, 0);"/>
  <path d="M 4.046 435.582 L 146.371 297.269 C 161.05 321.35 181.091 341.803 204.835 356.971 L 63.129 494.665 L 4.046 435.582 Z" style="fill: rgb(255, 187, 0);"/>
</svg>