<?xml version="1.0" encoding="utf-8"?>
<!DOCTYPE svg PUBLIC "-//W3C//DTD SVG 1.1//EN" "http://www.w3.org/Graphics/SVG/1.1/DTD/svg11.dtd">
<svg version="1.1" xmlns="http://www.w3.org/2000/svg" xmlns:xlink="http://www.w3.org/1999/xlink" x="0px" y="0px" viewBox="0 0 256 256" enable-background="new 0 0 256 256" xml:space="preserve">
<g><g><g><path fill="#ffffff" d="M103.3,8.6C75.7,12.2,55.9,40,55.9,75c0,31.9,17.7,58.7,43.5,65.6c5.3,1.5,16,1.5,21.8,0c9.1-2.2,17-6.8,23.7-13.6c11.7-11.8,18.4-29,19.1-48.8c0.5-15.4-2.2-28.2-8.4-40.4c-6.9-13.5-18.6-23.8-31.4-27.7C118.1,8.4,109.8,7.8,103.3,8.6z"/><path fill="#ffffff" d="M46.9,139.8c-13.1,9.7-23.7,19.8-27.2,25.7c-5.8,9.9-9.7,28.9-9.7,47c0,4.3,0.1,5.3,0.9,6.6c1.7,2.8,8.1,7.3,15.7,11.1c28.6,14.3,73.5,20.9,108.6,16c5.2-0.7,16.7-3,17-3.3c0.1-0.1-0.7-1.1-1.9-2.2c-3.1-3-4.3-5.5-4.3-9.5c0-1.8,0.1-3.8,0.3-4.5c0.4-1.2,0.3-1.2-2.8-1.7c-3.7-0.6-6.8-2.4-8.9-5.1c-2.2-2.8-5.5-13.1-5.5-16.7c0-3.6,2.3-8.3,4.8-10.1l1.7-1.3l-2.4-2.3c-4.5-4.4-5.2-9.3-2.4-17.5c0.9-2.6,1.5-4.8,1.3-4.8c-0.2,0-1.9,0.5-3.8,1.1c-8.1,2.6-19.9,3.4-28.4,1.9c-17-2.9-33.6-14.1-44.1-29.9l-3.3-5L46.9,139.8z"/><path fill="#ffffff" d="M186.5,137.7c-0.7,0.6-1.6,2.9-3,7.7c-1.1,3.8-2.2,7.1-2.3,7.4c-0.6,0.9-1.8,0.5-4.2-1.4c-11.3-8.7-10.3-8.4-16.2-4.2c-5.8,4.1-5.8,4-2.8,12.1c2.4,6.8,2.8,8.6,1.8,9c-0.3,0.1-4,0.1-8.1,0c-7.2-0.2-7.6-0.2-8.5,0.7c-1,1-3.8,9.1-3.8,11c0,1.6,0.6,2.2,7.2,6.6c4.9,3.3,6,4.3,5.9,5.1c-0.1,0.7-1.9,2.2-5.5,4.6c-6.6,4.5-7.5,5.3-7.5,6.9c0,2.1,2.9,10.1,3.9,11c0.8,0.7,1.9,0.8,8.5,0.8c4.2,0,7.8,0,8.1,0c1,0.1,0.6,2.1-1.8,8.8c-1.6,4.5-2.3,7-2.1,7.8c0.2,1.1,5.9,5.6,9,7.3c1.5,0.8,2.6,0.2,8.8-4.5c3.2-2.5,6.1-4.4,6.6-4.3c0.6,0.1,1.4,2.1,3,7.4c1.5,5.1,2.5,7.5,3.2,8.1c0.8,0.7,2,0.8,6.4,0.8c7.1,0,7,0,9.6-8.8c1.2-4.1,2.3-6.9,2.8-7.2c0.6-0.4,1.9,0.3,6.7,4c4,3.1,6.3,4.5,7.2,4.5c1.9,0,10.2-6.2,10.5-7.9c0.2-0.9-0.4-3.3-2.1-7.8c-2.5-6.9-2.6-7.5-1.8-8.1c0.3-0.2,3.8-0.3,7.8-0.2c5.5,0.1,7.5,0,8.1-0.5c0.9-0.7,4.1-9.7,4.1-11.7c0-1.5-1.6-2.9-8.3-7.4c-2.8-1.8-4.4-3.2-4.4-3.7c0-0.6,2-2.2,5.8-4.8c6.4-4.4,6.9-4.8,6.9-6.6c0-1.9-3.1-10.8-4.1-11.6c-0.7-0.5-2.4-0.6-8.3-0.5c-6.5,0.1-7.5,0-7.9-0.6c-0.4-0.6,0.1-2.4,2-7.6c2.2-6,2.4-7,2-8.1c-0.7-1.6-8.9-7.6-10.4-7.6c-0.7,0-3.3,1.6-6.9,4.4c-3.2,2.4-6.2,4.4-6.6,4.4c-1,0-1.3-0.8-3.5-8.4c-2.2-7.9-2.3-8-9.3-8C188.5,136.8,187.4,137,186.5,137.7z M201.3,173.4c4.2,2,7.5,5.4,9.6,9.6c1.5,3.1,1.6,3.5,1.6,8.7c0,5.1-0.1,5.6-1.5,8.6c-7.4,15.5-29.5,15.5-36.8,0c-1.4-3-1.5-3.5-1.5-8.6c0-4.9,0.1-5.6,1.3-8.1c1.7-3.7,4.1-6.6,7.2-8.6c4.1-2.8,6.7-3.5,12.1-3.3C197.6,171.7,198.4,171.9,201.3,173.4z"/></g></g></g>
</svg>