<?xml version="1.0" encoding="utf-8"?>
<!-- Generator: Adobe Illustrator 24.0.0, SVG Export Plug-In . SVG Version: 6.00 Build 0)  -->
<svg version="1.2" baseProfile="tiny" id="Layer_1" xmlns="http://www.w3.org/2000/svg" xmlns:xlink="http://www.w3.org/1999/xlink"
	 x="0px" y="0px" width="600px" height="180px" viewBox="0 0 600 180" xml:space="preserve">
<path fill="#E30613" d="M382.17,23.84l-6.78,20.55c-0.49,1.48-1.87,2.49-3.43,2.49h-33.66c-1.54,0-2.65-1.52-2.16-2.98l6.91-20.78
	c0.31-0.97,1.21-1.6,2.22-1.6h35.23C381.7,21.52,382.54,22.71,382.17,23.84"/>
<polygon fill="#1D1D1B" points="177.76,158.48 208.9,158.48 191.57,124.92 160.47,124.92 "/>
<polygon fill="#1D1D1B" points="146.58,158.48 171.49,158.48 154.16,124.92 129.32,124.92 "/>
<polygon fill="#1D1D1B" points="120.29,158.48 140.31,158.48 122.99,124.92 103.03,124.92 "/>
<polygon fill="#1D1D1B" points="99.93,158.48 113.78,158.48 96.43,124.92 82.64,124.92 "/>
<path fill="#1D1D1B" d="M270.02,158.48h214.4c2.57,0,4.83-1.64,5.63-4.09l5.47-25.73c0.78-2.4-1.01-4.85-3.51-4.85H252.59
	c-2.38,0-3.9,2.57-2.75,4.67l14.92,26.9C265.83,157.29,267.84,158.48,270.02,158.48 M455.17,143.64l1.42-4.34
	c0.7-2.14,1.71-3.64,2.94-4.46c1.27-0.82,3.29-1.25,6-1.25h5.43c1.69,0,2.94,0.08,3.7,0.23c0.64,0.12,1.11,0.35,1.4,0.62
	c0.27,0.29,0.41,0.66,0.43,1.17c0.02,0.58-0.12,1.34-0.41,2.24l-0.16,0.49h-3.72c0.08-0.76-0.23-1.19-0.51-1.42
	c-0.33-0.25-0.99-0.53-3.23-0.53h-2.84c-1.79,0-3,0.23-3.7,0.7c-0.72,0.47-1.29,1.4-1.77,2.84l-0.72,2.22
	c-0.45,1.38-0.41,2.34,0.14,2.94c0.51,0.58,1.58,0.84,3.35,0.84h2.8c1.48,0,2.53-0.14,3.23-0.43c0.76-0.31,1.29-0.88,1.56-1.66
	c0.04-0.1,0.08-0.27,0.08-0.41l0.43-0.86h-5.84l0.68-2.03h9.52l-1.46,4.44c-0.45,1.36-1.23,2.28-2.4,2.84
	c-1.21,0.6-3.19,0.88-5.84,0.88h-5.41c-1.6,0-2.77-0.08-3.45-0.25c-0.62-0.14-1.09-0.39-1.42-0.74c-0.39-0.39-0.6-0.88-0.64-1.5
	C454.66,145.55,454.82,144.69,455.17,143.64 M416,133.78h6.39l6.1,12.64l4.15-12.64h3.6l-4.85,14.72h-6.33l-6.21-12.52l-4.13,12.52
	h-3.62L416,133.78z M389.63,133.78h3.62l-4.83,14.72h-3.62L389.63,133.78z M352.43,133.78l3.31,6.66l7.95-6.66h3.93l-10.89,9.15
	l-0.12,0.1l-1.81,5.47h-3.62l1.71-5.18l-5.08-9.54H352.43z M317.16,133.78h3.62l-3.97,12.04h10.56l-0.88,2.67h-14.2L317.16,133.78z
	 M279.55,133.78h16.11l-0.88,2.69h-12.52l-1.34,4.03h11.8l-0.88,2.65h-11.78l-1.75,5.34h-3.62L279.55,133.78z"/>
<path fill="#1D1D1B" d="M365.38,88.15c-1.81,0-3.08-1.77-2.53-3.47l9.13-28.92c0.23-0.72-0.31-1.44-1.05-1.44h-30.77h-4.48
	c-1.5,0-2.84,0.97-3.29,2.38l-16.17,49.24c-1.25,3.82,1.58,7.75,5.61,7.75h24.31h6.95h107.47c16.83,0,31.75-11.02,36.64-27.21
	c4.83-15.95-7.4-31.98-24.05-31.98h-38.93c-1.81,0-3.17-1.75-2.65-3.47c0.72-2.4,2.94-4.03,5.43-4.03h64.31
	c5.24,0,9.91-3.37,11.53-8.36l4.38-13.46c0.58-1.77-0.74-3.58-2.59-3.58h-83.36c-10.91,0-21.5,4.75-28.12,13.42
	c-15.33,20.08-0.84,45.48,21.25,45.48h33.97c1.97,0,3.35,1.95,2.69,3.8l-0.08,0.25c-0.78,2.22-2.88,3.72-5.24,3.72h-72.53
	L365.38,88.15z"/>
<path fill="#1D1D1B" d="M242.03,21.56h-21c-1.71,0-2.8,1.83-1.99,3.33l23.04,42.79L218.6,87.14l-32.55-60.77
	c-1.6-2.96-4.69-4.81-8.06-4.81h-21.46c-2.9,0-5.61,1.44-7.25,3.84L92.3,109.48c-1.21,1.79,0.06,4.19,2.22,4.19h65.42
	c1.95,0,3.8-0.97,4.89-2.59l15.87-23.41h-5.36h-21.07h-8.84l19.96-29.62l11.47,22.2h17.88l-10.15,14.98l32.64,63.22h39.65
	l-24.09-44.89l23.66-19.63l8.06,14.88c1.62,3,4.75,4.85,8.16,4.85h18.07L242.03,21.56z"/>
<path fill="#E30613" d="M329.33,21.56h-34.14c-2.2,0-4.34,0.78-6.04,2.18l-21.13,17.55l-8.76-16.17c-1.19-2.18-3.47-3.56-5.96-3.56
	h-7.17l48.67,92.12h8.1c1.95,0,3.19-2.08,2.24-3.78l-22.96-42.21l49.1-40.73C333.46,25.14,332.19,21.56,329.33,21.56"/>
</svg>
