<?xml version="1.0" encoding="UTF-8" standalone="no"?>
<!DOCTYPE svg PUBLIC "-//W3C//DTD SVG 1.1//EN" "http://www.w3.org/Graphics/SVG/1.1/DTD/svg11.dtd">
<svg width="100%" height="100%" viewBox="0 0 214 72" version="1.1" xmlns="http://www.w3.org/2000/svg" xmlns:xlink="http://www.w3.org/1999/xlink" xml:space="preserve" xmlns:serif="http://www.serif.com/" style="fill-rule:evenodd;clip-rule:evenodd;stroke-linejoin:round;stroke-miterlimit:2;">
    <g transform="matrix(1,0,0,1,-12,-44)">
        <path d="M158.42,47.63L155.12,57.63C154.88,58.35 154.21,58.84 153.45,58.84L137.07,58.84C136.32,58.84 135.78,58.1 136.02,57.39L139.38,47.28C139.53,46.81 139.97,46.5 140.46,46.5L157.6,46.5C158.18,46.5 158.6,47.08 158.42,47.63" style="fill:rgb(227,6,19);fill-rule:nonzero;"/>
    </g>
    <g transform="matrix(1,0,0,1,-12,-44)">
        <path d="M58.95,113.14L74.11,113.14L65.68,96.81L50.55,96.81L58.95,113.14Z" style="fill-rule:nonzero;"/>
    </g>
    <g transform="matrix(1,0,0,1,-12,-44)">
        <path d="M43.79,113.14L55.91,113.14L47.47,96.81L35.39,96.81L43.79,113.14Z" style="fill-rule:nonzero;"/>
    </g>
    <g transform="matrix(1,0,0,1,-12,-44)">
        <path d="M31,113.14L40.74,113.14L32.3,96.81L22.59,96.81L31,113.14Z" style="fill-rule:nonzero;"/>
    </g>
    <g transform="matrix(1,0,0,1,-12,-44)">
        <path d="M21.08,113.14L27.82,113.14L19.39,96.81L12.68,96.81L21.08,113.14Z" style="fill-rule:nonzero;"/>
    </g>
    <g transform="matrix(1,0,0,1,-12,-44)">
        <path d="M103.85,113.14L208.17,113.14C209.42,113.14 210.52,112.34 210.91,111.15L213.57,98.63C213.95,97.46 213.08,96.27 211.86,96.27L95.37,96.27C94.21,96.27 93.47,97.52 94.03,98.54L101.29,111.63C101.8,112.56 102.79,113.14 103.85,113.14M193.94,105.92L194.63,103.81C194.97,102.77 195.46,102.04 196.06,101.64C196.68,101.24 197.66,101.03 198.98,101.03L201.62,101.03C202.44,101.03 203.05,101.07 203.42,101.14C203.73,101.2 203.96,101.31 204.1,101.44C204.23,101.58 204.3,101.76 204.31,102.01C204.32,102.29 204.25,102.66 204.11,103.1L204.03,103.34L202.22,103.34C202.26,102.97 202.11,102.76 201.97,102.65C201.81,102.53 201.49,102.39 200.4,102.39L199.02,102.39C198.15,102.39 197.56,102.5 197.22,102.73C196.87,102.96 196.59,103.41 196.36,104.11L196.01,105.19C195.79,105.86 195.81,106.33 196.08,106.62C196.33,106.9 196.85,107.03 197.71,107.03L199.07,107.03C199.79,107.03 200.3,106.96 200.64,106.82C201.01,106.67 201.27,106.39 201.4,106.01C201.42,105.96 201.44,105.88 201.44,105.81L201.65,105.39L198.81,105.39L199.14,104.4L203.77,104.4L203.06,106.56C202.84,107.22 202.46,107.67 201.89,107.94C201.3,108.23 200.34,108.37 199.05,108.37L196.42,108.37C195.64,108.37 195.07,108.33 194.74,108.25C194.44,108.18 194.21,108.06 194.05,107.89C193.86,107.7 193.76,107.46 193.74,107.16C193.69,106.85 193.77,106.43 193.94,105.92M174.88,101.12L177.99,101.12L180.96,107.27L182.98,101.12L184.73,101.12L182.37,108.28L179.29,108.28L176.27,102.19L174.26,108.28L172.5,108.28L174.88,101.12ZM162.05,101.12L163.81,101.12L161.46,108.28L159.7,108.28L162.05,101.12ZM143.95,101.12L145.56,104.36L149.43,101.12L151.34,101.12L146.04,105.57L145.98,105.62L145.1,108.28L143.34,108.28L144.17,105.76L141.7,101.12L143.95,101.12ZM126.79,101.12L128.55,101.12L126.62,106.98L131.76,106.98L131.33,108.28L124.42,108.28L126.79,101.12ZM108.49,101.12L116.33,101.12L115.9,102.43L109.81,102.43L109.16,104.39L114.9,104.39L114.47,105.68L108.74,105.68L107.89,108.28L106.13,108.28L108.49,101.12Z" style="fill-rule:nonzero;"/>
    </g>
    <g transform="matrix(1,0,0,1,-12,-44)">
        <path d="M150.25,78.92C149.37,78.92 148.75,78.06 149.02,77.23L153.46,63.16C153.57,62.81 153.31,62.46 152.95,62.46L135.81,62.46C135.08,62.46 134.43,62.93 134.21,63.62L126.34,87.58C125.73,89.44 127.11,91.35 129.07,91.35L196.57,91.35C204.76,91.35 212.02,85.99 214.4,78.11C216.75,70.35 210.8,62.55 202.7,62.55L183.76,62.55C182.88,62.55 182.22,61.7 182.47,60.86C182.82,59.69 183.9,58.9 185.11,58.9L216.4,58.9C218.95,58.9 221.22,57.26 222.01,54.83L224.14,48.28C224.42,47.42 223.78,46.54 222.88,46.54L182.32,46.54C177.01,46.54 171.86,48.85 168.64,53.07C161.18,62.84 168.23,75.2 178.98,75.2L195.51,75.2C196.47,75.2 197.14,76.15 196.82,77.05L196.78,77.17C196.4,78.25 195.38,78.98 194.23,78.98L158.94,78.98L150.25,78.92Z" style="fill-rule:nonzero;"/>
    </g>
    <g transform="matrix(1,0,0,1,-12,-44)">
        <path d="M90.23,46.52L80.01,46.52C79.18,46.52 78.65,47.41 79.04,48.14L90.25,68.96L78.83,78.43L62.99,48.86C62.21,47.42 60.71,46.52 59.07,46.52L48.63,46.52C47.22,46.52 45.9,47.22 45.1,48.39L17.38,89.3C16.79,90.17 17.41,91.34 18.46,91.34L50.29,91.34C51.24,91.34 52.14,90.87 52.67,90.08L60.39,78.69L43.23,78.69L52.94,64.28L58.52,75.08L67.22,75.08L62.28,82.37L78.16,113.13L97.45,113.13L85.73,91.29L97.24,81.74L101.16,88.98C101.95,90.44 103.47,91.34 105.13,91.34L113.92,91.34L90.23,46.52Z" style="fill-rule:nonzero;"/>
    </g>
    <g transform="matrix(1,0,0,1,-12,-44)">
        <path d="M132.71,46.52L116.1,46.52C115.03,46.52 113.99,46.9 113.16,47.58L102.87,56.12L98.61,48.25C98.03,47.19 96.92,46.52 95.71,46.52L92.22,46.52L115.9,91.34L119.84,91.34C120.79,91.34 121.39,90.33 120.93,89.5L109.75,68.96L133.64,49.14C134.72,48.26 134.1,46.52 132.71,46.52" style="fill:rgb(227,6,19);fill-rule:nonzero;"/>
    </g>
</svg>
