<?xml version="1.0" encoding="utf-8"?>
<!-- Generator: Adobe Illustrator 24.0.0, SVG Export Plug-In . SVG Version: 6.00 Build 0)  -->
<svg version="1.2" baseProfile="tiny" id="Layer_1" xmlns="http://www.w3.org/2000/svg" xmlns:xlink="http://www.w3.org/1999/xlink"
	 x="0px" y="0px" width="292.7" height="231.7" viewBox="0 0 292.7 231.7" xml:space="preserve">
<path fill="#3A3A3A" d="M11.4,171.8l0.9,5.5l31.9-4.9c0.1,0.2,0.2,0.4,0.3,0.7c1,1.7,2.5,2.9,4.3,3.4c1.4,0.4,2.3,1.8,2,3.1
	c-0.2,1.8,0.2,3.6,1.4,5.2c1.1,1.5,2.8,2.5,4.6,2.8c1.3,0.2,2.4,1.4,2.4,2.9c0,1.8,0.7,3.6,2,5.1c1.3,1.4,3.1,2.2,4.9,2.3
	c1.4,0.1,2.6,1.1,2.7,2.6c0.2,1.8,1,3.5,2.6,4.8s3.3,1.8,5.1,1.6c1.4-0.1,2.7,0.8,3.1,2.3c0.4,1.8,1.5,3.3,3.1,4.4
	c1.7,1.1,3.6,1.4,5.3,1c1.4-0.3,2.8,0.5,3.3,1.8c0.6,1.7,1.8,3.2,3.6,4c1.7,0.8,3.7,1,5.4,0.4c1.4-0.4,2.9,0.2,3.5,1.4
	c0.9,1.6,2.3,2.9,4.1,3.5c1.8,0.6,3.8,0.4,5.4-0.3c1.3-0.6,2.8-0.2,3.6,1c1,1.5,2.5,2.6,4.5,3c1.9,0.4,3.7,0,5.3-0.9
	c1.2-0.8,2.8-0.5,3.7,0.5c1.1,1.3,2.9,2.3,4.8,2.5s3.8-0.5,5.1-1.6c1.1-0.9,2.7-0.8,3.8,0.1c1.4,1.2,3.1,1.9,5,1.9
	c1.9-0.1,3.7-0.9,4.9-2.2c1-1.1,2.5-1.2,3.7-0.4c1.5,1,3.4,1.5,5.2,1.2c1.9-0.3,3.5-1.4,4.6-2.7c0.8-1.1,2.4-1.5,3.6-0.8
	c1.6,0.9,3.5,1.1,5.4,0.6l0,0c1.8-0.5,3.4-1.7,4.3-3.3c0.7-1.2,2.3-1.8,3.6-1.3c1.7,0.6,3.6,0.7,5.5,0c1.8-0.8,3.1-2.1,3.9-3.8
	c0.6-1.3,2-2,3.4-1.6c1.8,0.4,3.7,0.2,5.4-0.7s2.9-2.5,3.4-4.3c0.4-1.4,1.8-2.2,3.1-2c1.8,0.2,3.6-0.2,5.3-1.3
	c1.5-1.1,2.5-2.8,2.8-4.6c0.2-1.4,1.4-2.4,2.9-2.4c1.8,0,3.6-0.7,5.1-2l0,0c1.4-1.3,2.2-3.1,2.3-4.9c0.1-1.4,1.1-2.6,2.5-2.7
	c1.8-0.2,3.5-1,4.8-2.6s1.8-3.3,1.6-5.1c-0.1-1.4,0.8-2.8,2.3-3.1c1.8-0.4,3.3-1.5,4.4-3.1c1.1-1.7,1.4-3.6,1-5.3
	c-0.3-1.4,0.5-2.8,1.8-3.3c1.7-0.6,3.1-1.9,4-3.6c0.8-1.7,1-3.7,0.4-5.4c-0.4-1.4,0.2-2.9,1.5-3.5c1.6-0.9,2.9-2.3,3.5-4.1
	s0.4-3.7-0.3-5.4c-0.6-1.3-0.1-2.8,1-3.6c1.5-1,2.6-2.6,3-4.5c0.1-0.2,0-0.4,0.1-0.6l33.8-5.2l-0.9-5.5L11.4,171.8L11.4,171.8z
	 M242.7,142c-10.4,38.5-42,67.1-81.7,73.2s-78.5-11.7-100-45.3L242.7,142L242.7,142z M161.5,221.3c-44,6.8-85.9-14.4-107.5-50.4
	l5.1-0.8c10.2,16.1,24.6,29.1,41.9,37.6c18.7,9.1,39.5,12.2,60.1,9.1c20.7-3.2,39.5-12.4,54.6-26.7c14-13.2,23.8-29.9,28.7-48.4
	l4.4-0.7C239,181.8,205.5,214.6,161.5,221.3z"/>
<polygon fill="#FFBB00" points="201.6,45.9 204.1,50.8 209.5,49.9 205.6,53.8 208.1,58.8 203.2,56.3 199.3,60.1 200.2,54.6 
	195.3,52.1 200.7,51.3 "/>
<polygon fill="#FFBB00" points="70.8,66 73.3,70.9 78.7,70 74.8,73.9 77.3,78.9 72.4,76.4 68.5,80.2 69.3,74.7 64.5,72.2 69.9,71.4 
	"/>
<polygon fill="#FFBB00" points="217.9,152.2 220.4,157 225.8,156.2 222,160.1 224.5,165 219.5,162.5 215.7,166.4 216.5,161 
	211.6,158.4 217,157.5 "/>
<polygon fill="#FFBB00" points="87.2,172.2 89.6,177.1 95.1,176.3 91.1,180.2 93.6,185.1 88.8,182.6 84.8,186.5 85.7,181.1 
	80.8,178.5 86.3,177.6 "/>
<rect x="-0.1" y="85.2" transform="matrix(0.9884 -0.1518 0.1518 0.9884 -11.4209 22.4996)" fill="#3A3A3A" width="283.5" height="1.7"/>
<rect x="9.1" y="145.2" transform="matrix(0.9884 -0.1518 0.1518 0.9884 -20.4223 24.5915)" fill="#3A3A3A" width="283.5" height="1.7"/>
<g>
	<path fill="#FFBB00" d="M47.5,148.8l-10.4,1.6l-2.2-4.3l-13.6,2.1l-0.8,4.8l-10,1.5l7-36.7l11.8-1.8L47.5,148.8z M24,131.3
		l-1.3,8.4l8.5-1.3l-3.8-7.6c-1.3-2.6-2.2-4.4-2.5-5.3C24.4,128.4,24.2,130.3,24,131.3z"/>
	<path fill="#FFBB00" d="M44.2,113.7l16.3-2.5c4.2-0.6,7.6-0.1,10.3,1.8c2.7,1.8,4.3,4.6,4.9,8.3s-0.2,6.9-2.2,9.4s-5.1,4.1-9.3,4.8
		l-6.5,1l1.6,10.6l-9.8,1.5C49.5,148.6,44.2,113.7,44.2,113.7z M56.4,128.2l5.8-0.9c1.4-0.2,2.4-0.7,3-1.5c0.7-0.8,0.9-1.9,0.7-3
		c-0.2-1.3-0.7-2.2-1.6-2.7c-0.9-0.6-2-0.7-3.3-0.5l-5.8,0.9L56.4,128.2z"/>
	<path fill="#FFBB00" d="M77.3,108.6l16.3-2.5c4.2-0.6,7.6-0.1,10.3,1.8c2.7,1.8,4.3,4.6,4.9,8.3c0.6,3.8-0.2,6.9-2.2,9.4
		s-5.1,4.1-9.3,4.8l-6.5,1l1.6,10.6l-9.8,1.5L77.3,108.6z M89.5,123.1l5.8-0.9c1.4-0.2,2.4-0.7,3-1.5c0.7-0.8,0.9-1.9,0.7-3
		c-0.2-1.3-0.7-2.2-1.6-2.7c-0.9-0.6-2-0.7-3.3-0.5l-5.8,0.9L89.5,123.1z"/>
	<path fill="#FFBB00" d="M143.9,125.7l0.9,4.6c0.3,1.5,0.8,2.5,1.4,3.4l-10.1,1.5c-0.5-0.7-0.9-1.8-1.2-3.5l-0.7-3.9
		c-0.4-1.8-0.9-2.9-1.7-3.4s-2-0.7-3.7-0.4l-5,0.8l1.9,12.1l-9.8,1.5l-5.4-34.9l17.1-2.6c4.4-0.7,7.9-0.2,10.2,1.4
		c2.4,1.7,3.8,4,4.3,6.9c0.3,1.8,0,3.4-0.6,5.1c-0.7,1.6-1.9,2.9-3.5,4c1.9,0.4,3.2,1.1,4.1,2.3
		C142.8,121.6,143.5,123.3,143.9,125.7z M121.3,109.6l1.2,8l5.8-0.9c2.9-0.4,4.1-2.1,3.7-4.7c-0.4-2.7-2.1-3.8-5-3.4L121.3,109.6
		L121.3,109.6z"/>
	<path fill="#FFBB00" d="M166.4,131.3c-5.4,0.8-10.1-0.2-14-2.9s-6.2-6.9-7.1-12.5c-0.9-5.5,0.2-10.1,3-14c2.9-3.8,7-6.1,12.5-7
		c5.4-0.8,10.1,0.2,14,2.9c3.9,2.8,6.2,6.9,7.1,12.5s-0.1,10.2-3,14C176,128.1,171.9,130.5,166.4,131.3z M158.7,121.2
		c1.7,1.5,3.9,2,6.3,1.7c2.5-0.4,4.3-1.6,5.5-3.5s1.6-4.4,1.1-7.5c-0.5-3-1.5-5.2-3.3-6.8c-1.8-1.6-3.9-2-6.3-1.7
		c-2.5,0.4-4.3,1.6-5.5,3.5c-1.2,2-1.5,4.5-1.1,7.5C155.9,117.5,157.1,119.7,158.7,121.2z"/>
	<path fill="#FFBB00" d="M201.9,102.6l2-13.5l10.1-1.5l-6.5,36.6l-11.8,1.8L178,93.1l10.5-1.6l6,12.2c1.9,3.9,3.9,8.1,5.8,12.9
		C200.7,111.7,201.2,107.1,201.9,102.6z"/>
	<path fill="#FFBB00" d="M243.6,83l1.3,8.7l-17.7,2.7l0.7,4.6l16.1-2.5l1.2,8.1l-16.1,2.5l0.7,4.7l17.7-2.7l1.3,8.7l-27.5,4.2
		l-5.4-34.9L243.6,83z"/>
	<path fill="#FFBB00" d="M247.3,82.5l15.2-2.3c6-0.9,10.8,0,14.3,2.7s5.7,6.7,6.5,12.1c0.8,5.3,0,9.8-2.6,13.4
		c-2.5,3.6-6.8,5.9-12.8,6.8l-15.2,2.3L247.3,82.5L247.3,82.5z M261.2,107.6l5.2-0.8c5.3-0.8,7.6-4.3,6.7-10.4s-4.1-8.8-9.5-7.9
		l-5.2,0.8L261.2,107.6z"/>
</g>
<g>
	<path fill="#3A3A3A" d="M87.6,54c0.8-0.3,1.5-0.4,2.2-0.3c0.7,0.1,1.4,0.4,1.9,0.9c0.9,0.9,1.3,1.8,1.3,2.9s-0.7,2.2-1.8,3.3
		l-4.6,4.8l-9.8-9.5l4.5-4.6c1-1.1,2.1-1.6,3.1-1.8s1.9,0.2,2.6,0.9C87.9,51.6,88.1,52.7,87.6,54z M82.9,53.5l-2.1,2.1l2,2l2.1-2.1
		c0.3-0.4,0.5-0.7,0.5-1.1s-0.2-0.8-0.5-1c-0.3-0.3-0.7-0.4-1-0.5C83.6,52.9,83.2,53.2,82.9,53.5z M86.8,61.5l2.3-2.3
		c0.4-0.4,0.6-0.8,0.6-1.2s-0.1-0.8-0.5-1.1c-0.8-0.8-1.6-0.7-2.4,0.2l-2.3,2.3L86.8,61.5z"/>
	<path fill="#3A3A3A" d="M95.3,39.8l1.8,2.3l-5.7,4.3l1.5,2l5.2-3.9l1.6,2.2l-5.2,3.9l1.6,2.1l5.7-4.3l1.8,2.3l-8.3,6.2L87.2,46
		L95.3,39.8z"/>
	<path fill="#3A3A3A" d="M97.2,38.5l10.3-5.5l1.4,2.5l-3.6,2l5.1,9.4l-2.9,1.6l-5.1-9.4l-3.6,2L97.2,38.5z"/>
	<path fill="#3A3A3A" d="M125,40.9l-3.3,1.2l-1.6-2l-5.3,2l0.1,2.5l-3.1,1.2l-0.1-14.6l3.6-1.4L125,40.9z M114.7,36.9l0.1,2.4
		l3.6-1.4l-1.5-1.9c-0.5-0.5-1.2-1.5-2.2-2.8C114.6,35.4,114.7,36.6,114.7,36.9z"/>
	<path fill="#3A3A3A" d="M132.4,25.7l0.5,2.9l-6.7,1.3l0.5,2.5l6.1-1.2l0.5,2.7l-6.1,1.2l1.1,5.4l-3.1,0.7l-2.8-13.3L132.4,25.7z"/>
	<path fill="#3A3A3A" d="M138.3,25.1l0.7,10.7l6.2-0.4l0.2,2.9l-9.4,0.6l-1-13.6L138.3,25.1z"/>
	<path fill="#3A3A3A" d="M149.7,38.5l-3.3-0.1l0.4-13.6l3.3,0.1L149.7,38.5z"/>
	<path fill="#3A3A3A" d="M158.8,34.4l0.4-2.5l6.2,1l-1.2,7.5L162,40l-0.1-1.8c-1.1,1.3-2.7,1.7-4.6,1.4c-2-0.3-3.4-1.2-4.4-2.7
		c-0.9-1.5-1.3-3.2-0.9-5.4s1.2-3.8,2.6-4.9c1.5-1,3.1-1.4,5.3-1.1c1.8,0.2,3.2,0.9,4.2,2c1.1,1,1.6,2.4,1.5,3.8l-3.3-0.5
		c-0.1-0.7-0.4-1.3-0.9-1.7c-0.5-0.4-1.1-0.7-2-0.9c-1.1-0.1-2,0.1-2.7,0.7s-1.3,1.7-1.5,3c-0.2,1.3,0,2.4,0.5,3.3
		c0.5,0.8,1.3,1.4,2.5,1.5c0.8,0.2,1.6,0,2.3-0.3c0.6-0.4,1.2-1,1.4-1.6L158.8,34.4z"/>
	<path fill="#3A3A3A" d="M176.3,35.6l1.7-4.9l3.1,1l-4.5,12.8l-3.1-1l1.8-5.2l-5.1-1.8l-1.8,5.2l-3.1-1l4.5-12.8l3.1,1l-1.7,4.9
		L176.3,35.6z"/>
	<path fill="#3A3A3A" d="M183.7,33l10.3,5.5l-1.3,2.5l-3.6-2l-5.1,9.5l-2.9-1.6l5.1-9.5l-3.6-2L183.7,33z"/>
</g>
<g>
	<path fill="#3A3A3A" d="M203.4,178.1c-0.8,0.3-1.5,0.4-2.2,0.3s-1.4-0.4-1.9-0.9c-0.8-0.9-1.3-1.8-1.2-3c0.1-1.1,0.7-2.2,1.8-3.3
		l4.6-4.8l9.7,9.5l-4.5,4.6c-1,1.1-2.1,1.6-3.1,1.8s-1.9-0.2-2.6-0.9C203.2,180.4,203,179.3,203.4,178.1z M204.3,170.5l-2.3,2.3
		c-0.4,0.4-0.6,0.8-0.6,1.2s0.1,0.8,0.5,1.1c0.7,0.7,1.5,0.7,2.4-0.2l2.3-2.3L204.3,170.5z M208.1,178.6l2.1-2.1l-2-2l-2.1,2.1
		c-0.3,0.4-0.5,0.7-0.5,1.1s0.1,0.8,0.5,1c0.3,0.3,0.7,0.4,1,0.5C207.5,179.1,207.8,179,208.1,178.6z"/>
	<path fill="#3A3A3A" d="M195.7,192.3l-1.8-2.3l5.7-4.3l-1.5-2l-5.3,3.9l-1.6-2.2l5.3-3.9l-1.5-2.1l-5.7,4.3l-1.8-2.4l8.3-6.2
		l8.1,10.9L195.7,192.3z"/>
	<path fill="#3A3A3A" d="M193.8,193.5l-10.2,5.5l-1.4-2.5l3.6-2l-5.1-9.4l2.9-1.6l5.1,9.4l3.6-2L193.8,193.5z"/>
	<path fill="#3A3A3A" d="M166,191.1l3.3-1.2l1.6,2l5.3-1.9l-0.1-2.5l3.1-1.2v14.5l-3.6,1.4L166,191.1z M176.3,195.2l-0.1-2.4
		l-3.6,1.4l1.5,1.9c0.5,0.5,1.2,1.5,2.2,2.8C176.4,196.6,176.3,195.4,176.3,195.2z"/>
	<path fill="#3A3A3A" d="M158.6,206.3l-0.5-2.9l6.7-1.3l-0.5-2.5l-6.1,1.2l-0.5-2.7l6.1-1.2l-1.1-5.4l3.1-0.7l2.8,13.3L158.6,206.3z
		"/>
	<path fill="#3A3A3A" d="M152.7,206.8l-0.7-10.7l-6.2,0.4l-0.2-2.9l9.4-0.6l0.9,13.6L152.7,206.8z"/>
	<path fill="#3A3A3A" d="M141.4,193.3l3.3,0.1l-0.4,13.6H141L141.4,193.3z"/>
	<path fill="#3A3A3A" d="M132.3,197.5l-0.4,2.5l-6.2-1l1.2-7.5l2.2,0.4l0.1,1.8c1.1-1.3,2.7-1.7,4.6-1.4c2,0.3,3.4,1.2,4.4,2.7
		s1.3,3.2,0.9,5.4c-0.4,2.2-1.2,3.7-2.7,4.9c-1.5,1-3.2,1.4-5.3,1.1c-1.8-0.2-3.2-0.9-4.2-2c-1.1-1-1.6-2.4-1.5-3.8l3.2,0.5
		c0.1,0.7,0.4,1.3,0.9,1.7s1.1,0.7,2,0.9c1.1,0.1,2-0.1,2.7-0.7s1.3-1.6,1.5-3c0.2-1.3,0-2.4-0.5-3.3c-0.5-0.8-1.3-1.4-2.5-1.5
		c-0.8-0.2-1.6-0.1-2.3,0.3c-0.6,0.4-1.2,1-1.4,1.6L132.3,197.5z"/>
	<path fill="#3A3A3A" d="M114.6,196.1l-1.7,4.9l-3.1-1l4.5-12.8l3.1,1l-1.8,5.2l5.1,1.8l1.8-5.2l3.1,1l-4.5,12.8l-3.1-1l1.8-4.9
		L114.6,196.1z"/>
	<path fill="#3A3A3A" d="M107.2,198.8L97,193.3l1.4-2.5l3.6,2l5.1-9.4l2.9,1.6l-5.2,9.3l3.6,2L107.2,198.8z"/>
</g>
<g>
	<path fill="#3A3A3A" d="M87.7,81.1c-0.8-0.5-1-1.6-0.6-2.3l0,0c0.5-0.8,1.6-1,2.3-0.6l0,0c0.8,0.5,1,1.6,0.5,2.4l0,0
		c-0.2,0.4-0.7,0.7-1.2,0.8l0,0C88.5,81.4,88.1,81.2,87.7,81.1z M187.8,65.3c-0.7-0.6-0.9-1.7-0.3-2.4l0,0c0.6-0.7,1.7-0.9,2.4-0.3
		l0,0c0.7,0.6,0.9,1.7,0.3,2.4l0,0c-0.3,0.3-0.6,0.5-1,0.6l0,0C188.7,65.7,188.1,65.7,187.8,65.3z M92.8,73.8
		c-0.7-0.6-0.8-1.7-0.2-2.4l0,0c0.6-0.7,1.7-0.8,2.4-0.2l0,0c0.7,0.6,0.9,1.7,0.3,2.4l0,0c-0.3,0.3-0.6,0.5-1,0.6l0,0
		C93.6,74.2,93.1,74.2,92.8,73.8z M180.8,60.2c-0.8-0.5-1-1.6-0.6-2.3l0,0c0.5-0.8,1.6-1,2.3-0.6l0,0l0,0l0,0c0.8,0.5,1,1.6,0.6,2.3
		l0,0c-0.2,0.4-0.7,0.7-1.2,0.8l0,0C181.6,60.5,181.2,60.5,180.8,60.2z M98.7,67.3c-0.6-0.7-0.6-1.7,0.1-2.3l0,0
		c0.7-0.6,1.7-0.6,2.4,0.1l0,0c0.6,0.7,0.6,1.7-0.1,2.3l0,0c-0.3,0.2-0.5,0.4-0.8,0.4l0,0C99.7,67.9,99.1,67.7,98.7,67.3z
		 M173.2,56.1c-0.9-0.4-1.2-1.4-0.8-2.2l0,0c0.4-0.9,1.4-1.2,2.2-0.8l0,0l0,0l0,0c0.9,0.4,1.2,1.4,0.8,2.2l0,0
		c-0.2,0.5-0.8,0.9-1.3,1l0,0C174,56.3,173.6,56.3,173.2,56.1z M105.5,61.6c-0.5-0.7-0.4-1.8,0.4-2.4l0,0c0.7-0.5,1.9-0.4,2.4,0.4
		l0,0c0.5,0.7,0.4,1.8-0.4,2.4l0,0c-0.2,0.1-0.5,0.3-0.8,0.3l0,0C106.5,62.4,105.9,62.1,105.5,61.6z M165.3,53
		c-0.9-0.3-1.4-1.2-1.1-2.2l0,0c0.3-0.9,1.2-1.4,2.2-1.1l0,0l0,0l0,0c0.9,0.3,1.4,1.2,1.1,2.2l0,0c-0.2,0.6-0.8,1-1.3,1.1l0,0
		C165.8,53.1,165.5,53.1,165.3,53z M112.8,56.8c-0.4-0.8-0.1-1.8,0.7-2.2l0,0l0,0l0,0c0.8-0.4,1.8-0.1,2.2,0.7l0,0
		c0.4,0.8,0.1,1.8-0.7,2.2l0,0c-0.2,0.1-0.4,0.2-0.6,0.2l0,0C113.9,57.9,113.2,57.4,112.8,56.8z M156.9,51.1c-0.9-0.2-1.6-1-1.4-1.9
		l0,0c0.2-0.9,1-1.6,1.9-1.4l0,0c0.9,0.2,1.6,1.1,1.4,1.9l0,0c-0.1,0.7-0.7,1.2-1.4,1.3l0,0C157.3,51.1,157.1,51,156.9,51.1z
		 M120.9,53c-0.3-0.9,0.1-1.8,1-2.2l0,0c0.9-0.3,1.8,0.1,2.2,1l0,0c0.3,0.9-0.1,1.8-1,2.2l0,0c-0.1,0-0.2,0-0.3,0l0,0
		C121.9,54.3,121.1,53.8,120.9,53z M148.3,50.1c-0.9-0.1-1.6-0.9-1.6-1.8l0,0c0.1-0.9,0.9-1.6,1.8-1.6l0,0c0.9,0.1,1.6,0.9,1.6,1.8
		l0,0c-0.1,0.8-0.7,1.5-1.5,1.6l0,0C148.5,50.1,148.4,50.1,148.3,50.1z M129.2,50.3c-0.2-0.9,0.4-1.8,1.3-2l0,0
		c0.9-0.2,1.8,0.3,2,1.3l0,0c0.2,0.9-0.3,1.8-1.3,2l0,0h-0.1l0,0C130.3,51.8,129.4,51.2,129.2,50.3z M139.8,50.3
		c-0.9,0-1.7-0.6-1.9-1.5l0,0c0-0.9,0.6-1.7,1.5-1.9l0,0c0.9,0,1.7,0.6,1.9,1.5l0,0C141.3,49.4,140.7,50.2,139.8,50.3L139.8,50.3
		C139.9,50.3,139.8,50.3,139.8,50.3z"/>
</g>
<g>
	<path fill="#3A3A3A" d="M151.7,184.9c-0.9,0-1.7-0.6-1.9-1.5l0,0c0-0.9,0.6-1.7,1.5-1.9l0,0c0.9,0,1.7,0.6,1.9,1.5l0,0
		C153.3,183.9,152.7,184.7,151.7,184.9L151.7,184.9L151.7,184.9z M158.6,182.3c-0.2-0.9,0.3-1.8,1.3-2l0,0c0.9-0.2,1.8,0.4,2,1.3
		l0,0c0.2,0.9-0.3,1.8-1.3,2l0,0h-0.1l0,0C159.6,183.7,158.8,183.2,158.6,182.3z M142.8,185.1c-0.9-0.1-1.6-0.9-1.6-1.8l0,0
		c0.1-0.9,0.9-1.6,1.8-1.6l0,0c0.9,0.1,1.6,0.9,1.6,1.8l0,0c-0.1,0.8-0.7,1.5-1.5,1.6l0,0C143,185.1,142.9,185.1,142.8,185.1z
		 M167.2,180c-0.3-0.9,0.1-1.8,1-2.2l0,0c0.9-0.3,1.8,0.1,2.2,1l0,0c0.3,0.9-0.1,1.8-1,2.2l0,0c-0.1,0-0.2,0-0.3,0l0,0
		C168.3,181.2,167.5,180.7,167.2,180z M133.7,184.2L133.7,184.2L133.7,184.2c-0.9-0.2-1.6-1.1-1.4-1.9l0,0c0.2-0.9,1-1.6,1.9-1.4
		l0,0c0.9,0.2,1.6,1.1,1.4,1.9l0,0c-0.1,0.7-0.7,1.3-1.4,1.4l0,0C134.1,184.2,133.9,184.2,133.7,184.2z M175.4,176.7
		c-0.4-0.8-0.1-1.8,0.8-2.2l0,0c0.8-0.4,1.8-0.1,2.2,0.8l0,0c0.4,0.8,0.1,1.8-0.8,2.2l0,0l0,0l0,0c-0.2,0.1-0.4,0.2-0.5,0.2l0,0
		C176.4,177.6,175.7,177.4,175.4,176.7z M125,182c-0.9-0.3-1.4-1.2-1.1-2.2l0,0c0.3-0.9,1.2-1.4,2.2-1.1l0,0
		c0.9,0.3,1.4,1.2,1.1,2.2l0,0c-0.2,0.6-0.8,1-1.3,1.1l0,0C125.5,182.1,125.2,182.2,125,182z M183,172.3c-0.5-0.7-0.4-1.8,0.4-2.4
		l0,0c0.7-0.5,1.8-0.4,2.4,0.4l0,0c0.5,0.7,0.4,1.8-0.4,2.4l0,0l0,0l0,0c-0.2,0.1-0.5,0.3-0.7,0.3l0,0
		C184,173,183.4,172.8,183,172.3z M116.6,178.7c-0.9-0.4-1.2-1.4-0.8-2.2l0,0c0.4-0.9,1.4-1.2,2.2-0.8l0,0c0.9,0.4,1.2,1.4,0.8,2.2
		l0,0c-0.2,0.5-0.8,0.8-1.3,0.9l0,0C117.2,179,116.8,178.9,116.6,178.7z M189.9,167c-0.6-0.7-0.6-1.7,0.1-2.3l0,0
		c0.7-0.6,1.7-0.6,2.3,0.1l0,0c0.6,0.7,0.6,1.7-0.1,2.3l0,0c-0.3,0.2-0.5,0.4-0.8,0.4l0,0C190.9,167.5,190.3,167.4,189.9,167z
		 M108.6,174.5c-0.8-0.5-1-1.6-0.6-2.3l0,0c0.5-0.8,1.6-1,2.3-0.6l0,0c0.8,0.5,1,1.6,0.6,2.3l0,0c-0.2,0.4-0.7,0.7-1.2,0.8l0,0
		C109.4,174.8,109,174.7,108.6,174.5z M196.2,160.8c-0.7-0.6-0.8-1.7-0.2-2.4l0,0c0.6-0.7,1.7-0.8,2.4-0.2l0,0
		c0.7,0.6,0.8,1.7,0.2,2.4l0,0c-0.3,0.3-0.6,0.5-1,0.6l0,0C197.2,161.2,196.6,161.1,196.2,160.8z M101.4,169.1L101.4,169.1
		L101.4,169.1c-0.7-0.6-0.9-1.7-0.3-2.4l0,0c0.6-0.7,1.7-0.9,2.4-0.3l0,0c0.7,0.6,0.9,1.7,0.3,2.4l0,0c-0.3,0.3-0.6,0.5-1,0.6l0,0
		C102.2,169.6,101.7,169.5,101.4,169.1z M201.6,153.9c-0.8-0.5-1-1.6-0.6-2.3l0,0c0.5-0.8,1.6-1,2.4-0.5l0,0c0.8,0.5,1,1.6,0.5,2.4
		l0,0l0,0l0,0c-0.2,0.4-0.7,0.7-1.2,0.8l0,0C202.4,154.1,202,154,201.6,153.9z"/>
</g>
<path fill="#3A3A3A" d="M246.4,59.7c-0.1-0.3-0.3-0.6-0.4-0.8c-1-1.7-2.5-2.9-4.2-3.3c-1.4-0.4-2.2-1.8-2-3.1
	c0.2-1.8-0.2-3.6-1.4-5.2c-1.1-1.5-2.8-2.5-4.6-2.8c-1.4-0.2-2.4-1.4-2.5-2.9c0-1.8-0.7-3.6-2-5.1c-1.3-1.4-3.1-2.2-4.9-2.3
	c-1.4-0.1-2.6-1.1-2.7-2.6c-0.2-1.8-1-3.5-2.6-4.8c-1.5-1.3-3.3-1.7-5.1-1.6c-1.4,0.1-2.8-0.8-3.1-2.2c-0.4-1.8-1.5-3.3-3.1-4.4
	c-1.7-1.1-3.6-1.4-5.3-1c-1.4,0.3-2.8-0.5-3.3-1.8c-0.7-1.7-1.9-3.1-3.6-4c-1.7-0.8-3.7-1-5.4-0.4c-1.4,0.4-2.9-0.2-3.5-1.4
	c-0.9-1.6-2.3-2.9-4.1-3.5s-3.7-0.4-5.4,0.3c-1.3,0.6-2.8,0.1-3.6-1c-1-1.5-2.5-2.6-4.4-3.1l0,0c-1.9-0.4-3.7,0-5.3,0.9
	c-1.2,0.8-2.8,0.5-3.7-0.5c-1.2-1.3-2.9-2.3-4.8-2.5c-2-0.2-3.8,0.5-5.1,1.6c-1.1,0.9-2.7,0.8-3.8-0.1c-1.3-1.2-3.1-1.9-5-1.9
	c-1.9,0.1-3.7,0.9-4.9,2.2c-1,1.1-2.5,1.2-3.7,0.4c-1.5-1-3.4-1.5-5.2-1.2s-3.5,1.4-4.6,2.7c-0.8,1.1-2.4,1.5-3.7,0.8
	c-1.6-0.9-3.5-1.1-5.4-0.6c-1.8,0.5-3.4,1.7-4.3,3.3C108.8,9,107.3,9.5,106,9c-1.7-0.6-3.6-0.7-5.4,0l0,0c-1.8,0.8-3.1,2.1-3.9,3.8
	c-0.6,1.3-2,2-3.4,1.6c-1.7-0.4-3.7-0.2-5.4,0.7s-2.9,2.5-3.4,4.3c-0.4,1.4-1.7,2.2-3.1,2c-1.8-0.2-3.7,0.2-5.2,1.4
	c-1.5,1.1-2.5,2.8-2.8,4.6c-0.2,1.3-1.4,2.4-2.9,2.4c-1.8,0-3.6,0.7-5.1,2c-1.4,1.3-2.2,3.1-2.2,4.9c-0.1,1.4-1.2,2.6-2.6,2.7
	c-1.8,0.2-3.5,1-4.8,2.6c-1.3,1.5-1.8,3.3-1.6,5.1c0.1,1.4-0.8,2.8-2.3,3.1c-1.8,0.4-3.3,1.5-4.4,3.1c-1.1,1.7-1.4,3.6-1,5.3
	c0.3,1.4-0.5,2.8-1.8,3.3c-1.7,0.7-3.1,1.9-4,3.6c-0.8,1.7-1,3.7-0.4,5.4c0.4,1.4-0.2,2.9-1.4,3.5c-1.6,0.9-2.9,2.3-3.5,4.1
	c-0.6,1.8-0.4,3.7,0.3,5.4c0.6,1.3,0.2,2.8-1,3.6c-1.5,1-2.6,2.5-3,4.5l0,0c-0.1,0.2,0,0.4-0.1,0.6L0,97.5l0.9,5.5l280.2-43
	l-0.9-5.5L246.4,59.7z M48.6,90c10.3-38.6,42-67.3,81.8-73.4C170.1,10.5,209,28.2,230.5,62L48.6,90z M232.2,61.8
	c-10.2-16.2-24.6-29.2-41.9-37.7c-18.7-9.2-39.5-12.2-60.2-9.1S90.6,27.4,75.4,41.8c-13.9,13.3-23.8,30-28.7,48.5l-5.1,0.8
	c9.8-40.9,43.4-73.6,87.5-80.4S215,25.2,236.6,61.2L232.2,61.8z"/>
</svg>
