<?xml version="1.0" encoding="utf-8"?>
<svg version="1.2" baseProfile="tiny" id="Layer_1" xmlns="http://www.w3.org/2000/svg" xmlns:xlink="http://www.w3.org/1999/xlink"
	 x="0px" y="0px" width="453.5" height="453.5" viewBox="0 0 453.5 453.5" xml:space="preserve">
<path fill="#FFBB00" d="M208.5,260.7l-6.4-8.4c-7.6-10.1-20.1-15.3-32.7-13.5l-10.5,1.4c-2.3,0.3-4.5,0.3-6.7,0L108,316.7l53.3-14.3
	l14.3,53.3l49.3-85.4C218.8,269.5,212.8,266.3,208.5,260.7z"/>
<path fill="#FFBB00" d="M297.9,240.2l-10.5-1.4c-12.5-1.7-25,3.4-32.7,13.5l-6.4,8.4c-4,5.3-9.5,8.4-15.4,9.5l49.4,85.5l14.3-53.3
	l53.3,14.3L305.6,240C303.1,240.5,300.5,240.6,297.9,240.2z"/>
<path fill="none" stroke="#3A3A3A" stroke-width="8" stroke-linecap="square" d="M249,24.5l6.4,8.4C263,43,275.5,48.2,288,46.5
	l10.5-1.4c16.4-2.3,30.4,11.8,28.2,28.2l-1.4,10.5c-1.7,12.5,3.4,25,13.5,32.7l8.4,6.4c13.2,10,13.2,29.8,0,39.8l-8.4,6.4
	c-10.1,7.6-15.3,20.1-13.5,32.7l1.4,10.5c2.3,16.4-11.8,30.4-28.2,28.2l-10.5-1.4c-12.5-1.7-25,3.4-32.7,13.5l-6.4,8.4
	c-10,13.2-29.8,13.2-39.8,0l-6.4-8.4c-7.6-10.1-20.1-15.3-32.7-13.5l-10.5,1.4c-16.4,2.3-30.4-11.8-28.2-28.2l1.4-10.5
	c1.7-12.5-3.4-25-13.5-32.7l-8.4-6.4c-13.2-10-13.2-29.8,0-39.8l8.4-6.4c10.1-7.6,15.2-20.1,13.5-32.7l-1.4-10.5
	c-2.3-16.4,11.8-30.4,28.2-28.2l10.5,1.4c12.5,1.7,25-3.4,32.7-13.5l6.4-8.4C219.1,11.3,239,11.3,249,24.5z"/>
<g>
	<path fill="#FFBB00" d="M188.7,143.4c0,0-30,14.7-20.2,41.9c11.3,31.7,63.5,27.9,94,14.9c26-11,4.3-19.7,4.3-19.7l-26.9-15.2
		l-41-25.4L188.7,143.4z"/>
	<path fill="#3A3A3A" d="M259.7,167.7c-19.2-8.1-32.8-20.1-46.6-25.3c7.2-3.2,13.9-7.7,18.1-11.6c4.5-4.3,5.9-9.7,5.7-14.9
		c14.3,9.7,31.2,10.4,39.8,10.9c9,0.5,17.4,2.3,19.2,6.6c0,0,2.8-48.5-97.2-80.7c0,0,29.8,13.5,39.2,24.4c0,0-10.6-0.6-15,6.2
		c-2.3,3.4-2.8,8.7-0.8,14.5c-1.6-0.3-3.5-0.5-5.6-0.6L57.9,9.4l16.7,35.9l-15.7-5.4l4.7,8.8c0.1,0.1,6.6,12.6,21.9,39.3
		c12,21,33.5,31.5,61.9,30.2c1,0,2.3-0.1,3.5-0.3c7.2-0.5,18.3-1.5,29.1-2.5c-0.8,3.9-0.6,8.6,0.4,14.3c1.3,6.6,3.9,10.7,7.3,13.3
		c-8.2,4-15.7,11.5-19.3,20.6l0,0c-0.1,0.3-0.3,0.5-0.3,0.8l0,0c-2.4,5.8-3,12.9-0.1,21.1v0.1c0.6,1.6,1.3,3.3,2.3,5.1
		c0.9,1.6,2,3.3,3.4,4.7c17.7,21,60.6,17.6,87.7,6.2c0.4-0.1,0.8-0.3,1.1-0.5c2.1-0.9,4.3-1.9,6.4-2.9c0.4-0.3,0.9-0.4,1.3-0.6
		c2.3-1.1,4.5-2.3,6.8-3.7c26.9-15.7,35.8-34,35.8-34S285.8,178.7,259.7,167.7z M266.6,95.7c7.6,3.3,19.3,22.2,19.3,22.2
		c-9.7-1.5-29.2-7.8-31.2-15.2C252.5,95.4,259,92.4,266.6,95.7z M146.8,110.2c-10.2,0.5-19.5-0.8-27.5-3.5
		c-11.7-4.2-20.8-11.7-27.2-22.6C84.3,70.4,78.8,60.4,75.3,54l14.3,4.9L75.3,28.2l125.2,69.5c-3.4,0.5-6.8,1.5-9.9,3l-80.2-32.3
		l68.9,39.2C166.8,108.7,153.4,109.8,146.8,110.2z M170,181.6c-1.4-5.3-0.9-10.6,0.4-15.3c7.3,4.9,18.3,7.6,33.7,1.8
		C204.2,168.1,193.3,181.6,170,181.6z M206.7,207.1c-5.1-0.6-10.2-1.9-15.2-3.9c-2.7-1.1-4.9-2.3-7.1-3.5c10-2.3,22.7-7.8,34.9-21.6
		C219.3,178,217.9,192.9,206.7,207.1z M241.3,204.3c-2.7,0.8-5.6,1.4-8.5,1.9c4.5-3.5,8.7-9,8.8-16.4
		C241.6,189.8,243.6,196.1,241.3,204.3z M278.4,187.4c-1.4-3.7-2-11-2-11c8.3,0.8,18.4-2.7,18.4-2.7
		C288.2,182,278.4,187.4,278.4,187.4z"/>
	<path fill="#FFBB00" d="M216.3,102.1c0,0-29.1-7.2-33.1,15.2c-1.6,9.2,1.8,17.8,6.6,21.2c2.4-1,5.6-2.5,11.9-2.4
		c-1.4-0.6-3.4-3.3-5.1-6.8c1.9,0.4,4.2,0.6,6.8,0.3c0,0-6.9-2.3-9.3-10.9c0-0.1,0-0.1,0-0.3c1,0.6,2.3,1.1,3.9,1.4
		c0,0-5.6-4.7-1-10.9C200,104.8,205.9,102,216.3,102.1z"/>
	<path fill="#FFFFFF" d="M146.8,110.2c-10.2,0.5-19.5-0.8-27.5-3.5c-11.7-4.2-20.8-11.7-27.2-22.6C84.3,70.4,78.8,60.4,75.3,54
		l14.3,4.9L75.3,28.2l125.2,69.5c-3.4,0.5-6.8,1.5-9.9,3l-80.2-32.3l68.9,39.2C166.8,108.7,153.4,109.8,146.8,110.2z"/>
	<path fill="#FFFFFF" d="M278.4,187.4c-1.4-3.7-2-11-2-11c8.3,0.8,18.4-2.7,18.4-2.7C288.2,182,278.4,187.4,278.4,187.4z"/>
</g>
<path fill="#FFFFFF" d="M266.6,95.7c7.6,3.3,19.3,22.2,19.3,22.2c-9.7-1.5-29.2-7.8-31.2-15.2C252.5,95.4,259,92.4,266.6,95.7z"/>
<g>
	<path fill="#FFBB00" d="M99.3,381.2c-0.7,3.5-2.9,5.8-6.6,7c1.7,0.8,3,2.1,3.8,3.9s1,3.6,0.7,5.6c-0.7,3.3-2.3,5.8-4.8,7.4
		s-6,2.4-10.6,2.4H62.4l7.9-36.3h17.1c4.5,0,7.7,1,9.8,2.9C99.1,375.9,99.8,378.3,99.3,381.2z M86.8,396.4c0.2-1.2,0.1-2-0.5-2.7
		c-0.6-0.6-1.5-0.9-2.8-0.9H76l-1.5,6.6h8.1C84.9,399.5,86.3,398.5,86.8,396.4z M88.7,382.4c0.2-1,0.1-1.8-0.5-2.3
		c-0.5-0.6-1.3-0.9-2.3-0.9h-7l-1.4,6.2h6.9c1.1,0,2-0.3,2.8-0.8C88.1,384,88.6,383.3,88.7,382.4z"/>
	<path fill="#FFBB00" d="M135.7,371.2l-2,9.1h-18.9l-1,4.8H131l-1.8,8.5H112l-1,4.9h18.9l-2,9.1H98.5l7.9-36.3h29.3V371.2z"/>
	<path fill="#FFBB00" d="M137.5,371.2h32.3l-2,9.1h-10.9l-5.9,27.2h-10.4l5.9-27.2h-10.9L137.5,371.2z"/>
	<path fill="#FFBB00" d="M197.5,407.5h-10.8l-0.5-4.7h-14.5l-2.6,4.7h-10.9l21-36.3h12.5L197.5,407.5z M180.8,386l-4.5,8.4h9
		l-0.9-8.4c-0.1-0.9-0.3-2.8-0.5-5.7C182.5,382.7,181.5,384.6,180.8,386z"/>
	<path fill="#3A3A3A" d="M236.9,371.2l-2,9.1h-17.8l-1,4.7h16.7l-1.9,8.6h-16.7l-3,13.9h-10.4l7.9-36.3L236.9,371.2L236.9,371.2z"/>
	<path fill="#3A3A3A" d="M250.5,371.2l-5.9,27.2H261l-2,9.1h-26.8l7.9-36.3L250.5,371.2L250.5,371.2z"/>
	<path fill="#3A3A3A" d="M272.5,407.5h-10.4l7.9-36.3h10.4L272.5,407.5z"/>
	<path fill="#3A3A3A" d="M301,379.1c-2.5,0-4.6,0.9-6.4,2.6c-1.8,1.8-3,4.1-3.7,7.1c-0.8,3.4-0.6,6.1,0.5,8s3,2.8,5.7,2.8
		c2,0,3.9-0.5,5.5-1.4s2.8-2.2,3.5-3.8h-6.9l1.7-7.8h17.5l-4.5,20.8H307V403c-1.5,1.7-3.2,3-5.4,4c-2.1,0.9-4.4,1.4-6.8,1.4
		c-5.8,0-10.1-1.8-12.8-5.4c-2.7-3.5-3.3-8.5-1.9-14.9c1.2-5.4,3.7-9.7,7.6-12.9c3.8-3.2,8.6-4.7,14.5-4.7c5.2,0,9.2,1.2,12.1,3.5
		s4.3,5.6,4.2,9.7H308C307.4,380.6,305.1,379.1,301,379.1z"/>
	<path fill="#3A3A3A" d="M346.9,384.4l2.9-13.3h10.4l-7.9,36.3h-10.4l3-14h-12.8l-3,14h-10.4l7.9-36.3H337l-2.9,13.3H346.9z"/>
	<path fill="#3A3A3A" d="M363.4,371.2h32.3l-2,9.1h-10.9l-5.9,27.2h-10.4l5.9-27.2h-10.9L363.4,371.2z"/>
	<path fill="#3A3A3A" d="M111.5,413.1h15.8c5,0,8.7,1.2,11,3.7c2.3,2.4,3,5.8,2,10.2c-0.8,3.3-2.6,6-5.5,8.2
		c-3,2.2-6.5,3.3-10.8,3.3h-7.5l-2.4,11h-10.4L111.5,413.1z M130,426.1c0.6-3-0.7-4.4-3.7-4.4H120l-1.8,8.2h6.2c1.4,0,2.6-0.3,3.6-1
		C129.1,428.1,129.7,427.2,130,426.1z"/>
	<path fill="#3A3A3A" d="M172.3,449.4h-10.8l-0.5-4.7h-14.5l-2.6,4.7H133l21-36.3h12.5L172.3,449.4z M155.6,427.9l-4.5,8.4h9
		l-0.9-8.4c-0.1-0.9-0.3-2.8-0.5-5.7C157.4,424.6,156.4,426.5,155.6,427.9z"/>
	<path fill="#3A3A3A" d="M182.5,413.1h16.7c5,0,8.6,1,10.8,3.1s2.9,4.9,2.1,8.4c-0.9,4-3.6,6.7-8,8.1c3.2,1.3,4.5,4,3.7,8.2
		l-0.7,4.4c-0.3,1.9-0.3,3.2,0.1,4.1h-10.7c-0.3-0.9-0.2-2.3,0.2-4.1l0.7-3.7c0.3-1.8,0.1-3.1-0.5-3.7c-0.6-0.7-1.8-1-3.6-1h-5.4
		l-2.7,12.5h-10.4L182.5,413.1z M189.4,429.4h5.8c3.5,0,5.5-1.3,6-3.8c0.6-3-0.6-4.5-3.7-4.5h-6.2L189.4,429.4z"/>
	<path fill="#3A3A3A" d="M216.3,413.1h32.3l-2,9.1h-10.9l-5.9,27.2h-10.4l5.9-27.2h-10.9L216.3,413.1z"/>
	<path fill="#3A3A3A" d="M274.2,419l1.3-5.9h9.9l-7.9,36.3h-10.8l-5.1-12.9c-1.6-4-2.7-7.1-3.3-9.4c-0.9,5.3-2,10.8-3.3,16.4
		l-1.3,5.9h-9.9l7.9-36.3h10.8l5.1,12.9c1.6,4.1,2.7,7.3,3.3,9.4C271.9,430,273,424.5,274.2,419z"/>
	<path fill="#3A3A3A" d="M319.8,413.1l-2,9.1H299l-1,4.8h17.2l-1.8,8.5h-17.2l-1,4.9h18.9l-2,9.1h-29.3l7.9-36.3h29.1V413.1z"/>
	<path fill="#3A3A3A" d="M323.7,413.1h16.7c5,0,8.6,1,10.8,3.1c2.2,2.1,2.9,4.9,2.1,8.4c-0.9,4-3.6,6.7-8,8.1c3.2,1.3,4.5,4,3.8,8.2
		l-0.7,4.4c-0.3,1.9-0.3,3.2,0.1,4.1h-10.7c-0.3-0.9-0.2-2.3,0.2-4.1l0.7-3.7c0.3-1.8,0.1-3.1-0.5-3.7s-1.8-1-3.6-1H329l-2.7,12.5
		h-10.4L323.7,413.1z M330.6,429.4h5.8c3.5,0,5.5-1.3,6-3.8c0.6-3-0.6-4.5-3.7-4.5h-6.2L330.6,429.4z"/>
</g>
</svg>
