<?xml version="1.0" encoding="utf-8"?>
<svg version="1.2" baseProfile="tiny" id="Layer_1" xmlns="http://www.w3.org/2000/svg" xmlns:xlink="http://www.w3.org/1999/xlink"
	 x="0px" y="0px" width="453.5" height="453.5" viewBox="0 0 453.5 453.5" xml:space="preserve">
<path fill="#FFBB00" d="M221.5,275.4l-45.7,79.2l-14.3-53.3l-53.3,14.3l40.6-70.3c2.4,0.6,4.8,0.9,7.4,0.9c1.5,0,3-0.1,4.4-0.3
	l10.5-1.4c1.3-0.2,2.5-0.3,3.8-0.3c8.8,0,17.1,4.2,22.4,11.1l6.4,8.4C208.2,269.7,214.4,273.7,221.5,275.4z"/>
<path fill="#FFBB00" d="M349.9,315.6l-53.3-14.3l-14.3,53.3l-45.7-79.2c7-1.7,13.3-5.8,17.8-11.7l6.4-8.4c5.3-7,13.7-11.1,22.5-11.1
	c1.3,0,2.6,0.1,3.8,0.3l10.5,1.4c1.5,0.2,2.9,0.3,4.4,0.3c2.5,0,5-0.3,7.4-0.9L349.9,315.6z"/>
<path fill="none" d="M249,23.4l6.4,8.4c7.6,10.1,20.1,15.2,32.7,13.5l10.5-1.4c16.4-2.3,30.4,11.8,28.2,28.2l-1.4,10.5
	c-1.7,12.5,3.4,25,13.5,32.7l8.4,6.4c13.2,10,13.2,29.8,0,39.8l-8.4,6.4c-10.1,7.6-15.3,20.1-13.5,32.7l1.4,10.5
	c2.3,16.4-11.8,30.4-28.2,28.2l-10.5-1.4c-12.5-1.7-25,3.4-32.7,13.5l-6.4,8.4c-10,13.2-29.8,13.2-39.8,0l-6.4-8.4
	c-7.6-10.1-20.1-15.3-32.7-13.5l-10.5,1.4c-16.4,2.3-30.4-11.8-28.2-28.2l1.4-10.5c1.7-12.5-3.4-25-13.5-32.7l-8.4-6.4
	c-13.2-10-13.2-29.8,0-39.8l8.4-6.4c10.1-7.6,15.2-20.1,13.5-32.7l-1.4-10.5c-2.3-16.4,11.8-30.4,28.2-28.2l10.5,1.4
	c12.5,1.7,25-3.4,32.7-13.5l6.4-8.4C219.1,10.2,239,10.2,249,23.4z"/>
<g>
	<path fill="#FFBB00" d="M99.3,380.1c-0.7,3.5-2.9,5.8-6.6,7c1.7,0.8,3,2.1,3.8,3.9s1,3.6,0.7,5.6c-0.7,3.3-2.3,5.8-4.8,7.4
		s-6,2.4-10.6,2.4H62.4l7.9-36.3h17.1c4.5,0,7.7,1,9.8,2.9C99.1,374.8,99.8,377.2,99.3,380.1z M86.8,395.3c0.2-1.2,0.1-2-0.5-2.7
		c-0.6-0.6-1.5-0.9-2.8-0.9H76l-1.5,6.6h8.1C84.9,398.4,86.3,397.4,86.8,395.3z M88.7,381.2c0.2-1,0.1-1.8-0.5-2.3
		c-0.5-0.6-1.3-0.9-2.3-0.9h-7l-1.4,6.2h6.9c1.1,0,2-0.3,2.8-0.8C88.1,382.9,88.6,382.2,88.7,381.2z"/>
	<path fill="#FFBB00" d="M135.7,370.1l-2,9.1h-18.9l-1,4.8H131l-1.8,8.5H112l-1,4.9h18.9l-2,9.1H98.5l7.9-36.3h29.3V370.1z"/>
	<path fill="#FFBB00" d="M137.5,370.1h32.3l-2,9.1h-10.9l-5.9,27.2h-10.4l5.9-27.2h-10.9L137.5,370.1z"/>
	<path fill="#FFBB00" d="M197.5,406.4h-10.8l-0.5-4.7h-14.5l-2.6,4.7h-10.9l21-36.3h12.5L197.5,406.4z M180.8,384.9l-4.5,8.4h9
		l-0.9-8.4c-0.1-0.9-0.3-2.8-0.5-5.7C182.5,381.6,181.5,383.5,180.8,384.9z"/>
	<path fill="#FFFFFF" d="M236.9,370.1l-2,9.1h-17.8l-1,4.7h16.7l-1.9,8.6h-16.7l-3,13.9h-10.4l7.9-36.3L236.9,370.1L236.9,370.1z"/>
	<path fill="#FFFFFF" d="M250.5,370.1l-5.9,27.2H261l-2,9.1h-26.8l7.9-36.3L250.5,370.1L250.5,370.1z"/>
	<path fill="#FFFFFF" d="M272.5,406.4h-10.4l7.9-36.3h10.4L272.5,406.4z"/>
	<path fill="#FFFFFF" d="M301,378c-2.5,0-4.6,0.9-6.4,2.6c-1.8,1.8-3,4.1-3.7,7.1c-0.8,3.4-0.6,6.1,0.5,8s3,2.8,5.7,2.8
		c2,0,3.9-0.5,5.5-1.4s2.8-2.2,3.5-3.8h-6.9l1.7-7.8h17.5l-4.5,20.8H307v-4.5c-1.5,1.7-3.2,3-5.4,4c-2.1,0.9-4.4,1.4-6.8,1.4
		c-5.8,0-10.1-1.8-12.8-5.4c-2.7-3.5-3.3-8.5-1.9-14.9c1.2-5.4,3.7-9.7,7.6-12.9c3.8-3.2,8.6-4.7,14.5-4.7c5.2,0,9.2,1.2,12.1,3.5
		s4.3,5.6,4.2,9.7H308C307.4,379.5,305.1,378,301,378z"/>
	<path fill="#FFFFFF" d="M346.9,383.3l2.9-13.3h10.4l-7.9,36.3h-10.4l3-14h-12.8l-3,14h-10.4l7.9-36.3H337l-2.9,13.3H346.9z"/>
	<path fill="#FFFFFF" d="M363.4,370.1h32.3l-2,9.1h-10.9l-5.9,27.2h-10.4l5.9-27.2h-10.9L363.4,370.1z"/>
	<path fill="#FFFFFF" d="M111.5,412h15.8c5,0,8.7,1.2,11,3.7c2.3,2.4,3,5.8,2,10.2c-0.8,3.3-2.6,6-5.5,8.2c-3,2.2-6.5,3.3-10.8,3.3
		h-7.5l-2.4,11h-10.4L111.5,412z M130,425c0.6-3-0.7-4.4-3.7-4.4H120l-1.8,8.2h6.2c1.4,0,2.6-0.3,3.6-1
		C129.1,427,129.7,426.1,130,425z"/>
	<path fill="#FFFFFF" d="M172.3,448.3h-10.8l-0.5-4.7h-14.5l-2.6,4.7H133l21-36.3h12.5L172.3,448.3z M155.6,426.7l-4.5,8.4h9
		l-0.9-8.4c-0.1-0.9-0.3-2.8-0.5-5.7C157.4,423.5,156.4,425.4,155.6,426.7z"/>
	<path fill="#FFFFFF" d="M182.5,412h16.7c5,0,8.6,1,10.8,3.1s2.9,4.9,2.1,8.4c-0.9,4-3.6,6.7-8,8.1c3.2,1.3,4.5,4,3.7,8.2l-0.7,4.4
		c-0.3,1.9-0.3,3.2,0.1,4.1h-10.7c-0.3-0.9-0.2-2.3,0.2-4.1l0.7-3.7c0.3-1.8,0.1-3.1-0.5-3.7c-0.6-0.7-1.8-1-3.6-1h-5.4l-2.7,12.5
		h-10.4L182.5,412z M189.4,428.3h5.8c3.5,0,5.5-1.3,6-3.8c0.6-3-0.6-4.5-3.7-4.5h-6.2L189.4,428.3z"/>
	<path fill="#FFFFFF" d="M216.3,412h32.3l-2,9.1h-10.9l-5.9,27.2h-10.4l5.9-27.2h-10.9L216.3,412z"/>
	<path fill="#FFFFFF" d="M274.2,417.9l1.3-5.9h9.9l-7.9,36.3h-10.8l-5.1-12.9c-1.6-4-2.7-7.1-3.3-9.4c-0.9,5.3-2,10.8-3.3,16.4
		l-1.3,5.9h-9.9l7.9-36.3h10.8l5.1,12.9c1.6,4.1,2.7,7.3,3.3,9.4C271.9,428.9,273,423.4,274.2,417.9z"/>
	<path fill="#FFFFFF" d="M319.8,412l-2,9.1H299l-1,4.8h17.2l-1.8,8.5h-17.2l-1,4.9h18.9l-2,9.1h-29.3l7.9-36.3h29.1V412z"/>
	<path fill="#FFFFFF" d="M323.7,412h16.7c5,0,8.6,1,10.8,3.1c2.2,2.1,2.9,4.9,2.1,8.4c-0.9,4-3.6,6.7-8,8.1c3.2,1.3,4.5,4,3.8,8.2
		l-0.7,4.4c-0.3,1.9-0.3,3.2,0.1,4.1h-10.7c-0.3-0.9-0.2-2.3,0.2-4.1l0.7-3.7c0.3-1.8,0.1-3.1-0.5-3.7s-1.8-1-3.6-1H329l-2.7,12.5
		h-10.4L323.7,412z M330.6,428.3h5.8c3.5,0,5.5-1.3,6-3.8c0.6-3-0.6-4.5-3.7-4.5h-6.2L330.6,428.3z"/>
</g>
<path fill="#FFBB00" d="M349.5,118.4l-8.4-6.4c-8.9-6.8-13.5-17.8-12-28.9l1.4-10.5c1.3-9.1-1.8-18-8.2-24.5
	c-6.5-6.5-15.4-9.5-24.5-8.2l-10.5,1.4c-11.1,1.5-22.2-3.1-28.9-12l-6.4-8.4c-5.5-7.3-14-11.5-23.1-11.5c-9.2,0-17.6,4.2-23.1,11.5
	l-6.4,8.4c-6.8,8.9-17.8,13.5-28.9,12L160.2,40c-9-1.3-17.9,1.7-24.4,8.2l7.4,4.1c4.5-3.6,10.1-5.1,15.9-4.3l10.5,1.4
	c13.9,1.9,27.9-3.8,36.4-15.1l6.4-8.4c4-5.3,10.1-8.3,16.7-8.3s12.7,3,16.7,8.3l6.4,8.4c8.5,11.2,22.5,17,36.4,15.1L299,48
	c6.6-0.9,13,1.3,17.7,6s6.9,11.1,6,17.7L321.2,82c-1.9,13.9,3.9,27.9,15.1,36.4l8.4,6.4c5.3,4,8.3,10.1,8.3,16.7
	c0,6.6-3,12.7-8.3,16.7l-8.4,6.4c-11.2,8.5-17,22.5-15.1,36.4l1.4,10.5c0.9,6.6-1.3,13-6,17.7s-11.1,6.9-17.7,6l-10.4-1.4
	c-14-1.9-27.9,3.9-36.4,15.1l-6.4,8.4c-4,5.3-10.1,8.3-16.7,8.3s-12.7-3-16.7-8.3l-6.4-8.4c-7.4-9.8-19-15.4-31.1-15.4
	c-1.8,0-3.5,0.1-5.3,0.4l-10.5,1.4c-6.6,0.9-13-1.3-17.7-6s-6.9-11.1-6-17.7l1.4-10.5c1.9-13.9-3.9-27.9-15.1-36.4l-8.4-6.4
	c-5.3-4-8.3-10.1-8.3-16.7c0-6.6,3-12.7,8.3-16.7l8.4-6.4c0.3-0.2,0.6-0.5,0.9-0.7c-2.6-0.6-5.2-1.4-7.6-2.3
	c-0.6-0.2-1.1-0.4-1.7-0.6l-4.9,3.7c-7.3,5.5-11.5,14-11.5,23.1c0,9.2,4.2,17.6,11.5,23.1l8.4,6.4c8.9,6.8,13.5,17.8,12,28.9
	l-1.4,10.5c-1.3,9.1,1.8,18,8.2,24.5c6.5,6.5,15.4,9.5,24.5,8.2l10.5-1.4c11.1-1.5,22.2,3.1,28.9,12l6.4,8.4
	c5.5,7.3,14,11.5,23.1,11.5s17.6-4.2,23.1-11.5l6.4-8.4c6.8-8.9,17.8-13.5,28.9-12l10.5,1.4c9.1,1.2,18-1.8,24.5-8.2
	c6.5-6.5,9.5-15.4,8.2-24.5l-1.4-10.5c-1.5-11.1,3.1-22.2,12-28.9l8.4-6.4c7.3-5.5,11.5-13.9,11.5-23.1
	C361,132.3,356.8,123.9,349.5,118.4z"/>
<path fill="#FFBB00" d="M259.8,166.6c-19.2-8.1-32.8-20.1-46.6-25.2c7.2-3.2,13.9-7.7,18-11.6c4.5-4.3,5.9-9.7,5.7-14.9
	c14.3,9.7,31.2,10.3,39.8,10.9c9,0.5,17.4,2.3,19.2,6.6c0,0,2.8-48.5-97-80.6c0.9,0.4,29.9,13.7,39.1,24.3c0,0-10.6-0.6-15,6.2
	c-2.3,3.4-2.8,8.7-0.8,14.5c-1.6-0.3-3.5-0.5-5.5-0.6l-75.7-42l-7.2-4L58.1,8.4l16.7,35.8l-15.7-5.4l4.7,8.8
	c0.1,0.1,6.6,12.6,21.8,39.2c7,12.3,17.3,21,30.4,25.8c3,1.1,6,2,9.3,2.7c6.8,1.5,14.2,2,22.2,1.7c1,0,2.3-0.1,3.5-0.3
	c7.2-0.5,18.3-1.5,29-2.5c-0.8,3.9-0.6,8.6,0.4,14.3c1.3,6.6,3.9,10.7,7.3,13.4c-8.4,4-16.1,11.9-19.6,21.2
	c-1.3,3.1-2.1,6.6-2.1,10.4c0,3.3,0.6,6.9,1.9,10.7v0.1c0.6,1.6,1.3,3.3,2.3,5c0.9,1.6,2,3.3,3.4,4.7c17.7,21,60.6,17.5,87.6,6.2
	c0.4-0.1,0.8-0.3,1.1-0.5c2.2-0.9,4.3-1.9,6.4-2.9c0.4-0.3,0.9-0.4,1.3-0.6c2.3-1.1,4.5-2.3,6.8-3.6c26.5-15.4,35.4-33.4,35.7-33.9
	C312,159,285.5,177.5,259.8,166.6z M266.6,94.7c7.6,3.3,19.3,22.2,19.3,22.2c-9.7-1.5-29.2-7.8-31.2-15.1
	C252.7,94.5,259,91.3,266.6,94.7z M136.3,77.7l-8.5-3.5l-17-6.9l17.4,9.9l8.8,5l42.7,24.3c-12.6,1.3-26,2.4-32.7,2.8
	c-5.6,0.3-10.9,0-15.9-0.7c-3-0.4-5.8-1-8.5-1.8c-1-0.3-2.1-0.6-3.1-1c-11.7-4.2-20.8-11.7-27.1-22.6c-7.8-13.6-13.3-23.6-16.8-30
	L89.7,58L75.4,27.3l54.1,30l7,3.9l63.9,35.5c-3.4,0.5-6.8,1.5-9.8,3L136.3,77.7z M183.8,116.2c4.9-23.2,34.7-15.9,34.7-15.9
	c-10.9-0.3-17.2,2.8-20.3,7.1c-4.7,6.4,1.1,11.4,1.1,11.4c-1.6-0.3-3-0.8-4-1.5c0,0.1,0,0.3,0,0.3c2.5,9,9.9,11.4,9.9,11.4
	c-2.8,0.4-5.2,0.3-7.2-0.3c1.6,3.8,3.8,6.6,5.3,7.2c-6.6,0-10,1.5-12.5,2.5C185.6,134.7,181.7,126.3,183.8,116.2z M170.2,180.5
	c-1.4-5.3-0.9-10.6,0.4-15.3c7.3,4.8,18.4,7.6,33.7,1.8C204.3,167,193.4,180.5,170.2,180.5z M206.8,205.9
	c-5.1-0.6-10.2-1.9-15.2-3.9c-2.5-1-4.9-2.3-7.1-3.5c10-2.3,22.7-7.8,34.8-21.6C219.4,176.9,218,191.8,206.8,205.9z M241.3,203.1
	c-2.6,0.8-5.5,1.4-8.5,1.9c4.7-3.5,8.8-8.8,8.8-16.4C241.6,188.6,243.7,194.9,241.3,203.1z M278.5,186.3c-1.4-3.7-2-11-2-11
	c8.3,0.8,18.4-2.7,18.4-2.7C288.2,180.9,278.5,186.3,278.5,186.3z"/>
</svg>
