<?xml version="1.0" encoding="utf-8"?>
<!-- Generator: Adobe Illustrator 24.0.0, SVG Export Plug-In . SVG Version: 6.00 Build 0)  -->
<svg version="1.2" baseProfile="tiny" id="Layer_1" xmlns="http://www.w3.org/2000/svg" xmlns:xlink="http://www.w3.org/1999/xlink"
	 x="0px" y="0px" width="600" height="180" viewBox="0 0 600 180" xml:space="preserve">
<g>
	<path fill="#191815" d="M39.695,145.897c-0.829-0.059-1.597-0.392-2.453-0.416c-1.446-0.041-2.506,0.902-3.775,1.294
		c-0.404,0.125-0.668,0.756-0.018,1.234c0.683,0.501,1.292,1.1,1.955,1.674c-0.123,0.074-0.187,0.139-0.215,0.126
		c-1.904-0.852-3.819-0.541-5.759-0.126c-1.379,0.295-2.759,0.381-4.207,0.343c-2.869-0.076-5.75,0.291-8.626,0.481
		c-3.914,0.258-7.612-0.585-11.143-2.215c-1.582-0.73-3.118-1.558-4.685-2.32c-0.339-0.165-0.496-0.368-0.544-0.751
		c-0.137-1.095-0.238-2.187-0.223-3.294c0.051-3.854-0.113-7.73,1.022-11.481c0.628-2.074,1.334-4.125,2.039-6.174
		c0.191-0.556,0.179-1.051-0.021-1.597c-1.504-4.096,0.221-7.216,3.404-8.889c0.461-0.242,0.956-0.394,1.487-0.437
		c3.072-0.249,5.632-1.733,8.111-3.396c0.661-0.443,1.085-1.09,1.287-1.847c1.584-5.917,4.651-11.002,8.68-15.558
		c0.77-0.871,1.444-1.827,2.21-2.702c0.446-0.509,0.48-1.002,0.257-1.601c-0.339-0.909-0.902-1.668-1.55-2.364
		c-1.295-1.39-2.625-2.747-3.926-4.132c-0.567-0.604-1.068-1.262-1.41-2.026c-0.686-1.53-0.045-2.821,1.595-3.203
		c0.861-0.2,1.725-0.096,2.547,0.143c3.735,1.083,6.911,3.079,9.53,5.953c0.082,0.09,0.137,0.208,0.226,0.289
		c0.382,0.343,0.36,1.131,0.858,1.176c0.454,0.042,0.941-0.38,1.428-0.559c3.353-1.235,6.801-2.193,10.07-3.682
		c5.9-2.689,10.856-6.417,14.468-11.908c3.066-4.66,6.815-8.734,11.41-11.98c5.514-3.894,11.673-6.08,18.312-7.091
		c4.11-0.626,8.239-0.754,12.38-0.722c0.846,0.007,1.146-0.309,1.19-1.103c0.052-0.954-0.003-1.901-0.101-2.843
		c-0.471-4.525,0.038-8.976,0.976-13.395c0.171-0.808,0.467-1.587,0.965-2.262c0.617-0.835,1.323-1.002,2.251-0.533
		c0.837,0.423,1.476,1.09,2.081,1.784c1.798,2.062,3.27,4.357,4.679,6.687c2.484,4.108,4.942,8.232,7.372,12.372
		c0.4,0.681,0.653,0.864,1.41,0.387c2.068-1.303,4.09-2.689,6.326-3.714c1.354-0.621,2.736-1.076,4.241-1.023
		c0.419,0.014,0.596-0.091,0.621-0.543c0.141-2.608,1.029-5.016,2.067-7.374c1.287-2.922,2.882-5.667,4.853-8.186
		c0.956-1.222,2.006-2.346,3.428-3.048c0.061,0,0.123,0,0.184,0c1.137,0.407,1.787,1.274,2.259,2.333
		c1.16,2.607,1.602,5.388,1.921,8.183c0.386,3.379,0.59,6.771,0.263,10.176c-0.112,1.172-0.503,2.263-0.788,3.386
		c-0.056,0.221-0.356,0.541,0.169,0.599c2.248,0.25,3.832,1.665,5.407,3.084c0.514,0.463,0.979,0.446,1.684,0.389
		c3.004-0.244,6.059-0.621,8.91,0.884c1.189,0.628,1.814,1.451,1.746,2.908c-0.157,3.373-1.194,6.47-2.626,9.473
		c-0.064,0.135-0.158,0.275-0.275,0.362c-1.399,1.028-1.53,2.403-1.115,3.944c0.226,0.839,0.175,1.703,0.16,2.559
		c-0.008,0.456,0.07,0.729,0.603,0.823c2.05,0.359,3.51,1.499,4.344,3.418c0.393,0.904,1.064,1.537,1.917,2.024
		c0.879,0.502,1.7,1.097,2.386,1.854c1.409,1.553,1.43,3.563,0.064,5.16c-0.374,0.438-0.835,0.817-1.008,1.433
		c2.001,0.711,3.744,1.829,5.217,3.333c1.459,1.49,2.258,3.279,2.039,5.399c-0.101,0.981,0.264,1.679,0.93,2.34
		c2.815,2.794,5.315,5.836,7.323,9.273c2.187,3.744,3.155,7.841,3.754,12.081c0.506,3.578-0.464,6.849-1.811,10.066
		c-0.329,0.785-0.282,1.479-0.034,2.283c1.103,3.571,0.833,7.076-0.855,10.41c-0.899,1.776-2.425,2.805-4.452,2.981
		c-0.762,0.066-1.532,0.143-2.293,0.105c-1.2-0.059-2.345-0.103-2.73,1.449c-0.125-0.157-0.176-0.192-0.187-0.238
		c-0.175-0.714,0.338-1.716-0.933-1.96c-0.759-0.146-1.415-0.617-2.291-0.365c-1.72,0.495-3.475,0.202-5.199-0.065
		c-0.768-0.119-1.242-0.066-1.254,0.847c-0.002,0.177,0.044,0.502-0.24,0.522c-0.362,0.026-0.332-0.334-0.328-0.539
		c0.02-0.978-0.434-1.594-1.232-2.159c-0.814-0.577-1.424-1.43-2.191-2.084c-0.826-0.705-1.031-0.602-1.215,0.449
		c-0.041,0.231,0.019,0.565-0.307,0.581c-0.381,0.019-0.247-0.352-0.293-0.559c-0.222-0.993-0.176-2.111-1.347-2.633
		c-0.115-0.051-0.177-0.322-0.185-0.494c-0.141-3.19,0.264-6.214,2.417-8.799c1.117-1.34,2.53-1.88,4.188-1.929
		c0.792-0.023,0.922-0.23,0.499-0.924c-0.953-1.561-1.368-3.286-1.69-5.09c-0.205-1.148-1.747-1.03-2.591-1.648
		c-0.423-0.309-0.665,0.154-0.895,0.399c-1.362,1.457-2.724,2.898-4.649,3.65c-0.525,0.205-0.873,0.658-1.029,1.228
		c-0.064,0.235-0.149,0.466-0.238,0.693c-1.818,4.645-7.177,5.825-10.833,2.369c-0.689-0.651-1.305-1.38-1.947-2.08
		c-0.54-0.589-1.101-1.152-1.796-1.561c-1.088-0.639-2.111-0.856-3.325-0.103c-2.103,1.305-4.311,2.438-6.588,3.426
		c-0.241,0.105-0.583,0.073-0.391,0.596c0.787,2.139,0.374,3.31-1.536,4.63c0.48,0.497,0.944,1.006,1.439,1.484
		c3.24,3.131,6.478,6.264,9.74,9.372c0.44,0.419,0.523,0.628,0.029,1.099c-4.016,3.828-8.006,7.681-11.98,11.553
		c-0.453,0.442-0.679,0.361-1.085-0.033c-3.981-3.864-7.974-7.715-11.988-11.545c-0.459-0.438-0.394-0.648,0.025-1.048
		c3.458-3.302,6.893-6.629,10.336-9.946c0.241-0.232,0.493-0.453,0.792-0.728c-1.385-0.606-2.256-1.525-2.432-2.969
		c-0.047-0.384-0.194-0.426-0.538-0.355c-2.967,0.619-5.978,0.484-8.981,0.51c-0.455,0.004-1.197-0.275-1.316,0.206
		c-0.171,0.691-0.328,1.543,0.25,2.191c0.341,0.383,0.773,0.687,1.058,0.934c-0.011,0.354-0.137,0.311-0.195,0.293
		c-1.134-0.345-2.168-0.515-3.418-0.046c-0.982,0.368-2.014,0.232-1.67,1.722c-0.677,0.67-0.151,1.098,0.299,1.56
		c0.276,0.283,0.516,0.602,0.817,0.958c-0.413,0.065-0.676-0.157-0.968-0.258c-0.62-0.213-1.27-0.407-1.874-0.067
		c-1.477,0.832-3.003,0.652-4.558,0.351c-0.288-0.056-0.711-0.35-0.867,0.142c-0.17,0.537-0.779,1.013-0.298,1.676
		c0.3,0.415,0.579,0.845,0.848,1.41c-1.552-0.815-2.774-0.035-4.064,0.589c-0.944,0.456-1.986,0.294-2.985,0.092
		c-0.707-0.143-0.993,0.008-1.076,0.826c-0.142,1.399-0.099,2.673,1.248,3.722c-0.854,0.121-1.391-0.184-1.958-0.318
		c-1.219-0.288-1.662,0.043-1.68,1.253c-0.003,0.184,0.053,0.403-0.027,0.545c-0.843,1.493,0.109,2.403,1.044,3.336
		c0.185,0.184,0.433,0.346,0.5,0.904c-1.839-1.202-3.26-0.34-4.711,0.639c-0.628,0.424-1.435,0.441-2.213,0.492
		c-3.429,0.223-6.701-0.487-9.914-1.576c-3.684-1.248-7.467-1.259-11.271-0.885c-2.932,0.288-5.595-0.327-7.96-2.118
		c-0.719-0.545-1.323-1.179-1.718-2c-4.626-9.603-9.343-19.165-13.333-29.059c-0.639-1.585-0.595-1.578-2.133-0.781
		c-3.524,1.825-6.887,3.97-10.719,5.178c-3.822,1.205-7.681,2.105-11.721,1.918c-0.691-0.032-0.9,0.163-0.869,0.861
		c0.065,1.456-0.232,2.859-0.894,4.17c-0.467,0.924-1.086,1.699-2.079,2.11c-0.179,0.074-0.452,0.089-0.391,0.406
		c0.045,0.237,0.253,0.223,0.421,0.279c0.711,0.234,1.25,0.757,1.876,1.123c1.969,1.152,3.922,2.377,6.352,2.334
		c3.072-0.055,5.944,0.757,8.604,2.251c1.818,1.021,3.192,2.411,3.048,4.728c-0.024,0.39,0.178,0.49,0.505,0.617
		c0.794,0.308,1.601,0.644,1.857,1.595L39.695,145.897z M55.494,77.168c-0.194-0.125-0.3,0.016-0.413,0.135
		c-0.704,0.43-1.402,0.868-2.111,1.288c-2.319,1.375-4.672,2.694-7.257,3.502c-2.835,0.886-5.644,1.821-8.316,3.139
		c-0.949,0.468-1.915,0.931-2.972,1.146c-0.162-0.419,0.048-0.763,0.078-1.121c0.031-0.368,0.056-0.708-0.188-1.046
		c-2.228-3.081-4.954-5.493-8.707-6.549c-0.536-0.151-1.076-0.244-1.632-0.194c-0.791,0.07-1.198,0.496-1.262,1.302
		c-0.109,1.376,0.463,2.461,1.463,3.31c1.025,0.871,2.132,1.646,3.194,2.475c1.07,0.836,2.076,1.738,2.539,3.069
		c0.129,0.372,0.286,0.379,0.607,0.25c0.199-0.08,0.403-0.296,0.605-0.173c0.261,1.135,0.017,1.994-1.101,2.479
		c-0.295,0.128-0.539,0.405-0.769,0.647c-3.838,4.033-6.831,8.624-9.021,13.735c-0.212,0.494-0.448,1.02-0.388,1.811
		c0.819-1.088,1.512-2.015,2.211-2.937c1.186-1.562,2.361-3.135,3.817-4.464c0.633-0.578,1.272-1.175,2.308-1.391
		c-0.389,0.621-0.682,1.122-1.007,1.6c-2.556,3.763-5.479,7.215-8.746,10.382c-1.741,1.687-3.737,2.938-5.984,3.846
		c-1.795,0.725-3.678,1.143-5.504,1.75c-2.593,0.862-3.458,2.235-3.203,4.931c0.023,0.241-0.005,0.518,0.296,0.608
		c0.38,0.113,0.455-0.221,0.585-0.447c0.299-0.517,0.585-1.042,0.877-1.563c-0.281,1.529-0.71,2.989-1.236,4.413
		c-2.47,6.69-3.436,13.553-2.466,20.649c0.052,0.382,0.002,0.797,0.406,1.066c1.81,1.205,3.613,2.385,5.762,2.969
		c3.977,1.081,8.021,1.365,12.114,1.234c1.232-0.04,2.211-0.939,2.345-2.162c0.07-0.642,0.003-1.281-0.15-1.912
		c-0.387-1.589-1.492-2.539-2.856-3.289c-0.891-0.49-1.879-0.832-2.698-1.6c2.869,0.036,5.943,2.214,6.769,4.778
		c0.287,0.89,0.737,1.494,1.718,1.683c0.579,0.112,1.17,0.351,1.284,1.104c-1.363,0.03-2.971-0.836-3.725,1.25
		c2.511,0.144,4.963,0.517,7.331-0.395c2.409-0.927,2.924-3.226,1.214-5.157c-0.471-0.532-1.028-0.956-1.641-1.317
		c-1.124-0.662-2.345-1.036-3.616-1.273c0.004-0.076,0.008-0.152,0.012-0.227c1.109,0.02,2.189,0.214,3.238,0.568
		c2.194,0.74,3.892,1.941,4.126,4.483c0.013,0.142-0.006,0.283,0.213,0.328c0.983,0.198,2.65-1.093,2.759-2.105
		c0.139-1.29-0.372-2.285-1.368-3.023c-3.51-2.602-7.455-3.706-11.813-3.345c-0.997,0.083-1.968,0.434-2.999,0.295
		c0.4-0.237,0.826-0.357,1.246-0.495c0.14-0.046,0.297-0.114,0.305-0.298c0.009-0.209-0.174-0.234-0.312-0.266
		c-1.336-0.303-2.601-0.89-4.018-0.873c-0.984,0.012-1.957,0.102-2.93,0.208c-0.551,0.06-0.568-0.303-0.659-0.663
		c-0.146-0.576,0.308-0.401,0.555-0.437c1.029-0.15,2.061-0.278,3.092-0.413c-1.626-1.154-3.378-1.653-5.295-1.522
		c-0.848,0.058-1.668,0.385-2.535,0.269l0.019,0.016c0.344-0.792,1.036-1.07,1.814-1.154c0.92-0.1,1.82,0.017,2.725,0.26
		c1.2,0.322,2.395,0.344,3.26-0.784c1.187-1.548,1.65-3.322,1.547-5.253c-0.029-0.552-0.301-0.876-0.897-0.943
		c-0.729-0.082-1.452-0.226-2.176-0.353c-1.631-0.287-1.589-0.279-1.193-1.868c0.154-0.617,0.484-0.641,0.798-0.336
		c0.979,0.95,2.242,0.864,3.43,1.069c2.287,0.394,4.585,0.288,6.874,0.074c6.117-0.573,11.351-3.261,16.202-6.839
		c0.246-0.182,0.495-0.367,0.706-0.587c0.345-0.36,0.296-1.524-0.102-1.875c-0.444-0.392-0.721,0.129-1.003,0.303
		c-1.927,1.191-3.838,2.411-5.736,3.648c-1.52,0.991-3.119,1.813-4.834,2.411c-2.751,0.959-5.528,1.812-8.466,1.961
		c-0.206,0.01-0.564,0.172-0.584-0.208c-0.016-0.307,0.319-0.199,0.504-0.229c1.088-0.174,2.174-0.35,3.242-0.639
		c5.677-1.536,10.327-4.808,14.713-8.567c1.215-1.041,1.687-2.093,1.287-3.723c-1.086-4.429,0.177-8.292,3.234-11.593
		c3.566-3.85,7.353-7.466,11.613-10.555c0.8-0.58,1.375-1.246,1.686-2.203c0.349-1.074,0.811-2.114,1.459-3.053
		c0.257-0.372,0.519-0.761,1.106-0.996c-0.44,1.395-0.831,2.636-1.297,4.117c1.514-0.929,2.81-1.726,4.188-2.572
		c0.068,1.134-0.159,1.926-1.115,2.374c-6.395,2.995-11.321,7.771-15.82,13.057c-0.875,1.028-1.673,2.113-2.299,3.314
		c-0.343,0.658-0.567,1.345-0.606,2.096c-0.156,2.997,0.243,5.902,1.175,8.767c2.5,7.686,5.705,15.088,8.993,22.456
		c1.682,3.769,3.441,7.503,5.408,11.135c1.168,2.155,2.801,3.784,5.22,4.478c1.46,0.419,2.957,0.515,4.464,0.343
		c3.082-0.352,6.104-0.145,9.09,0.762c1.843,0.56,3.722,1.01,5.601,1.436c2.367,0.537,4.757,0.94,7.194,0.474
		c2.164-0.414,3.279-1.761,3.185-3.82c-0.058-1.266-0.465-2.411-1.321-3.348c-2.042-2.235-4.632-3.162-7.605-2.886
		c-0.818,0.076-0.963-0.037-0.958-0.815c0.004-0.702,0.209-0.933,0.889-0.854c0.423,0.05,0.858,0.013,1.287,0.009
		c3.597-0.035,6.155,1.726,7.987,4.674c0.271,0.437,0.462,0.343,0.766,0.163c0.792-0.469,1.174-1.589,0.952-2.781
		c-0.544-2.915-4.197-5.881-7.359-5.987c-0.524-0.018-1.067,0.101-1.547-0.249c2.448-0.87,4.427,0.797,6.708,1.4
		c-0.126-0.203-0.174-0.317-0.253-0.404c-4.153-4.545-11.608-5.514-16.08-1.862c-0.518,0.423-1.103,0.768-1.671,1.129
		c-0.33,0.209-0.571,0.176-0.794-0.233c-2.859-5.245-3.99-10.8-3.063-16.734c0.094-0.604,0.175-1.211,0.285-1.813
		c0.105-0.577-0.121-0.696-0.655-0.58c-0.957,0.208-1.917,0.418-2.887,0.54c-1.464,0.185-2.895,0.066-4.185-0.781
		c1.352,0.354,2.712,0.516,4.088,0.232c5.002-1.031,9.156-3.526,12.558-7.303c0.597-0.662,1.223-1.375,1.432-2.221
		c0.299-1.21,1.098-1.142,2.001-1.112c0.454,0.015,0.527,0.201,0.404,0.57c-0.654,1.952-1.629,3.69-3.32,4.947
		c-0.184,0.137-0.529,0.161-0.446,0.488c0.071,0.284,0.39,0.234,0.609,0.319c1.872,0.723,3.825,0.794,5.795,0.717
		c3.955-0.155,7.176-1.829,9.817-4.718c0.331-0.362,0.392-0.686,0.189-1.152c-0.599-1.372-1.218-2.742-1.699-4.157
		c-1.551-4.564-2.529-9.224-2.722-14.077c-0.206-5.172,0.078-10.24,1.375-15.282c1.871-7.27,5.083-13.796,10.075-19.426
		c0.204-0.23,0.422-0.477,0.431-0.792c0.045-1.529,0.088-3.059,0.09-4.588c0.001-0.777-0.492-1.155-1.231-1.209
		c-0.365-0.027-0.738-0.015-1.101,0.029c-3.164,0.388-6.273,1.045-9.373,1.782c-5.263,1.25-10.364,2.893-15.086,5.599
		c-1.325,0.759-2.735,1.367-4.107,2.045c-0.032-0.044-0.067-0.084-0.107-0.121c0.226-0.421,0.628-0.661,0.996-0.924
		c3.642-2.599,7.575-4.601,11.942-5.674c2.376-0.584,4.761-1.126,7.144-1.683c0.566-0.132,1.143-0.221,1.701-0.38
		c0.542-0.154,1.137-0.148,1.804-0.541c-3.016,0.059-5.8,0.459-8.538,1.141c-10.385,2.584-19.208,7.518-25.256,16.682
		c-1.785,2.705-3.717,5.316-5.637,7.929c-1.18,1.605-2.505,3.097-4.134,4.279c-0.688,0.499-1.408,0.947-2.272,1.027
		c1.028-1.06,2.048-2.112,3.068-3.163c0.081-0.1,0.161-0.201,0.242-0.301c0.046-0.03,0.091-0.059,0.137-0.089
		c-0.04-0.018-0.08-0.036-0.12-0.054C55.508,77.075,55.501,77.122,55.494,77.168z M160.708,72.201
		c-0.173,0.222-0.287,0.461-0.269,0.816c0.287-0.264,0.436-0.511,0.488-0.814c0.773-1.586,0.606-3.074-0.422-4.544
		c-0.248,0.313-0.643,0.458-0.316,0.888C161.038,69.662,161.082,70.905,160.708,72.201z M149.867,106.986
		c-0.194-0.144-0.412-0.266-0.58-0.437c-3.144-3.218-7.034-5.14-11.265-6.461c-1.195-0.373-2.412-0.661-3.691-0.64
		c0.448,2.74,3.361,7.334,5.559,8.904c1.228,0.877,2.414,0.867,3.672,0.099c0.963-0.588,1.651-1.416,2.208-2.466
		c0.723,1.972,1.424,3.831,1.671,5.821c0.271,2.182-0.677,3.525-2.825,3.998c-0.15,0.033-0.298,0.098-0.448,0.099
		c-0.435,0.003-0.433,0.199-0.374,0.573c0.175,1.117,0.255,2.25,0.424,3.368c0.565,3.721,2.114,6.899,5.309,9.066
		c3.674,2.491,7.516,1.058,8.461-3.254c1.852-8.448-0.633-16.496-8.893-23.27c-3.635-2.981-7.996-4.836-12.506-6.22
		c-1.207-0.371-2.445-0.702-3.754-0.607c0.257,1.189,0.562,2.234,2.049,2.087c0.056-0.006,0.117,0.034,0.176,0.051
		c5.117,1.479,9.586,4.124,13.614,7.556c0.534,0.455,1.037,0.958,1.359,1.602C149.979,106.899,149.923,106.942,149.867,106.986z
		 M116,56.892c0.18,0.138,0.361,0.019,0.541,0.003c0.057,0.058,0.114,0.116,0.171,0.175c-1.938,1.515-3.876,3.029-5.921,4.627
		c0.901-2.846-1.001-5.171-0.823-7.771c-0.705,0.618-1.305,1.26-1.906,1.9c-1.152,1.226-1.231,1.722-0.458,3.216
		c0.196,0.378,0.444,0.732,0.695,1.078c0.377,0.519,1.028,0.99,1.098,1.539c0.073,0.576-0.719,0.986-1.068,1.52
		c-1.782,2.73-3.143,5.666-4.203,8.736c-1.155,3.347-2.601,6.641-2.958,10.19c-0.481,4.787-0.569,9.612,0.168,14.38
		c1.139,7.379,3.673,14.263,8.084,20.347c3.088,4.259,6.699,7.857,12.182,8.98c3.311,0.678,6.6,1.422,10,1.132
		c2.528-0.216,5.078-0.433,7.339-1.779c0.541-0.322,1.141-0.591,1.421-1.184c-4.001-2.041-6.794-5.443-9.989-8.65
		c0,1.593,0,2.987,0,4.382c-0.275-1.607-0.333-3.24-0.66-4.817c-1.21-5.833-2.702-11.61-3.08-17.594
		c-0.346-5.482-0.16-10.88,1.857-16.086c0.349-0.899,0.673-1.827,0.777-2.998c-0.73,0.836-1.331,1.523-2.032,2.326
		c0.027-0.303,0.018-0.457,0.056-0.598c0.691-2.584,4.616-4.897,7.182-4.224c0.476,0.125,0.923,0.341,1.23,0.756
		c0.312,0.422,0.208,0.808-0.139,1.148c-0.304,0.298-0.619,0.493-1.03,0.127c-0.839-0.747-1.84-0.609-3.107-0.528
		c4.284,4.708,9.446,7.725,14.907,10.315c0.065,0.018,0.13,0.036,0.195,0.054c-0.019-0.064-0.039-0.128-0.058-0.192
		c-0.067-0.202-0.139-0.402-0.202-0.605c-0.815-2.629-0.345-5.269,2.022-6.845c1.572-1.047,3.305-1.591,5.177-1.664
		c0.531-0.021,0.904-0.122,1.228-0.582c0.997-1.414,2.197-2.557,4.064-2.672c0.011-0.001,0.016-0.109,0.027-0.195
		c-0.719-0.141-1.437-0.294-2.159-0.421c-2-0.353-2.089-0.414-0.854-2.083c2.066-2.792,3.817-5.752,5.307-8.881
		c0.711-1.492,1.542-2.923,2.564-4.232c0.359-0.46,0.739-0.905,1.271-1.176c0.165-0.084,0.432-0.312,0.517,0.017
		c0.114,0.442,0.072,0.913-0.034,1.366c-0.097,0.416-0.445,0.202-0.684,0.261c-0.118,0.029-0.252,0.032-0.352,0.092
		c-0.427,0.257-0.882,0.578-0.976,1.055c-0.499,2.514-0.937,5.041-1.418,7.681c0.772-0.382,1.085-0.989,1.402-1.563
		c1.549-2.8,2.666-5.766,3.339-8.894c0.321-1.491,0.009-2.033-1.422-2.621c-1.87-0.769-3.841-0.675-5.801-0.664
		c-0.18,0.001-0.405-0.008-0.378,0.261c0.024,0.242,0.247,0.23,0.426,0.242c0.707,0.046,1.422,0.033,2.166,0.234
		c-0.454,0.719-1.028,0.867-1.723,0.801c-1.891-0.18-3.314-1.223-4.568-2.517c-1.165-1.203-2.526-1.874-4.194-1.633
		c-1.788,0.258-2.965-0.804-4.416-1.772c0.288-0.018,0.399-0.013,0.503-0.034c0.248-0.05,0.655,0.156,0.715-0.17
		c0.079-0.43-0.406-0.356-0.66-0.458c-1.276-0.515-2.552-1.034-3.844-1.506c-2.881-1.052-5.828-1.672-8.916-1.203
		c-2.165,0.329-4.039,1.377-5.909,2.428c-1.013,0.57-2.031,1.115-3.137,1.509c-1.738,0.619-4.269-0.314-5.079-2.306
		c-1.719-4.226-3.888-8.239-6.467-12.017c-0.83-1.215-1.696-2.412-2.873-3.325c-1.375-1.067-2.281-0.749-2.747,0.933
		c-0.041,0.147-0.065,0.299-0.089,0.449c-0.447,2.814-0.133,5.616,0.104,8.423c0.146,1.727,0.677,3.43,0.285,5.194
		c-0.417,1.88-0.907,3.739-1.439,5.588c-0.071,0.136-0.104,0.351,0.022,0.38c0.278,0.065,0.276-0.203,0.322-0.388
		c0.638-1.453,1.306-2.894,1.906-4.362c0.588-1.441,1.122-2.904,1.653-4.368c0.53-1.462,0.88-2.975,1.115-4.716
		c0.943,2.582,1.801,4.964,2.686,7.335c0.242,0.648,0.335,1.28,0.243,1.972c-0.269,2.018,0.376,3.904,0.8,5.948
		c1.184-0.801,2.23-1.509,3.38-2.288c-0.065,1.072-0.631,1.636-1.347,2.093c-0.695,0.444-1.437,0.818-2.03,1.407l0.019,0.027
		L116,56.892z M184.282,131.131c0.236-0.099,0.344-0.177,0.456-0.185c0.734-0.047,1.468-0.081,2.202-0.113
		c0.537-0.024,0.998-0.11,1.292-0.672c2.169-4.135,3.207-8.488,2.213-13.115c-1.476-6.864-5.141-12.484-10.186-17.28
		c-0.594-0.565-0.937-0.583-1.368,0.149c-0.554,0.941-1.196,1.83-1.8,2.742c0.439-1.525,1.028-2.96,1.639-4.385
		c0.312-0.728,0.374-1.473,0.269-2.246c-0.37-2.714-4.038-6.087-6.773-6.227c-0.247-0.013-0.487-0.08-0.575,0.27
		c-0.725,2.889-3.002,4.251-5.422,5.461c-0.3,0.15-0.623,0.343-1.003,0.262c0.154-0.855,0.418-1.664,0.412-2.472
		c-0.005-0.81-0.294-1.616-0.428-2.429c-0.079-0.482-0.102-0.973-0.145-1.46c-0.015-0.172,0.047-0.342-0.155-0.48
		c-1.49-1.019-3.6-0.194-3.892,1.587c-0.223,1.357-0.339,2.732-0.133,4.114c0.443,2.977,1.606,5.7,2.99,8.33
		c1.247,2.371,2.131,4.862,2.824,7.438c0.608,2.261,0.757,4.513,0.049,6.782c-0.125,0.4-0.337,0.875-0.113,1.246
		c0.461,0.766,1.113,1.37,1.925,1.786c0.638,0.327,1.033-0.2,1.501-0.419c1.109-0.52,2.162-1.166,3.389-1.419
		c-0.84,0.675-1.733,1.254-2.596,1.875c-0.417,0.3-0.881,0.637-0.88,1.22c0.002,1.738-0.151,3.484,0.461,5.18
		c0.58,1.607,0.564,1.678,2.2,1.036c2.376-0.932,4.847-0.952,7.332-0.932c0.163,0.001,0.42-0.084,0.454,0.165
		c0.048,0.358-0.28,0.246-0.454,0.268c-1.491,0.189-2.966,0.463-4.4,0.911c-0.528,0.165-1.106,0.273-1.605,0.788
		c1.096,0.227,2.073,0.427,3.05,0.632c0.193,0.041,0.443-0.02,0.483,0.298c0.095,0.753-0.586,1.351-1.311,1.087
		c-2.243-0.817-4.535-1.213-6.935-1.086c-0.957,0.05-1.734,0.331-2.365,1.018c-1.728,1.882-2.758,4.099-3.069,6.63
		c-0.071,0.577,0.039,1.175,0.069,1.819c1.408-0.806,1.512-0.77,1.7,0.674c0.05,0.388,0.225,0.426,0.534,0.435
		c0.445,0.013,0.383-0.29,0.386-0.558c0.017-1.621,0.426-3.145,1.16-4.582c0.237-0.463,0.48-0.94,0.965-1.268
		c0.121,0.379-0.047,0.632-0.156,0.867c-0.978,2.086-0.858,4.289-0.716,6.494c0.041,0.631,0.285,1.188,0.758,1.624
		c0.381,0.351,0.753,0.675,1.153-0.011c0.156-0.268,0.443-0.428,0.792-0.329c0.326,0.092,0.408,0.348,0.399,0.643
		c-0.022,0.682,0.427,0.877,0.983,0.983c1.034,0.197,2.08,0.082,3.119,0.143c0.572,0.033,0.733-0.15,0.72-0.717
		c-0.049-2.145,0.532-4.17,1.279-6.155c0.151-0.4,0.332-0.794,0.641-1.103c0.184-0.184,0.407-0.264,0.668-0.132
		c0.262,0.132,0.336,0.354,0.273,0.613c-0.065,0.266-0.153,0.53-0.264,0.78c-0.781,1.762-0.787,3.631-0.755,5.5
		c0.014,0.83,0.537,1.314,1.286,1.612c0.717,0.286,1.222,0.084,1.647-0.532c0.15-0.217,0.292-0.593,0.708-0.401
		c0.317,0.146,0.477,0.414,0.426,0.741c-0.134,0.86,0.341,0.964,1.019,0.892c0.334-0.035,0.675,0.012,1.011-0.01
		c2.335-0.151,4.077-1.149,4.983-3.411c0.54-1.348,0.897-2.734,1.002-4.175c0.125-1.724,0.029-3.421-0.775-5.015
		c-0.372-0.738-0.876-1.208-1.731-1.311C186.199,131.484,185.308,131.303,184.282,131.131z M126.163,129.176
		c-0.305-0.291-0.617-0.313-0.9-0.404c-2.62-0.84-5.322-1.419-7.89-2.416c-7.001-2.716-12.812-6.963-17.059-13.242
		c-1.182-1.747-1.251-1.685-2.807-0.279c-2.418,2.184-5.291,3.192-8.526,3.342c-2.525,0.117-4.932-0.312-7.273-1.232
		c-0.442-0.174-0.942-0.491-1.405-0.197c-1.626,1.031-3.27,2.02-4.993,2.89c-0.637,0.322-0.732,1.126-0.66,1.807
		c0.058,0.55,0.675,0.387,1.022,0.577c0.212,0.116,0.458,0.17,0.685,0.261c8.08,3.214,16.305,5.943,24.84,7.722
		C109.427,129.721,117.698,130.126,126.163,129.176z M108.806,131.879c1.238,0.326,2.13,1.009,2.732,1.973
		c0.432,0.692,0.891,0.85,1.637,0.686c0.816-0.179,1.397-0.702,1.718-1.357c0.59-1.203,0.306-1.576-0.986-1.601
		c-2.027-0.039-4.033-0.294-6.025-0.641c-5.336-0.93-10.648-1.974-15.803-3.677c-1.149-0.379-2.219-0.282-3.282,0.246
		c-1.041,0.517-2.086,1.023-3.132,1.531c-0.732,0.356-1.183-0.271-1.404-0.665c-0.344-0.612,0.438-0.504,0.715-0.597
		c1.304-0.439,2.633-0.801,4.147-1.248c-1.199-0.475-2.191-0.868-3.184-1.261c-3.667-1.453-7.338-2.895-10.995-4.372
		c-0.63-0.254-0.846-0.218-0.833,0.535c0.018,1.02,0.09,2.006,0.513,2.954c0.818,1.832,1.778,3.627,3.284,4.929
		c1.122,0.969,1.621,1.767,0.732,3.07c-0.065,0.096-0.084,0.23-0.105,0.349c-0.305,1.719-0.153,1.862,1.515,1.419
		c0.532-0.141,1.066-0.276,1.596-0.426c1.627-0.46,3.285-0.536,4.906-0.104c3.437,0.918,6.621,2.258,8.434,5.637
		c0.257,0.48,0.631,0.903,0.982,1.326c0.766,0.924,1.734,1.428,2.966,1.374c0.612-0.027,1.226-0.009,1.839-0.009
		c0.849,0.001,1.475-0.353,1.816-1.148c0.176-0.41,0.411-0.762,0.878-0.862c0.915-0.197,1.105-0.862,1.09-1.658
		c-0.025-1.352-0.688-2.388-1.667-3.247c-1.706-1.495-3.744-2.289-5.936-2.723c-0.773-0.153-1.564-0.22-2.347-0.326
		c0.987-0.156,1.954-0.116,2.921-0.069c2.427,0.118,4.504,1.075,6.292,2.677c0.834,0.747,1.604,1.608,1.611,2.782
		c0.005,0.84,0.368,1.136,1.078,1.362c1.501,0.478,3.737-0.216,4.429-1.439c0.714-1.26,0.224-3.159-1.082-4.278
		C109.497,132.715,109.015,132.514,108.806,131.879z M129.874,81.696c-0.2-0.019-0.247,0.116-0.289,0.218
		c-0.174,0.424-0.362,0.845-0.489,1.283c-0.93,3.224-1.341,6.53-1.441,9.872c-0.16,5.39,0.754,10.667,1.74,15.937
		c0.423,2.259,1.102,4.343,2.791,6.053c1.938,1.963,3.81,3.989,5.936,5.755c0.634,0.527,1.298,1.034,2.007,1.449
		c1.23,0.721,2.792-0.179,2.828-1.606c0.027-1.071,0.002-2.144-0.006-3.216c-0.002-0.236,0.058-0.49-0.211-0.653
		c-1.507-0.917-2.299-2.432-3.164-3.865c-2.31-3.83-4.183-7.884-6.044-11.942c-1.946-4.244-2.982-8.725-3.328-13.367
		C130.058,85.639,129.982,83.66,129.874,81.696z M154.453,89.48c0.179,0,0.548,0.024,0.914-0.004
		c2.618-0.203,5.163-0.668,7.382-2.199c0.987-0.681,1.739-1.552,1.892-2.799c0.228-1.854-0.076-2.125-1.943-1.886
		c-1.241,0.159-2.473,0.446-3.743,0.302c-0.713-0.081-1.282-0.357-1.663-0.989c-0.489-0.811-0.997-1.611-1.489-2.42
		c-0.178-0.292-0.333-0.544-0.756-0.55c-2.175-0.032-4.202,0.44-5.952,1.778c-2.938,2.248-2.616,6.09,0.64,7.846
		C151.148,89.322,152.677,89.558,154.453,89.48z M145.554,35.695c0.093,0.006,0.185,0.012,0.278,0.018
		c0.026,0.476,0.053,0.952,0.079,1.429c0.182,3.429,0.053,6.857-0.035,10.285c-0.023,0.894,0.351,1.302,1.171,1.43
		c0.242,0.038,0.485,0.072,0.723,0.13c0.328,0.08,0.435,0.01,0.533-0.367c1.106-4.217,1.471-8.491,1.045-12.828
		c-0.183-1.86-0.454-3.709-1.281-5.415c-0.946-1.951-2.229-2.137-3.7-0.562c-0.738,0.79-1.294,1.708-1.789,2.659
		c-1.844,3.541-3.061,7.322-4.23,11.119c-0.107,0.347-0.128,0.723-0.166,1.088c-0.097,0.942,0.696,0.656,1.148,0.786
		c0.665,0.191,0.487-0.359,0.486-0.67c-0.002-0.869,0.18-1.697,0.451-2.515c0.74-2.233,1.94-4.253,2.906-6.396
		c0.802,0.765,0.944,1.558,0.486,2.565c-0.668,1.471-1.389,2.931-1.766,4.518c-0.468,1.966,0.316,3.442,2.091,3.946
		C144.51,43.175,144.78,39.397,145.554,35.695z M162.235,102.777c0,0.253-0.02,0.346,0.003,0.427
		c0.858,3.022,0.501,5.991-0.332,8.957c-0.244,0.867-0.598,1.572-1.395,2.047c-0.391,0.233-0.809,0.571-0.639,1.108
		c0.694,2.201,0.124,4.371-0.111,6.55c-0.038,0.355-0.269,0.828,0.032,1.037c0.323,0.225,0.775-0.039,1.127-0.213
		c1.738-0.86,2.932-2.281,3.922-3.895c0.831-1.355,1.378-2.788,1.208-4.428c-0.173-1.678-0.458-3.333-0.91-4.957
		C164.5,107.112,163.609,104.924,162.235,102.777z M131.18,156.51c0.178-0.16,0.336-0.295,0.486-0.439
		c3.439-3.316,6.871-6.638,10.322-9.94c0.387-0.37,0.466-0.566,0.029-0.983c-3.479-3.317-6.938-6.657-10.382-10.01
		c-0.383-0.373-0.584-0.333-0.942,0.015c-3.471,3.37-6.957,6.726-10.449,10.074c-0.299,0.286-0.381,0.444-0.03,0.78
		c3.519,3.365,7.018,6.75,10.524,10.128C130.867,156.259,131.011,156.368,131.18,156.51z M166.298,82.492
		c0.105,1.127-0.106,2.53-1.035,3.8c-1.027,1.404-0.997,1.474,0.648,1.859c2.027,0.475,4.025,0.389,5.87-0.687
		c1.795-1.047,2.399-3.006,1.329-4.622c-1.573-2.378-3.987-3.414-6.711-3.855c-0.439-0.071-0.567,0.093-0.383,0.506
		C166.394,80.336,166.276,81.234,166.298,82.492z M159.448,90.474c-1.911,1.651-2.298,10.897-0.714,15.075
		c0.879-0.863,1.748-1.717,2.518-2.673c0.486-0.604,0.589-1.105,0.18-1.843c-1.383-2.494-2.272-5.129-1.996-8.053
		C159.513,92.178,159.448,91.363,159.448,90.474z M147.354,96.328c1.626-1.575,3.217-2.914,4.341-4.684
		c0.567-0.894,0.444-1.485-0.447-1.86c-1.786-0.752-3.625-0.75-5.453-0.128c-0.73,0.248-0.898,0.784-0.564,1.456
		c0.42,0.845,0.877,1.672,1.301,2.515C146.929,94.414,147.378,95.187,147.354,96.328z M161.643,103.894
		c-1.303,1.666-2.829,2.785-4.403,3.836c-0.694,0.463-0.813,1.006-0.526,1.724c0.419,1.047,1.096,1.903,1.978,2.591
		c1.468,1.147,2.332,0.819,2.612-0.998C161.66,108.744,161.691,106.424,161.643,103.894z M145.633,107.478
		c-1.183,1.624-2.679,2.635-4.166,3.645c-0.674,0.458-0.704,0.941-0.252,1.524c0.658,0.848,1.531,1.389,2.562,1.661
		c1.426,0.377,2.158-0.146,2.275-1.629C146.187,110.968,145.909,109.288,145.633,107.478z M166.129,94.934
		c1.619-0.906,3.511-2.395,4.134-3.241c0.716-0.973,0.563-1.683-0.502-2.227c-0.809-0.413-1.682-0.573-2.581-0.479
		c-1.324,0.138-1.62,0.586-1.374,1.886C166.058,92.204,166.509,93.52,166.129,94.934z M159.767,74.732
		c2.287-0.397,3.824,0.54,4.787,2.388c0.535,1.028,1.204,1.355,2.266,1.02c0.086-0.027,0.183-0.032,0.273-0.027
		c0.94,0.048,0.764-0.412,0.396-0.907c-0.908-1.22-2.101-2.053-3.587-2.378c-0.469-0.103-0.596-0.255-0.58-0.693
		c0.026-0.732,0.031-1.468-0.001-2.2c-0.036-0.834-0.317-1.565-1.168-2.225C162.318,71.919,161.196,73.366,159.767,74.732z
		 M113.592,51.385c-0.934,1.172-1.764,2.22-2.602,3.26c-0.176,0.219-0.173,0.443-0.094,0.687c0.365,1.13,0.715,2.265,1.101,3.388
		c0.189,0.55,0.599,0.557,0.869,0.124c0.384-0.615,0.93-1.046,1.443-1.518c0.358-0.329,0.622-0.731,0.589-1.193
		c-0.078-1.068-0.259-2.126-0.619-3.319c-0.876,1.043-1.645,1.959-2.414,2.876c-0.073-0.046-0.146-0.091-0.218-0.137
		C112.15,54.167,113.651,53.233,113.592,51.385z M73.508,125.854c0.054,3.311,0.773,6.444,2.306,9.618
		c0.207-1.101,0.403-1.934,0.81-2.691c0.296-0.549,0.981-1.14,0.887-1.583c-0.117-0.549-0.877-0.949-1.329-1.441
		C75.11,128.589,74.342,127.21,73.508,125.854z M100.066,101.104c0.016-0.8-0.623-1.447-1.433-1.452
		c-0.791-0.005-1.482,0.67-1.472,1.438c0.01,0.732,0.654,1.374,1.411,1.406C99.371,102.529,100.051,101.896,100.066,101.104z
		 M100.221,76.45c0.002-0.782-0.672-1.433-1.473-1.422c-0.751,0.011-1.42,0.645-1.448,1.372c-0.029,0.752,0.661,1.454,1.445,1.469
		C99.54,77.886,100.219,77.233,100.221,76.45z M104.329,65.166c-0.015-0.761-0.652-1.381-1.428-1.391
		c-0.805-0.01-1.477,0.656-1.463,1.449c0.014,0.803,0.695,1.42,1.521,1.377C103.755,66.56,104.344,65.943,104.329,65.166z
		 M98.556,89.389c-0.011-0.782-0.685-1.402-1.503-1.382c-0.814,0.02-1.461,0.684-1.424,1.462c0.036,0.747,0.672,1.328,1.458,1.331
		C97.913,90.803,98.567,90.175,98.556,89.389z M103.263,113.109c0.689-0.075,1.125-0.451,1.116-1.117
		c-0.009-0.666-0.451-1.049-1.126-1.079c-0.643-0.029-1.224,0.547-1.15,1.153C102.185,112.736,102.618,113.066,103.263,113.109z
		 M158.828,74.154c-0.814-0.382-1.714-0.563-2.504-1.025c-0.424-0.248-0.54,0.17-0.652,0.404c-0.205,0.429,0.221,0.324,0.403,0.37
		C156.969,74.126,157.88,74.214,158.828,74.154z M158.786,69.437c-0.123,0.303-0.472,0.435-0.334,0.722
		c0.075,0.155,0.446,0.168,0.563,0.03C159.228,69.937,158.93,69.747,158.786,69.437z M160.357,73.204
		c-0.017-0.02-0.034-0.04-0.051-0.06c-0.018,0.019-0.037,0.038-0.055,0.057c0.026,0.02,0.052,0.041,0.078,0.061
		C160.338,73.243,160.348,73.223,160.357,73.204z"/>
	<path fill="#3B3434" d="M387.691,88.439c1.175-0.615,2.326-1.215,3.474-1.82c0.244-0.128,0.275-0.391,0.356-0.617
		c4.397-12.402,13.288-20.076,25.645-23.857c6.763-2.07,13.714-2.098,20.642-0.589c1.049,0.228,2.045,0.635,2.975,1.181
		c2.352,1.382,3.213,3.439,2.548,6.081c-0.538,2.136-1.63,4.01-2.78,5.858c-2.311,3.714-4.656,7.407-5.882,11.671
		c-1.018,3.54-1.633,7.154-2.051,10.803c-0.075,0.651-0.224,0.79-0.881,0.674c-1.748-0.308-1.784-0.275-1.508-2.042
		c0.35-2.236,0.723-4.47,1.147-6.693c0.265-1.391-0.047-2.62-0.856-3.729c-2.034-2.788-4.758-3.954-8.181-3.315
		c-5.806,1.085-10.568,6.594-10.945,12.493c-0.203,3.174,0.485,6.032,2.621,8.432c3.575,4.017,8.041,5.87,13.444,5.378
		c3.127-0.285,6.065-1.087,8.725-2.834c0.832-0.546,1.06-1.113,0.96-2.097c-0.722-7.118,0.029-14.067,2.82-20.698
		c2.907-6.904,7.305-12.673,13.66-16.761c9.934-6.39,23.45-5.615,33.172,1.883c8.036,6.198,12.59,14.388,13.521,24.495
		c0.868,9.423-0.526,18.445-5.358,26.73c-3.658,6.271-8.547,11.291-15.446,13.96c-10.308,3.987-22.935,2.441-32.193-7.371
		c-3.467-3.674-6.199-7.799-7.97-12.541c-0.052-0.139-0.121-0.272-0.194-0.437c-0.492,1.156-0.73,3.63-0.597,5.847
		c0.106,1.773,0.208,3.547,0.278,5.322c0.135,3.451-1.342,6.081-4.165,7.997c-2.364,1.605-5.012,2.48-7.837,2.604
		c-8.205,0.359-15.938-1.223-22.692-6.155c-7.422-5.42-11.749-12.82-13.517-21.768c-0.836-4.233-0.986-8.508-0.668-12.804
		c0.009-0.116-0.011-0.233-0.031-0.595c-0.736,1.54-0.968,2.971-1.142,4.408c-0.623,5.143,0.054,10.212,1.034,15.239
		c1.384,7.099,2.598,14.208,2.645,21.47c0.026,3.949-1.079,7.67-2.136,11.408c-0.191,0.676-0.43,1.339-0.61,2.018
		c-0.103,0.388-0.254,0.542-0.63,0.303c-0.025-0.016-0.057-0.023-0.085-0.033c-1.891-0.72-1.889-0.72-1.284-2.627
		c0.888-2.801,1.66-5.626,2.052-8.549c0.547-4.08-2.295-6.849-6.412-6.188c-3.341,0.537-6.494,1.743-9.709,2.732
		c-4.088,1.257-8.211,2.209-12.545,1.97c-7.719-0.425-14.341-3.4-20.07-8.484c-4.178-3.708-7.506-8.051-9.736-13.198
		c-0.057-0.133-0.137-0.256-0.24-0.445c-0.468,1.062-0.877,2.081-1.358,3.065c-3.211,6.562-7.657,12.026-14.195,15.54
		c-10.573,5.684-23.993,3.944-33.024-4.238c-4.431-4.014-7.784-8.776-9.909-14.381c-0.082-0.216-0.072-0.5-0.392-0.656
		c-1.145,2.598-2.512,5.072-4.176,7.372c-4.19,5.792-9.429,10.188-16.45,12.138c-5.988,1.663-11.917,1.533-17.774-0.692
		c-2.223-0.844-4.443-1.792-6.923-1.565c-0.948,0.087-1.89,0.2-2.806,0.462c-3.599,1.029-5.637,3.676-5.857,7.658
		c-0.06,1.099-0.046,2.206,0.013,3.305c0.028,0.528-0.072,0.745-0.629,0.84c-1.843,0.312-1.845,0.336-1.949-1.543
		c-0.154-2.787,0.347-5.528,0.616-8.283c0.736-7.526,1.587-15.04,2.138-22.583c0.523-7.153,0.839-14.311,0.521-21.482
		c-0.218-4.927-0.563-9.842-2.023-14.599c-0.46-1.5-1.087-2.929-2.105-4.144c-1.797-2.147-4.084-2.939-6.819-2.33
		c-1.013,0.226-2.01,0.537-2.995,0.866c-0.431,0.144-0.618,0.057-0.712-0.366c-0.593-2.67-1.126-1.953,1.463-2.758
		c3.361-1.044,6.823-1.206,10.288-0.799c4.403,0.517,8.665-0.046,12.907-1.203c2.482-0.677,5.016-1.172,7.624-0.898
		c2.144,0.225,3.845,1.226,5.005,3.029c0.395,0.614,0.641,0.512,1.183,0.223c6.195-3.295,12.587-4.11,19.151-1.2
		c3.365,1.492,5.863,4.066,7.997,7.008c1.973,2.721,3.451,5.694,4.489,8.902c0.345-0.115,0.378-0.45,0.517-0.695
		c3.3-5.836,7.448-10.973,13.497-14.054c11.12-5.663,21.814-4.381,31.79,2.887c4.712,3.433,8.189,7.966,10.566,13.309
		c0.086,0.193,0.183,0.382,0.289,0.602c0.299-0.228,0.33-0.563,0.455-0.836c5.508-12.109,14.847-19.395,27.917-21.694
		c9.047-1.591,17.895-0.676,26.298,3.284c2.418,1.139,4.708,2.497,6.673,4.339c0.991,0.929,1.831,1.968,2.351,3.246
		c0.546,1.341,0.589,2.658-0.002,4.003c-0.594,1.352-1.355,2.602-2.184,3.815c-2.032,2.973-3.612,6.169-4.739,9.587
		c-0.057,0.174-0.113,0.349-0.157,0.527C387.618,88.211,387.651,88.27,387.691,88.439z M432.278,90.404
		c-0.389,2.058-0.891,4.101-1.023,6.194c0.096,0.015,0.191,0.03,0.287,0.044c0.333-2.083,0.667-4.166,1-6.249
		c0.903-4.769,2.625-9.214,5.233-13.316c0.886-1.394,1.745-2.805,2.592-4.223c0.77-1.288,1.444-2.624,1.84-4.083
		c0.663-2.443-0.044-4.066-2.292-5.258c-0.927-0.491-1.91-0.833-2.932-1.036c-5.541-1.102-11.132-1.232-16.622,0.027
		c-13.556,3.108-23.204,10.849-27.913,24.203c-0.09,0.255-0.119,0.55-0.399,0.693c-2.027,1.036-3.992,2.202-6.18,3.056
		c0-0.18-0.019-0.271,0.003-0.351c1.25-4.509,3.054-8.767,5.723-12.636c0.783-1.134,1.516-2.299,2.063-3.569
		c0.332-0.771,0.505-1.55,0.303-2.408c-0.433-1.834-1.619-3.131-2.998-4.282c-2.252-1.881-4.807-3.267-7.512-4.367
		c-7.792-3.171-15.883-3.865-24.095-2.37c-12.407,2.258-21.346,9.172-26.692,20.622c-0.6,1.286-1.043,2.645-1.591,4.054
		c-0.158-0.396-0.294-0.702-0.404-1.016c-2.12-6.06-5.718-11.113-10.796-14.993c-9.042-6.908-18.974-8.42-29.471-3.847
		c-6.688,2.913-11.175,8.313-14.649,14.585c-0.553,0.998-1.027,2.038-1.55,3.082c-0.068-0.093-0.119-0.137-0.137-0.192
		c-0.057-0.174-0.103-0.351-0.149-0.527c-0.977-3.73-2.49-7.214-4.73-10.371c-1.993-2.809-4.297-5.335-7.467-6.788
		c-6.71-3.075-13.172-2.16-19.351,1.578c-0.632,0.382-0.872,0.452-1.231-0.295c-0.987-2.059-2.647-3.254-4.96-3.423
		c-2.449-0.179-4.829,0.303-7.166,0.934c-3.996,1.079-8.018,1.716-12.173,1.276c-2.287-0.242-4.584-0.388-6.885-0.108
		c-1.493,0.182-2.96,0.479-4.4,0.912c-0.237,0.071-0.524,0.108-0.433,0.455c0.113,0.433,0.408,0.119,0.583,0.08
		c0.566-0.126,1.115-0.326,1.678-0.469c3.421-0.875,6.592,0.291,8.641,3.172c0.606,0.852,1.084,1.771,1.458,2.747
		c1.552,4.052,2.012,8.312,2.325,12.586c0.576,7.867,0.352,15.735-0.203,23.594c-0.717,10.14-1.87,20.239-2.915,30.349
		c-0.084,0.811-0.046,1.644,0.273,2.443c0.116-0.984,0.079-1.968,0.123-2.948c0.196-4.363,2.44-7.467,6.265-8.697
		c1.143-0.367,2.325-0.526,3.519-0.629c2.537-0.218,4.805,0.756,7.112,1.563c10.586,3.702,20.099,1.814,28.433-5.633
		c4.128-3.688,7.033-8.286,9.123-13.398c0.268-0.655,0.532-1.311,0.853-2.104c0.132,0.429,0.216,0.689,0.293,0.952
		c1.833,6.252,5.19,11.558,9.861,16.088c10.503,10.186,26.077,9.763,35.545,2.759c5.689-4.208,9.515-9.789,11.985-16.354
		c0.307-0.816,0.581-1.645,0.923-2.618c0.159,0.37,0.263,0.576,0.338,0.793c2.23,6.413,6.106,11.677,11.275,16.02
		c5.603,4.707,12.03,7.311,19.396,7.51c3.953,0.107,7.712-0.842,11.44-1.987c3.302-1.014,6.539-2.271,9.981-2.766
		c4.662-0.671,8.037,2.684,7.451,7.304c-0.39,3.08-1.238,6.043-2.129,9c-0.084,0.28-0.318,0.576,0.078,0.969
		c0.156-0.478,0.283-0.841,0.394-1.209c1.331-4.407,2.397-8.836,2.118-13.518c-0.327-5.481-1.004-10.903-2.087-16.283
		c-1.064-5.286-1.997-10.593-1.756-16.022c0.11-2.487,0.464-4.931,1.456-7.246c0.64-1.495,1.633-2.711,2.938-3.897
		c-1.311,6.057-1.302,11.962-0.159,17.861c1.545,7.969,5.297,14.698,11.601,19.88c6.843,5.625,14.894,7.444,23.551,7.047
		c2.732-0.125,5.28-1.018,7.522-2.652c1.788-1.304,2.958-3.007,3.266-5.22c0.174-1.248,0.045-2.507-0.03-3.761
		c-0.132-2.231-0.323-4.462-0.098-6.699c0.216-2.143,0.755-4.207,1.467-6.483c0.176,0.556,0.284,0.867,0.373,1.183
		c1.532,5.494,4.293,10.293,8.107,14.527c8.676,9.63,20.464,11.667,30.869,8.052c6.432-2.235,11.109-6.69,14.754-12.301
		c4.546-6.998,6.319-14.772,6.349-23.02c0.039-10.842-3.54-20.17-12.021-27.161c-9.255-7.63-19.629-9.292-30.65-4.329
		c-6.61,2.977-11.079,8.391-14.419,14.694c-4.034,7.612-5.002,15.781-4.039,24.242c0.065,0.574-0.076,0.893-0.502,1.23
		c-2.96,2.338-6.37,3.41-10.083,3.772c-5.913,0.576-10.775-1.418-14.649-5.848c-1.903-2.176-2.828-4.749-2.834-7.66
		c-0.015-7.41,5.102-13.681,12.094-15.007C427.92,79.848,434.082,84.85,432.278,90.404z"/>
	<path fill="#3B3434" d="M563.162,102.397c-0.499,1.144-0.985,2.294-1.499,3.43c-4.091,9.047-9.445,17.337-15.265,25.347
		c-0.36,0.495-0.754,0.969-1.079,1.486c-0.354,0.564-0.561,0.625-0.963-0.005c-2.817-4.409-5.689-8.784-8.507-13.192
		c-3.46-5.414-6.704-10.947-8.961-17.018c-0.377,0.179-0.375,0.552-0.483,0.845c-1.572,4.268-2.163,8.712-2.362,13.225
		c-0.167,3.794-0.328,7.588-0.498,11.382c-0.016,0.366-0.048,0.736-0.125,1.093c-0.866,3.995-3.296,5.55-7.351,4.72
		c-1.687-0.345-3.321-0.872-4.881-1.582c-5.367-2.441-10.201-1.191-14.785,2.023c-0.39,0.274-0.535,0.652-0.685,1.048
		c-1.218,3.197-2.442,6.392-3.631,9.6c-0.203,0.548-0.33,0.778-0.984,0.474c-1.702-0.793-1.721-0.755-1.052-2.536
		c4.212-11.217,9.118-22.145,13.82-33.159c2.951-6.911,5.946-13.811,7.921-21.089c1.077-3.97,1.861-7.987,1.757-12.129
		c-0.036-1.421-0.258-2.811-1.006-4.051c-0.648-1.074-1.447-1.755-2.899-1.61c-2.933,0.293-5.877,0.201-8.815-0.123
		c-0.663-0.073-0.786-0.289-0.733-0.903c0.158-1.848,0.136-1.88,1.964-1.685c8.354,0.889,16.264-0.908,23.96-3.953
		c3.07-1.215,6.12-2.484,9.144-3.81c2.54-1.114,4.709,0.202,5.441,2.65c0.523,1.747,0.542,3.565,0.726,5.357
		c0.466,4.533,0.76,9.088,2.381,13.42c0.784,2.095,1.674,4.132,2.825,6.063c0.392-0.108,0.477-0.468,0.645-0.73
		c3.353-5.257,5.119-10.999,5.27-17.235c0.041-1.681,0.022-3.369,0.473-5.015c0.734-2.679,2.166-3.752,4.944-3.609
		c2.602,0.134,5.213,0.217,7.802,0.49c4.797,0.506,9.219-0.83,13.59-2.52c0.028-0.011,0.053-0.032,0.081-0.043
		c2.091-0.835,2.216-0.752,2.532,1.557c0.034,0.25,0.05,0.421-0.21,0.5c-2.343,0.713-2.669,2.631-2.773,4.661
		c-0.31,6.058,0.228,12.048,1.464,17.982c1.703,8.173,3.639,16.285,6.44,24.164c0.902,2.537,1.93,5.026,3.493,7.247
		c1.504,2.138,1.595,2.135,3.223,0.208c1.464-1.733,2.843-3.532,4.08-5.432c0.329-0.505,0.52-0.505,0.962-0.141
		c1.541,1.268,1.559,1.254,0.397,2.877c-5.132,7.17-11.203,13.379-18.711,18.09c-2.133,1.339-4.387,2.434-6.955,2.705
		c-2.176,0.23-3.909-0.542-5.219-2.257c-1.57-2.056-2.186-4.482-2.618-6.969c-0.887-5.11-1.065-10.288-1.475-15.444
		c-0.169-2.12-0.371-4.238-0.558-6.357C563.33,102.427,563.246,102.412,563.162,102.397z M494.674,134.768
		c0.14-0.336,0.28-0.673,0.421-1.009c0.503-0.349,0.993-0.718,1.511-1.043c2.899-1.816,5.955-3.162,9.478-2.977
		c2.234,0.117,4.299,0.902,6.352,1.712c1.571,0.62,3.171,1.118,4.854,1.331c2.395,0.304,3.952-0.663,4.757-2.929
		c0.376-1.059,0.437-2.154,0.483-3.254c0.146-3.519,0.26-7.039,0.431-10.556c0.187-3.86,0.688-7.677,1.822-11.388
		c0.569-1.861,1.259-3.674,2.289-5.52c1.087,4.303,2.94,8.108,4.986,11.825c3.811,6.922,8.292,13.427,12.566,20.06
		c0.063,0.098,0.155,0.178,0.293,0.334c7.607-10.448,14.5-21.225,18.791-33.668c0.847,3.835,1.076,7.532,1.372,11.221
		c0.409,5.094,0.582,10.21,1.468,15.258c0.367,2.089,0.878,4.131,2.06,5.932c1.144,1.744,2.714,2.57,4.848,2.25
		c2.615-0.393,4.87-1.611,7.023-3.026c7.083-4.656,12.87-10.634,17.738-17.532c0.126-0.179,0.538-0.414,0.144-0.659
		c-0.289-0.179-0.38,0.211-0.499,0.381c-1.567,2.235-3.285,4.348-5.094,6.392c-0.369,0.417-0.635,0.427-1.073,0.162
		c-0.995-0.603-1.741-1.441-2.387-2.383c-1.516-2.212-2.561-4.657-3.46-7.163c-2.895-8.074-4.875-16.393-6.613-24.776
		c-1.237-5.966-1.736-11.988-1.449-18.074c0.087-1.849,0.46-3.576,1.972-4.864c0.282-0.24,1.059-0.277,0.726-0.82
		c-0.232-0.377-0.748,0.114-1.112,0.256c-4.643,1.808-9.37,3.011-14.432,2.44c-2.464-0.278-4.953-0.352-7.433-0.473
		c-1.818-0.089-2.708,0.544-3.335,2.249c-0.309,0.839-0.463,1.709-0.518,2.599c-0.152,2.473-0.12,4.956-0.522,7.416
		c-0.921,5.633-3.135,10.701-6.557,15.327c-0.168-0.234-0.319-0.422-0.446-0.624c-2.497-3.986-4.144-8.304-4.976-12.925
		c-0.592-3.287-0.725-6.63-1.11-9.943c-0.148-1.273-0.173-2.57-0.744-3.759c-0.696-1.448-1.896-1.964-3.405-1.395
		c-1.315,0.495-2.617,1.031-3.902,1.601c-9.61,4.264-19.433,7.503-30.186,6.321c-0.191-0.021-0.48-0.133-0.53,0.172
		c-0.054,0.323,0.266,0.276,0.451,0.31c0.27,0.05,0.549,0.05,0.823,0.074c2.42,0.212,4.85,0.224,7.257-0.041
		c1.425-0.157,2.34,0.465,3.166,1.425c0.544,0.632,0.902,1.374,1.158,2.171c0.663,2.059,0.6,4.167,0.431,6.278
		c-0.416,5.19-1.778,10.168-3.499,15.053c-3.048,8.651-6.842,16.998-10.463,25.414c-1.943,4.516-3.935,9.013-5.704,13.602
		c-0.15,0.359-0.3,0.719-0.45,1.078c-0.116,0.281-0.232,0.562-0.347,0.843c-1.152,2.795-2.293,5.594-3.254,8.456
		c0.116,0.043,0.232,0.085,0.349,0.128c1.042-2.779,2.085-5.558,3.127-8.337C494.439,135.39,494.557,135.079,494.674,134.768z"/>
	<path fill="#191815" d="M39.671,145.91c0.029,0.037,0.058,0.075,0.087,0.112c-0.027,0-0.054,0-0.081,0
		c0.005-0.042,0.011-0.084,0.016-0.126C39.695,145.897,39.671,145.91,39.671,145.91z"/>
	<path fill="#FDE300" d="M26.046,140.733c1.272,0.237,2.493,0.611,3.616,1.273c0.613,0.361,1.17,0.785,1.641,1.317
		c1.71,1.931,1.195,4.231-1.214,5.157c-2.368,0.911-4.821,0.538-7.331,0.395c0.754-2.086,2.361-1.22,3.725-1.25
		c-0.115-0.753-0.706-0.992-1.284-1.104c-0.98-0.189-1.431-0.794-1.718-1.683c-0.827-2.565-3.9-4.742-6.769-4.778
		c0.82,0.768,1.807,1.11,2.698,1.6c1.363,0.75,2.469,1.7,2.856,3.289c0.154,0.631,0.221,1.27,0.15,1.912
		c-0.134,1.223-1.113,2.122-2.345,2.162c-4.093,0.132-8.137-0.152-12.114-1.234c-2.149-0.584-3.952-1.764-5.762-2.969
		c-0.404-0.269-0.354-0.684-0.406-1.066c-0.97-7.096-0.004-13.96,2.466-20.649c0.526-1.425,0.955-2.885,1.236-4.413
		c-0.291,0.522-0.578,1.046-0.877,1.563c-0.13,0.225-0.206,0.56-0.585,0.447c-0.3-0.09-0.273-0.366-0.296-0.608
		c-0.255-2.696,0.61-4.069,3.203-4.931c1.826-0.607,3.709-1.025,5.504-1.75c2.247-0.908,4.243-2.159,5.984-3.846
		c3.268-3.167,6.19-6.62,8.746-10.382c0.325-0.479,0.618-0.98,1.007-1.6c-1.036,0.216-1.675,0.813-2.308,1.391
		c-1.455,1.329-2.631,2.902-3.817,4.464c-0.7,0.922-1.392,1.849-2.211,2.937c-0.06-0.791,0.177-1.316,0.388-1.811
		c2.19-5.111,5.183-9.702,9.021-13.735c0.231-0.243,0.474-0.519,0.769-0.647c1.118-0.484,1.362-1.344,1.101-2.479
		c-0.202-0.123-0.406,0.093-0.605,0.173c-0.321,0.129-0.478,0.122-0.607-0.25c-0.463-1.331-1.469-2.233-2.539-3.069
		c-1.062-0.829-2.169-1.604-3.194-2.475c-1-0.85-1.572-1.935-1.463-3.31c0.064-0.806,0.471-1.232,1.262-1.302
		c0.556-0.049,1.096,0.044,1.632,0.194c3.753,1.057,6.479,3.468,8.707,6.549c0.244,0.338,0.218,0.678,0.188,1.046
		c-0.03,0.358-0.241,0.702-0.078,1.121c1.057-0.216,2.024-0.679,2.972-1.146c2.672-1.318,5.481-2.253,8.316-3.139
		c2.585-0.808,4.938-2.127,7.257-3.502c0.709-0.42,1.408-0.858,2.111-1.288c0.058,0.056,0.117,0.113,0.175,0.169
		c-1.02,1.051-2.04,2.103-3.068,3.163c0.864-0.08,1.584-0.528,2.272-1.027c1.629-1.182,2.954-2.673,4.134-4.279
		c1.921-2.613,3.852-5.224,5.637-7.929c6.049-9.164,14.872-14.099,25.256-16.682c2.738-0.681,5.523-1.081,8.538-1.141
		c-0.667,0.392-1.262,0.386-1.804,0.541c-0.558,0.159-1.135,0.247-1.701,0.38c-2.382,0.557-4.768,1.099-7.144,1.683
		c-4.367,1.073-8.3,3.074-11.942,5.674c-0.368,0.263-0.77,0.503-0.996,0.924c-0.077,0.021-0.173,0.047-0.108,0.146
		c0.018,0.027,0.14-0.015,0.215-0.025c1.371-0.677,2.782-1.286,4.107-2.045c4.721-2.705,9.823-4.348,15.086-5.599
		c3.1-0.737,6.21-1.394,9.373-1.782c0.363-0.044,0.736-0.056,1.101-0.029c0.739,0.054,1.232,0.432,1.231,1.209
		c-0.002,1.53-0.045,3.059-0.09,4.588c-0.009,0.315-0.227,0.562-0.431,0.792c-4.992,5.631-8.204,12.156-10.075,19.426
		c-1.298,5.042-1.582,10.11-1.375,15.282c0.194,4.853,1.171,9.513,2.722,14.077c0.481,1.415,1.1,2.785,1.699,4.157
		c0.203,0.465,0.142,0.789-0.189,1.152c-2.641,2.889-5.863,4.563-9.817,4.718c-1.97,0.077-3.922,0.006-5.795-0.717
		c-0.22-0.085-0.538-0.035-0.609-0.319c-0.082-0.328,0.262-0.352,0.446-0.488c1.691-1.257,2.667-2.995,3.32-4.947
		c0.124-0.369,0.051-0.555-0.404-0.57c-0.903-0.03-1.702-0.098-2.001,1.112c-0.209,0.846-0.836,1.559-1.432,2.221
		c-3.402,3.776-7.556,6.271-12.558,7.303c-1.377,0.284-2.736,0.122-4.088-0.232c1.29,0.847,2.721,0.965,4.185,0.781
		c0.97-0.122,1.931-0.332,2.887-0.54c0.533-0.116,0.76,0.003,0.655,0.58c-0.11,0.602-0.19,1.208-0.285,1.813
		c-0.927,5.934,0.204,11.488,3.063,16.734c0.223,0.409,0.464,0.442,0.794,0.233c0.568-0.36,1.152-0.705,1.671-1.129
		c4.472-3.653,11.927-2.684,16.08,1.862c0.079,0.086,0.127,0.2,0.253,0.404c-2.281-0.603-4.261-2.27-6.708-1.4
		c0.48,0.35,1.024,0.232,1.547,0.249c3.161,0.106,6.815,3.072,7.359,5.987c0.222,1.192-0.16,2.312-0.952,2.781
		c-0.303,0.18-0.494,0.274-0.766-0.163c-1.832-2.948-4.39-4.709-7.987-4.674c-0.429,0.004-0.863,0.041-1.287-0.009
		c-0.68-0.08-0.885,0.152-0.889,0.854c-0.005,0.778,0.139,0.891,0.958,0.815c2.973-0.276,5.563,0.651,7.605,2.886
		c0.856,0.937,1.263,2.082,1.321,3.348c0.094,2.058-1.021,3.405-3.185,3.82c-2.437,0.466-4.826,0.063-7.194-0.474
		c-1.879-0.426-3.758-0.877-5.601-1.436c-2.985-0.907-6.008-1.114-9.09-0.762c-1.508,0.172-3.005,0.076-4.464-0.343
		c-2.418-0.694-4.052-2.322-5.22-4.478c-1.968-3.632-3.726-7.365-5.408-11.135c-3.289-7.369-6.493-14.77-8.993-22.456
		c-0.932-2.865-1.331-5.77-1.175-8.767c0.039-0.751,0.263-1.438,0.606-2.096c0.626-1.202,1.424-2.287,2.299-3.314
		c4.5-5.286,9.425-10.062,15.82-13.057c0.955-0.447,1.183-1.24,1.115-2.374c-1.378,0.846-2.675,1.642-4.188,2.572
		c0.467-1.481,0.858-2.722,1.297-4.117c-0.587,0.235-0.849,0.624-1.106,0.996c-0.648,0.939-1.11,1.979-1.459,3.053
		c-0.31,0.956-0.886,1.622-1.686,2.203c-4.259,3.089-8.047,6.705-11.613,10.555c-3.057,3.3-4.319,7.164-3.234,11.593
		c0.4,1.63-0.072,2.682-1.287,3.723c-4.385,3.759-9.035,7.031-14.713,8.567c-1.068,0.289-2.153,0.464-3.242,0.639
		c-0.185,0.03-0.521-0.079-0.504,0.229c0.02,0.379,0.378,0.218,0.584,0.208c2.938-0.149,5.715-1.002,8.466-1.961
		c1.715-0.597,3.314-1.42,4.834-2.411c1.898-1.238,3.808-2.457,5.736-3.648c0.282-0.174,0.559-0.695,1.003-0.303
		c0.398,0.351,0.447,1.515,0.102,1.875c-0.21,0.22-0.46,0.405-0.706,0.587c-4.851,3.578-10.085,6.267-16.202,6.839
		c-2.289,0.214-4.587,0.32-6.874-0.074c-1.188-0.205-2.451-0.119-3.43-1.069c-0.314-0.305-0.645-0.28-0.798,0.336
		c-0.396,1.589-0.438,1.581,1.193,1.868c0.724,0.127,1.447,0.271,2.176,0.353c0.596,0.067,0.867,0.391,0.897,0.943
		c0.103,1.931-0.36,3.704-1.547,5.253c-0.865,1.128-2.06,1.106-3.26,0.784c-0.905-0.243-1.805-0.36-2.725-0.26
		c-0.778,0.084-1.47,0.362-1.814,1.154c-0.025,0.007-0.052,0.009-0.073,0.023c-0.008,0.005,0.001,0.035,0.002,0.054
		c0.017-0.031,0.035-0.062,0.052-0.093c0.867,0.116,1.687-0.211,2.535-0.269c1.916-0.132,3.669,0.368,5.295,1.522
		c-1.031,0.136-2.063,0.263-3.092,0.413c-0.246,0.036-0.7-0.14-0.555,0.437c0.091,0.36,0.108,0.723,0.659,0.663
		c0.973-0.106,1.946-0.196,2.93-0.208c1.418-0.018,2.683,0.569,4.018,0.873c0.138,0.031,0.322,0.056,0.312,0.266
		c-0.008,0.184-0.165,0.252-0.305,0.298c-0.42,0.138-0.846,0.259-1.246,0.495c1.032,0.138,2.002-0.213,2.999-0.295
		c4.357-0.361,8.303,0.743,11.813,3.345c0.996,0.738,1.507,1.733,1.368,3.023c-0.109,1.012-1.776,2.303-2.759,2.105
		c-0.219-0.044-0.2-0.185-0.213-0.328c-0.235-2.542-1.933-3.743-4.126-4.483c-1.049-0.354-2.129-0.548-3.238-0.568
		c-0.408-0.132-0.811-0.14-1.218,0.142C25.242,140.676,25.644,140.705,26.046,140.733z M71.511,84.544
		c0-0.779,0.008-1.558-0.001-2.337c-0.046-4.084,3.213-10.192,9.084-11.645c2.772-0.686,5.593-0.622,8.415-0.475
		c1.953,0.102,3.906,0.224,5.845,0.337c0.022-0.204-0.078-0.215-0.162-0.242c-4.501-1.486-9.077-2.221-13.842-1.682
		c-4.819,0.546-8.214,3.21-9.621,7.816C70.387,79.074,70.428,81.824,71.511,84.544z"/>
	<path fill="#FDE300" d="M146.333,87.541c-5.461-2.591-10.622-5.608-14.907-10.316c1.268-0.081,2.268-0.219,3.107,0.528
		c0.411,0.366,0.726,0.17,1.03-0.127c0.347-0.34,0.45-0.726,0.139-1.148c-0.307-0.415-0.754-0.631-1.23-0.756
		c-2.566-0.673-6.491,1.64-7.182,4.224c-0.038,0.141-0.029,0.294-0.056,0.598c0.701-0.803,1.302-1.491,2.032-2.326
		c-0.104,1.171-0.428,2.099-0.777,2.998c-2.018,5.205-2.204,10.603-1.857,16.086c0.378,5.984,1.87,11.76,3.08,17.594
		c0.327,1.577,0.384,3.21,0.66,4.817c0-1.395,0-2.79,0-4.382c3.195,3.207,5.988,6.61,9.989,8.65
		c-0.281,0.593-0.88,0.862-1.421,1.184c-2.261,1.346-4.811,1.564-7.339,1.779c-3.4,0.29-6.689-0.454-10-1.132
		c-5.484-1.123-9.094-4.722-12.182-8.98c-4.411-6.083-6.945-12.968-8.084-20.347c-0.736-4.767-0.649-9.593-0.168-14.38
		c0.357-3.55,1.802-6.843,2.958-10.19c1.06-3.071,2.421-6.006,4.203-8.736c0.349-0.534,1.141-0.944,1.068-1.52
		c-0.07-0.55-0.721-1.02-1.098-1.539c-0.251-0.346-0.5-0.7-0.695-1.078c-0.773-1.495-0.694-1.99,0.458-3.216
		c0.601-0.64,1.201-1.281,1.906-1.9c-0.177,2.6,1.725,4.925,0.823,7.771c2.045-1.598,3.983-3.113,5.921-4.627
		c0.104-0.083,0.273-0.11,0.255-0.298c0.053-0.019,0.105-0.038,0.158-0.057c-0.03-0.029-0.061-0.058-0.091-0.086
		c-0.024,0.046-0.048,0.092-0.073,0.137c-0.17-0.056-0.308-0.005-0.42,0.129c-0.18,0.016-0.361,0.135-0.541-0.003l-0.006,0.018
		c0.594-0.588,1.337-0.963,2.032-1.406c0.716-0.457,1.282-1.021,1.347-2.093c-1.15,0.778-2.196,1.486-3.38,2.288
		c-0.424-2.044-1.069-3.93-0.8-5.948c0.092-0.691-0.001-1.324-0.243-1.972c-0.886-2.371-1.743-4.753-2.686-7.335
		c-0.235,1.741-0.585,3.254-1.115,4.716c-0.531,1.463-1.064,2.927-1.653,4.368c-0.6,1.469-1.268,2.909-1.906,4.362
		c-0.115,0.002-0.229,0.005-0.344,0.008c0.533-1.849,1.022-3.708,1.439-5.588c0.392-1.765-0.139-3.468-0.285-5.194
		c-0.237-2.807-0.55-5.609-0.104-8.423c0.024-0.151,0.049-0.303,0.089-0.449c0.467-1.682,1.372-2,2.747-0.933
		c1.177,0.913,2.043,2.11,2.873,3.325c2.579,3.778,4.748,7.791,6.467,12.017c0.81,1.992,3.341,2.926,5.079,2.306
		c1.106-0.394,2.123-0.939,3.137-1.509c1.87-1.052,3.744-2.1,5.909-2.428c3.087-0.469,6.035,0.151,8.916,1.203
		c1.293,0.472,2.568,0.992,3.844,1.506c0.253,0.102,0.739,0.028,0.66,0.458c-0.06,0.326-0.467,0.12-0.715,0.17
		c-0.105,0.021-0.215,0.016-0.503,0.034c1.451,0.968,2.628,2.031,4.416,1.772c1.667-0.241,3.028,0.43,4.194,1.633
		c1.254,1.294,2.677,2.337,4.568,2.517c0.695,0.066,1.269-0.082,1.723-0.801c-0.744-0.201-1.459-0.189-2.166-0.234
		c-0.179-0.012-0.402,0.001-0.426-0.242c-0.027-0.27,0.198-0.26,0.378-0.261c1.96-0.011,3.931-0.105,5.801,0.664
		c1.431,0.588,1.743,1.13,1.422,2.621c-0.673,3.127-1.791,6.094-3.339,8.894c-0.317,0.574-0.63,1.181-1.402,1.563
		c0.481-2.641,0.919-5.167,1.418-7.681c0.095-0.477,0.549-0.798,0.976-1.055c0.1-0.06,0.234-0.063,0.352-0.092
		c0.239-0.059,0.587,0.155,0.684-0.261c0.106-0.452,0.148-0.924,0.034-1.366c-0.085-0.329-0.351-0.101-0.517-0.017
		c-0.532,0.271-0.911,0.716-1.271,1.176c-1.022,1.309-1.854,2.74-2.564,4.232c-1.49,3.129-3.241,6.089-5.307,8.881
		c-1.235,1.67-1.146,1.731,0.854,2.083c0.722,0.127,1.44,0.28,2.159,0.421c-0.011,0.086-0.016,0.194-0.027,0.195
		c-1.867,0.115-3.067,1.259-4.064,2.672c-0.325,0.46-0.698,0.561-1.228,0.582c-1.872,0.073-3.604,0.618-5.177,1.664
		c-2.367,1.576-2.837,4.216-2.022,6.845c0.063,0.203,0.134,0.403,0.202,0.605C146.424,87.449,146.378,87.495,146.333,87.541z
		 M106.845,80.3c-0.065,0.057-0.129,0.114-0.194,0.171c-0.942,0.691-1.761,1.513-2.488,2.421c-2.96,3.69-3.269,7.86-0.891,11.925
		c0.741,1.267,1.507,2.518,2.252,3.783c1.485,2.522,2.568,5.182,3.045,8.097c0.482,2.944,1.111,5.865,1.676,8.796
		c-0.273-3.816-0.215-7.648-0.746-11.442c-0.37-2.643-1.193-5.086-2.723-7.311c-1.147-1.668-1.874-3.563-2.479-5.495
		c-0.495-1.58-0.542-3.173-0.241-4.801c0.406-2.191,1.537-4.034,2.702-5.868c0.078-0.084,0.162-0.167,0.075-0.293
		c0.042,0.001,0.085,0.002,0.127,0.003c-0.009-0.033-0.019-0.066-0.028-0.1C106.902,80.223,106.874,80.262,106.845,80.3z
		 M125.426,120.005c-0.051-0.018,0.032-0.206-0.12-0.094c0.045,0.026,0.091,0.052,0.136,0.078c0.029,0.044,0.059,0.087,0.088,0.131
		C125.496,120.081,125.461,120.043,125.426,120.005z M132.242,66.697c-0.374-0.105-0.651,0.139-0.927,0.299
		c-1.723,0.995-3.489,0.991-5.302,0.295c-0.514-0.197-1.036-0.372-1.554-0.556c-2.977-1.057-5.183-0.419-7.272,2.151
		c0.707-0.097,1.268-0.418,1.784-0.76c2.077-1.38,4.232-1.428,6.474-0.494c0.737,0.307,1.498,0.556,2.292,0.635
		c1.736,0.174,3.37,0.005,4.5-1.573c0.044-0.025,0.089-0.049,0.133-0.074c-0.035-0.018-0.069-0.036-0.104-0.054
		C132.259,66.61,132.25,66.654,132.242,66.697z M133.917,71.353c0.345,0.503,0.642,1.045,1.111,1.451
		c3.333,2.882,8.659,4.582,13.686,2.047c0.267-0.135,0.38-0.233,0.29-0.533c-0.862-2.87-2.054-5.477-4.885-7.014
		c-1.946-1.057-4.011-1.212-6.138-1.16c-2.02,0.049-3.837,0.708-5.462,1.889c-0.485,0.353-0.925,0.77-1.177,1.446
		c0.938-0.111,1.67-0.689,2.583-0.74c-0.11,0.93-0.123,1.783-0.002,2.634c-0.026,0.005-0.053,0.01-0.079,0.015
		C133.868,71.376,133.892,71.365,133.917,71.353z M126.151,58.339c1.328,1.509,2.512,2.83,3.663,4.18
		c0.327,0.384,0.681,0.521,1.176,0.546c3.061,0.154,6.119,0.362,9.18,0.514c3.882,0.192,6.485,2.105,7.861,5.716
		c0.392,1.028,0.771,2.06,1.172,3.084c0.279,0.713,0.587,1.415,1.101,1.999c0.776,0.882,2.114,1.04,3.074,0.368
		c0.832-0.583,1.077-1.893,0.548-2.935c-0.242,0.046-0.241,0.26-0.264,0.427c-0.126,0.949-0.657,1.472-1.605,1.606
		c-0.939,0.133-1.402-0.453-1.788-1.151c-0.564-1.022-0.902-2.137-1.288-3.231c-0.67-1.903-1.328-3.812-2.437-5.522
		c-1.191-1.837-2.789-3.01-5.022-3.344c-3.088-0.461-6.153-1.067-9.238-1.551C130.332,58.738,128.375,58.405,126.151,58.339z
		 M135.46,55.404c1.915,0.218,3.833,0.408,5.743,0.661c3.125,0.413,5.604,2.005,7.332,4.56c1.798,2.66,3.374,5.476,3.001,9.09
		c0.395-0.809,0.402-1.485,0.486-2.141c0.554-4.344-2.06-9.417-5.92-11.131C142.712,54.938,139.093,55.005,135.46,55.404z
		 M133.702,71.352c-3.108-1.874-6.098-2.97-9.542-2.36c-1.249,0.221-2.485,0.393-3.549,1.113c-1.392,0.943-2.971,2.64-2.638,4.632
		c1.27-2.895,3.533-4.319,6.494-4.845c1.681-0.299,3.282-0.061,4.889,0.396C130.702,70.672,132.031,71.139,133.702,71.352z
		 M153.856,67.359c0.881-1.694,1.663-3.411,2.132-5.25c1.11-4.352-0.369-6.715-4.775-7.648c-0.06-0.013-0.118-0.036-0.179-0.041
		c-1.227-0.117-2.435-0.086-3.577,0.425c2.669,0.074,3.983,0.387,5.429,1.351c2.14,1.428,3.063,3.804,2.447,6.291
		C154.923,64.139,154.318,65.733,153.856,67.359z M116.501,107.244c0.534,3.131,1.609,5.916,4.435,7.712
		c1.389,0.883,2.499,2.061,3.352,3.477c0.249,0.414,0.538,0.805,0.809,1.206c-0.776-1.827-1.54-3.649-3.29-4.812
		c-1.474-0.979-2.641-2.266-3.529-3.807C117.576,109.8,116.941,108.553,116.501,107.244z M153.736,67.757
		c-0.018-0.028-0.033-0.053-0.049-0.077c-0.02,0.052-0.047,0.102-0.057,0.155c-0.004,0.021,0.028,0.049,0.043,0.073
		C153.695,67.857,153.716,67.806,153.736,67.757z M153.468,68.25l0.033,0.032l0.008-0.053L153.468,68.25z"/>
	<path fill="#FDE300" d="M184.282,131.131c1.026,0.171,1.918,0.352,2.817,0.46c0.855,0.103,1.358,0.573,1.731,1.311
		c0.804,1.594,0.9,3.292,0.775,5.015c-0.104,1.441-0.462,2.826-1.002,4.175c-0.906,2.263-2.647,3.26-4.983,3.411
		c-0.336,0.022-0.677-0.025-1.011,0.01c-0.679,0.072-1.153-0.032-1.019-0.892c0.051-0.327-0.109-0.595-0.426-0.741
		c-0.417-0.192-0.559,0.184-0.708,0.401c-0.425,0.617-0.93,0.818-1.647,0.532c-0.749-0.299-1.272-0.782-1.286-1.612
		c-0.032-1.869-0.026-3.738,0.755-5.5c0.111-0.25,0.199-0.514,0.264-0.78c0.063-0.258-0.011-0.48-0.273-0.613
		c-0.262-0.132-0.484-0.051-0.668,0.132c-0.309,0.309-0.49,0.703-0.641,1.103c-0.747,1.985-1.328,4.01-1.279,6.155
		c0.013,0.566-0.148,0.75-0.72,0.717c-1.038-0.06-2.085,0.054-3.119-0.143c-0.557-0.106-1.005-0.3-0.983-0.983
		c0.009-0.295-0.073-0.551-0.399-0.643c-0.349-0.099-0.636,0.061-0.792,0.329c-0.4,0.686-0.772,0.363-1.153,0.011
		c-0.473-0.436-0.717-0.992-0.758-1.624c-0.142-2.205-0.262-4.407,0.716-6.494c0.11-0.234,0.277-0.488,0.156-0.867
		c-0.485,0.328-0.729,0.805-0.965,1.268c-0.734,1.437-1.143,2.961-1.16,4.582c-0.003,0.268,0.059,0.571-0.386,0.558
		c-0.31-0.009-0.484-0.047-0.534-0.435c-0.188-1.443-0.292-1.48-1.7-0.674c-0.029-0.643-0.139-1.242-0.069-1.819
		c0.311-2.531,1.341-4.748,3.069-6.63c0.631-0.687,1.408-0.967,2.365-1.018c2.399-0.126,4.692,0.269,6.935,1.086
		c0.725,0.264,1.406-0.334,1.311-1.087c-0.04-0.317-0.29-0.257-0.483-0.298c-0.977-0.205-1.954-0.405-3.05-0.632
		c0.498-0.515,1.077-0.623,1.605-0.788c1.435-0.449,2.909-0.723,4.4-0.911c0.174-0.022,0.502,0.091,0.454-0.268
		c-0.033-0.248-0.291-0.163-0.454-0.165c-2.485-0.019-4.956,0-7.332,0.932c-1.636,0.642-1.62,0.571-2.2-1.036
		c-0.612-1.696-0.459-3.442-0.461-5.18c-0.001-0.583,0.463-0.92,0.88-1.22c0.863-0.621,1.756-1.2,2.596-1.875
		c-1.227,0.254-2.28,0.9-3.389,1.419c-0.468,0.22-0.863,0.746-1.501,0.419c-0.813-0.416-1.465-1.02-1.925-1.786
		c-0.223-0.371-0.012-0.846,0.113-1.246c0.708-2.269,0.559-4.521-0.049-6.782c-0.692-2.575-1.577-5.067-2.824-7.438
		c-1.383-2.63-2.547-5.354-2.99-8.33c-0.206-1.383-0.09-2.757,0.133-4.114c0.292-1.781,2.403-2.606,3.892-1.587
		c0.202,0.138,0.14,0.308,0.155,0.48c0.043,0.487,0.065,0.979,0.145,1.46c0.134,0.813,0.423,1.619,0.428,2.429
		c0.005,0.808-0.258,1.618-0.412,2.472c0.38,0.082,0.703-0.112,1.003-0.262c2.42-1.21,4.697-2.573,5.422-5.461
		c0.088-0.349,0.329-0.282,0.575-0.27c2.735,0.14,6.403,3.513,6.773,6.227c0.105,0.774,0.043,1.518-0.269,2.246
		c-0.611,1.425-1.2,2.86-1.639,4.385c0.604-0.912,1.246-1.801,1.8-2.742c0.431-0.732,0.774-0.714,1.368-0.149
		c5.044,4.795,8.71,10.416,10.186,17.28c0.995,4.627-0.043,8.98-2.213,13.115c-0.295,0.562-0.756,0.649-1.292,0.672
		c-0.734,0.032-1.469,0.066-2.202,0.113C184.625,130.954,184.518,131.033,184.282,131.131z"/>
	<path fill="#FDE300" d="M126.163,129.176c-8.465,0.95-16.735,0.545-24.967-1.171c-8.535-1.779-16.76-4.508-24.84-7.722
		c-0.227-0.09-0.473-0.144-0.685-0.261c-0.347-0.191-0.964-0.028-1.022-0.577c-0.072-0.681,0.023-1.485,0.66-1.807
		c1.723-0.87,3.366-1.859,4.993-2.89c0.463-0.293,0.963,0.024,1.405,0.197c2.341,0.92,4.748,1.349,7.273,1.232
		c3.235-0.15,6.108-1.158,8.526-3.342c1.556-1.405,1.626-1.467,2.807,0.279c4.247,6.279,10.058,10.526,17.059,13.242
		c2.568,0.996,5.271,1.575,7.89,2.416C125.546,128.863,125.858,128.885,126.163,129.176z"/>
	<path fill="#CFCFCE" d="M150.034,106.855c-0.322-0.644-0.825-1.147-1.359-1.602c-4.028-3.432-8.498-6.077-13.614-7.556
		c-0.059-0.017-0.119-0.056-0.176-0.051c-1.487,0.148-1.793-0.897-2.049-2.087c1.309-0.095,2.547,0.237,3.754,0.607
		c4.51,1.384,8.871,3.239,12.506,6.22c8.259,6.774,10.744,14.822,8.893,23.27c-0.945,4.312-4.787,5.745-8.461,3.254
		c-3.195-2.167-4.744-5.345-5.309-9.066c-0.17-1.118-0.249-2.251-0.424-3.368c-0.059-0.374-0.06-0.569,0.374-0.573
		c0.149-0.001,0.298-0.066,0.448-0.099c2.148-0.473,3.095-1.816,2.825-3.998c-0.247-1.99-0.948-3.849-1.671-5.821
		c-0.557,1.05-1.245,1.878-2.208,2.466c-1.258,0.768-2.444,0.778-3.672-0.099c-2.198-1.57-5.111-6.165-5.559-8.904
		c1.278-0.021,2.496,0.267,3.691,0.64c4.231,1.321,8.121,3.242,11.265,6.461c0.167,0.171,0.385,0.292,0.58,0.437
		c0.038,0.087,0.102,0.165,0.191,0.095C150.089,107.055,150.044,106.933,150.034,106.855z"/>
	<path fill="#FDE300" d="M108.806,131.879c0.21,0.635,0.691,0.836,1.05,1.144c1.306,1.12,1.796,3.018,1.082,4.278
		c-0.693,1.223-2.928,1.917-4.429,1.439c-0.711-0.226-1.073-0.522-1.078-1.362c-0.007-1.174-0.777-2.036-1.611-2.782
		c-1.789-1.602-3.865-2.559-6.292-2.677c-0.967-0.047-1.934-0.087-2.921,0.069c0.783,0.106,1.574,0.172,2.347,0.326
		c2.192,0.435,4.231,1.229,5.936,2.723c0.98,0.859,1.642,1.895,1.667,3.247c0.015,0.796-0.174,1.462-1.09,1.658
		c-0.467,0.1-0.702,0.452-0.878,0.862c-0.341,0.795-0.967,1.149-1.816,1.148c-0.613-0.001-1.227-0.018-1.839,0.009
		c-1.233,0.054-2.2-0.45-2.966-1.374c-0.351-0.423-0.725-0.846-0.982-1.326c-1.813-3.379-4.997-4.719-8.434-5.637
		c-1.62-0.433-3.279-0.357-4.906,0.104c-0.53,0.15-1.064,0.285-1.596,0.426c-1.668,0.442-1.82,0.3-1.515-1.419
		c0.021-0.12,0.04-0.253,0.105-0.349c0.889-1.303,0.389-2.101-0.732-3.07c-1.506-1.301-2.466-3.097-3.284-4.929
		c-0.423-0.948-0.496-1.934-0.513-2.954c-0.013-0.753,0.203-0.789,0.833-0.535c3.657,1.476,7.328,2.918,10.995,4.372
		c0.993,0.393,1.985,0.786,3.184,1.261c-1.514,0.447-2.843,0.809-4.147,1.248c-0.277,0.093-1.06-0.015-0.715,0.597
		c0.222,0.394,0.672,1.02,1.404,0.665c1.045-0.508,2.091-1.014,3.132-1.531c1.063-0.528,2.133-0.625,3.282-0.246
		c5.155,1.703,10.467,2.747,15.803,3.677c1.992,0.347,3.998,0.602,6.025,0.641c1.292,0.025,1.576,0.398,0.986,1.601
		c-0.321,0.654-0.901,1.177-1.718,1.357c-0.747,0.164-1.205,0.006-1.637-0.686C110.936,132.889,110.043,132.205,108.806,131.879z"/>
	<path fill="#FDE300" d="M129.874,81.696c0.108,1.964,0.183,3.944,0.33,5.918c0.346,4.643,1.382,9.123,3.328,13.367
		c1.861,4.058,3.734,8.112,6.044,11.942c0.865,1.434,1.657,2.948,3.164,3.865c0.269,0.164,0.209,0.418,0.211,0.653
		c0.008,1.072,0.033,2.145,0.006,3.216c-0.036,1.426-1.597,2.327-2.828,1.606c-0.709-0.416-1.373-0.923-2.007-1.449
		c-2.126-1.766-3.998-3.792-5.936-5.755c-1.689-1.711-2.368-3.794-2.791-6.053c-0.986-5.269-1.9-10.547-1.74-15.937
		c0.099-3.342,0.51-6.648,1.441-9.872c0.126-0.438,0.315-0.859,0.489-1.283C129.627,81.812,129.675,81.677,129.874,81.696z"/>
	<path fill="#FDE300" d="M154.453,89.48c-1.776,0.078-3.304-0.159-4.718-0.921c-3.256-1.756-3.578-5.598-0.64-7.846
		c1.749-1.338,3.776-1.81,5.952-1.778c0.422,0.006,0.578,0.257,0.756,0.55c0.492,0.809,1.001,1.609,1.489,2.42
		c0.38,0.632,0.949,0.907,1.663,0.989c1.27,0.144,2.501-0.143,3.743-0.302c1.867-0.239,2.171,0.033,1.943,1.886
		c-0.153,1.247-0.904,2.118-1.892,2.799c-2.218,1.531-4.764,1.996-7.382,2.199C155.001,89.505,154.631,89.48,154.453,89.48z"/>
	<path fill="#FDE300" d="M145.554,35.695c-0.775,3.702-1.045,7.479-1.57,11.22c-1.774-0.504-2.559-1.98-2.091-3.946
		c0.378-1.586,1.098-3.047,1.766-4.518c0.458-1.007,0.315-1.8-0.486-2.565c-0.965,2.143-2.166,4.163-2.906,6.396
		c-0.271,0.819-0.453,1.646-0.451,2.515c0.001,0.311,0.179,0.861-0.486,0.67c-0.452-0.13-1.245,0.156-1.148-0.786
		c0.038-0.365,0.059-0.741,0.166-1.088c1.169-3.797,2.386-7.579,4.23-11.119c0.495-0.95,1.05-1.868,1.789-2.659
		c1.471-1.574,2.754-1.389,3.7,0.562c0.827,1.706,1.098,3.555,1.281,5.415c0.426,4.337,0.061,8.61-1.045,12.828
		c-0.099,0.376-0.205,0.446-0.533,0.367c-0.237-0.058-0.481-0.092-0.723-0.13c-0.82-0.128-1.194-0.536-1.171-1.43
		c0.088-3.427,0.218-6.856,0.035-10.285c-0.025-0.476-0.053-0.952-0.079-1.429C145.74,35.708,145.647,35.702,145.554,35.695z"/>
	<path fill="#FDE300" d="M162.235,102.777c1.374,2.147,2.265,4.335,2.904,6.632c0.452,1.624,0.737,3.279,0.91,4.957
		c0.17,1.64-0.377,3.073-1.208,4.428c-0.99,1.614-2.184,3.035-3.922,3.895c-0.352,0.174-0.803,0.439-1.127,0.213
		c-0.301-0.21-0.07-0.682-0.032-1.037c0.235-2.179,0.805-4.349,0.111-6.55c-0.169-0.537,0.248-0.876,0.639-1.108
		c0.797-0.474,1.152-1.18,1.395-2.047c0.834-2.966,1.19-5.935,0.332-8.957C162.215,103.123,162.235,103.03,162.235,102.777z"/>
	<path fill="#FDFDFD" d="M131.18,156.51c-0.168-0.142-0.313-0.251-0.443-0.376c-3.506-3.378-7.006-6.763-10.524-10.128
		c-0.351-0.335-0.268-0.493,0.03-0.78c3.492-3.348,6.978-6.704,10.449-10.074c0.358-0.348,0.56-0.387,0.942-0.015
		c3.445,3.353,6.903,6.693,10.382,10.01c0.437,0.416,0.358,0.612-0.029,0.983c-3.451,3.302-6.883,6.625-10.322,9.94
		C131.516,156.215,131.357,156.35,131.18,156.51z M124.103,142.933c-0.189,0.092-0.336,0.226-0.42,0.422l-0.001,0.013
		c-0.65,0.589-1.284,1.196-1.955,1.76c-0.428,0.359-0.436,0.611-0.012,0.999c0.961,0.881,1.874,1.812,2.807,2.723
		c-0.014,0.267,0.208,0.171,0.337,0.219c1.974,1.924,3.952,3.844,5.917,5.777c0.275,0.27,0.458,0.298,0.752,0.014
		c3.169-3.07,6.349-6.128,9.57-9.231c-3.215-3.097-6.395-6.155-9.564-9.224c-0.288-0.279-0.474-0.27-0.754,0.005
		c-2.01,1.976-4.032,3.94-6.049,5.908c-0.055,0.03-0.097,0.072-0.127,0.127C124.436,142.608,124.27,142.77,124.103,142.933z"/>
	<path fill="#FDE300" d="M166.298,82.492c-0.022-1.258,0.096-2.156-0.281-2.999c-0.185-0.412-0.056-0.577,0.383-0.506
		c2.723,0.441,5.138,1.478,6.711,3.855c1.069,1.616,0.465,3.574-1.329,4.622c-1.845,1.077-3.843,1.162-5.87,0.687
		c-1.644-0.385-1.674-0.455-0.648-1.859C166.192,85.022,166.403,83.619,166.298,82.492z"/>
	<path fill="#FDE300" d="M159.448,90.474c0,0.889,0.064,1.704-0.012,2.506c-0.277,2.924,0.613,5.559,1.996,8.053
		c0.409,0.738,0.307,1.239-0.18,1.843c-0.77,0.956-1.639,1.81-2.518,2.673C157.151,101.371,157.538,92.125,159.448,90.474z"/>
	<path fill="#FDFDFD" d="M147.354,96.328c0.025-1.141-0.425-1.914-0.822-2.701c-0.425-0.843-0.881-1.67-1.301-2.515
		c-0.334-0.673-0.167-1.208,0.564-1.456c1.828-0.621,3.667-0.624,5.453,0.128c0.891,0.376,1.015,0.966,0.447,1.86
		C150.571,93.415,148.98,94.754,147.354,96.328z"/>
	<path fill="#FDFDFD" d="M161.643,103.894c0.048,2.53,0.016,4.851-0.339,7.153c-0.28,1.818-1.144,2.145-2.612,0.998
		c-0.882-0.688-1.559-1.544-1.978-2.591c-0.287-0.717-0.168-1.261,0.526-1.724C158.814,106.679,160.34,105.559,161.643,103.894z"/>
	<path fill="#FDFDFD" d="M145.633,107.478c0.276,1.81,0.554,3.49,0.419,5.202c-0.117,1.482-0.848,2.006-2.275,1.629
		c-1.031-0.273-1.904-0.813-2.562-1.661c-0.452-0.583-0.423-1.066,0.252-1.524C142.954,110.113,144.451,109.102,145.633,107.478z"/>
	<path fill="#FDFDFD" d="M166.129,94.934c0.38-1.414-0.072-2.731-0.323-4.062c-0.246-1.3,0.05-1.747,1.374-1.886
		c0.899-0.094,1.772,0.066,2.581,0.479c1.066,0.544,1.218,1.254,0.502,2.227C169.64,92.54,167.748,94.029,166.129,94.934z"/>
	<path fill="#FDE300" d="M159.767,74.732c1.429-1.366,2.551-2.813,2.386-5.022c0.851,0.659,1.131,1.39,1.168,2.225
		c0.032,0.732,0.027,1.467,0.001,2.2c-0.016,0.438,0.111,0.591,0.58,0.693c1.486,0.325,2.68,1.158,3.587,2.378
		c0.368,0.495,0.544,0.955-0.396,0.907c-0.091-0.005-0.188,0-0.273,0.027c-1.063,0.334-1.731,0.007-2.266-1.02
		C163.591,75.272,162.054,74.335,159.767,74.732z"/>
	<path fill="#FDE300" d="M113.592,51.385c0.059,1.848-1.442,2.782-1.946,4.168c0.073,0.046,0.146,0.091,0.218,0.137
		c0.769-0.916,1.539-1.833,2.414-2.876c0.36,1.194,0.541,2.251,0.619,3.319c0.034,0.462-0.231,0.864-0.589,1.193
		c-0.513,0.472-1.059,0.904-1.443,1.518c-0.27,0.432-0.68,0.425-0.869-0.124c-0.385-1.123-0.736-2.258-1.101-3.388
		c-0.079-0.244-0.082-0.468,0.094-0.687C111.828,53.604,112.658,52.557,113.592,51.385z"/>
	<path fill="#FDFDFD" d="M100.066,101.104c-0.015,0.792-0.695,1.425-1.493,1.391c-0.758-0.032-1.402-0.674-1.411-1.406
		c-0.01-0.768,0.681-1.442,1.472-1.438C99.443,99.657,100.082,100.304,100.066,101.104z"/>
	<path fill="#FDFDFD" d="M100.221,76.45c-0.002,0.783-0.681,1.435-1.476,1.42c-0.784-0.015-1.474-0.717-1.445-1.469
		c0.028-0.727,0.698-1.361,1.448-1.372C99.549,75.017,100.224,75.668,100.221,76.45z"/>
	<path fill="#FDFDFD" d="M104.329,65.166c0.016,0.777-0.573,1.394-1.37,1.435c-0.826,0.042-1.507-0.574-1.521-1.377
		c-0.014-0.793,0.658-1.459,1.463-1.449C103.676,63.785,104.313,64.405,104.329,65.166z"/>
	<path fill="#FDFDFD" d="M98.556,89.389c0.011,0.786-0.642,1.414-1.469,1.411c-0.786-0.002-1.423-0.583-1.458-1.331
		c-0.037-0.778,0.61-1.442,1.424-1.462C97.871,87.988,98.545,88.607,98.556,89.389z"/>
	<path fill="#FDFDFD" d="M103.263,113.109c-0.645-0.043-1.078-0.373-1.16-1.044c-0.074-0.606,0.507-1.181,1.15-1.153
		c0.675,0.03,1.117,0.414,1.126,1.079C104.388,112.658,103.952,113.034,103.263,113.109z"/>
	<path fill="#FDFDFD" d="M160.923,72.204c-0.046,0.299-0.199,0.545-0.483,0.813c-0.015-0.353,0.092-0.591,0.268-0.813
		c0.376-1.296,0.33-2.539-0.522-3.659c-0.322-0.43,0.069-0.575,0.314-0.89C161.529,69.128,161.697,70.616,160.923,72.204z"/>
	<path fill="#FDFDFD" d="M158.828,74.154c-0.948,0.061-1.859-0.028-2.752-0.252c-0.183-0.046-0.608,0.06-0.403-0.37
		c0.112-0.234,0.228-0.652,0.652-0.404C157.114,73.591,158.014,73.772,158.828,74.154z"/>
	<path fill="#FDFDFD" d="M158.786,69.437c0.143,0.31,0.442,0.5,0.229,0.751c-0.117,0.138-0.488,0.126-0.563-0.03
		C158.314,69.872,158.663,69.74,158.786,69.437z"/>
	<path fill="#3B3434" d="M26.046,140.733c-0.402-0.028-0.804-0.057-1.206-0.085c0.407-0.282,0.81-0.275,1.218-0.142
		C26.054,140.582,26.05,140.657,26.046,140.733z"/>
	<path fill="#3B3434" d="M107.247,53.897c0.115-0.003,0.229-0.005,0.344-0.008c-0.047,0.185-0.045,0.453-0.322,0.388
		C107.143,54.248,107.175,54.033,107.247,53.897z"/>
	<path fill="#FDE300" d="M55.498,77.171c-0.081,0.1-0.161,0.201-0.242,0.301c-0.058-0.056-0.117-0.113-0.175-0.169
		c0.114-0.119,0.22-0.26,0.413-0.135L55.498,77.171z"/>
	<path fill="#FDE300" d="M55.494,77.168c0.007-0.047,0.014-0.093,0.021-0.14c0.04,0.018,0.08,0.036,0.12,0.054
		c-0.046,0.03-0.091,0.059-0.137,0.089L55.494,77.168z"/>
	<path fill="#CFCFCE" d="M160.357,73.204c-0.01,0.019-0.019,0.038-0.029,0.058c-0.026-0.02-0.052-0.041-0.078-0.061
		c0.018-0.019,0.037-0.038,0.055-0.057C160.323,73.164,160.34,73.184,160.357,73.204z"/>
	<polygon fill="#FDE300" points="116,56.892 116.015,56.938 115.995,56.911 	"/>
	<path fill="#FDE300" d="M146.47,87.403c0.019,0.064,0.039,0.128,0.058,0.192c-0.065-0.018-0.13-0.036-0.195-0.054
		C146.378,87.495,146.424,87.449,146.47,87.403z"/>
	<path fill="#FDFDFD" d="M487.443,69.811c-9.259-7.632-19.629-9.297-30.652-4.334c-6.612,2.984-11.077,8.392-14.421,14.697
		c-4.035,7.609-5.001,15.779-4.035,24.24c0.061,0.575-0.077,0.898-0.506,1.235c-2.961,2.34-6.367,3.406-10.079,3.774
		c-5.914,0.575-10.777-1.419-14.651-5.853c-1.902-2.179-2.831-4.748-2.838-7.655c-0.015-7.41,5.109-13.685,12.097-15.012
		c5.561-1.051,11.729,3.95,9.918,9.504c-0.384,2.056-0.89,4.096-1.02,6.19c0.1,0.015,0.192,0.031,0.284,0.046
		c0.338-2.086,0.667-4.165,1.005-6.252c0.905-4.764,2.623-9.213,5.231-13.316c0.89-1.388,1.749-2.8,2.593-4.219
		c0.767-1.289,1.442-2.623,1.841-4.088c0.66-2.439-0.046-4.065-2.294-5.254c-0.928-0.491-1.91-0.836-2.93-1.036
		c-5.546-1.105-11.13-1.235-16.622,0.023c-13.554,3.107-23.204,10.854-27.914,24.209c-0.092,0.253-0.123,0.545-0.399,0.69
		c-2.025,1.036-3.989,2.201-6.183,3.053c0-0.176-0.015-0.268,0.008-0.353c1.25-4.503,3.053-8.768,5.722-12.634
		c0.782-1.135,1.511-2.301,2.063-3.567c0.33-0.775,0.506-1.55,0.299-2.409c-0.43-1.833-1.619-3.13-2.999-4.28
		c-2.248-1.879-4.802-3.268-7.51-4.372c-7.793-3.168-15.886-3.858-24.094-2.37c-12.411,2.263-21.348,9.174-26.694,20.627
		c-0.598,1.281-1.043,2.646-1.588,4.05c-0.161-0.391-0.299-0.698-0.407-1.013c-2.117-6.06-5.715-11.115-10.793-14.996
		c-9.044-6.904-18.977-8.415-29.471-3.843c-6.689,2.915-11.176,8.315-14.651,14.582c-0.552,0.997-1.028,2.04-1.549,3.084
		c-0.069-0.092-0.123-0.138-0.138-0.192c-0.054-0.176-0.1-0.353-0.153-0.529c-0.974-3.728-2.485-7.211-4.725-10.371
		c-1.994-2.807-4.296-5.331-7.464-6.789c-6.712-3.076-13.178-2.155-19.353,1.58c-0.637,0.384-0.874,0.453-1.235-0.299
		c-0.982-2.056-2.646-3.252-4.955-3.421c-2.447-0.176-4.833,0.307-7.164,0.936c-3.996,1.082-8.024,1.718-12.173,1.273
		c-2.286-0.238-4.587-0.384-6.888-0.107c-1.496,0.184-2.961,0.483-4.395,0.913c-0.238,0.069-0.529,0.107-0.437,0.453
		c0.115,0.437,0.407,0.123,0.583,0.084c0.568-0.13,1.12-0.33,1.68-0.468c3.421-0.874,6.589,0.291,8.637,3.168
		c0.606,0.851,1.089,1.772,1.457,2.746c1.557,4.05,2.017,8.315,2.332,12.588c0.575,7.87,0.345,15.733-0.207,23.595
		c-0.721,10.141-1.872,20.235-2.915,30.345c-0.084,0.813-0.046,1.649,0.276,2.447c0.115-0.99,0.077-1.971,0.123-2.953
		c0.192-4.365,2.439-7.464,6.259-8.691c1.143-0.368,2.324-0.529,3.521-0.629c2.539-0.222,4.802,0.752,7.111,1.557
		c10.586,3.705,20.097,1.818,28.435-5.63c4.127-3.69,7.034-8.284,9.12-13.401c0.268-0.652,0.537-1.312,0.851-2.102
		c0.138,0.43,0.222,0.69,0.299,0.951c1.833,6.252,5.185,11.56,9.857,16.093c10.501,10.179,26.081,9.757,35.546,2.754
		c5.692-4.204,9.519-9.788,11.982-16.354c0.307-0.813,0.583-1.642,0.928-2.616c0.153,0.368,0.261,0.575,0.338,0.79
		c2.225,6.413,6.106,11.683,11.276,16.024c5.6,4.702,12.028,7.31,19.392,7.51c3.958,0.107,7.717-0.844,11.445-1.987
		c3.298-1.013,6.535-2.271,9.98-2.769c4.656-0.667,8.039,2.685,7.448,7.303c-0.391,3.084-1.235,6.044-2.125,9.005
		c-0.084,0.276-0.322,0.575,0.077,0.967c0.153-0.476,0.284-0.844,0.391-1.212c1.335-4.403,2.401-8.837,2.117-13.516
		c-0.322-5.477-1.005-10.9-2.086-16.285c-1.066-5.285-1.994-10.593-1.757-16.017c0.115-2.493,0.468-4.932,1.457-7.249
		c0.637-1.496,1.634-2.715,2.938-3.897c-1.312,6.052-1.304,11.959-0.161,17.857c1.55,7.97,5.301,14.697,11.606,19.883
		c6.842,5.623,14.889,7.441,23.549,7.049c2.731-0.13,5.277-1.02,7.517-2.654c1.795-1.304,2.961-3.007,3.268-5.224
		c0.176-1.243,0.046-2.501-0.031-3.759c-0.13-2.232-0.322-4.464-0.092-6.697c0.215-2.148,0.752-4.211,1.465-6.482
		c0.176,0.552,0.284,0.867,0.368,1.181c1.534,5.492,4.296,10.294,8.108,14.528c8.676,9.627,20.466,11.667,30.875,8.047
		c6.428-2.232,11.107-6.689,14.751-12.296c4.549-7.003,6.321-14.774,6.351-23.02C499.501,86.126,495.919,76.799,487.443,69.811z
		 M250.448,106.799c-2.378,2.432-5.139,4.035-8.645,4.05c-1.488,0-1.503,0-1.78-1.434c-0.752-3.927-0.967-7.901-1.036-11.882
		c-0.077-4.319,0.031-8.63,0.353-12.941c0.038-0.552,0.23-0.905,0.706-1.166c3.053-1.665,8.43-2.24,11.805,2.033
		C256.676,91.573,256.109,100.985,250.448,106.799z M309.259,109.284c-1.964,3.482-5.347,4.25-8.63,1.948
		c-1.22-0.859-2.186-1.964-2.984-3.214c-3.367-5.316-4.894-11.092-4.188-17.39c0.238-2.132,1.013-4.096,2.248-5.853
		c2.117-3.007,5.937-3.582,8.883-1.35c1.741,1.319,2.8,3.137,3.613,5.116c1.688,4.089,2.501,8.361,2.669,12.603
		C311.047,104.107,310.663,106.799,309.259,109.284z M375.021,91.603c-2.846-0.222-5.684-0.506-8.522-0.752
		c-1.181-0.107-2.324-0.069-3.306,0.744c-1.22,1.02-1.373,2.324-1.028,3.751c0.345,1.411,0.959,2.708,1.626,3.981
		c0.921,1.764,1.803,3.544,2.079,5.554c0.245,1.787-0.499,2.869-2.294,3.068c-2.217,0.253-4.165-0.476-5.884-1.856
		c-4.464-3.582-6.497-10.724-4.487-16.086c1.665-4.464,5.17-6.98,9.588-8.208c8.008-2.225,15.717,1.795,18.824,9.742
		C379.355,91.81,377.184,91.764,375.021,91.603z M475.906,109.491c-1.887,3.191-5.017,3.943-8.162,1.964
		c-0.997-0.629-1.864-1.411-2.547-2.363c-4.135-5.814-5.899-12.227-4.817-19.33c0.276-1.803,1.028-3.452,2.071-4.955
		c2.094-2.999,5.845-3.613,8.806-1.457c1.772,1.296,2.838,3.099,3.659,5.07c1.841,4.403,2.662,9.013,2.784,14.805
		C477.763,104.782,477.241,107.236,475.906,109.491z"/>
	<path fill="#FDFDFD" d="M494.896,133.533c1.77-4.589,3.761-9.086,5.704-13.602c3.622-8.417,7.415-16.764,10.463-25.414
		c1.721-4.885,3.083-9.863,3.499-15.053c0.169-2.111,0.232-4.219-0.431-6.278c-0.256-0.796-0.614-1.538-1.158-2.171
		c-0.826-0.96-1.741-1.582-3.166-1.425c-2.407,0.265-4.837,0.252-7.257,0.041c-0.275-0.024-0.554-0.024-0.823-0.074
		c-0.185-0.034-0.505,0.013-0.451-0.31c0.051-0.305,0.34-0.193,0.53-0.172c10.753,1.182,20.576-2.057,30.186-6.321
		c1.285-0.57,2.587-1.106,3.902-1.601c1.509-0.568,2.709-0.052,3.405,1.395c0.572,1.189,0.597,2.486,0.744,3.759
		c0.385,3.313,0.518,6.655,1.11,9.943c0.832,4.621,2.478,8.939,4.976,12.925c0.127,0.203,0.278,0.39,0.446,0.624
		c3.422-4.626,5.636-9.693,6.557-15.327c0.402-2.46,0.37-4.943,0.522-7.416c0.055-0.89,0.209-1.76,0.518-2.599
		c0.628-1.706,1.518-2.338,3.335-2.249c2.48,0.121,4.969,0.195,7.433,0.473c5.062,0.571,9.789-0.632,14.432-2.44
		c0.364-0.142,0.881-0.632,1.112-0.256c0.333,0.543-0.444,0.58-0.726,0.82c-1.512,1.287-1.885,3.014-1.972,4.864
		c-0.287,6.086,0.212,12.107,1.449,18.074c1.738,8.384,3.718,16.702,6.613,24.776c0.899,2.506,1.944,4.951,3.46,7.163
		c0.646,0.942,1.392,1.78,2.387,2.383c0.438,0.266,0.704,0.255,1.073-0.162c1.809-2.044,3.527-4.156,5.094-6.392
		c0.119-0.17,0.21-0.56,0.499-0.381c0.394,0.245-0.018,0.48-0.144,0.659c-4.867,6.898-10.654,12.876-17.738,17.532
		c-2.153,1.416-4.409,2.634-7.023,3.026c-2.134,0.32-3.704-0.506-4.848-2.25c-1.182-1.802-1.694-3.844-2.06-5.932
		c-0.886-5.048-1.059-10.164-1.468-15.258c-0.296-3.688-0.525-7.386-1.372-11.221c-4.29,12.443-11.184,23.22-18.791,33.668
		c-0.139-0.157-0.23-0.236-0.293-0.334c-4.274-6.634-8.755-13.138-12.566-20.06c-2.046-3.717-3.899-7.522-4.986-11.825
		c-1.03,1.846-1.72,3.659-2.289,5.52c-1.135,3.711-1.635,7.527-1.822,11.388c-0.171,3.518-0.284,7.038-0.431,10.556
		c-0.046,1.1-0.107,2.195-0.483,3.254c-0.805,2.267-2.363,3.233-4.757,2.929c-1.683-0.213-3.284-0.711-4.854-1.331
		c-2.052-0.81-4.118-1.595-6.352-1.712c-3.523-0.185-6.579,1.161-9.478,2.977c-0.518,0.324-1.008,0.694-1.511,1.043
		C495.029,133.684,494.963,133.608,494.896,133.533z"/>
	<path fill="#FDFDFD" d="M494.321,135.701c-1.042,2.779-2.085,5.558-3.127,8.337c-0.116-0.043-0.232-0.085-0.349-0.128
		c0.961-2.863,2.102-5.662,3.254-8.456C494.173,135.536,494.247,135.619,494.321,135.701z"/>
	<path fill="#FDFDFD" d="M495.095,133.759c-0.14,0.336-0.28,0.673-0.421,1.009c-0.076-0.052-0.152-0.105-0.228-0.157
		c0.15-0.359,0.3-0.719,0.45-1.078C494.963,133.608,495.029,133.684,495.095,133.759z"/>
	<path fill="#FDFDFD" d="M494.099,135.454c0.116-0.281,0.232-0.562,0.347-0.843c0.076,0.052,0.152,0.105,0.228,0.157
		c-0.118,0.311-0.236,0.622-0.354,0.933C494.247,135.619,494.173,135.536,494.099,135.454z"/>
	<path fill="#3B3434" d="M71.511,84.544c-1.084-2.72-1.125-5.47-0.282-8.229c1.407-4.605,4.802-7.27,9.621-7.816
		c4.765-0.54,9.341,0.196,13.842,1.682c0.084,0.028,0.184,0.038,0.162,0.242c-1.939-0.112-3.892-0.235-5.845-0.337
		c-2.822-0.148-5.643-0.212-8.415,0.475c-5.871,1.453-9.131,7.561-9.084,11.645C71.519,82.985,71.511,83.764,71.511,84.544z"/>
	<path fill="#191815" d="M9.663,133.218c-0.017,0.031-0.035,0.062-0.052,0.093c-0.001-0.019-0.01-0.049-0.002-0.054
		c0.021-0.013,0.048-0.016,0.073-0.023C9.682,133.235,9.663,133.218,9.663,133.218z"/>
	<path fill="#191815" d="M74.546,58.899c-0.074,0.01-0.197,0.052-0.215,0.025c-0.065-0.099,0.03-0.125,0.108-0.146
		C74.479,58.815,74.515,58.856,74.546,58.899z"/>
	<path fill="#191815" d="M126.151,58.339c2.224,0.067,4.181,0.4,6.135,0.707c3.084,0.484,6.15,1.09,9.238,1.551
		c2.233,0.333,3.83,1.507,5.022,3.344c1.109,1.71,1.767,3.619,2.437,5.522c0.386,1.094,0.724,2.209,1.288,3.231
		c0.386,0.699,0.848,1.285,1.788,1.151c0.948-0.135,1.479-0.657,1.605-1.606c0.022-0.167,0.021-0.381,0.264-0.427
		c0.529,1.042,0.284,2.352-0.548,2.935c-0.96,0.672-2.297,0.514-3.074-0.368c-0.514-0.584-0.822-1.286-1.101-1.999
		c-0.4-1.024-0.78-2.057-1.172-3.084c-1.376-3.612-3.98-5.525-7.861-5.716c-3.061-0.151-6.119-0.359-9.18-0.514
		c-0.495-0.025-0.849-0.162-1.176-0.546C128.663,61.169,127.479,59.848,126.151,58.339z"/>
	<path fill="#191815" d="M133.922,71.373c-0.121-0.851-0.109-1.704,0.002-2.634c-0.913,0.05-1.645,0.629-2.583,0.74
		c0.252-0.676,0.692-1.093,1.177-1.446c1.625-1.181,3.441-1.839,5.462-1.889c2.128-0.052,4.192,0.103,6.138,1.16
		c2.831,1.537,4.023,4.144,4.885,7.014c0.09,0.3-0.022,0.398-0.29,0.533c-5.027,2.535-10.353,0.835-13.686-2.047
		c-0.469-0.406-0.766-0.947-1.111-1.451C133.917,71.353,133.922,71.373,133.922,71.373z M145.949,74.813
		c-2.152-0.216-4.148-0.61-5.523-2.297c-1.52-1.863-0.966-3.75,0.291-5.62c-1.272-0.109-2.309,0.092-3.3,0.524
		c-1.535,0.669-2.174,1.791-1.983,3.443c0.113,0.981,0.699,1.667,1.428,2.265c2.574,2.112,5.616,2.184,8.716,1.99
		C145.669,75.113,145.753,74.979,145.949,74.813z M144.94,70.068c0.445-0.057,0.727-0.325,0.701-0.783
		c-0.026-0.453-0.34-0.739-0.793-0.714c-0.448,0.025-0.731,0.316-0.71,0.79C144.159,69.84,144.451,70.063,144.94,70.068z"/>
	<path fill="#3B3434" d="M106.76,80.575c-1.167,1.833-2.298,3.676-2.704,5.867c-0.302,1.628-0.254,3.221,0.241,4.801
		c0.605,1.932,1.332,3.827,2.479,5.495c1.53,2.225,2.353,4.668,2.723,7.311c0.531,3.794,0.474,7.626,0.746,11.442
		c-0.565-2.931-1.194-5.851-1.676-8.796c-0.478-2.916-1.56-5.575-3.045-8.097c-0.744-1.265-1.511-2.516-2.252-3.783
		c-2.378-4.065-2.069-8.235,0.891-11.925c0.728-0.907,1.546-1.73,2.488-2.421C106.683,80.51,106.719,80.545,106.76,80.575z"/>
	<path fill="#3B3434" d="M135.46,55.404c3.632-0.398,7.251-0.465,10.643,1.04c3.859,1.713,6.473,6.787,5.92,11.131
		c-0.084,0.656-0.091,1.332-0.486,2.141c0.373-3.614-1.203-6.43-3.001-9.09c-1.728-2.556-4.207-4.147-7.332-4.56
		C139.294,55.812,137.375,55.622,135.46,55.404z"/>
	<path fill="#3B3434" d="M133.702,71.352c-1.671-0.214-3-0.68-4.346-1.063c-1.607-0.457-3.208-0.695-4.889-0.396
		c-2.96,0.526-5.224,1.95-6.494,4.845c-0.333-1.992,1.246-3.689,2.638-4.632c1.064-0.72,2.3-0.892,3.549-1.113
		C127.604,68.382,130.593,69.479,133.702,71.352z"/>
	<path fill="#3B3434" d="M153.856,67.359c0.461-1.627,1.067-3.22,1.476-4.873c0.616-2.486-0.307-4.862-2.447-6.291
		c-1.445-0.965-2.76-1.278-5.429-1.351c1.142-0.511,2.35-0.542,3.577-0.425c0.06,0.006,0.119,0.029,0.179,0.041
		c4.407,0.934,5.886,3.296,4.775,7.648C155.519,63.948,154.738,65.665,153.856,67.359z"/>
	<path fill="#3B3434" d="M132.238,66.694c-1.131,1.578-2.765,1.747-4.5,1.573c-0.794-0.079-1.555-0.328-2.292-0.635
		c-2.242-0.934-4.398-0.886-6.474,0.494c-0.516,0.343-1.077,0.664-1.784,0.76c2.089-2.57,4.295-3.208,7.272-2.151
		c0.519,0.184,1.041,0.359,1.554,0.556c1.813,0.696,3.579,0.7,5.302-0.295c0.276-0.159,0.553-0.404,0.927-0.299L132.238,66.694z"/>
	<path fill="#3B3434" d="M116.501,107.244c0.44,1.31,1.075,2.556,1.777,3.776c0.887,1.541,2.054,2.828,3.529,3.807
		c1.751,1.163,2.514,2.985,3.29,4.812c-0.271-0.401-0.56-0.792-0.809-1.206c-0.853-1.416-1.963-2.594-3.352-3.477
		C118.11,113.159,117.035,110.375,116.501,107.244z"/>
	<path fill="#3B3434" d="M125.427,120.005c0.035,0.038,0.069,0.077,0.104,0.115c-0.029-0.044-0.059-0.087-0.088-0.131
		L125.427,120.005z"/>
	<path fill="#191815" d="M116.967,56.772c0.018,0.187-0.151,0.215-0.255,0.298c-0.057-0.058-0.114-0.116-0.171-0.175
		c0.112-0.134,0.249-0.185,0.42-0.129L116.967,56.772z"/>
	<path fill="#3B3434" d="M153.736,67.757c-0.02,0.049-0.042,0.1-0.063,0.152c-0.016-0.025-0.047-0.053-0.043-0.073
		c0.011-0.053,0.037-0.104,0.057-0.155C153.703,67.704,153.718,67.729,153.736,67.757z"/>
	<path fill="#3B3434" d="M106.651,80.471c0.065-0.057,0.129-0.114,0.194-0.171l-0.013-0.018c0.087,0.126,0.003,0.209-0.074,0.293
		C106.719,80.545,106.683,80.51,106.651,80.471z"/>
	<path fill="#3B3434" d="M106.845,80.3c0.029-0.038,0.057-0.077,0.086-0.115c0.009,0.033,0.019,0.066,0.028,0.1
		c-0.042-0.001-0.085-0.002-0.127-0.003C106.832,80.282,106.845,80.3,106.845,80.3z"/>
	<path fill="#3B3434" d="M125.442,119.989c-0.045-0.026-0.091-0.052-0.136-0.078c0.152-0.112,0.07,0.076,0.12,0.094
		C125.427,120.005,125.442,119.989,125.442,119.989z"/>
	<path fill="#3B3434" d="M133.922,71.373c0,0-0.005-0.02-0.005-0.02c-0.025,0.012-0.049,0.023-0.074,0.035
		C133.87,71.383,133.896,71.378,133.922,71.373z"/>
	<path fill="#3B3434" d="M132.242,66.697c0.008-0.044,0.016-0.087,0.025-0.131c0.035,0.018,0.069,0.036,0.104,0.054
		c-0.044,0.025-0.089,0.049-0.133,0.074C132.238,66.694,132.242,66.697,132.242,66.697z"/>
	<path fill="#191815" d="M116.961,56.766c0.024-0.046,0.048-0.092,0.073-0.137c0.03,0.029,0.061,0.058,0.091,0.086
		c-0.053,0.019-0.105,0.038-0.158,0.057C116.967,56.772,116.961,56.766,116.961,56.766z"/>
	<polygon fill="#3B3434" points="153.468,68.25 153.508,68.228 153.501,68.281 	"/>
	<path fill="#191815" d="M150.034,106.855c0.01,0.078,0.055,0.201,0.023,0.226c-0.088,0.07-0.153-0.008-0.191-0.095
		C149.923,106.942,149.979,106.899,150.034,106.855z"/>
	<path fill="#FDE300" d="M124.729,142.318c2.018-1.968,4.04-3.931,6.05-5.907c0.28-0.275,0.466-0.284,0.754-0.005
		c3.169,3.069,6.349,6.127,9.564,9.224c-3.22,3.103-6.401,6.161-9.57,9.231c-0.294,0.285-0.477,0.256-0.752-0.014
		c-1.965-1.933-3.943-3.853-5.917-5.777c0.727-0.138,1.453-0.059,2.178,0.021c0.476,0.052,0.942,0.075,1.347-0.246l-0.021,0.012
		c0.158-0.009,0.37,0.086,0.388-0.197c0,0-0.02,0.013-0.02,0.014c0.116-0.013,0.253,0.01,0.343-0.045
		c1.739-1.058,2.189-4.366,0.799-5.86c-0.497-0.534-1.122-0.819-1.845-0.909c-1.101-0.136-2.119,0.105-3.076,0.643
		C124.877,142.44,124.803,142.379,124.729,142.318z M137.014,145.534c-0.056,0.067-0.113,0.134-0.169,0.2
		c-0.572,0.149-1.14,0.277-1.582-0.285c-0.415-0.528-0.2-1.13-0.182-1.71c-0.383,0.706-0.464,1.426,0.178,1.985
		c0.466,0.406,1.052,0.621,1.573-0.005c0.129-0.006,0.239-0.028,0.171-0.2c0.173,0.066,0.204-0.03,0.196-0.171
		c0.295-0.037,0.364-0.221,0.316-0.585c-0.128,0.254-0.214,0.426-0.301,0.598C137.147,145.419,137.08,145.477,137.014,145.534z
		 M137.143,142.474c0.062,0.093,0.09,0.263,0.259,0.114c0.074,0.638,0.289,1.259,0.261,1.909c0.082-0.652,0.313-1.323-0.274-1.89
		c0.003-0.117-0.052-0.184-0.17-0.197c-0.013-0.118-0.081-0.173-0.197-0.171c-1.319-0.863-3.065-0.396-3.774,1.073
		c-0.549,1.138-0.767,2.382-0.787,3.639c-0.015,0.957,0.581,1.714,1.447,2.026c0.947,0.341,1.982,0.139,2.555-0.499
		c0.147,0.024,0.209-0.036,0.184-0.184c0.183,0.043,0.249-0.093,0.315-0.216c0.01-0.019-0.038-0.071-0.06-0.107
		c-0.08,0.112-0.16,0.224-0.24,0.337c-0.117,0.006-0.179,0.068-0.186,0.185c-0.22,0.099-0.434,0.216-0.661,0.294
		c-1.344,0.461-2.581-0.202-2.671-1.481c-0.098-1.383,0.139-2.734,0.707-4.002c0.438-0.979,1.463-1.437,2.502-1.198
		c0.226,0.052,0.423,0.268,0.684,0.123C136.886,142.387,137.047,142.417,137.143,142.474z M135.404,143.341
		c-0.043-0.015-0.11-0.054-0.126-0.04c-0.039,0.036-0.054,0.097-0.078,0.148c0.043,0.015,0.108,0.055,0.124,0.041
		C135.363,143.454,135.38,143.394,135.404,143.341z M137.179,147.664c-0.021-0.028-0.04-0.051-0.059-0.075
		c-0.021,0.022-0.057,0.042-0.059,0.065c-0.001,0.023,0.033,0.047,0.051,0.071C137.136,147.705,137.158,147.684,137.179,147.664z"/>
	<path fill="#FDE300" d="M124.522,148.851c-0.933-0.911-1.846-1.842-2.807-2.723c-0.424-0.388-0.416-0.64,0.012-0.999
		c0.671-0.564,1.305-1.171,1.955-1.76c0.261,0.359-0.09,0.615-0.164,0.914c-0.184,0.741-0.282,1.462,0.209,2.15
		c-0.431-1.121-0.024-2.117,0.422-3.107l-0.017,0.02c0.272,0.016,0.389-0.123,0.385-0.384l-0.018,0.016
		c0.458-0.02,0.734-0.398,1.12-0.569c1.938-0.86,3.959-0.024,4.358,1.922c0.333,1.623,0.153,3.177-1.246,4.342l0.02-0.013
		c-0.129,0.066-0.259,0.132-0.388,0.197c0,0,0.021-0.012,0.021-0.012c-0.637,0.094-1.271,0.087-1.913,0.022
		c-0.387-0.039-0.576-0.167-0.487-0.562c0.413-1.846,0.33-3.807,1.274-5.531c0.032-0.013,0.065-0.026,0.097-0.038
		c-0.014-0.001-0.033-0.008-0.041-0.001c-0.018,0.015-0.03,0.036-0.045,0.055c-0.712,0.21-0.992,0.78-1.118,1.426
		c-0.252,1.286-0.513,2.574-0.669,3.874C125.401,148.759,125.095,148.915,124.522,148.851z M123.971,146.816
		c0.015,0.034,0.03,0.067,0.045,0.101c0-0.015,0.007-0.035,0-0.043c-0.016-0.019-0.039-0.031-0.059-0.047
		c-0.041-0.049-0.081-0.098-0.122-0.147c-0.01,0.024-0.02,0.049-0.03,0.073C123.861,146.774,123.916,146.795,123.971,146.816z"/>
	<path fill="#3B3434" d="M127.257,142.773c-0.944,1.724-0.86,3.685-1.273,5.531c-0.088,0.395,0.1,0.523,0.487,0.562
		c0.642,0.065,1.276,0.072,1.913-0.022c-0.405,0.322-0.871,0.299-1.347,0.246c-0.725-0.08-1.451-0.16-2.178-0.021
		c-0.129-0.048-0.351,0.048-0.337-0.219c0.573,0.064,0.879-0.091,0.959-0.762c0.156-1.3,0.417-2.588,0.669-3.874
		c0.127-0.646,0.406-1.217,1.118-1.426L127.257,142.773z"/>
	<path fill="#3B3434" d="M124.15,143.325c-0.447,0.99-0.853,1.986-0.422,3.107c-0.491-0.687-0.393-1.409-0.209-2.15
		c0.074-0.298,0.426-0.555,0.164-0.914c0,0,0.001-0.013,0.001-0.014C123.855,143.603,123.994,143.332,124.15,143.325z"/>
	<path fill="#FDE300" d="M124.103,142.933c0.167-0.163,0.333-0.325,0.5-0.488c0.04,0.063,0.08,0.125,0.121,0.188
		c-0.075,0.115-0.149,0.229-0.224,0.344l0.018-0.016c-0.088,0.039-0.176,0.078-0.264,0.116
		C124.203,143.029,124.153,142.981,124.103,142.933z"/>
	<path fill="#FDE300" d="M124.15,143.325c-0.156,0.007-0.294,0.278-0.467,0.03c0.084-0.197,0.231-0.331,0.42-0.422
		c0.05,0.048,0.1,0.096,0.149,0.144c-0.04,0.089-0.08,0.178-0.12,0.268L124.15,143.325z"/>
	<path fill="#FDE300" d="M124.603,142.445c0.03-0.055,0.073-0.097,0.127-0.127c0.073,0.061,0.147,0.122,0.221,0.183
		c-0.076,0.044-0.152,0.088-0.227,0.132C124.683,142.571,124.643,142.508,124.603,142.445z"/>
	<path fill="#3B3434" d="M381.621,91.539c-2.265,0.27-4.437,0.226-6.603,0.06c-2.841-0.217-5.678-0.5-8.516-0.751
		c-1.181-0.104-2.325-0.07-3.306,0.75c-1.22,1.019-1.374,2.321-1.028,3.751c0.34,1.405,0.96,2.703,1.623,3.979
		c0.919,1.766,1.8,3.543,2.078,5.55c0.248,1.789-0.5,2.871-2.292,3.073c-2.214,0.25-4.168-0.475-5.884-1.854
		c-4.461-3.586-6.497-10.725-4.491-16.085c1.672-4.466,5.173-6.985,9.594-8.213C370.798,79.576,378.509,83.594,381.621,91.539z
		 M379.94,90.568c-3.091-6.782-10.848-9.987-17.89-7.394c-3.815,1.404-6.932,3.736-8.001,7.838
		c-1.36,5.219-0.031,9.874,3.775,13.739c1.431,1.453,3.221,2.216,5.293,2.155c1.414-0.041,1.863-0.626,1.649-2.002
		c-0.272-1.75-1.035-3.314-1.839-4.862c-0.761-1.466-1.48-2.949-1.857-4.57c-0.757-3.255,1.339-5.858,4.688-5.74
		c1.774,0.063,3.546,0.235,5.313,0.412C373.994,90.435,376.915,90.738,379.94,90.568z"/>
	<path fill="#3B3434" d="M310.87,101.144c0.176,2.967-0.207,5.655-1.611,8.142c-1.967,3.483-5.345,4.25-8.627,1.947
		c-1.224-0.859-2.191-1.962-2.983-3.212c-3.371-5.32-4.901-11.095-4.19-17.392c0.24-2.131,1.012-4.093,2.246-5.849
		c2.117-3.012,5.937-3.584,8.882-1.352c1.743,1.321,2.797,3.139,3.611,5.112C309.886,92.627,310.699,96.904,310.87,101.144z
		 M309.836,103.187c-0.131-5.504-0.887-9.882-2.584-14.072c-0.754-1.861-1.704-3.605-3.363-4.837
		c-2.499-1.857-5.569-1.362-7.321,1.181c-1.093,1.587-1.792,3.344-2.011,5.258c-0.704,6.148,0.816,11.765,4.155,16.924
		c0.737,1.138,1.653,2.13,2.809,2.869c2.609,1.666,5.075,1.088,6.656-1.553C309.427,106.87,309.874,104.589,309.836,103.187z"/>
	<path fill="#3B3434" d="M477.701,103.223c0.058,1.562-0.458,4.011-1.792,6.265c-1.89,3.195-5.02,3.949-8.165,1.969
		c-0.998-0.628-1.865-1.413-2.543-2.366c-4.137-5.809-5.897-12.227-4.818-19.328c0.274-1.805,1.029-3.455,2.072-4.954
		c2.089-3.003,5.84-3.617,8.802-1.457c1.77,1.291,2.842,3.099,3.664,5.069C476.758,92.824,477.577,97.435,477.701,103.223z
		 M476.591,102.839c-0.114-5.235-0.894-9.606-2.597-13.793c-0.733-1.803-1.667-3.482-3.245-4.704
		c-2.498-1.936-5.683-1.433-7.451,1.177c-1.135,1.677-1.818,3.531-2.019,5.545c-0.578,5.816,0.851,11.159,3.887,16.105
		c0.774,1.261,1.72,2.387,2.958,3.23c2.683,1.826,5.308,1.226,6.912-1.583C476.225,106.737,476.677,104.487,476.591,102.839z"/>
	<path fill="#3B3434" d="M241.801,110.847c-1.489,0.001-1.502,0.003-1.778-1.435c-0.753-3.923-0.968-7.895-1.038-11.877
		c-0.076-4.319,0.029-8.634,0.354-12.944c0.042-0.552,0.227-0.901,0.707-1.163c3.05-1.665,8.428-2.246,11.802,2.029
		c4.828,6.117,4.261,15.524-1.404,21.339C248.071,109.234,245.311,110.837,241.801,110.847z M240.083,94.678
		c0,0.948-0.013,1.897,0.002,2.845c0.062,3.765,0.315,7.512,0.898,11.238c0.126,0.808,0.42,1.046,1.222,0.996
		c1.691-0.105,3.238-0.59,4.677-1.461c7.212-4.366,9.373-14.543,4.602-21.479c-2.603-3.785-6.382-4.25-10.3-2.75
		c-0.507,0.194-0.732,0.49-0.774,1.075C240.181,88.318,240.057,91.495,240.083,94.678z"/>
	<path fill="#FDFDFD" d="M145.949,74.813c-0.196,0.166-0.28,0.3-0.371,0.305c-3.1,0.194-6.142,0.122-8.716-1.99
		c-0.73-0.598-1.315-1.284-1.428-2.265c-0.191-1.652,0.448-2.774,1.983-3.443c0.991-0.432,2.028-0.633,3.3-0.524
		c-1.257,1.869-1.81,3.756-0.291,5.62C141.801,74.203,143.797,74.597,145.949,74.813z"/>
	<path fill="#FDFDFD" d="M144.94,70.068c-0.489-0.005-0.781-0.228-0.803-0.706c-0.021-0.475,0.262-0.765,0.71-0.79
		c0.453-0.025,0.768,0.261,0.793,0.714C145.667,69.743,145.385,70.011,144.94,70.068z"/>
	<path fill="#3B3434" d="M136.463,148.475c-0.573,0.638-1.608,0.84-2.555,0.499c-0.866-0.312-1.462-1.068-1.447-2.026
		c0.02-1.257,0.237-2.5,0.787-3.639c0.709-1.469,2.454-1.936,3.774-1.073c0,0,0.017-0.011,0.017-0.011
		c-0.261,0.145-0.458-0.071-0.684-0.123c-1.039-0.239-2.064,0.218-2.502,1.198c-0.568,1.268-0.805,2.619-0.707,4.002
		c0.091,1.279,1.327,1.942,2.671,1.481c0.227-0.078,0.441-0.195,0.661-0.294C136.477,148.49,136.463,148.475,136.463,148.475z"/>
	<path fill="#3B3434" d="M124.723,142.633c0.076-0.044,0.152-0.088,0.227-0.132c0.958-0.538,1.975-0.779,3.076-0.643
		c0.724,0.089,1.348,0.375,1.845,0.909c1.391,1.493,0.941,4.802-0.799,5.86c-0.09,0.055-0.228,0.032-0.343,0.045
		c1.399-1.165,1.579-2.719,1.246-4.342c-0.399-1.947-2.419-2.782-4.358-1.922c-0.386,0.171-0.662,0.549-1.12,0.569
		C124.574,142.863,124.649,142.748,124.723,142.633z"/>
	<path fill="#3B3434" d="M136.831,145.72c-0.521,0.626-1.107,0.411-1.573,0.005c-0.642-0.559-0.561-1.278-0.178-1.985
		c-0.017,0.579-0.233,1.182,0.182,1.71c0.442,0.562,1.011,0.434,1.582,0.285L136.831,145.72z"/>
	<path fill="#3B3434" d="M137.389,142.605c0.586,0.567,0.356,1.238,0.274,1.89c0.028-0.65-0.187-1.271-0.261-1.909L137.389,142.605z
		"/>
	<path fill="#3B3434" d="M137.213,145.361c0.087-0.172,0.173-0.344,0.301-0.598c0.048,0.364-0.021,0.547-0.316,0.585
		L137.213,145.361z"/>
	<path fill="#3B3434" d="M135.405,143.342c-0.025,0.052-0.042,0.112-0.081,0.148c-0.015,0.014-0.081-0.025-0.124-0.041
		c0.025-0.051,0.04-0.112,0.078-0.148C135.294,143.287,135.361,143.327,135.405,143.342z"/>
	<path fill="#3B3434" d="M136.663,148.306c0.08-0.112,0.16-0.224,0.24-0.337c0.021,0.037,0.07,0.088,0.06,0.107
		c-0.066,0.123-0.132,0.259-0.315,0.216L136.663,148.306z"/>
	<path fill="#3B3434" d="M128.363,148.856c0.129-0.066,0.259-0.132,0.388-0.197C128.732,148.943,128.521,148.847,128.363,148.856z"
		/>
	<path fill="#3B3434" d="M137.142,142.475c-0.095-0.058-0.256-0.088-0.104-0.249c0,0-0.017,0.011-0.017,0.011
		c0.117-0.001,0.184,0.054,0.197,0.171C137.194,142.431,137.168,142.453,137.142,142.475z"/>
	<path fill="#3B3434" d="M137.402,142.587c-0.169,0.149-0.197-0.021-0.259-0.113c0.026-0.021,0.051-0.043,0.076-0.066
		c0.118,0.013,0.173,0.081,0.17,0.197C137.389,142.605,137.402,142.587,137.402,142.587z"/>
	<path fill="#3B3434" d="M136.845,145.734c0.056-0.067,0.113-0.134,0.17-0.2c0,0-0.013-0.016-0.013-0.016
		c0.069,0.173-0.041,0.195-0.171,0.201C136.831,145.72,136.845,145.734,136.845,145.734z"/>
	<path fill="#3B3434" d="M137.179,147.664c-0.022,0.02-0.044,0.04-0.066,0.061c-0.019-0.024-0.052-0.048-0.051-0.071
		c0.001-0.023,0.038-0.043,0.059-0.065C137.139,147.613,137.158,147.637,137.179,147.664z"/>
	<path fill="#3B3434" d="M136.647,148.292c0.025,0.147-0.037,0.208-0.184,0.184c0,0,0.014,0.015,0.014,0.015
		c0.006-0.117,0.069-0.178,0.186-0.185C136.663,148.306,136.647,148.292,136.647,148.292z"/>
	<path fill="#3B3434" d="M137.199,145.349c0.008,0.141-0.023,0.237-0.196,0.17c0,0,0.013,0.016,0.012,0.015
		c0.066-0.058,0.132-0.116,0.199-0.173C137.213,145.361,137.199,145.349,137.199,145.349z"/>
	<path fill="#3B3434" d="M124.132,143.345c0.04-0.089,0.08-0.178,0.12-0.268c0.088-0.039,0.176-0.078,0.264-0.116
		C124.522,143.222,124.404,143.361,124.132,143.345z"/>
	<path fill="#3B3434" d="M127.269,142.788c0.015-0.019,0.027-0.04,0.045-0.055c0.008-0.007,0.027,0,0.041,0.001
		c-0.032,0.013-0.064,0.026-0.097,0.038C127.257,142.773,127.269,142.788,127.269,142.788z"/>
	<path fill="#3B3434" d="M123.972,146.816c-0.056-0.021-0.111-0.042-0.167-0.063c0.01-0.024,0.02-0.049,0.03-0.073
		c0.041,0.049,0.081,0.098,0.122,0.147L123.972,146.816z"/>
	<path fill="#3B3434" d="M123.957,146.827c0.02,0.015,0.043,0.028,0.059,0.047c0.007,0.008,0.001,0.028,0,0.043
		c-0.015-0.034-0.03-0.067-0.044-0.101C123.972,146.816,123.957,146.827,123.957,146.827z"/>
</g>
</svg>
