<?xml version="1.0" encoding="utf-8"?>
<!-- Generator: Adobe Illustrator 24.0.0, SVG Export Plug-In . SVG Version: 6.00 Build 0)  -->
<svg version="1.2" baseProfile="tiny" id="Layer_1" xmlns="http://www.w3.org/2000/svg" xmlns:xlink="http://www.w3.org/1999/xlink"
	 x="0px" y="0px" width="600px" height="180px" viewBox="0 0 600 180" xml:space="preserve">
<g>
	<g>
		<path fill="#191815" d="M472.72,112c-0.29,0.14-0.58,0.25-0.89,0.34C472.14,112.26,472.44,112.15,472.72,112z M467.14,111.42
			c-0.5-0.31-0.96-0.66-1.39-1.06C466.17,110.76,466.64,111.12,467.14,111.42c1.4,0.89,2.79,1.23,4.06,1.05
			C469.93,112.64,468.54,112.29,467.14,111.42z M361.71,95.35c-0.26-1.05-0.24-2.03,0.27-2.88c-0.52,0.85-0.53,1.83-0.28,2.88
			c0.09,0.35,0.19,0.69,0.31,1.03C361.9,96.03,361.8,95.69,361.71,95.35z M357.23,106.07c-0.41-0.33-0.8-0.69-1.17-1.08
			C356.42,105.38,356.82,105.75,357.23,106.07c0.75,0.61,1.53,1.09,2.37,1.41C358.77,107.14,357.98,106.67,357.23,106.07z
			 M301.19,111.78c0.31,0.17,0.63,0.3,0.94,0.41C301.82,112.08,301.5,111.94,301.19,111.78z"/>
		<path fill="#191815" d="M486.82,69.84c-9.25-7.62-19.6-9.29-30.61-4.32c-6.6,2.98-11.07,8.38-14.4,14.67
			c-4.03,7.6-4.99,15.76-4.03,24.21c0.07,0.58-0.07,0.9-0.5,1.24c-2.96,2.34-6.36,3.4-10.07,3.77c-5.9,0.58-10.77-1.42-14.63-5.84
			c-1.9-2.18-2.83-4.74-2.84-7.64c-0.01-7.4,5.1-13.67,12.08-15c5.55-1.05,11.72,3.94,9.91,9.5c-0.39,2.05-0.89,4.08-1.02,6.18
			c0.1,0.01,0.19,0.03,0.28,0.04c0.34-2.08,0.67-4.15,1-6.24c0.91-4.75,2.63-9.2,5.23-13.3c0.89-1.38,1.74-2.8,2.59-4.2
			c0.77-1.29,1.44-2.63,1.84-4.08c0.66-2.44-0.05-4.06-2.29-5.25c-0.93-0.49-1.91-0.83-2.93-1.03c-5.54-1.11-11.12-1.24-16.61,0.02
			c-13.53,3.11-23.17,10.84-27.87,24.18c-0.09,0.25-0.12,0.54-0.4,0.69c-2.02,1.04-3.98,2.2-6.17,3.05c0-0.17-0.02-0.27,0.01-0.35
			c1.25-4.49,3.05-8.76,5.71-12.61c0.78-1.14,1.51-2.31,2.06-3.57c0.33-0.78,0.51-1.55,0.3-2.41c-0.43-1.83-1.62-3.13-3-4.27
			c-2.25-1.88-4.79-3.27-7.5-4.36c-7.78-3.17-15.87-3.86-24.06-2.37c-12.39,2.26-21.32,9.16-26.67,20.6
			c-0.6,1.28-1.04,2.64-1.59,4.04c-0.16-0.4-0.29-0.7-0.4-1.02c-2.12-6.05-5.71-11.1-10.79-14.97c-9.03-6.9-18.95-8.41-29.43-3.85
			c-6.68,2.92-11.16,8.31-14.63,14.57c-0.55,0.99-1.03,2.04-1.55,3.08c-0.07-0.09-0.12-0.14-0.13-0.19
			c-0.06-0.18-0.1-0.36-0.16-0.53c-0.97-3.73-2.48-7.2-4.71-10.36c-2-2.81-4.29-5.32-7.46-6.78c-6.7-3.08-13.15-2.16-19.33,1.58
			c-0.64,0.38-0.87,0.45-1.23-0.3c-0.99-2.06-2.65-3.25-4.95-3.42c-2.45-0.18-4.82,0.3-7.15,0.93c-3.99,1.09-8.02,1.72-12.16,1.28
			c-2.28-0.24-4.57-0.39-6.87-0.11c-1.5,0.18-2.97,0.48-4.39,0.91c-0.24,0.07-0.53,0.11-0.44,0.46c0.12,0.43,0.41,0.12,0.59,0.08
			c0.56-0.13,1.12-0.33,1.68-0.47c3.42-0.87,6.58,0.29,8.62,3.17c0.61,0.85,1.09,1.77,1.46,2.75c1.56,4.04,2.02,8.3,2.33,12.56
			c0.58,7.86,0.35,15.72-0.2,23.57c-0.73,10.13-1.88,20.2-2.92,30.3c-0.08,0.82-0.05,1.65,0.28,2.45c0.11-0.99,0.07-1.97,0.12-2.95
			c0.19-4.36,2.44-7.46,6.25-8.68c1.14-0.37,2.32-0.53,3.52-0.63c2.54-0.22,4.79,0.75,7.1,1.56c10.58,3.7,20.07,1.81,28.4-5.62
			c4.11-3.69,7.02-8.28,9.11-13.39c0.26-0.65,0.53-1.31,0.85-2.1c0.13,0.43,0.22,0.69,0.3,0.95c1.83,6.25,5.17,11.55,9.84,16.08
			c10.49,10.17,26.05,9.74,35.5,2.75c5.68-4.19,9.51-9.78,11.96-16.33c0.31-0.82,0.58-1.65,0.93-2.62c0.15,0.37,0.26,0.58,0.34,0.79
			c2.22,6.4,6.09,11.67,11.26,16c5.59,4.7,12.01,7.3,19.37,7.5c3.95,0.11,7.71-0.84,11.44-1.98c3.3-1.02,6.52-2.27,9.97-2.77
			c4.65-0.67,8.03,2.68,7.44,7.29c-0.39,3.09-1.24,6.04-2.13,9c-0.08,0.27-0.32,0.57,0.08,0.96c0.15-0.47,0.28-0.84,0.39-1.21
			c1.34-4.39,2.4-8.83,2.12-13.49c-0.32-5.47-1.01-10.89-2.09-16.27c-1.06-5.28-1.99-10.58-1.76-16c0.12-2.49,0.47-4.92,1.46-7.24
			c0.64-1.49,1.64-2.71,2.94-3.89c-1.31,6.04-1.3,11.94-0.16,17.83c1.55,7.96,5.29,14.68,11.59,19.86
			c6.84,5.61,14.87,7.43,23.52,7.04c2.73-0.13,5.27-1.02,7.51-2.66c1.8-1.3,2.96-3.01,3.27-5.21c0.17-1.25,0.04-2.5-0.03-3.76
			c-0.13-2.23-0.32-4.46-0.09-6.69c0.21-2.15,0.75-4.2,1.46-6.47c0.18,0.55,0.28,0.87,0.37,1.18c1.53,5.48,4.28,10.28,8.1,14.51
			c8.66,9.62,20.43,11.66,30.83,8.04c6.42-2.24,11.1-6.68,14.73-12.28c4.54-6.99,6.31-14.75,6.34-22.99
			C498.86,86.14,495.29,76.82,486.82,69.84z M254.62,97.52c-0.07,0.52-0.17,1.04-0.29,1.55c-0.13,0.52-0.27,1.03-0.44,1.54
			c-0.77,2.26-2.03,4.38-3.77,6.17l-0.45,0.45c-2.27,2.17-4.89,3.59-8.19,3.6c-1.49,0-1.5,0-1.78-1.44
			c-0.38-1.96-0.62-3.93-0.77-5.91c-0.04-0.5-0.08-1-0.1-1.5c-0.04-0.6-0.07-1.21-0.09-1.82c-0.02-0.38-0.03-0.76-0.04-1.14
			c-0.01-0.5-0.02-0.99-0.03-1.49c-0.03-1.78-0.04-3.56-0.01-5.33c0.01-0.63,0.03-1.27,0.05-1.9c0.04-1.27,0.1-2.54,0.18-3.81
			c0.04-0.63,0.08-1.27,0.13-1.9c0.04-0.55,0.23-0.9,0.71-1.16c3.05-1.67,8.41-2.25,11.78,2.03
			C254.21,88.86,255.22,93.27,254.62,97.52z M308.86,109.27c-0.61,1.07-1.35,1.89-2.18,2.43c-0.2,0.14-0.42,0.26-0.63,0.36
			c-0.11,0.05-0.22,0.1-0.33,0.14c-1.12,0.44-2.35,0.44-3.6,0c-0.31-0.11-0.63-0.24-0.94-0.41c-0.32-0.16-0.64-0.36-0.95-0.58
			c-0.76-0.54-1.43-1.17-2.01-1.87c-0.24-0.28-0.46-0.58-0.67-0.88c-0.11-0.15-0.21-0.3-0.31-0.46c-0.18-0.28-0.35-0.56-0.51-0.84
			c-0.5-0.84-0.95-1.7-1.36-2.57c-0.13-0.29-0.26-0.58-0.39-0.87c-0.25-0.58-0.47-1.17-0.68-1.76c-1.24-3.59-1.69-7.35-1.24-11.34
			c0.24-2.13,1.01-4.08,2.24-5.84c1.58-2.24,4.09-3.13,6.49-2.52c0.33,0.08,0.66,0.19,0.98,0.34c0.48,0.21,0.96,0.49,1.41,0.83
			c0.22,0.16,0.42,0.34,0.62,0.52c0.2,0.18,0.39,0.37,0.56,0.56c0.54,0.58,0.99,1.22,1.39,1.9c0.27,0.45,0.51,0.92,0.72,1.4
			c0.11,0.24,0.22,0.48,0.32,0.73c1.69,4.08,2.5,8.35,2.67,12.58C310.65,104.09,310.26,106.78,308.86,109.27z M374.54,91.6
			c-2.84-0.22-5.67-0.5-8.51-0.75c-1.18-0.11-2.32-0.07-3.3,0.75h-0.01c-0.08,0.07-0.15,0.14-0.23,0.2
			c-0.14,0.14-0.26,0.28-0.37,0.43c-0.05,0.08-0.1,0.15-0.15,0.23v0.01c-0.51,0.85-0.53,1.83-0.27,2.88
			c0.09,0.35,0.19,0.69,0.3,1.03c0,0.01,0,0.01,0,0.01c0.12,0.34,0.25,0.67,0.39,0.99c0,0.01,0,0.01,0,0.01
			c0.21,0.5,0.44,0.98,0.68,1.46c0.09,0.16,0.17,0.32,0.25,0.48c0.92,1.76,1.8,3.54,2.08,5.54c0.11,0.81,0.02,1.47-0.28,1.97
			c0,0,0,0,0,0.01c-0.07,0.12-0.16,0.23-0.26,0.34c-0.09,0.1-0.2,0.19-0.32,0.27c-0.37,0.25-0.84,0.41-1.43,0.48
			c-0.77,0.09-1.52,0.06-2.23-0.08c-0.22-0.04-0.44-0.09-0.65-0.16c-0.21-0.06-0.42-0.13-0.63-0.21c0,0,0,0-0.01,0
			c-0.84-0.32-1.62-0.8-2.37-1.4c-0.41-0.33-0.81-0.7-1.17-1.09c-0.93-0.97-1.71-2.1-2.34-3.32c-0.56-1.11-1-2.29-1.3-3.51
			c-0.15-0.6-0.26-1.21-0.34-1.83c0,0,0,0,0-0.01c-0.26-2.17-0.07-4.36,0.66-6.32c1.67-4.45,5.17-6.97,9.59-8.2
			c7.99-2.22,15.69,1.79,18.8,9.73C378.87,91.81,376.7,91.76,374.54,91.6z M475.3,109.47c-0.13,0.21-0.26,0.42-0.4,0.61
			c-0.36,0.5-0.75,0.93-1.17,1.27c-0.13,0.11-0.26,0.21-0.4,0.3c-0.2,0.14-0.4,0.26-0.61,0.36c-0.28,0.15-0.58,0.26-0.89,0.34
			c-0.2,0.06-0.41,0.11-0.63,0.13c-1.28,0.18-2.67-0.16-4.06-1.04c-0.5-0.32-0.97-0.68-1.39-1.07c-0.43-0.4-0.81-0.83-1.15-1.3
			c-4.13-5.8-5.89-12.21-4.81-19.31c0.28-1.8,1.03-3.45,2.07-4.94c0.16-0.23,0.32-0.44,0.5-0.63c0.09-0.11,0.18-0.21,0.27-0.29
			c0.15-0.16,0.3-0.3,0.46-0.42c0.08-0.08,0.16-0.14,0.24-0.19c0.09-0.07,0.17-0.13,0.25-0.18c0.17-0.12,0.34-0.22,0.51-0.32
			c0.01,0,0.02-0.01,0.03-0.02c0.17-0.08,0.33-0.16,0.5-0.23c0.36-0.16,0.73-0.27,1.11-0.34c0.19-0.04,0.39-0.07,0.58-0.09
			c0.19-0.02,0.39-0.03,0.58-0.03c1.28,0,2.59,0.42,3.78,1.28c1.77,1.29,2.84,3.1,3.66,5.06c1.84,4.39,2.66,9,2.78,14.78
			C477.15,104.76,476.63,107.21,475.3,109.47z"/>
		<path fill="#191815" d="M597.45,111.76c-4.86,6.89-10.65,12.86-17.72,17.51c-1.61,1.06-3.29,2.02-5.11,2.59
			c-0.62,0.19-1.25,0.34-1.9,0.44c-2.14,0.32-3.71-0.51-4.84-2.25c-0.29-0.45-0.55-0.92-0.77-1.39c-0.33-0.72-0.58-1.46-0.79-2.22
			c-0.07-0.26-0.13-0.51-0.19-0.77c-0.12-0.51-0.22-1.03-0.31-1.55c-0.89-5.04-1.06-10.16-1.47-15.24
			c-0.15-1.85-0.28-3.69-0.48-5.55c-0.1-0.93-0.21-1.87-0.36-2.81c-0.15-0.94-0.32-1.89-0.53-2.85
			c-4.28,12.42-11.18,23.19-18.77,33.62c-0.14-0.15-0.23-0.23-0.3-0.33c-4.26-6.62-8.74-13.12-12.54-20.03
			c-2.05-3.72-3.9-7.51-4.98-11.8c-1.03,1.84-1.72,3.65-2.29,5.51c-1.13,3.71-1.63,7.51-1.82,11.37c-0.17,3.52-0.28,7.03-0.43,10.55
			c-0.05,1.1-0.11,2.19-0.48,3.25c-0.81,2.27-2.37,3.24-4.75,2.93c-1.68-0.21-3.28-0.71-4.84-1.33c-2.06-0.81-4.11-1.59-6.35-1.71
			c-3.52-0.19-6.57,1.16-9.46,2.98c-0.52,0.32-1,0.69-1.51,1.04c-0.04,0.08-0.1,0.23-0.17,0.4c-0.09,0.2-0.18,0.4-0.26,0.61
			c-0.06,0.18-0.13,0.36-0.2,0.54c-0.07,0.17-0.12,0.31-0.15,0.39c-1.04,2.78-2.08,5.55-3.13,8.33c-0.11-0.04-0.23-0.09-0.34-0.13
			c0.96-2.86,2.1-5.65,3.25-8.45c0.03-0.08,0.41-0.98,0.97-2.34c1.26-3.03,3.45-8.29,4.91-11.74c0.15-0.35,0.29-0.67,0.42-0.98
			c0.07-0.15,0.13-0.3,0.19-0.44c3.62-8.41,7.41-16.74,10.45-25.38c1.72-4.88,3.09-9.86,3.5-15.04c0.17-2.11,0.23-4.2-0.43-6.26
			c-0.25-0.8-0.61-1.54-1.16-2.17c-0.82-0.96-1.74-1.59-3.16-1.43c-2.41,0.27-4.83,0.25-7.25,0.04c-0.28-0.02-0.55-0.02-0.82-0.07
			c-0.19-0.04-0.51,0.01-0.45-0.31c0.05-0.31,0.34-0.2,0.53-0.17c10.74,1.18,20.54-2.06,30.14-6.32c1.29-0.57,2.59-1.1,3.9-1.6
			c0.2-0.07,0.39-0.13,0.59-0.17c0.45-0.08,0.86-0.07,1.24,0.05c0.66,0.21,1.2,0.73,1.58,1.52c0.57,1.19,0.6,2.48,0.74,3.76
			c0.39,3.31,0.52,6.64,1.11,9.93c0.21,1.15,0.47,2.29,0.78,3.41c0.36,1.31,0.8,2.6,1.32,3.86c0.05,0.16,0.12,0.31,0.19,0.47
			c0.13,0.32,0.27,0.64,0.42,0.96c0.13,0.31,0.28,0.62,0.43,0.92c0.08,0.17,0.17,0.35,0.26,0.52c0.22,0.43,0.45,0.86,0.68,1.28
			c0.29,0.51,0.59,1.01,0.9,1.51c0.13,0.2,0.28,0.39,0.45,0.62c3.42-4.62,5.62-9.68,6.54-15.31c0.4-2.46,0.37-4.93,0.52-7.4
			c0.06-0.89,0.21-1.76,0.52-2.6c0.63-1.71,1.52-2.34,3.34-2.25c2.48,0.12,4.96,0.19,7.42,0.47c5.05,0.57,9.78-0.63,14.41-2.44
			c0.37-0.14,0.88-0.63,1.11-0.25c0.34,0.54-0.44,0.58-0.72,0.82c-1.51,1.28-1.89,3.01-1.97,4.85c-0.26,5.46,0.12,10.87,1.09,16.23
			c0.11,0.6,0.22,1.21,0.35,1.82c0.22,1.05,0.44,2.1,0.67,3.14c0.22,1.05,0.45,2.1,0.69,3.14c0.71,3.13,1.49,6.23,2.35,9.32
			c0.86,3.08,1.82,6.13,2.91,9.16c0.9,2.51,1.94,4.94,3.46,7.15c0.64,0.94,1.39,1.78,2.39,2.39c0.43,0.26,0.7,0.25,1.07-0.17
			c0.45-0.51,0.9-1.02,1.34-1.54c0.88-1.04,1.73-2.1,2.55-3.19c0.41-0.55,0.81-1.1,1.2-1.66c0.12-0.17,0.21-0.56,0.5-0.38
			C597.99,111.35,597.57,111.58,597.45,111.76z"/>
		<path fill="#191815" d="M563.52,100.53c0.15,0.94,0.26,1.88,0.36,2.81C563.78,102.41,563.66,101.47,563.52,100.53z"/>
	</g>
	<g>
		<path fill="#191815" d="M39.64,145.83c-0.83-0.06-1.59-0.39-2.45-0.42c-1.44-0.04-2.5,0.9-3.77,1.29
			c-0.4,0.12-0.67,0.76-0.02,1.23c0.68,0.5,1.29,1.1,1.95,1.67c-0.12,0.07-0.19,0.14-0.21,0.13c-1.9-0.85-3.81-0.54-5.75-0.13
			c-1.38,0.29-2.76,0.38-4.2,0.34c-2.87-0.08-5.74,0.29-8.61,0.48c-3.91,0.26-7.6-0.58-11.13-2.21c-1.58-0.73-3.11-1.56-4.68-2.32
			c-0.34-0.16-0.5-0.37-0.54-0.75c-0.14-1.09-0.24-2.18-0.22-3.29c0.05-3.85-0.11-7.72,1.02-11.47c0.63-2.07,1.33-4.12,2.04-6.17
			c0.19-0.56,0.18-1.05-0.02-1.59c-1.5-4.09,0.22-7.21,3.4-8.88c0.46-0.24,0.95-0.39,1.49-0.44c3.07-0.25,5.62-1.73,8.1-3.39
			c0.66-0.44,1.08-1.09,1.29-1.84c1.58-5.91,4.65-10.99,8.67-15.54c0.77-0.87,1.44-1.82,2.21-2.7c0.45-0.51,0.48-1,0.26-1.6
			c-0.34-0.91-0.9-1.67-1.55-2.36c-1.29-1.39-2.62-2.74-3.92-4.13c-0.57-0.6-1.07-1.26-1.41-2.02c-0.69-1.53-0.04-2.82,1.59-3.2
			c0.86-0.2,1.72-0.1,2.54,0.14c3.73,1.08,6.9,3.08,9.52,5.95c0.08,0.09,0.14,0.21,0.23,0.29c0.38,0.34,0.36,1.13,0.86,1.17
			c0.45,0.04,0.94-0.38,1.43-0.56c3.35-1.23,6.79-2.19,10.06-3.68c5.89-2.69,10.84-6.41,14.45-11.89c3.06-4.65,6.81-8.72,11.4-11.96
			c5.51-3.89,11.66-6.07,18.29-7.08c4.1-0.63,8.23-0.75,12.36-0.72c0.84,0.01,1.14-0.31,1.19-1.1c0.05-0.95,0-1.9-0.1-2.84
			c-0.47-4.52,0.04-8.96,0.97-13.38c0.17-0.81,0.47-1.58,0.96-2.26c0.62-0.83,1.32-1,2.25-0.53c0.84,0.42,1.47,1.09,2.08,1.78
			c1.8,2.06,3.27,4.35,4.67,6.68c2.48,4.1,4.94,8.22,7.36,12.36c0.4,0.68,0.65,0.86,1.41,0.39c2.07-1.3,4.08-2.69,6.32-3.71
			c1.35-0.62,2.73-1.07,4.24-1.02c0.42,0.01,0.6-0.09,0.62-0.54c0.14-2.6,1.03-5.01,2.06-7.36c1.29-2.92,2.88-5.66,4.85-8.18
			c0.95-1.22,2-2.34,3.42-3.04c0.06,0,0.12,0,0.18,0c1.14,0.41,1.78,1.27,2.26,2.33c1.16,2.6,1.6,5.38,1.92,8.17
			c0.39,3.37,0.59,6.76,0.26,10.16c-0.11,1.17-0.5,2.26-0.79,3.38c-0.06,0.22-0.36,0.54,0.17,0.6c2.25,0.25,3.83,1.66,5.4,3.08
			c0.51,0.46,0.98,0.45,1.68,0.39c3-0.24,6.05-0.62,8.9,0.88c1.19,0.63,1.81,1.45,1.74,2.9c-0.16,3.37-1.19,6.46-2.62,9.46
			c-0.06,0.13-0.16,0.27-0.27,0.36c-1.4,1.03-1.53,2.4-1.11,3.94c0.23,0.84,0.17,1.7,0.16,2.56c-0.01,0.46,0.07,0.73,0.6,0.82
			c2.05,0.36,3.51,1.5,4.34,3.41c0.39,0.9,1.06,1.54,1.91,2.02c0.88,0.5,1.7,1.1,2.38,1.85c1.41,1.55,1.43,3.56,0.06,5.15
			c-0.37,0.44-0.83,0.82-1.01,1.43c2,0.71,3.74,1.83,5.21,3.33c1.46,1.49,2.26,3.27,2.04,5.39c-0.1,0.98,0.26,1.68,0.93,2.34
			c2.81,2.79,5.31,5.83,7.31,9.26c2.18,3.74,3.15,7.83,3.75,12.07c0.51,3.57-0.46,6.84-1.81,10.05c-0.33,0.78-0.28,1.48-0.03,2.28
			c1.1,3.57,0.83,7.07-0.85,10.4c-0.9,1.77-2.42,2.8-4.45,2.98c-0.76,0.07-1.53,0.14-2.29,0.1c-1.2-0.06-2.34-0.1-2.73,1.45
			c-0.12-0.16-0.18-0.19-0.19-0.24c-0.17-0.71,0.34-1.71-0.93-1.96c-0.76-0.15-1.41-0.62-2.29-0.36c-1.72,0.49-3.47,0.2-5.19-0.06
			c-0.77-0.12-1.24-0.07-1.25,0.85c0,0.18,0.04,0.5-0.24,0.52c-0.36,0.03-0.33-0.33-0.33-0.54c0.02-0.98-0.43-1.59-1.23-2.16
			c-0.81-0.58-1.42-1.43-2.19-2.08c-0.82-0.7-1.03-0.6-1.21,0.45c-0.04,0.23,0.02,0.56-0.31,0.58c-0.38,0.02-0.25-0.35-0.29-0.56
			c-0.22-0.99-0.18-2.11-1.35-2.63c-0.11-0.05-0.18-0.32-0.18-0.49c-0.14-3.19,0.26-6.21,2.41-8.79c1.12-1.34,2.53-1.88,4.18-1.93
			c0.79-0.02,0.92-0.23,0.5-0.92c-0.95-1.56-1.37-3.28-1.69-5.08c-0.2-1.15-1.74-1.03-2.59-1.65c-0.42-0.31-0.66,0.15-0.89,0.4
			c-1.36,1.46-2.72,2.89-4.64,3.65c-0.52,0.2-0.87,0.66-1.03,1.23c-0.06,0.23-0.15,0.47-0.24,0.69c-1.82,4.64-7.17,5.82-10.82,2.37
			c-0.69-0.65-1.3-1.38-1.94-2.08c-0.54-0.59-1.1-1.15-1.79-1.56c-1.09-0.64-2.11-0.85-3.32-0.1c-2.1,1.3-4.31,2.43-6.58,3.42
			c-0.24,0.1-0.58,0.07-0.39,0.6c0.79,2.14,0.37,3.31-1.53,4.62c0.48,0.5,0.94,1,1.44,1.48c3.24,3.13,6.47,6.26,9.73,9.36
			c0.44,0.42,0.52,0.63,0.03,1.1c-4.01,3.82-8,7.67-11.96,11.54c-0.45,0.44-0.68,0.36-1.08-0.03c-3.98-3.86-7.96-7.71-11.97-11.53
			c-0.46-0.44-0.39-0.65,0.02-1.05c3.45-3.3,6.88-6.62,10.32-9.93c0.24-0.23,0.49-0.45,0.79-0.73c-1.38-0.61-2.25-1.52-2.43-2.97
			c-0.05-0.38-0.19-0.43-0.54-0.35c-2.96,0.62-5.97,0.48-8.97,0.51c-0.45,0-1.2-0.27-1.31,0.21c-0.17,0.69-0.33,1.54,0.25,2.19
			c0.34,0.38,0.77,0.69,1.06,0.93c-0.01,0.35-0.14,0.31-0.19,0.29c-1.13-0.34-2.17-0.51-3.41-0.05c-0.98,0.37-2.01,0.23-1.67,1.72
			c-0.68,0.67-0.15,1.1,0.3,1.56c0.28,0.28,0.52,0.6,0.82,0.96c-0.41,0.06-0.68-0.16-0.97-0.26c-0.62-0.21-1.27-0.41-1.87-0.07
			c-1.48,0.83-3,0.65-4.55,0.35c-0.29-0.06-0.71-0.35-0.87,0.14c-0.17,0.54-0.78,1.01-0.3,1.67c0.3,0.41,0.58,0.84,0.85,1.41
			c-1.55-0.81-2.77-0.03-4.06,0.59c-0.94,0.46-1.98,0.29-2.98,0.09c-0.71-0.14-0.99,0.01-1.07,0.82c-0.14,1.4-0.1,2.67,1.25,3.72
			c-0.85,0.12-1.39-0.18-1.96-0.32c-1.22-0.29-1.66,0.04-1.68,1.25c0,0.18,0.05,0.4-0.03,0.54c-0.84,1.49,0.11,2.4,1.04,3.33
			c0.18,0.18,0.43,0.35,0.5,0.9c-1.84-1.2-3.26-0.34-4.7,0.64c-0.63,0.42-1.43,0.44-2.21,0.49c-3.42,0.22-6.69-0.49-9.9-1.57
			c-3.68-1.25-7.46-1.26-11.26-0.88c-2.93,0.29-5.59-0.33-7.95-2.12c-0.72-0.54-1.32-1.18-1.72-2c-4.62-9.59-9.33-19.14-13.32-29.02
			c-0.64-1.58-0.59-1.58-2.13-0.78c-3.52,1.82-6.88,3.96-10.71,5.17c-3.82,1.2-7.67,2.1-11.71,1.92c-0.69-0.03-0.9,0.16-0.87,0.86
			c0.06,1.45-0.23,2.86-0.89,4.16c-0.47,0.92-1.08,1.7-2.08,2.11c-0.18,0.07-0.45,0.09-0.39,0.41c0.04,0.24,0.25,0.22,0.42,0.28
			c0.71,0.23,1.25,0.76,1.87,1.12c1.97,1.15,3.92,2.37,6.34,2.33c3.07-0.05,5.94,0.76,8.59,2.25c1.82,1.02,3.19,2.41,3.04,4.72
			c-0.02,0.39,0.18,0.49,0.5,0.62c0.79,0.31,1.6,0.64,1.85,1.59L39.64,145.83z M55.42,77.19c-0.19-0.12-0.3,0.02-0.41,0.13
			c-0.7,0.43-1.4,0.87-2.11,1.29c-2.32,1.37-4.67,2.69-7.25,3.5c-2.83,0.88-5.64,1.82-8.31,3.13c-0.95,0.47-1.91,0.93-2.97,1.14
			c-0.16-0.42,0.05-0.76,0.08-1.12c0.03-0.37,0.06-0.71-0.19-1.04c-2.23-3.08-4.95-5.49-8.7-6.54c-0.54-0.15-1.07-0.24-1.63-0.19
			c-0.79,0.07-1.2,0.5-1.26,1.3c-0.11,1.37,0.46,2.46,1.46,3.31c1.02,0.87,2.13,1.64,3.19,2.47c1.07,0.83,2.07,1.74,2.54,3.07
			c0.13,0.37,0.29,0.38,0.61,0.25c0.2-0.08,0.4-0.3,0.6-0.17c0.26,1.13,0.02,1.99-1.1,2.48c-0.29,0.13-0.54,0.4-0.77,0.65
			c-3.83,4.03-6.82,8.61-9.01,13.72c-0.21,0.49-0.45,1.02-0.39,1.81c0.82-1.09,1.51-2.01,2.21-2.93c1.18-1.56,2.36-3.13,3.81-4.46
			c0.63-0.58,1.27-1.17,2.31-1.39c-0.39,0.62-0.68,1.12-1.01,1.6c-2.55,3.76-5.47,7.21-8.73,10.37c-1.74,1.68-3.73,2.93-5.98,3.84
			c-1.79,0.72-3.67,1.14-5.5,1.75c-2.59,0.86-3.45,2.23-3.2,4.92c0.02,0.24,0,0.52,0.3,0.61c0.38,0.11,0.45-0.22,0.58-0.45
			c0.3-0.52,0.58-1.04,0.88-1.56c-0.28,1.53-0.71,2.99-1.23,4.41c-2.47,6.68-3.43,13.54-2.46,20.62c0.05,0.38,0,0.8,0.41,1.06
			c1.81,1.2,3.61,2.38,5.75,2.97c3.97,1.08,8.01,1.36,12.1,1.23c1.23-0.04,2.21-0.94,2.34-2.16c0.07-0.64,0-1.28-0.15-1.91
			c-0.39-1.59-1.49-2.54-2.85-3.28c-0.89-0.49-1.88-0.83-2.69-1.6c2.87,0.04,5.94,2.21,6.76,4.77c0.29,0.89,0.74,1.49,1.72,1.68
			c0.58,0.11,1.17,0.35,1.28,1.1c-1.36,0.03-2.97-0.83-3.72,1.25c2.51,0.14,4.96,0.52,7.32-0.39c2.41-0.93,2.92-3.22,1.21-5.15
			c-0.47-0.53-1.03-0.95-1.64-1.32c-1.12-0.66-2.34-1.03-3.61-1.27c0-0.08,0.01-0.15,0.01-0.23c1.11,0.02,2.19,0.21,3.23,0.57
			c2.19,0.74,3.89,1.94,4.12,4.48c0.01,0.14-0.01,0.28,0.21,0.33c0.98,0.2,2.65-1.09,2.76-2.1c0.14-1.29-0.37-2.28-1.37-3.02
			c-3.51-2.6-7.45-3.7-11.8-3.34c-1,0.08-1.97,0.43-3,0.29c0.4-0.24,0.82-0.36,1.24-0.49c0.14-0.05,0.3-0.11,0.3-0.3
			c0.01-0.21-0.17-0.23-0.31-0.27c-1.33-0.3-2.6-0.89-4.01-0.87c-0.98,0.01-1.95,0.1-2.93,0.21c-0.55,0.06-0.57-0.3-0.66-0.66
			c-0.15-0.58,0.31-0.4,0.55-0.44c1.03-0.15,2.06-0.28,3.09-0.41c-1.62-1.15-3.37-1.65-5.29-1.52c-0.85,0.06-1.67,0.38-2.53,0.27
			l0.02,0.02c0.34-0.79,1.03-1.07,1.81-1.15c0.92-0.1,1.82,0.02,2.72,0.26c1.2,0.32,2.39,0.34,3.26-0.78
			c1.19-1.55,1.65-3.32,1.55-5.25c-0.03-0.55-0.3-0.87-0.9-0.94c-0.73-0.08-1.45-0.23-2.17-0.35c-1.63-0.29-1.59-0.28-1.19-1.87
			c0.15-0.62,0.48-0.64,0.8-0.34c0.98,0.95,2.24,0.86,3.43,1.07c2.28,0.39,4.58,0.29,6.87,0.07c6.11-0.57,11.34-3.26,16.18-6.83
			c0.25-0.18,0.49-0.37,0.71-0.59c0.34-0.36,0.3-1.52-0.1-1.87c-0.44-0.39-0.72,0.13-1,0.3c-1.92,1.19-3.83,2.41-5.73,3.64
			c-1.52,0.99-3.12,1.81-4.83,2.41c-2.75,0.96-5.52,1.81-8.46,1.96c-0.21,0.01-0.56,0.17-0.58-0.21c-0.02-0.31,0.32-0.2,0.5-0.23
			c1.09-0.17,2.17-0.35,3.24-0.64c5.67-1.53,10.31-4.8,14.69-8.56c1.21-1.04,1.68-2.09,1.29-3.72c-1.08-4.42,0.18-8.28,3.23-11.58
			c3.56-3.85,7.34-7.46,11.6-10.54c0.8-0.58,1.37-1.24,1.68-2.2c0.35-1.07,0.81-2.11,1.46-3.05c0.26-0.37,0.52-0.76,1.1-0.99
			c-0.44,1.39-0.83,2.63-1.3,4.11c1.51-0.93,2.81-1.72,4.18-2.57c0.07,1.13-0.16,1.92-1.11,2.37c-6.39,2.99-11.31,7.76-15.8,13.04
			c-0.87,1.03-1.67,2.11-2.3,3.31c-0.34,0.66-0.57,1.34-0.61,2.09c-0.16,2.99,0.24,5.89,1.17,8.76c2.5,7.68,5.7,15.07,8.98,22.43
			c1.68,3.76,3.44,7.49,5.4,11.12c1.17,2.15,2.8,3.78,5.21,4.47c1.46,0.42,2.95,0.51,4.46,0.34c3.08-0.35,6.1-0.14,9.08,0.76
			c1.84,0.56,3.72,1.01,5.59,1.43c2.36,0.54,4.75,0.94,7.18,0.47c2.16-0.41,3.27-1.76,3.18-3.82c-0.06-1.26-0.46-2.41-1.32-3.34
			c-2.04-2.23-4.63-3.16-7.6-2.88c-0.82,0.08-0.96-0.04-0.96-0.81c0-0.7,0.21-0.93,0.89-0.85c0.42,0.05,0.86,0.01,1.29,0.01
			c3.59-0.03,6.15,1.72,7.98,4.67c0.27,0.44,0.46,0.34,0.77,0.16c0.79-0.47,1.17-1.59,0.95-2.78c-0.54-2.91-4.19-5.87-7.35-5.98
			c-0.52-0.02-1.07,0.1-1.55-0.25c2.44-0.87,4.42,0.8,6.7,1.4c-0.13-0.2-0.17-0.32-0.25-0.4c-4.15-4.54-11.59-5.51-16.06-1.86
			c-0.52,0.42-1.1,0.77-1.67,1.13c-0.33,0.21-0.57,0.18-0.79-0.23c-2.86-5.24-3.98-10.79-3.06-16.71c0.09-0.6,0.17-1.21,0.28-1.81
			c0.1-0.58-0.12-0.7-0.65-0.58c-0.96,0.21-1.91,0.42-2.88,0.54c-1.46,0.18-2.89,0.07-4.18-0.78c1.35,0.35,2.71,0.52,4.08,0.23
			c5-1.03,9.14-3.52,12.54-7.29c0.6-0.66,1.22-1.37,1.43-2.22c0.3-1.21,1.1-1.14,2-1.11c0.45,0.01,0.53,0.2,0.4,0.57
			c-0.65,1.95-1.63,3.69-3.32,4.94c-0.18,0.14-0.53,0.16-0.45,0.49c0.07,0.28,0.39,0.23,0.61,0.32c1.87,0.72,3.82,0.79,5.79,0.72
			c3.95-0.15,7.17-1.83,9.8-4.71c0.33-0.36,0.39-0.69,0.19-1.15c-0.6-1.37-1.22-2.74-1.7-4.15c-1.55-4.56-2.53-9.21-2.72-14.06
			c-0.21-5.17,0.08-10.23,1.37-15.26c1.87-7.26,5.08-13.78,10.06-19.4c0.2-0.23,0.42-0.48,0.43-0.79c0.04-1.53,0.09-3.06,0.09-4.58
			c0-0.78-0.49-1.15-1.23-1.21c-0.36-0.03-0.74-0.01-1.1,0.03c-3.16,0.39-6.26,1.04-9.36,1.78c-5.26,1.25-10.35,2.89-15.07,5.59
			c-1.32,0.76-2.73,1.37-4.1,2.04c-0.03-0.04-0.07-0.08-0.11-0.12c0.23-0.42,0.63-0.66,0.99-0.92c3.64-2.6,7.57-4.6,11.93-5.67
			c2.37-0.58,4.75-1.12,7.13-1.68c0.57-0.13,1.14-0.22,1.7-0.38c0.54-0.15,1.14-0.15,1.8-0.54c-3.01,0.06-5.79,0.46-8.53,1.14
			C79,53.34,70.19,58.27,64.15,67.42c-1.78,2.7-3.71,5.31-5.63,7.92c-1.18,1.6-2.5,3.09-4.13,4.27c-0.69,0.5-1.41,0.95-2.27,1.03
			c1.03-1.06,2.05-2.11,3.06-3.16C55.27,77.38,55.35,77.28,55.42,77.19c0.05-0.03,0.1-0.06,0.14-0.09
			c-0.04-0.02-0.08-0.04-0.12-0.05C55.44,77.09,55.43,77.14,55.42,77.19z M160.5,72.23c-0.17,0.22-0.29,0.46-0.27,0.81
			c0.29-0.26,0.44-0.51,0.49-0.81c0.77-1.58,0.61-3.07-0.42-4.54c-0.25,0.31-0.64,0.46-0.32,0.89
			C160.83,69.69,160.88,70.93,160.5,72.23z M149.67,106.97c-0.19-0.14-0.41-0.27-0.58-0.44c-3.14-3.21-7.03-5.13-11.25-6.45
			c-1.19-0.37-2.41-0.66-3.69-0.64c0.45,2.74,3.36,7.32,5.55,8.89c1.23,0.88,2.41,0.87,3.67,0.1c0.96-0.59,1.65-1.41,2.21-2.46
			c0.72,1.97,1.42,3.83,1.67,5.81c0.27,2.18-0.68,3.52-2.82,3.99c-0.15,0.03-0.3,0.1-0.45,0.1c-0.43,0-0.43,0.2-0.37,0.57
			c0.17,1.12,0.25,2.25,0.42,3.36c0.56,3.72,2.11,6.89,5.3,9.05c3.67,2.49,7.51,1.06,8.45-3.25c1.85-8.44-0.63-16.47-8.88-23.24
			c-3.63-2.98-7.99-4.83-12.49-6.21c-1.21-0.37-2.44-0.7-3.75-0.61c0.26,1.19,0.56,2.23,2.05,2.08c0.06-0.01,0.12,0.03,0.18,0.05
			c5.11,1.48,9.57,4.12,13.6,7.55c0.53,0.45,1.04,0.96,1.36,1.6C149.79,106.88,149.73,106.92,149.67,106.97z M115.85,56.94
			c0.18,0.14,0.36,0.02,0.54,0c0.06,0.06,0.11,0.12,0.17,0.17c-1.94,1.51-3.87,3.03-5.91,4.62c0.9-2.84-1-5.16-0.82-7.76
			c-0.7,0.62-1.3,1.26-1.9,1.9c-1.15,1.22-1.23,1.72-0.46,3.21c0.2,0.38,0.44,0.73,0.69,1.08c0.38,0.52,1.03,0.99,1.1,1.54
			c0.07,0.58-0.72,0.98-1.07,1.52c-1.78,2.73-3.14,5.66-4.2,8.72c-1.15,3.34-2.6,6.63-2.95,10.18c-0.48,4.78-0.57,9.6,0.17,14.36
			c1.14,7.37,3.67,14.24,8.07,20.32c3.08,4.25,6.69,7.85,12.17,8.97c3.31,0.68,6.59,1.42,9.99,1.13c2.52-0.22,5.07-0.43,7.33-1.78
			c0.54-0.32,1.14-0.59,1.42-1.18c-4-2.04-6.79-5.44-9.98-8.64c0,1.59,0,2.98,0,4.38c-0.27-1.6-0.33-3.24-0.66-4.81
			c-1.21-5.83-2.7-11.6-3.08-17.57c-0.35-5.47-0.16-10.87,1.85-16.07c0.35-0.9,0.67-1.82,0.78-2.99c-0.73,0.83-1.33,1.52-2.03,2.32
			c0.03-0.3,0.02-0.46,0.06-0.6c0.69-2.58,4.61-4.89,7.17-4.22c0.48,0.12,0.92,0.34,1.23,0.76c0.31,0.42,0.21,0.81-0.14,1.15
			c-0.3,0.3-0.62,0.49-1.03,0.13c-0.84-0.75-1.84-0.61-3.1-0.53c4.28,4.7,9.43,7.72,14.89,10.3c0.06,0.02,0.13,0.04,0.19,0.05
			c-0.02-0.06-0.04-0.13-0.06-0.19c-0.07-0.2-0.14-0.4-0.2-0.6c-0.81-2.63-0.34-5.26,2.02-6.84c1.57-1.05,3.3-1.59,5.17-1.66
			c0.53-0.02,0.9-0.12,1.23-0.58c1-1.41,2.19-2.55,4.06-2.67c0.01,0,0.02-0.11,0.03-0.19c-0.72-0.14-1.44-0.29-2.16-0.42
			c-2-0.35-2.09-0.41-0.85-2.08c2.06-2.79,3.81-5.74,5.3-8.87c0.71-1.49,1.54-2.92,2.56-4.23c0.36-0.46,0.74-0.9,1.27-1.17
			c0.16-0.08,0.43-0.31,0.52,0.02c0.11,0.44,0.07,0.91-0.03,1.36c-0.1,0.42-0.44,0.2-0.68,0.26c-0.12,0.03-0.25,0.03-0.35,0.09
			c-0.43,0.26-0.88,0.58-0.97,1.05c-0.5,2.51-0.94,5.03-1.42,7.67c0.77-0.38,1.08-0.99,1.4-1.56c1.55-2.8,2.66-5.76,3.33-8.88
			c0.32-1.49,0.01-2.03-1.42-2.62c-1.87-0.77-3.84-0.67-5.79-0.66c-0.18,0-0.4-0.01-0.38,0.26c0.02,0.24,0.25,0.23,0.43,0.24
			c0.71,0.05,1.42,0.03,2.16,0.23c-0.45,0.72-1.03,0.87-1.72,0.8c-1.89-0.18-3.31-1.22-4.56-2.51c-1.16-1.2-2.52-1.87-4.19-1.63
			c-1.79,0.26-2.96-0.8-4.41-1.77c0.29-0.02,0.4-0.01,0.5-0.03c0.25-0.05,0.65,0.16,0.71-0.17c0.08-0.43-0.41-0.36-0.66-0.46
			c-1.27-0.51-2.55-1.03-3.84-1.5c-2.88-1.05-5.82-1.67-8.9-1.2c-2.16,0.33-4.03,1.38-5.9,2.42c-1.01,0.57-2.03,1.11-3.13,1.51
			c-1.74,0.62-4.26-0.31-5.07-2.3c-1.72-4.22-3.88-8.23-6.46-12c-0.83-1.21-1.69-2.41-2.87-3.32c-1.37-1.07-2.28-0.75-2.74,0.93
			c-0.04,0.15-0.06,0.3-0.09,0.45c-0.45,2.81-0.13,5.61,0.1,8.41c0.15,1.72,0.68,3.43,0.28,5.19c-0.42,1.88-0.91,3.73-1.44,5.58
			c-0.07,0.14-0.1,0.35,0.02,0.38c0.28,0.06,0.28-0.2,0.32-0.39c0.64-1.45,1.3-2.89,1.9-4.36c0.59-1.44,1.12-2.9,1.65-4.36
			s0.88-2.97,1.11-4.71c0.94,2.58,1.8,4.96,2.68,7.33c0.24,0.65,0.33,1.28,0.24,1.97c-0.27,2.02,0.38,3.9,0.8,5.94
			c1.18-0.8,2.23-1.51,3.38-2.29c-0.06,1.07-0.63,1.63-1.35,2.09c-0.69,0.44-1.44,0.82-2.03,1.41l0.02,0.03L115.85,56.94z
			 M184.05,131.08c0.24-0.1,0.34-0.18,0.46-0.18c0.73-0.05,1.47-0.08,2.2-0.11c0.54-0.02,1-0.11,1.29-0.67
			c2.17-4.13,3.2-8.48,2.21-13.1c-1.47-6.86-5.13-12.47-10.17-17.26c-0.59-0.56-0.94-0.58-1.37,0.15c-0.55,0.94-1.19,1.83-1.8,2.74
			c0.44-1.52,1.03-2.96,1.64-4.38c0.31-0.73,0.37-1.47,0.27-2.24c-0.37-2.71-4.03-6.08-6.76-6.22c-0.25-0.01-0.49-0.08-0.57,0.27
			c-0.72,2.89-3,4.25-5.42,5.45c-0.3,0.15-0.62,0.34-1,0.26c0.15-0.85,0.42-1.66,0.41-2.47c0-0.81-0.29-1.61-0.43-2.43
			c-0.08-0.48-0.1-0.97-0.14-1.46c-0.01-0.17,0.05-0.34-0.15-0.48c-1.49-1.02-3.6-0.19-3.89,1.58c-0.22,1.36-0.34,2.73-0.13,4.11
			c0.44,2.97,1.6,5.69,2.99,8.32c1.25,2.37,2.13,4.86,2.82,7.43c0.61,2.26,0.76,4.51,0.05,6.77c-0.12,0.4-0.34,0.87-0.11,1.24
			c0.46,0.77,1.11,1.37,1.92,1.78c0.64,0.33,1.03-0.2,1.5-0.42c1.11-0.52,2.16-1.16,3.38-1.42c-0.84,0.67-1.73,1.25-2.59,1.87
			c-0.42,0.3-0.88,0.64-0.88,1.22c0,1.74-0.15,3.48,0.46,5.17c0.58,1.6,0.56,1.68,2.2,1.03c2.37-0.93,4.84-0.95,7.32-0.93
			c0.16,0,0.42-0.08,0.45,0.16c0.05,0.36-0.28,0.25-0.45,0.27c-1.49,0.19-2.96,0.46-4.39,0.91c-0.53,0.16-1.1,0.27-1.6,0.79
			c1.09,0.23,2.07,0.43,3.05,0.63c0.19,0.04,0.44-0.02,0.48,0.3c0.09,0.75-0.59,1.35-1.31,1.09c-2.24-0.82-4.53-1.21-6.93-1.08
			c-0.96,0.05-1.73,0.33-2.36,1.02c-1.73,1.88-2.75,4.09-3.07,6.62c-0.07,0.58,0.04,1.17,0.07,1.82c1.41-0.8,1.51-0.77,1.7,0.67
			c0.05,0.39,0.22,0.43,0.53,0.43c0.44,0.01,0.38-0.29,0.39-0.56c0.02-1.62,0.43-3.14,1.16-4.58c0.24-0.46,0.48-0.94,0.96-1.27
			c0.12,0.38-0.05,0.63-0.16,0.87c-0.98,2.08-0.86,4.28-0.72,6.49c0.04,0.63,0.28,1.19,0.76,1.62c0.38,0.35,0.75,0.67,1.15-0.01
			c0.16-0.27,0.44-0.43,0.79-0.33c0.33,0.09,0.41,0.35,0.4,0.64c-0.02,0.68,0.43,0.88,0.98,0.98c1.03,0.2,2.08,0.08,3.12,0.14
			c0.57,0.03,0.73-0.15,0.72-0.72c-0.05-2.14,0.53-4.16,1.28-6.15c0.15-0.4,0.33-0.79,0.64-1.1c0.18-0.18,0.41-0.26,0.67-0.13
			c0.26,0.13,0.34,0.35,0.27,0.61c-0.06,0.27-0.15,0.53-0.26,0.78c-0.78,1.76-0.79,3.63-0.75,5.49c0.01,0.83,0.54,1.31,1.28,1.61
			c0.72,0.29,1.22,0.08,1.64-0.53c0.15-0.22,0.29-0.59,0.71-0.4c0.32,0.15,0.48,0.41,0.43,0.74c-0.13,0.86,0.34,0.96,1.02,0.89
			c0.33-0.03,0.67,0.01,1.01-0.01c2.33-0.15,4.07-1.15,4.98-3.41c0.54-1.35,0.9-2.73,1-4.17c0.12-1.72,0.03-3.42-0.77-5.01
			c-0.37-0.74-0.87-1.21-1.73-1.31C185.96,131.43,185.07,131.25,184.05,131.08z M126,129.13c-0.3-0.29-0.62-0.31-0.9-0.4
			c-2.62-0.84-5.32-1.42-7.88-2.41c-6.99-2.71-12.8-6.95-17.04-13.23c-1.18-1.74-1.25-1.68-2.8-0.28c-2.41,2.18-5.28,3.19-8.52,3.34
			c-2.52,0.12-4.93-0.31-7.26-1.23c-0.44-0.17-0.94-0.49-1.4-0.2c-1.62,1.03-3.27,2.02-4.99,2.89c-0.64,0.32-0.73,1.12-0.66,1.8
			c0.06,0.55,0.67,0.39,1.02,0.58c0.21,0.12,0.46,0.17,0.68,0.26c8.07,3.21,16.28,5.94,24.81,7.71
			C109.29,129.67,117.55,130.08,126,129.13z M108.67,131.83c1.24,0.33,2.13,1.01,2.73,1.97c0.43,0.69,0.89,0.85,1.63,0.69
			c0.81-0.18,1.4-0.7,1.72-1.36c0.59-1.2,0.31-1.57-0.98-1.6c-2.02-0.04-4.03-0.29-6.02-0.64c-5.33-0.93-10.63-1.97-15.78-3.67
			c-1.15-0.38-2.22-0.28-3.28,0.25c-1.04,0.52-2.08,1.02-3.13,1.53c-0.73,0.36-1.18-0.27-1.4-0.66c-0.34-0.61,0.44-0.5,0.71-0.6
			c1.3-0.44,2.63-0.8,4.14-1.25c-1.2-0.47-2.19-0.87-3.18-1.26c-3.66-1.45-7.33-2.89-10.98-4.37c-0.63-0.25-0.84-0.22-0.83,0.53
			c0.02,1.02,0.09,2,0.51,2.95c0.82,1.83,1.78,3.62,3.28,4.92c1.12,0.97,1.62,1.76,0.73,3.07c-0.06,0.1-0.08,0.23-0.1,0.35
			c-0.3,1.72-0.15,1.86,1.51,1.42c0.53-0.14,1.06-0.28,1.59-0.43c1.62-0.46,3.28-0.54,4.9-0.1c3.43,0.92,6.61,2.26,8.42,5.63
			c0.26,0.48,0.63,0.9,0.98,1.32c0.77,0.92,1.73,1.43,2.96,1.37c0.61-0.03,1.22-0.01,1.84-0.01c0.85,0,1.47-0.35,1.81-1.15
			c0.18-0.41,0.41-0.76,0.88-0.86c0.91-0.2,1.1-0.86,1.09-1.66c-0.02-1.35-0.69-2.38-1.66-3.24c-1.7-1.49-3.74-2.29-5.93-2.72
			c-0.77-0.15-1.56-0.22-2.34-0.33c0.99-0.16,1.95-0.12,2.92-0.07c2.42,0.12,4.5,1.07,6.28,2.67c0.83,0.75,1.6,1.61,1.61,2.78
			c0,0.84,0.37,1.13,1.08,1.36c1.5,0.48,3.73-0.22,4.42-1.44c0.71-1.26,0.22-3.15-1.08-4.27
			C109.36,132.66,108.88,132.46,108.67,131.83z M129.71,81.71c-0.2-0.02-0.25,0.12-0.29,0.22c-0.17,0.42-0.36,0.84-0.49,1.28
			c-0.93,3.22-1.34,6.52-1.44,9.86c-0.16,5.38,0.75,10.65,1.74,15.92c0.42,2.26,1.1,4.34,2.79,6.05c1.94,1.96,3.81,3.98,5.93,5.75
			c0.63,0.53,1.3,1.03,2,1.45c1.23,0.72,2.79-0.18,2.82-1.6c0.03-1.07,0-2.14-0.01-3.21c0-0.24,0.06-0.49-0.21-0.65
			c-1.51-0.92-2.3-2.43-3.16-3.86c-2.31-3.83-4.18-7.87-6.04-11.93c-1.94-4.24-2.98-8.71-3.32-13.35
			C129.89,85.65,129.82,83.67,129.71,81.71z M154.25,89.48c0.18,0,0.55,0.02,0.91,0c2.61-0.2,5.16-0.67,7.37-2.2
			c0.99-0.68,1.74-1.55,1.89-2.8c0.23-1.85-0.08-2.12-1.94-1.88c-1.24,0.16-2.47,0.45-3.74,0.3c-0.71-0.08-1.28-0.36-1.66-0.99
			c-0.49-0.81-1-1.61-1.49-2.42c-0.18-0.29-0.33-0.54-0.76-0.55c-2.17-0.03-4.2,0.44-5.94,1.78c-2.93,2.25-2.61,6.08,0.64,7.84
			C150.95,89.33,152.48,89.56,154.25,89.48z M145.37,35.77c0.09,0.01,0.18,0.01,0.28,0.02c0.03,0.48,0.05,0.95,0.08,1.43
			c0.18,3.42,0.05,6.85-0.03,10.27c-0.02,0.89,0.35,1.3,1.17,1.43c0.24,0.04,0.48,0.07,0.72,0.13c0.33,0.08,0.43,0.01,0.53-0.37
			c1.1-4.21,1.47-8.48,1.04-12.81c-0.18-1.86-0.45-3.7-1.28-5.41c-0.94-1.95-2.23-2.13-3.7-0.56c-0.74,0.79-1.29,1.71-1.79,2.66
			c-1.84,3.54-3.06,7.31-4.22,11.1c-0.11,0.35-0.13,0.72-0.17,1.09c-0.1,0.94,0.7,0.66,1.15,0.78c0.66,0.19,0.49-0.36,0.49-0.67
			c0-0.87,0.18-1.69,0.45-2.51c0.74-2.23,1.94-4.25,2.9-6.39c0.8,0.76,0.94,1.56,0.49,2.56c-0.67,1.47-1.39,2.93-1.76,4.51
			c-0.47,1.96,0.32,3.44,2.09,3.94C144.32,43.24,144.59,39.46,145.37,35.77z M162.03,102.76c0,0.25-0.02,0.35,0,0.43
			c0.86,3.02,0.5,5.98-0.33,8.95c-0.24,0.87-0.6,1.57-1.39,2.04c-0.39,0.23-0.81,0.57-0.64,1.11c0.69,2.2,0.12,4.37-0.11,6.54
			c-0.04,0.35-0.27,0.83,0.03,1.04c0.32,0.22,0.77-0.04,1.13-0.21c1.74-0.86,2.93-2.28,3.92-3.89c0.83-1.35,1.38-2.78,1.21-4.42
			c-0.17-1.68-0.46-3.33-0.91-4.95C164.29,107.09,163.4,104.91,162.03,102.76z M131.01,156.43c0.18-0.16,0.34-0.29,0.49-0.44
			c3.43-3.31,6.86-6.63,10.31-9.93c0.39-0.37,0.47-0.57,0.03-0.98c-3.47-3.31-6.93-6.65-10.37-10c-0.38-0.37-0.58-0.33-0.94,0.01
			c-3.47,3.37-6.95,6.72-10.44,10.06c-0.3,0.29-0.38,0.44-0.03,0.78c3.51,3.36,7.01,6.74,10.51,10.12
			C130.7,156.18,130.84,156.29,131.01,156.43z M166.08,82.5c0.1,1.13-0.11,2.53-1.03,3.8c-1.03,1.4-1,1.47,0.65,1.86
			c2.02,0.47,4.02,0.39,5.86-0.69c1.79-1.05,2.4-3,1.33-4.62c-1.57-2.37-3.98-3.41-6.7-3.85c-0.44-0.07-0.57,0.09-0.38,0.51
			C166.18,80.35,166.06,81.25,166.08,82.5z M159.24,90.48c-1.91,1.65-2.3,10.88-0.71,15.06c0.88-0.86,1.75-1.71,2.51-2.67
			c0.49-0.6,0.59-1.1,0.18-1.84c-1.38-2.49-2.27-5.12-1.99-8.04C159.31,92.18,159.24,91.36,159.24,90.48z M147.17,96.32
			c1.62-1.57,3.21-2.91,4.34-4.68c0.57-0.89,0.44-1.48-0.45-1.86c-1.78-0.75-3.62-0.75-5.45-0.13c-0.73,0.25-0.9,0.78-0.56,1.45
			c0.42,0.84,0.88,1.67,1.3,2.51C146.74,94.41,147.19,95.18,147.17,96.32z M161.44,103.88c-1.3,1.66-2.83,2.78-4.4,3.83
			c-0.69,0.46-0.81,1-0.53,1.72c0.42,1.05,1.09,1.9,1.98,2.59c1.47,1.15,2.33,0.82,2.61-1
			C161.45,108.72,161.48,106.41,161.44,103.88z M145.45,107.46c-1.18,1.62-2.68,2.63-4.16,3.64c-0.67,0.46-0.7,0.94-0.25,1.52
			c0.66,0.85,1.53,1.39,2.56,1.66c1.42,0.38,2.16-0.15,2.27-1.63C146,110.94,145.72,109.27,145.45,107.46z M165.92,94.93
			c1.62-0.9,3.51-2.39,4.13-3.24c0.72-0.97,0.56-1.68-0.5-2.22c-0.81-0.41-1.68-0.57-2.58-0.48c-1.32,0.14-1.62,0.59-1.37,1.88
			C165.85,92.2,166.3,93.52,165.92,94.93z M159.56,74.75c2.28-0.4,3.82,0.54,4.78,2.38c0.53,1.03,1.2,1.35,2.26,1.02
			c0.09-0.03,0.18-0.03,0.27-0.03c0.94,0.05,0.76-0.41,0.4-0.91c-0.91-1.22-2.1-2.05-3.58-2.37c-0.47-0.1-0.6-0.25-0.58-0.69
			c0.03-0.73,0.03-1.47,0-2.2c-0.04-0.83-0.32-1.56-1.17-2.22C162.11,71.94,160.99,73.39,159.56,74.75z M113.45,51.44
			c-0.93,1.17-1.76,2.22-2.6,3.26c-0.18,0.22-0.17,0.44-0.09,0.69c0.36,1.13,0.71,2.26,1.1,3.38c0.19,0.55,0.6,0.56,0.87,0.12
			c0.38-0.61,0.93-1.04,1.44-1.52c0.36-0.33,0.62-0.73,0.59-1.19c-0.08-1.07-0.26-2.12-0.62-3.31c-0.87,1.04-1.64,1.96-2.41,2.87
			c-0.07-0.05-0.15-0.09-0.22-0.14C112.01,54.21,113.51,53.28,113.45,51.44z M73.41,125.81c0.05,3.31,0.77,6.44,2.3,9.61
			c0.21-1.1,0.4-1.93,0.81-2.69c0.3-0.55,0.98-1.14,0.89-1.58c-0.12-0.55-0.88-0.95-1.33-1.44
			C75.01,128.54,74.25,127.16,73.41,125.81z M99.94,101.09c0.02-0.8-0.62-1.45-1.43-1.45c-0.79,0-1.48,0.67-1.47,1.44
			c0.01,0.73,0.65,1.37,1.41,1.4C99.24,102.52,99.92,101.88,99.94,101.09z M100.09,76.47c0-0.78-0.67-1.43-1.47-1.42
			c-0.75,0.01-1.42,0.64-1.45,1.37c-0.03,0.75,0.66,1.45,1.44,1.47C99.41,77.9,100.09,77.25,100.09,76.47z M104.2,65.2
			c-0.01-0.76-0.65-1.38-1.43-1.39c-0.8-0.01-1.48,0.66-1.46,1.45c0.01,0.8,0.69,1.42,1.52,1.38
			C103.62,66.59,104.21,65.98,104.2,65.2z M98.43,89.39c-0.01-0.78-0.68-1.4-1.5-1.38c-0.81,0.02-1.46,0.68-1.42,1.46
			c0.04,0.75,0.67,1.33,1.46,1.33C97.79,90.8,98.44,90.18,98.43,89.39z M103.13,113.08c0.69-0.07,1.12-0.45,1.11-1.12
			c-0.01-0.67-0.45-1.05-1.12-1.08c-0.64-0.03-1.22,0.55-1.15,1.15C102.05,112.71,102.49,113.04,103.13,113.08z M158.62,74.18
			c-0.81-0.38-1.71-0.56-2.5-1.02c-0.42-0.25-0.54,0.17-0.65,0.4c-0.2,0.43,0.22,0.32,0.4,0.37
			C156.77,74.15,157.68,74.24,158.62,74.18z M158.58,69.47c-0.12,0.3-0.47,0.43-0.33,0.72c0.07,0.15,0.45,0.17,0.56,0.03
			C159.02,69.96,158.73,69.78,158.58,69.47z M160.15,73.23c-0.02-0.02-0.03-0.04-0.05-0.06c-0.02,0.02-0.04,0.04-0.05,0.06
			c0.03,0.02,0.05,0.04,0.08,0.06C160.13,73.27,160.14,73.25,160.15,73.23z"/>
		<path fill="#191815" d="M39.62,145.84c0.03,0.04,0.06,0.07,0.09,0.11c-0.03,0-0.05,0-0.08,0c0-0.04,0.01-0.08,0.02-0.13
			C39.64,145.83,39.62,145.84,39.62,145.84z"/>
		<path fill="#FDE300" d="M26.01,140.67c1.27,0.24,2.49,0.61,3.61,1.27c0.61,0.36,1.17,0.78,1.64,1.32
			c1.71,1.93,1.19,4.23-1.21,5.15c-2.36,0.91-4.81,0.54-7.32,0.39c0.75-2.08,2.36-1.22,3.72-1.25c-0.11-0.75-0.71-0.99-1.28-1.1
			c-0.98-0.19-1.43-0.79-1.72-1.68c-0.83-2.56-3.9-4.74-6.76-4.77c0.82,0.77,1.8,1.11,2.69,1.6c1.36,0.75,2.47,1.7,2.85,3.28
			c0.15,0.63,0.22,1.27,0.15,1.91c-0.13,1.22-1.11,2.12-2.34,2.16c-4.09,0.13-8.13-0.15-12.1-1.23c-2.15-0.58-3.95-1.76-5.75-2.97
			c-0.4-0.27-0.35-0.68-0.41-1.06c-0.97-7.09,0-13.94,2.46-20.62c0.53-1.42,0.95-2.88,1.23-4.41c-0.29,0.52-0.58,1.04-0.88,1.56
			c-0.13,0.22-0.21,0.56-0.58,0.45c-0.3-0.09-0.27-0.37-0.3-0.61c-0.25-2.69,0.61-4.06,3.2-4.92c1.82-0.61,3.7-1.02,5.5-1.75
			c2.24-0.91,4.24-2.16,5.98-3.84c3.26-3.16,6.18-6.61,8.73-10.37c0.32-0.48,0.62-0.98,1.01-1.6c-1.03,0.22-1.67,0.81-2.31,1.39
			c-1.45,1.33-2.63,2.9-3.81,4.46c-0.7,0.92-1.39,1.85-2.21,2.93c-0.06-0.79,0.18-1.31,0.39-1.81c2.19-5.1,5.18-9.69,9.01-13.72
			c0.23-0.24,0.47-0.52,0.77-0.65c1.12-0.48,1.36-1.34,1.1-2.48c-0.2-0.12-0.41,0.09-0.6,0.17c-0.32,0.14-0.47,0.13-0.6-0.24
			c-0.46-1.33-1.47-2.23-2.54-3.07c-1.06-0.83-2.17-1.6-3.19-2.47c-1-0.85-1.57-1.93-1.46-3.31c0.06-0.8,0.47-1.23,1.26-1.3
			c0.56-0.05,1.09,0.04,1.63,0.19c3.75,1.06,6.47,3.46,8.7,6.54c0.24,0.34,0.22,0.68,0.19,1.04c-0.03,0.36-0.24,0.7-0.08,1.12
			c1.06-0.22,2.02-0.68,2.97-1.14c2.67-1.32,5.47-2.25,8.31-3.13c2.58-0.81,4.93-2.12,7.25-3.5c0.71-0.42,1.41-0.86,2.11-1.29
			c0.06,0.06,0.12,0.11,0.17,0.17c-1.02,1.05-2.04,2.1-3.06,3.16c0.86-0.08,1.58-0.53,2.27-1.03c1.63-1.18,2.95-2.67,4.13-4.27
			c1.92-2.61,3.85-5.22,5.63-7.92C70.19,58.28,79,53.35,89.37,50.77c2.73-0.68,5.52-1.08,8.53-1.14c-0.67,0.39-1.26,0.39-1.8,0.54
			c-0.56,0.16-1.13,0.25-1.7,0.38c-2.38,0.56-4.76,1.1-7.13,1.68c-4.36,1.07-8.29,3.07-11.93,5.67c-0.37,0.26-0.77,0.5-0.99,0.92
			c-0.08,0.02-0.17,0.05-0.11,0.15c0.02,0.03,0.14-0.01,0.21-0.02c1.37-0.68,2.78-1.28,4.1-2.04c4.71-2.7,9.81-4.34,15.07-5.59
			c3.1-0.74,6.2-1.39,9.36-1.78c0.36-0.04,0.74-0.06,1.1-0.03c0.74,0.05,1.23,0.43,1.23,1.21c0,1.53-0.04,3.06-0.09,4.58
			c-0.01,0.31-0.23,0.56-0.43,0.79c-4.99,5.62-8.19,12.14-10.06,19.4c-1.3,5.04-1.58,10.1-1.37,15.26c0.19,4.85,1.17,9.5,2.72,14.06
			c0.48,1.41,1.1,2.78,1.7,4.15c0.2,0.46,0.14,0.79-0.19,1.15c-2.64,2.89-5.86,4.56-9.8,4.71c-1.97,0.08-3.92,0.01-5.79-0.72
			c-0.22-0.08-0.54-0.03-0.61-0.32c-0.08-0.33,0.26-0.35,0.45-0.49c1.69-1.26,2.66-2.99,3.32-4.94c0.12-0.37,0.05-0.55-0.4-0.57
			c-0.9-0.03-1.7-0.1-2,1.11c-0.21,0.84-0.83,1.56-1.43,2.22c-3.4,3.77-7.55,6.26-12.54,7.29c-1.38,0.28-2.73,0.12-4.08-0.23
			c1.29,0.85,2.72,0.96,4.18,0.78c0.97-0.12,1.93-0.33,2.88-0.54c0.53-0.12,0.76,0,0.65,0.58c-0.11,0.6-0.19,1.21-0.28,1.81
			c-0.93,5.93,0.2,11.47,3.06,16.71c0.22,0.41,0.46,0.44,0.79,0.23c0.57-0.36,1.15-0.7,1.67-1.13c4.47-3.65,11.91-2.68,16.06,1.86
			c0.08,0.09,0.13,0.2,0.25,0.4c-2.28-0.6-4.26-2.27-6.7-1.4c0.48,0.35,1.02,0.23,1.55,0.25c3.16,0.11,6.81,3.07,7.35,5.98
			c0.22,1.19-0.16,2.31-0.95,2.78c-0.3,0.18-0.49,0.27-0.77-0.16c-1.83-2.94-4.38-4.7-7.98-4.67c-0.43,0-0.86,0.04-1.29-0.01
			c-0.68-0.08-0.88,0.15-0.89,0.85c0,0.78,0.14,0.89,0.96,0.81c2.97-0.28,5.56,0.65,7.6,2.88c0.85,0.94,1.26,2.08,1.32,3.34
			c0.09,2.06-1.02,3.4-3.18,3.82c-2.43,0.47-4.82,0.06-7.18-0.47c-1.88-0.43-3.75-0.88-5.59-1.43c-2.98-0.91-6-1.11-9.08-0.76
			c-1.51,0.17-3,0.08-4.46-0.34c-2.41-0.69-4.05-2.32-5.21-4.47c-1.97-3.63-3.72-7.36-5.4-11.12c-3.28-7.36-6.48-14.75-8.98-22.43
			c-0.93-2.86-1.33-5.76-1.17-8.76c0.04-0.75,0.26-1.44,0.61-2.09c0.63-1.2,1.42-2.28,2.3-3.31c4.49-5.28,9.41-10.05,15.8-13.04
			c0.95-0.45,1.18-1.24,1.11-2.37c-1.38,0.84-2.67,1.64-4.18,2.57c0.47-1.48,0.86-2.72,1.3-4.11c-0.59,0.23-0.85,0.62-1.1,0.99
			c-0.65,0.94-1.11,1.98-1.46,3.05c-0.31,0.95-0.88,1.62-1.68,2.2c-4.25,3.09-8.04,6.7-11.6,10.54c-3.05,3.3-4.31,7.15-3.23,11.58
			c0.4,1.63-0.07,2.68-1.29,3.72c-4.38,3.75-9.02,7.02-14.69,8.56c-1.07,0.29-2.15,0.46-3.24,0.64c-0.18,0.03-0.52-0.08-0.5,0.23
			c0.02,0.38,0.38,0.22,0.58,0.21c2.93-0.15,5.71-1,8.46-1.96c1.71-0.6,3.31-1.42,4.83-2.41c1.9-1.24,3.8-2.45,5.73-3.64
			c0.28-0.17,0.56-0.69,1-0.3c0.4,0.35,0.45,1.51,0.1,1.87c-0.21,0.22-0.46,0.4-0.71,0.59c-4.84,3.57-10.07,6.26-16.18,6.83
			c-2.29,0.21-4.58,0.32-6.87-0.07c-1.19-0.2-2.45-0.12-3.43-1.07c-0.31-0.3-0.64-0.28-0.8,0.34c-0.4,1.59-0.44,1.58,1.19,1.87
			c0.72,0.13,1.45,0.27,2.17,0.35c0.6,0.07,0.87,0.39,0.9,0.94c0.1,1.93-0.36,3.7-1.55,5.25c-0.86,1.13-2.06,1.1-3.26,0.78
			c-0.9-0.24-1.8-0.36-2.72-0.26c-0.78,0.08-1.47,0.36-1.81,1.15c-0.02,0.01-0.05,0.01-0.07,0.02c-0.01,0.01,0,0.03,0,0.05
			c0.02-0.03,0.03-0.06,0.05-0.09c0.87,0.12,1.68-0.21,2.53-0.27c1.91-0.13,3.66,0.37,5.29,1.52c-1.03,0.14-2.06,0.26-3.09,0.41
			c-0.25,0.04-0.7-0.14-0.55,0.44c0.09,0.36,0.11,0.72,0.66,0.66c0.97-0.11,1.94-0.2,2.93-0.21c1.42-0.02,2.68,0.57,4.01,0.87
			c0.14,0.03,0.32,0.06,0.31,0.27c-0.01,0.18-0.16,0.25-0.3,0.3c-0.42,0.14-0.84,0.26-1.24,0.49c1.03,0.14,2-0.21,3-0.29
			c4.35-0.36,8.29,0.74,11.8,3.34c0.99,0.74,1.51,1.73,1.37,3.02c-0.11,1.01-1.77,2.3-2.76,2.1c-0.22-0.04-0.2-0.18-0.21-0.33
			c-0.23-2.54-1.93-3.74-4.12-4.48c-1.05-0.35-2.13-0.55-3.23-0.57c-0.41-0.13-0.81-0.14-1.22,0.14
			C25.21,140.61,25.61,140.64,26.01,140.67z M71.42,84.55c0-0.78,0.01-1.56,0-2.33c-0.05-4.08,3.21-10.18,9.07-11.63
			c2.77-0.69,5.59-0.62,8.4-0.47c1.95,0.1,3.9,0.22,5.84,0.34c0.02-0.2-0.08-0.21-0.16-0.24c-4.5-1.48-9.07-2.22-13.82-1.68
			c-4.81,0.55-8.2,3.21-9.61,7.81C70.3,79.09,70.34,81.84,71.42,84.55z"/>
		<path fill="#FDE300" d="M146.15,87.55c-5.45-2.59-10.61-5.6-14.89-10.3c1.27-0.08,2.27-0.22,3.1,0.53
			c0.41,0.37,0.73,0.17,1.03-0.13c0.35-0.34,0.45-0.73,0.14-1.15c-0.31-0.41-0.75-0.63-1.23-0.76c-2.56-0.67-6.48,1.64-7.17,4.22
			c-0.04,0.14-0.03,0.29-0.06,0.6c0.7-0.8,1.3-1.49,2.03-2.32c-0.1,1.17-0.43,2.1-0.78,2.99c-2.02,5.2-2.2,10.59-1.85,16.07
			c0.38,5.98,1.87,11.74,3.08,17.57c0.33,1.57,0.38,3.21,0.66,4.81c0-1.39,0-2.79,0-4.38c3.19,3.2,5.98,6.6,9.98,8.64
			c-0.28,0.59-0.88,0.86-1.42,1.18c-2.26,1.34-4.8,1.56-7.33,1.78c-3.4,0.29-6.68-0.45-9.99-1.13c-5.48-1.12-9.08-4.72-12.17-8.97
			c-4.41-6.08-6.94-12.95-8.07-20.32c-0.74-4.76-0.65-9.58-0.17-14.36c0.36-3.55,1.8-6.83,2.95-10.18c1.06-3.07,2.42-6,4.2-8.72
			c0.35-0.53,1.14-0.94,1.07-1.52c-0.07-0.55-0.72-1.02-1.1-1.54c-0.25-0.35-0.5-0.7-0.69-1.08c-0.77-1.49-0.69-1.99,0.46-3.21
			c0.6-0.64,1.2-1.28,1.9-1.9c-0.18,2.6,1.72,4.92,0.82,7.76c2.04-1.6,3.98-3.11,5.91-4.62c0.1-0.08,0.27-0.11,0.25-0.3
			c0.05-0.02,0.1-0.04,0.16-0.06c-0.03-0.03-0.06-0.06-0.09-0.09c-0.02,0.05-0.05,0.09-0.07,0.14c-0.17-0.06-0.31,0-0.42,0.13
			c-0.18,0.02-0.36,0.13-0.54,0l-0.01,0.02c0.59-0.59,1.34-0.96,2.03-1.4c0.72-0.46,1.28-1.02,1.35-2.09
			c-1.15,0.78-2.19,1.48-3.38,2.29c-0.42-2.04-1.07-3.92-0.8-5.94c0.09-0.69,0-1.32-0.24-1.97c-0.88-2.37-1.74-4.75-2.68-7.33
			c-0.23,1.74-0.58,3.25-1.11,4.71s-1.06,2.92-1.65,4.36c-0.6,1.47-1.27,2.91-1.9,4.36c-0.11,0-0.23,0-0.34,0.01
			c0.53-1.85,1.02-3.7,1.44-5.58c0.39-1.76-0.14-3.46-0.28-5.19c-0.24-2.8-0.55-5.6-0.1-8.41c0.02-0.15,0.05-0.3,0.09-0.45
			c0.47-1.68,1.37-2,2.74-0.93c1.18,0.91,2.04,2.11,2.87,3.32c2.58,3.77,4.74,7.78,6.46,12c0.81,1.99,3.34,2.92,5.07,2.3
			c1.1-0.39,2.12-0.94,3.13-1.51c1.87-1.05,3.74-2.1,5.9-2.42c3.08-0.47,6.03,0.15,8.9,1.2c1.29,0.47,2.56,0.99,3.84,1.5
			c0.25,0.1,0.74,0.03,0.66,0.46c-0.06,0.33-0.47,0.12-0.71,0.17c-0.1,0.02-0.21,0.02-0.5,0.03c1.45,0.97,2.62,2.03,4.41,1.77
			c1.66-0.24,3.02,0.43,4.19,1.63c1.25,1.29,2.67,2.33,4.56,2.51c0.69,0.07,1.27-0.08,1.72-0.8c-0.74-0.2-1.46-0.19-2.16-0.23
			c-0.18-0.01-0.4,0-0.43-0.24c-0.03-0.27,0.2-0.26,0.38-0.26c1.96-0.01,3.93-0.1,5.79,0.66c1.43,0.59,1.74,1.13,1.42,2.62
			c-0.67,3.12-1.79,6.09-3.33,8.88c-0.32,0.57-0.63,1.18-1.4,1.56c0.48-2.64,0.92-5.16,1.42-7.67c0.09-0.48,0.55-0.8,0.97-1.05
			c0.1-0.06,0.23-0.06,0.35-0.09c0.24-0.06,0.59,0.15,0.68-0.26c0.11-0.45,0.15-0.92,0.03-1.36c-0.08-0.33-0.35-0.1-0.52-0.02
			c-0.53,0.27-0.91,0.72-1.27,1.17c-1.02,1.31-1.85,2.74-2.56,4.23c-1.49,3.12-3.24,6.08-5.3,8.87c-1.23,1.67-1.14,1.73,0.85,2.08
			c0.72,0.13,1.44,0.28,2.16,0.42c-0.01,0.09-0.02,0.19-0.03,0.19c-1.86,0.11-3.06,1.26-4.06,2.67c-0.32,0.46-0.7,0.56-1.23,0.58
			c-1.87,0.07-3.6,0.62-5.17,1.66c-2.36,1.57-2.83,4.21-2.02,6.84c0.06,0.2,0.13,0.4,0.2,0.6C146.24,87.45,146.19,87.5,146.15,87.55
			z M106.71,80.31c-0.06,0.06-0.13,0.11-0.19,0.17c-0.94,0.69-1.76,1.51-2.48,2.42c-2.96,3.69-3.26,7.85-0.89,11.91
			c0.74,1.27,1.51,2.51,2.25,3.78c1.48,2.52,2.56,5.18,3.04,8.09c0.48,2.94,1.11,5.86,1.67,8.78c-0.27-3.81-0.21-7.64-0.75-11.43
			c-0.37-2.64-1.19-5.08-2.72-7.3c-1.15-1.67-1.87-3.56-2.48-5.49c-0.49-1.58-0.54-3.17-0.24-4.79c0.41-2.19,1.54-4.03,2.7-5.86
			c0.08-0.08,0.16-0.17,0.07-0.29c0.04,0,0.08,0,0.13,0c-0.01-0.03-0.02-0.07-0.03-0.1C106.76,80.24,106.74,80.28,106.71,80.31z
			 M125.27,119.97c-0.05-0.02,0.03-0.21-0.12-0.09c0.04,0.03,0.09,0.05,0.14,0.08c0.03,0.04,0.06,0.09,0.09,0.13
			C125.33,120.04,125.3,120.01,125.27,119.97z M132.07,66.73c-0.37-0.1-0.65,0.14-0.93,0.3c-1.72,0.99-3.48,0.99-5.3,0.29
			c-0.51-0.2-1.03-0.37-1.55-0.56c-2.97-1.06-5.18-0.42-7.26,2.15c0.71-0.1,1.27-0.42,1.78-0.76c2.07-1.38,4.23-1.43,6.47-0.49
			c0.74,0.31,1.5,0.56,2.29,0.63C129.31,68.47,130.94,68.3,132.07,66.73c0.04-0.03,0.08-0.05,0.13-0.08
			c-0.03-0.02-0.07-0.04-0.1-0.05C132.09,66.64,132.08,66.69,132.07,66.73z M133.75,71.38c0.34,0.5,0.64,1.04,1.11,1.45
			c3.33,2.88,8.65,4.58,13.67,2.04c0.27-0.13,0.38-0.23,0.29-0.53c-0.86-2.87-2.05-5.47-4.88-7.01c-1.94-1.06-4.01-1.21-6.13-1.16
			c-2.02,0.05-3.83,0.71-5.46,1.89c-0.48,0.35-0.92,0.77-1.18,1.44c0.94-0.11,1.67-0.69,2.58-0.74
			C133.64,69.69,133.63,70.54,133.75,71.38c-0.03,0.01-0.05,0.02-0.08,0.02C133.7,71.4,133.72,71.39,133.75,71.38z M125.99,58.38
			c1.33,1.51,2.51,2.83,3.66,4.17c0.33,0.38,0.68,0.52,1.17,0.55c3.06,0.15,6.11,0.36,9.17,0.51c3.88,0.19,6.48,2.1,7.85,5.71
			c0.39,1.03,0.77,2.06,1.17,3.08c0.28,0.71,0.59,1.41,1.1,2c0.77,0.88,2.11,1.04,3.07,0.37c0.83-0.58,1.08-1.89,0.55-2.93
			c-0.24,0.05-0.24,0.26-0.26,0.43c-0.13,0.95-0.66,1.47-1.6,1.6s-1.4-0.45-1.79-1.15c-0.56-1.02-0.9-2.13-1.29-3.23
			c-0.67-1.9-1.33-3.81-2.43-5.51c-1.19-1.83-2.79-3.01-5.02-3.34c-3.08-0.46-6.15-1.07-9.23-1.55
			C130.16,58.78,128.21,58.45,125.99,58.38z M135.29,55.45c1.91,0.22,3.83,0.41,5.74,0.66c3.12,0.41,5.6,2,7.32,4.55
			c1.8,2.66,3.37,5.47,3,9.08c0.39-0.81,0.4-1.48,0.49-2.14c0.55-4.34-2.06-9.4-5.91-11.12C142.53,54.98,138.91,55.05,135.29,55.45z
			 M133.53,71.38c-3.1-1.87-6.09-2.97-9.53-2.36c-1.25,0.22-2.48,0.39-3.54,1.11c-1.39,0.94-2.97,2.64-2.63,4.63
			c1.27-2.89,3.53-4.31,6.49-4.84c1.68-0.3,3.28-0.06,4.88,0.4C130.53,70.7,131.86,71.17,133.53,71.38z M153.66,67.39
			c0.88-1.69,1.66-3.41,2.13-5.24c1.11-4.35-0.37-6.71-4.77-7.64c-0.06-0.01-0.12-0.04-0.18-0.04c-1.23-0.12-2.43-0.09-3.57,0.42
			c2.67,0.07,3.98,0.39,5.42,1.35c2.14,1.43,3.06,3.8,2.44,6.28C154.72,64.17,154.12,65.77,153.66,67.39z M116.35,107.22
			c0.53,3.13,1.61,5.91,4.43,7.7c1.39,0.88,2.5,2.06,3.35,3.47c0.25,0.41,0.54,0.8,0.81,1.2c-0.78-1.82-1.54-3.64-3.29-4.81
			c-1.47-0.98-2.64-2.26-3.52-3.8C117.43,109.78,116.79,108.53,116.35,107.22z M153.54,67.79c-0.02-0.03-0.03-0.05-0.05-0.08
			c-0.02,0.05-0.05,0.1-0.06,0.15c0,0.02,0.03,0.05,0.04,0.07C153.5,67.89,153.52,67.84,153.54,67.79z M153.27,68.28l0.03,0.03
			l0.01-0.05L153.27,68.28z"/>
		<path fill="#FDE300" d="M184.05,131.08c1.02,0.17,1.92,0.35,2.81,0.46c0.85,0.1,1.36,0.57,1.73,1.31c0.8,1.59,0.9,3.29,0.77,5.01
			c-0.1,1.44-0.46,2.82-1,4.17c-0.9,2.26-2.64,3.26-4.98,3.41c-0.34,0.02-0.68-0.02-1.01,0.01c-0.68,0.07-1.15-0.03-1.02-0.89
			c0.05-0.33-0.11-0.59-0.43-0.74c-0.42-0.19-0.56,0.18-0.71,0.4c-0.42,0.62-0.93,0.82-1.64,0.53c-0.75-0.3-1.27-0.78-1.28-1.61
			c-0.03-1.87-0.03-3.73,0.75-5.49c0.11-0.25,0.2-0.51,0.26-0.78c0.06-0.26-0.01-0.48-0.27-0.61c-0.26-0.13-0.48-0.05-0.67,0.13
			c-0.31,0.31-0.49,0.7-0.64,1.1c-0.75,1.98-1.33,4-1.28,6.15c0.01,0.57-0.15,0.75-0.72,0.72c-1.04-0.06-2.08,0.05-3.12-0.14
			c-0.56-0.11-1-0.3-0.98-0.98c0.01-0.29-0.07-0.55-0.4-0.64c-0.35-0.1-0.64,0.06-0.79,0.33c-0.4,0.69-0.77,0.36-1.15,0.01
			c-0.47-0.44-0.72-0.99-0.76-1.62c-0.14-2.2-0.26-4.4,0.72-6.49c0.11-0.23,0.28-0.49,0.16-0.87c-0.48,0.33-0.73,0.8-0.96,1.27
			c-0.73,1.44-1.14,2.96-1.16,4.58c0,0.27,0.06,0.57-0.39,0.56c-0.31-0.01-0.48-0.05-0.53-0.43c-0.19-1.44-0.29-1.48-1.7-0.67
			c-0.03-0.64-0.14-1.24-0.07-1.82c0.31-2.53,1.34-4.74,3.07-6.62c0.63-0.69,1.41-0.97,2.36-1.02c2.4-0.13,4.69,0.27,6.93,1.08
			c0.72,0.26,1.4-0.33,1.31-1.09c-0.04-0.32-0.29-0.26-0.48-0.3c-0.98-0.2-1.95-0.4-3.05-0.63c0.5-0.51,1.08-0.62,1.6-0.79
			c1.43-0.45,2.91-0.72,4.39-0.91c0.17-0.02,0.5,0.09,0.45-0.27c-0.03-0.25-0.29-0.16-0.45-0.16c-2.48-0.02-4.95,0-7.32,0.93
			c-1.63,0.64-1.62,0.57-2.2-1.03c-0.61-1.69-0.46-3.44-0.46-5.17c0-0.58,0.46-0.92,0.88-1.22c0.86-0.62,1.75-1.2,2.59-1.87
			c-1.23,0.25-2.28,0.9-3.38,1.42c-0.47,0.22-0.86,0.75-1.5,0.42c-0.81-0.42-1.46-1.02-1.92-1.78c-0.22-0.37-0.01-0.84,0.11-1.24
			c0.71-2.27,0.56-4.52-0.05-6.77c-0.69-2.57-1.57-5.06-2.82-7.43c-1.38-2.63-2.54-5.35-2.99-8.32c-0.21-1.38-0.09-2.75,0.13-4.11
			c0.29-1.78,2.4-2.6,3.89-1.58c0.2,0.14,0.14,0.31,0.15,0.48c0.04,0.49,0.06,0.98,0.14,1.46c0.13,0.81,0.42,1.62,0.43,2.43
			s-0.26,1.62-0.41,2.47c0.38,0.08,0.7-0.11,1-0.26c2.42-1.21,4.69-2.57,5.42-5.45c0.09-0.35,0.33-0.28,0.57-0.27
			c2.73,0.14,6.39,3.51,6.76,6.22c0.1,0.77,0.04,1.52-0.27,2.24c-0.61,1.42-1.2,2.86-1.64,4.38c0.6-0.91,1.24-1.8,1.8-2.74
			c0.43-0.73,0.77-0.71,1.37-0.15c5.04,4.79,8.7,10.4,10.17,17.26c0.99,4.62-0.04,8.97-2.21,13.1c-0.29,0.56-0.76,0.65-1.29,0.67
			c-0.73,0.03-1.47,0.07-2.2,0.11C184.39,130.9,184.28,130.98,184.05,131.08z"/>
		<path fill="#FDE300" d="M126,129.13c-8.45,0.95-16.71,0.54-24.94-1.17c-8.52-1.78-16.74-4.5-24.81-7.71
			c-0.23-0.09-0.47-0.14-0.68-0.26c-0.35-0.19-0.96-0.03-1.02-0.58c-0.07-0.68,0.02-1.48,0.66-1.8c1.72-0.87,3.36-1.86,4.99-2.89
			c0.46-0.29,0.96,0.02,1.4,0.2c2.34,0.92,4.74,1.35,7.26,1.23c3.23-0.15,6.1-1.16,8.52-3.34c1.55-1.4,1.62-1.47,2.8,0.28
			c4.24,6.27,10.05,10.51,17.04,13.23c2.56,0.99,5.26,1.57,7.88,2.41C125.38,128.82,125.7,128.84,126,129.13z"/>
		<path fill="#CFCFCE" d="M149.84,106.84c-0.32-0.64-0.82-1.15-1.36-1.6c-4.02-3.43-8.49-6.07-13.6-7.55
			c-0.06-0.02-0.12-0.06-0.18-0.05c-1.49,0.15-1.79-0.9-2.05-2.08c1.31-0.09,2.54,0.24,3.75,0.61c4.5,1.38,8.86,3.23,12.49,6.21
			c8.25,6.77,10.73,14.8,8.88,23.24c-0.94,4.31-4.78,5.74-8.45,3.25c-3.19-2.16-4.74-5.34-5.3-9.05c-0.17-1.12-0.25-2.25-0.42-3.36
			c-0.06-0.37-0.06-0.57,0.37-0.57c0.15,0,0.3-0.07,0.45-0.1c2.15-0.47,3.09-1.81,2.82-3.99c-0.25-1.99-0.95-3.84-1.67-5.81
			c-0.56,1.05-1.24,1.88-2.21,2.46c-1.26,0.77-2.44,0.78-3.67-0.1c-2.2-1.57-5.1-6.16-5.55-8.89c1.28-0.02,2.49,0.27,3.69,0.64
			c4.23,1.32,8.11,3.24,11.25,6.45c0.17,0.17,0.38,0.29,0.58,0.44c0.04,0.09,0.1,0.16,0.19,0.09
			C149.9,107.04,149.85,106.91,149.84,106.84z"/>
		<path fill="#FDE300" d="M108.67,131.83c0.21,0.63,0.69,0.83,1.05,1.14c1.3,1.12,1.79,3.01,1.08,4.27
			c-0.69,1.22-2.92,1.91-4.42,1.44c-0.71-0.23-1.07-0.52-1.08-1.36c-0.01-1.17-0.78-2.03-1.61-2.78c-1.79-1.6-3.86-2.56-6.28-2.67
			c-0.97-0.05-1.93-0.09-2.92,0.07c0.78,0.11,1.57,0.17,2.34,0.33c2.19,0.43,4.23,1.23,5.93,2.72c0.98,0.86,1.64,1.89,1.66,3.24
			c0.01,0.79-0.17,1.46-1.09,1.66c-0.47,0.1-0.7,0.45-0.88,0.86c-0.34,0.79-0.97,1.15-1.81,1.15c-0.61,0-1.23-0.02-1.84,0.01
			c-1.23,0.05-2.2-0.45-2.96-1.37c-0.35-0.42-0.72-0.84-0.98-1.32c-1.81-3.37-4.99-4.71-8.42-5.63c-1.62-0.43-3.27-0.36-4.9,0.1
			c-0.53,0.15-1.06,0.28-1.59,0.43c-1.67,0.44-1.82,0.3-1.51-1.42c0.02-0.12,0.04-0.25,0.1-0.35c0.89-1.3,0.39-2.1-0.73-3.07
			c-1.5-1.3-2.46-3.09-3.28-4.92c-0.42-0.95-0.5-1.93-0.51-2.95c-0.01-0.75,0.2-0.79,0.83-0.53c3.65,1.47,7.32,2.91,10.98,4.37
			c0.99,0.39,1.98,0.78,3.18,1.26c-1.51,0.45-2.84,0.81-4.14,1.25c-0.28,0.09-1.06-0.01-0.71,0.6c0.22,0.39,0.67,1.02,1.4,0.66
			c1.04-0.51,2.09-1.01,3.13-1.53c1.06-0.53,2.13-0.62,3.28-0.25c5.15,1.7,10.45,2.74,15.78,3.67c1.99,0.35,3.99,0.6,6.02,0.64
			c1.29,0.02,1.57,0.4,0.98,1.6c-0.32,0.65-0.9,1.18-1.72,1.36c-0.75,0.16-1.2,0.01-1.63-0.69
			C110.79,132.84,109.9,132.15,108.67,131.83z"/>
		<path fill="#FDE300" d="M129.71,81.71c0.11,1.96,0.18,3.94,0.33,5.91c0.35,4.64,1.38,9.11,3.32,13.35
			c1.86,4.05,3.73,8.1,6.04,11.93c0.86,1.43,1.65,2.94,3.16,3.86c0.27,0.16,0.21,0.42,0.21,0.65c0.01,1.07,0.03,2.14,0.01,3.21
			c-0.04,1.42-1.59,2.32-2.82,1.6c-0.71-0.42-1.37-0.92-2-1.45c-2.12-1.76-3.99-3.79-5.93-5.75c-1.69-1.71-2.36-3.79-2.79-6.05
			c-0.98-5.26-1.9-10.53-1.74-15.92c0.1-3.34,0.51-6.64,1.44-9.86c0.13-0.44,0.31-0.86,0.49-1.28
			C129.46,81.82,129.51,81.69,129.71,81.71z"/>
		<path fill="#FDE300" d="M154.25,89.48c-1.77,0.08-3.3-0.16-4.71-0.92c-3.25-1.75-3.57-5.59-0.64-7.84
			c1.75-1.34,3.77-1.81,5.94-1.78c0.42,0.01,0.58,0.26,0.76,0.55c0.49,0.81,1,1.61,1.49,2.42c0.38,0.63,0.95,0.91,1.66,0.99
			c1.27,0.14,2.5-0.14,3.74-0.3c1.86-0.24,2.17,0.03,1.94,1.88c-0.15,1.25-0.9,2.12-1.89,2.8c-2.22,1.53-4.76,1.99-7.37,2.2
			C154.8,89.51,154.43,89.48,154.25,89.48z"/>
		<path fill="#FDE300" d="M145.37,35.77c-0.77,3.7-1.04,7.47-1.57,11.21c-1.77-0.5-2.56-1.98-2.09-3.94
			c0.38-1.58,1.1-3.04,1.76-4.51c0.46-1.01,0.31-1.8-0.49-2.56c-0.96,2.14-2.16,4.16-2.9,6.39c-0.27,0.82-0.45,1.64-0.45,2.51
			c0,0.31,0.18,0.86-0.49,0.67c-0.45-0.13-1.24,0.16-1.15-0.78c0.04-0.36,0.06-0.74,0.17-1.09c1.17-3.79,2.38-7.57,4.22-11.1
			c0.49-0.95,1.05-1.87,1.79-2.66c1.47-1.57,2.75-1.39,3.7,0.56c0.83,1.7,1.1,3.55,1.28,5.41c0.43,4.33,0.06,8.6-1.04,12.81
			c-0.1,0.38-0.2,0.45-0.53,0.37c-0.24-0.06-0.48-0.09-0.72-0.13c-0.82-0.13-1.19-0.54-1.17-1.43c0.09-3.42,0.22-6.85,0.03-10.27
			c-0.02-0.48-0.05-0.95-0.08-1.43C145.55,35.78,145.46,35.77,145.37,35.77z"/>
		<path fill="#FDE300" d="M162.03,102.76c1.37,2.14,2.26,4.33,2.9,6.62c0.45,1.62,0.74,3.27,0.91,4.95
			c0.17,1.64-0.38,3.07-1.21,4.42c-0.99,1.61-2.18,3.03-3.92,3.89c-0.35,0.17-0.8,0.44-1.13,0.21c-0.3-0.21-0.07-0.68-0.03-1.04
			c0.23-2.18,0.8-4.34,0.11-6.54c-0.17-0.54,0.25-0.87,0.64-1.11c0.8-0.47,1.15-1.18,1.39-2.04c0.83-2.96,1.19-5.93,0.33-8.95
			C162.01,103.11,162.03,103.02,162.03,102.76z"/>
		<path fill="#FDFDFD" d="M131.01,156.43c-0.17-0.14-0.31-0.25-0.44-0.38c-3.5-3.37-7-6.75-10.51-10.12
			c-0.35-0.33-0.27-0.49,0.03-0.78c3.49-3.34,6.97-6.7,10.44-10.06c0.36-0.35,0.56-0.39,0.94-0.01c3.44,3.35,6.89,6.68,10.37,10
			c0.44,0.42,0.36,0.61-0.03,0.98c-3.45,3.3-6.87,6.62-10.31,9.93C131.35,156.13,131.19,156.27,131.01,156.43z M123.94,142.87
			c-0.19,0.09-0.34,0.23-0.42,0.42v0.01c-0.65,0.59-1.28,1.19-1.95,1.76c-0.43,0.36-0.44,0.61-0.01,1c0.96,0.88,1.87,1.81,2.8,2.72
			c-0.01,0.27,0.21,0.17,0.34,0.22c1.97,1.92,3.95,3.84,5.91,5.77c0.27,0.27,0.46,0.3,0.75,0.01c3.16-3.07,6.34-6.12,9.56-9.22
			c-3.21-3.09-6.39-6.15-9.55-9.21c-0.29-0.28-0.47-0.27-0.75,0.01c-2.01,1.97-4.03,3.93-6.04,5.9c-0.05,0.03-0.1,0.07-0.13,0.13
			C124.28,142.54,124.11,142.7,123.94,142.87z"/>
		<path fill="#FDE300" d="M166.08,82.5c-0.02-1.26,0.1-2.15-0.28-3c-0.18-0.41-0.06-0.58,0.38-0.51c2.72,0.44,5.13,1.48,6.7,3.85
			c1.07,1.61,0.46,3.57-1.33,4.62c-1.84,1.08-3.84,1.16-5.86,0.69c-1.64-0.38-1.67-0.45-0.65-1.86
			C165.98,85.03,166.19,83.63,166.08,82.5z"/>
		<path fill="#FDE300" d="M159.24,90.48c0,0.89,0.06,1.7-0.01,2.5c-0.28,2.92,0.61,5.55,1.99,8.04c0.41,0.74,0.31,1.24-0.18,1.84
			c-0.77,0.95-1.64,1.81-2.51,2.67C156.95,101.36,157.34,92.12,159.24,90.48z"/>
		<path fill="#FDFDFD" d="M147.17,96.32c0.02-1.14-0.42-1.91-0.82-2.7c-0.42-0.84-0.88-1.67-1.3-2.51
			c-0.33-0.67-0.17-1.21,0.56-1.45c1.83-0.62,3.66-0.62,5.45,0.13c0.89,0.38,1.01,0.96,0.45,1.86
			C150.38,93.41,148.79,94.75,147.17,96.32z"/>
		<path fill="#FDFDFD" d="M161.44,103.88c0.05,2.53,0.02,4.84-0.34,7.14c-0.28,1.82-1.14,2.14-2.61,1
			c-0.88-0.69-1.56-1.54-1.98-2.59c-0.29-0.72-0.17-1.26,0.53-1.72C158.61,106.66,160.13,105.54,161.44,103.88z"/>
		<path fill="#FDFDFD" d="M145.45,107.46c0.28,1.81,0.55,3.49,0.42,5.2c-0.12,1.48-0.85,2-2.27,1.63c-1.03-0.27-1.9-0.81-2.56-1.66
			c-0.45-0.58-0.42-1.06,0.25-1.52C142.77,110.09,144.27,109.08,145.45,107.46z"/>
		<path fill="#FDFDFD" d="M165.92,94.93c0.38-1.41-0.07-2.73-0.32-4.06c-0.25-1.3,0.05-1.74,1.37-1.88c0.9-0.09,1.77,0.07,2.58,0.48
			c1.06,0.54,1.22,1.25,0.5,2.22C169.42,92.54,167.53,94.03,165.92,94.93z"/>
		<path fill="#FDE300" d="M159.56,74.75c1.43-1.36,2.55-2.81,2.38-5.02c0.85,0.66,1.13,1.39,1.17,2.22c0.03,0.73,0.03,1.47,0,2.2
			c-0.02,0.44,0.11,0.59,0.58,0.69c1.48,0.32,2.68,1.16,3.58,2.37c0.37,0.49,0.54,0.95-0.4,0.91c-0.09,0-0.19,0-0.27,0.03
			c-1.06,0.33-1.73,0.01-2.26-1.02C163.38,75.29,161.85,74.36,159.56,74.75z"/>
		<path fill="#FDE300" d="M113.45,51.44c0.06,1.85-1.44,2.78-1.94,4.16c0.07,0.05,0.15,0.09,0.22,0.14
			c0.77-0.91,1.54-1.83,2.41-2.87c0.36,1.19,0.54,2.25,0.62,3.31c0.03,0.46-0.23,0.86-0.59,1.19c-0.51,0.47-1.06,0.9-1.44,1.52
			c-0.27,0.43-0.68,0.42-0.87-0.12c-0.38-1.12-0.74-2.26-1.1-3.38c-0.08-0.24-0.08-0.47,0.09-0.69
			C111.68,53.65,112.51,52.61,113.45,51.44z"/>
		<path fill="#FDFDFD" d="M99.94,101.09c-0.01,0.79-0.69,1.42-1.49,1.39c-0.76-0.03-1.4-0.67-1.41-1.4
			c-0.01-0.77,0.68-1.44,1.47-1.44C99.32,99.65,99.95,100.29,99.94,101.09z"/>
		<path fill="#FDFDFD" d="M100.09,76.47c0,0.78-0.68,1.43-1.47,1.42c-0.78-0.01-1.47-0.72-1.44-1.47c0.03-0.73,0.7-1.36,1.45-1.37
			C99.42,75.04,100.1,75.69,100.09,76.47z"/>
		<path fill="#FDFDFD" d="M104.2,65.2c0.02,0.78-0.57,1.39-1.37,1.43c-0.82,0.04-1.51-0.57-1.52-1.38
			c-0.01-0.79,0.66-1.46,1.46-1.45C103.54,63.82,104.18,64.44,104.2,65.2z"/>
		<path fill="#FDFDFD" d="M98.43,89.39c0.01,0.78-0.64,1.41-1.47,1.41c-0.79,0-1.42-0.58-1.46-1.33c-0.04-0.78,0.61-1.44,1.42-1.46
			C97.75,87.99,98.42,88.61,98.43,89.39z"/>
		<path fill="#FDFDFD" d="M103.13,113.08c-0.64-0.04-1.08-0.37-1.16-1.04c-0.07-0.61,0.51-1.18,1.15-1.15
			c0.67,0.03,1.12,0.41,1.12,1.08C104.25,112.63,103.82,113.01,103.13,113.08z"/>
		<path fill="#FDFDFD" d="M160.72,72.23c-0.05,0.3-0.2,0.54-0.48,0.81c-0.01-0.35,0.09-0.59,0.27-0.81
			c0.38-1.29,0.33-2.54-0.52-3.65c-0.32-0.43,0.07-0.57,0.31-0.89C161.32,69.16,161.49,70.64,160.72,72.23z"/>
		<path fill="#FDFDFD" d="M158.62,74.18c-0.95,0.06-1.86-0.03-2.75-0.25c-0.18-0.05-0.61,0.06-0.4-0.37
			c0.11-0.23,0.23-0.65,0.65-0.4C156.91,73.61,157.81,73.79,158.62,74.18z"/>
		<path fill="#FDFDFD" d="M158.58,69.47c0.14,0.31,0.44,0.5,0.23,0.75c-0.12,0.14-0.49,0.13-0.56-0.03
			C158.11,69.9,158.46,69.77,158.58,69.47z"/>
		<path fill="#3B3434" d="M26.01,140.67c-0.4-0.03-0.8-0.06-1.2-0.08c0.41-0.28,0.81-0.27,1.22-0.14
			C26.02,140.52,26.02,140.59,26.01,140.67z"/>
		<path fill="#3B3434" d="M107.11,53.95c0.11,0,0.23,0,0.34-0.01c-0.05,0.18-0.04,0.45-0.32,0.39
			C107.01,54.3,107.04,54.08,107.11,53.95z"/>
		<path fill="#FDE300" d="M55.43,77.19c-0.08,0.1-0.16,0.2-0.24,0.3c-0.06-0.06-0.12-0.11-0.17-0.17
			C55.12,77.2,55.23,77.06,55.43,77.19L55.43,77.19z"/>
		<path fill="#FDE300" d="M55.42,77.19c0.01-0.05,0.01-0.09,0.02-0.14c0.04,0.02,0.08,0.04,0.12,0.05
			C55.52,77.13,55.47,77.16,55.42,77.19L55.42,77.19z"/>
		<path fill="#CFCFCE" d="M160.15,73.23c-0.01,0.02-0.02,0.04-0.03,0.06c-0.03-0.02-0.05-0.04-0.08-0.06
			c0.02-0.02,0.04-0.04,0.05-0.06C160.12,73.19,160.13,73.21,160.15,73.23z"/>
		<polygon fill="#FDE300" points="115.85,56.94 115.87,56.98 115.85,56.96 		"/>
		<path fill="#FDE300" d="M146.28,87.41c0.02,0.06,0.04,0.13,0.06,0.19c-0.06-0.02-0.13-0.04-0.19-0.05
			C146.19,87.5,146.24,87.45,146.28,87.41z"/>
		<path fill="#3B3434" d="M71.42,84.55c-1.08-2.72-1.12-5.46-0.28-8.22c1.41-4.6,4.8-7.26,9.61-7.81c4.76-0.54,9.33,0.2,13.82,1.68
			c0.08,0.03,0.18,0.04,0.16,0.24c-1.94-0.11-3.89-0.23-5.84-0.34c-2.82-0.15-5.64-0.21-8.4,0.47c-5.86,1.45-9.12,7.55-9.07,11.63
			C71.43,83,71.42,83.77,71.42,84.55z"/>
		<path fill="#191815" d="M9.65,133.16c-0.02,0.03-0.03,0.06-0.05,0.09c0-0.02-0.01-0.05,0-0.05c0.02-0.01,0.05-0.02,0.07-0.02
			C9.67,133.18,9.65,133.16,9.65,133.16z"/>
		<path fill="#191815" d="M74.45,58.94c-0.07,0.01-0.2,0.05-0.21,0.02c-0.06-0.1,0.03-0.12,0.11-0.15
			C74.38,58.86,74.42,58.9,74.45,58.94z"/>
		<path fill="#191815" d="M125.99,58.38c2.22,0.07,4.18,0.4,6.13,0.71c3.08,0.48,6.14,1.09,9.23,1.55c2.23,0.33,3.83,1.51,5.02,3.34
			c1.11,1.71,1.76,3.61,2.43,5.51c0.39,1.09,0.72,2.21,1.29,3.23c0.39,0.7,0.85,1.28,1.79,1.15c0.95-0.13,1.48-0.66,1.6-1.6
			c0.02-0.17,0.02-0.38,0.26-0.43c0.53,1.04,0.28,2.35-0.55,2.93c-0.96,0.67-2.29,0.51-3.07-0.37c-0.51-0.58-0.82-1.28-1.1-2
			c-0.4-1.02-0.78-2.05-1.17-3.08c-1.37-3.61-3.97-5.52-7.85-5.71c-3.06-0.15-6.11-0.36-9.17-0.51c-0.49-0.02-0.85-0.16-1.17-0.55
			C128.5,61.21,127.32,59.89,125.99,58.38z"/>
		<path fill="#191815" d="M133.75,71.4c-0.12-0.85-0.11-1.7,0-2.63c-0.91,0.05-1.64,0.63-2.58,0.74c0.25-0.68,0.69-1.09,1.18-1.44
			c1.62-1.18,3.44-1.84,5.46-1.89c2.13-0.05,4.19,0.1,6.13,1.16c2.83,1.54,4.02,4.14,4.88,7.01c0.09,0.3-0.02,0.4-0.29,0.53
			c-5.02,2.53-10.34,0.83-13.67-2.04C134.39,72.43,134.09,71.89,133.75,71.4C133.75,71.38,133.75,71.4,133.75,71.4z M145.76,74.83
			c-2.15-0.22-4.14-0.61-5.52-2.29c-1.52-1.86-0.96-3.75,0.29-5.61c-1.27-0.11-2.31,0.09-3.3,0.52c-1.53,0.67-2.17,1.79-1.98,3.44
			c0.11,0.98,0.7,1.66,1.43,2.26c2.57,2.11,5.61,2.18,8.7,1.99C145.48,75.13,145.57,75,145.76,74.83z M144.75,70.1
			c0.44-0.06,0.73-0.32,0.7-0.78c-0.03-0.45-0.34-0.74-0.79-0.71c-0.45,0.02-0.73,0.32-0.71,0.79
			C143.97,69.87,144.27,70.09,144.75,70.1z"/>
		<path fill="#3B3434" d="M106.62,80.59c-1.17,1.83-2.3,3.67-2.7,5.86c-0.3,1.63-0.25,3.22,0.24,4.79c0.6,1.93,1.33,3.82,2.48,5.49
			c1.53,2.22,2.35,4.66,2.72,7.3c0.53,3.79,0.47,7.62,0.75,11.43c-0.56-2.93-1.19-5.84-1.67-8.78c-0.48-2.91-1.56-5.57-3.04-8.09
			c-0.74-1.26-1.51-2.51-2.25-3.78c-2.37-4.06-2.07-8.22,0.89-11.91c0.73-0.91,1.54-1.73,2.48-2.42
			C106.55,80.52,106.58,80.56,106.62,80.59z"/>
		<path fill="#3B3434" d="M135.29,55.45c3.63-0.4,7.24-0.46,10.63,1.04c3.85,1.71,6.46,6.78,5.91,11.12
			c-0.08,0.66-0.09,1.33-0.49,2.14c0.37-3.61-1.2-6.42-3-9.08c-1.73-2.55-4.2-4.14-7.32-4.55C139.12,55.86,137.2,55.67,135.29,55.45
			z"/>
		<path fill="#3B3434" d="M133.53,71.38c-1.67-0.21-3-0.68-4.34-1.06c-1.6-0.46-3.2-0.69-4.88-0.4c-2.96,0.53-5.22,1.95-6.49,4.84
			c-0.33-1.99,1.24-3.68,2.63-4.63c1.06-0.72,2.3-0.89,3.54-1.11C127.44,68.41,130.43,69.51,133.53,71.38z"/>
		<path fill="#3B3434" d="M153.66,67.39c0.46-1.62,1.07-3.22,1.47-4.87c0.62-2.48-0.31-4.86-2.44-6.28
			c-1.44-0.96-2.76-1.28-5.42-1.35c1.14-0.51,2.35-0.54,3.57-0.42c0.06,0.01,0.12,0.03,0.18,0.04c4.4,0.93,5.88,3.29,4.77,7.64
			C155.32,63.98,154.54,65.7,153.66,67.39z"/>
		<path fill="#3B3434" d="M132.07,66.73c-1.13,1.58-2.76,1.74-4.49,1.57c-0.79-0.08-1.55-0.33-2.29-0.63
			c-2.24-0.93-4.39-0.88-6.47,0.49c-0.52,0.34-1.08,0.66-1.78,0.76c2.09-2.57,4.29-3.2,7.26-2.15c0.52,0.18,1.04,0.36,1.55,0.56
			c1.81,0.7,3.57,0.7,5.3-0.29C131.42,66.87,131.7,66.62,132.07,66.73L132.07,66.73z"/>
		<path fill="#3B3434" d="M116.35,107.22c0.44,1.31,1.07,2.55,1.77,3.77c0.89,1.54,2.05,2.82,3.52,3.8
			c1.75,1.16,2.51,2.98,3.29,4.81c-0.27-0.4-0.56-0.79-0.81-1.2c-0.85-1.41-1.96-2.59-3.35-3.47
			C117.96,113.13,116.88,110.35,116.35,107.22z"/>
		<path fill="#3B3434" d="M125.27,119.97c0.03,0.04,0.07,0.08,0.1,0.11c-0.03-0.04-0.06-0.09-0.09-0.13L125.27,119.97z"/>
		<path fill="#191815" d="M116.82,56.82c0.02,0.19-0.15,0.21-0.25,0.3c-0.06-0.06-0.11-0.12-0.17-0.17
			C116.5,56.81,116.64,56.75,116.82,56.82L116.82,56.82z"/>
		<path fill="#3B3434" d="M153.54,67.79c-0.02,0.05-0.04,0.1-0.06,0.15c-0.02-0.02-0.05-0.05-0.04-0.07
			c0.01-0.05,0.04-0.1,0.06-0.15C153.51,67.73,153.52,67.76,153.54,67.79z"/>
		<path fill="#3B3434" d="M106.51,80.49c0.06-0.06,0.13-0.11,0.19-0.17l-0.01-0.02c0.09,0.13,0,0.21-0.07,0.29
			C106.58,80.56,106.55,80.52,106.51,80.49z"/>
		<path fill="#3B3434" d="M106.71,80.31c0.03-0.04,0.06-0.08,0.09-0.11c0.01,0.03,0.02,0.07,0.03,0.1c-0.04,0-0.08,0-0.13,0
			C106.69,80.3,106.71,80.31,106.71,80.31z"/>
		<path fill="#3B3434" d="M125.28,119.95c-0.04-0.03-0.09-0.05-0.14-0.08c0.15-0.11,0.07,0.08,0.12,0.09
			C125.27,119.97,125.28,119.95,125.28,119.95z"/>
		<path fill="#3B3434" d="M133.75,71.4v-0.02c-0.02,0.01-0.05,0.02-0.07,0.03C133.7,71.41,133.72,71.4,133.75,71.4z"/>
		<path fill="#3B3434" d="M132.07,66.73c0.01-0.04,0.02-0.09,0.02-0.13c0.03,0.02,0.07,0.04,0.1,0.05
			C132.16,66.68,132.11,66.7,132.07,66.73L132.07,66.73z"/>
		<path fill="#191815" d="M116.81,56.81c0.02-0.05,0.05-0.09,0.07-0.14c0.03,0.03,0.06,0.06,0.09,0.09
			C116.92,56.78,116.87,56.8,116.81,56.81C116.82,56.82,116.81,56.81,116.81,56.81z"/>
		<polygon fill="#3B3434" points="153.27,68.28 153.31,68.26 153.3,68.31 		"/>
		<path fill="#191815" d="M149.84,106.84c0.01,0.08,0.05,0.2,0.02,0.23c-0.09,0.07-0.15-0.01-0.19-0.09
			C149.73,106.92,149.79,106.88,149.84,106.84z"/>
		<path fill="#FDE300" d="M124.57,142.25c2.02-1.97,4.03-3.93,6.04-5.9c0.28-0.27,0.47-0.28,0.75-0.01
			c3.16,3.07,6.34,6.12,9.55,9.21c-3.22,3.1-6.39,6.15-9.56,9.22c-0.29,0.28-0.48,0.26-0.75-0.01c-1.96-1.93-3.94-3.85-5.91-5.77
			c0.73-0.14,1.45-0.06,2.18,0.02c0.48,0.05,0.94,0.07,1.35-0.25l-0.02,0.01c0.16-0.01,0.37,0.09,0.39-0.2l-0.02,0.01
			c0.12-0.01,0.25,0.01,0.34-0.04c1.74-1.06,2.19-4.36,0.8-5.85c-0.5-0.53-1.12-0.82-1.84-0.91c-1.1-0.14-2.12,0.1-3.07,0.64
			C124.72,142.38,124.64,142.31,124.57,142.25z M136.84,145.47c-0.06,0.07-0.11,0.13-0.17,0.2c-0.57,0.15-1.14,0.28-1.58-0.28
			c-0.41-0.53-0.2-1.13-0.18-1.71c-0.38,0.71-0.46,1.42,0.18,1.98c0.47,0.41,1.05,0.62,1.57,0c0.13-0.01,0.24-0.03,0.17-0.2
			c0.17,0.07,0.2-0.03,0.2-0.17c0.29-0.04,0.36-0.22,0.32-0.58c-0.13,0.25-0.21,0.43-0.3,0.6
			C136.97,145.35,136.9,145.41,136.84,145.47z M136.97,142.41c0.06,0.09,0.09,0.26,0.26,0.11c0.07,0.64,0.29,1.26,0.26,1.91
			c0.08-0.65,0.31-1.32-0.27-1.89c0-0.12-0.05-0.18-0.17-0.2c-0.01-0.12-0.08-0.17-0.2-0.17c-1.32-0.86-3.06-0.4-3.77,1.07
			c-0.55,1.14-0.77,2.38-0.79,3.63c-0.01,0.96,0.58,1.71,1.45,2.02c0.95,0.34,1.98,0.14,2.55-0.5c0.15,0.02,0.21-0.04,0.18-0.18
			c0.18,0.04,0.25-0.09,0.31-0.22c0.01-0.02-0.04-0.07-0.06-0.11c-0.08,0.11-0.16,0.22-0.24,0.34c-0.12,0.01-0.18,0.07-0.19,0.18
			c-0.22,0.1-0.43,0.22-0.66,0.29c-1.34,0.46-2.58-0.2-2.67-1.48c-0.1-1.38,0.14-2.73,0.71-4c0.44-0.98,1.46-1.44,2.5-1.2
			c0.23,0.05,0.42,0.27,0.68,0.12C136.71,142.32,136.87,142.35,136.97,142.41z M135.23,143.27c-0.04-0.01-0.11-0.05-0.13-0.04
			c-0.04,0.04-0.05,0.1-0.08,0.15c0.04,0.01,0.11,0.05,0.12,0.04C135.19,143.39,135.21,143.33,135.23,143.27z M137,147.59
			c-0.02-0.03-0.04-0.05-0.06-0.07c-0.02,0.02-0.06,0.04-0.06,0.06s0.03,0.05,0.05,0.07C136.96,147.63,136.98,147.61,137,147.59z"/>
		<path fill="#FDE300" d="M124.36,148.78c-0.93-0.91-1.84-1.84-2.8-2.72c-0.42-0.39-0.42-0.64,0.01-1c0.67-0.56,1.3-1.17,1.95-1.76
			c0.26,0.36-0.09,0.61-0.16,0.91c-0.18,0.74-0.28,1.46,0.21,2.15c-0.43-1.12-0.02-2.11,0.42-3.1l-0.02,0.02
			c0.27,0.02,0.39-0.12,0.38-0.38l-0.02,0.02c0.46-0.02,0.73-0.4,1.12-0.57c1.94-0.86,3.95-0.02,4.35,1.92
			c0.33,1.62,0.15,3.17-1.24,4.34l0.02-0.01c-0.13,0.07-0.26,0.13-0.39,0.2l0.02-0.01c-0.64,0.09-1.27,0.09-1.91,0.02
			c-0.39-0.04-0.58-0.17-0.49-0.56c0.41-1.84,0.33-3.8,1.27-5.52c0.03-0.01,0.06-0.03,0.1-0.04c-0.01,0-0.03-0.01-0.04,0
			c-0.02,0.01-0.03,0.04-0.04,0.05c-0.71,0.21-0.99,0.78-1.12,1.42c-0.25,1.28-0.51,2.57-0.67,3.87
			C125.24,148.69,124.93,148.84,124.36,148.78z M123.81,146.75c0.01,0.03,0.03,0.07,0.04,0.1c0-0.01,0.01-0.03,0-0.04
			c-0.02-0.02-0.04-0.03-0.06-0.05c-0.04-0.05-0.08-0.1-0.12-0.15c-0.01,0.02-0.02,0.05-0.03,0.07
			C123.7,146.7,123.76,146.72,123.81,146.75z"/>
		<path fill="#3B3434" d="M127.09,142.71c-0.94,1.72-0.86,3.68-1.27,5.52c-0.09,0.39,0.1,0.52,0.49,0.56
			c0.64,0.06,1.27,0.07,1.91-0.02c-0.4,0.32-0.87,0.3-1.35,0.25c-0.72-0.08-1.45-0.16-2.18-0.02c-0.13-0.05-0.35,0.05-0.34-0.22
			c0.57,0.06,0.88-0.09,0.96-0.76c0.16-1.3,0.42-2.58,0.67-3.87c0.13-0.65,0.41-1.22,1.12-1.42L127.09,142.71z"/>
		<path fill="#3B3434" d="M123.99,143.26c-0.45,0.99-0.85,1.98-0.42,3.1c-0.49-0.69-0.39-1.41-0.21-2.15
			c0.07-0.3,0.43-0.55,0.16-0.91v-0.01C123.7,143.54,123.83,143.27,123.99,143.26z"/>
		<path fill="#FDE300" d="M123.94,142.87c0.17-0.16,0.33-0.32,0.5-0.49c0.04,0.06,0.08,0.12,0.12,0.19
			c-0.07,0.11-0.15,0.23-0.22,0.34l0.02-0.02c-0.09,0.04-0.18,0.08-0.26,0.12C124.04,142.96,123.99,142.92,123.94,142.87z"/>
		<path fill="#FDE300" d="M123.99,143.26c-0.16,0.01-0.29,0.28-0.47,0.03c0.08-0.2,0.23-0.33,0.42-0.42c0.05,0.05,0.1,0.1,0.15,0.14
			c-0.04,0.09-0.08,0.18-0.12,0.27L123.99,143.26z"/>
		<path fill="#FDE300" d="M124.44,142.38c0.03-0.05,0.07-0.1,0.13-0.13c0.07,0.06,0.15,0.12,0.22,0.18
			c-0.08,0.04-0.15,0.09-0.23,0.13C124.52,142.51,124.48,142.44,124.44,142.38z"/>
		<path fill="#FDFDFD" d="M145.76,74.83c-0.2,0.17-0.28,0.3-0.37,0.3c-3.1,0.19-6.13,0.12-8.7-1.99c-0.73-0.6-1.31-1.28-1.43-2.26
			c-0.19-1.65,0.45-2.77,1.98-3.44c0.99-0.43,2.03-0.63,3.3-0.52c-1.26,1.87-1.81,3.75-0.29,5.61
			C141.62,74.23,143.61,74.62,145.76,74.83z"/>
		<path fill="#FDFDFD" d="M144.75,70.1c-0.49,0-0.78-0.23-0.8-0.71c-0.02-0.47,0.26-0.76,0.71-0.79c0.45-0.02,0.77,0.26,0.79,0.71
			C145.48,69.77,145.2,70.04,144.75,70.1z"/>
		<path fill="#3B3434" d="M136.29,148.4c-0.57,0.64-1.61,0.84-2.55,0.5c-0.86-0.31-1.46-1.07-1.45-2.02
			c0.02-1.26,0.24-2.5,0.79-3.63c0.71-1.47,2.45-1.93,3.77-1.07l0.02-0.01c-0.26,0.14-0.46-0.07-0.68-0.12
			c-1.04-0.24-2.06,0.22-2.5,1.2c-0.57,1.27-0.8,2.62-0.71,4c0.09,1.28,1.33,1.94,2.67,1.48c0.23-0.08,0.44-0.19,0.66-0.29
			C136.3,148.42,136.29,148.4,136.29,148.4z"/>
		<path fill="#3B3434" d="M124.56,142.57c0.08-0.04,0.15-0.09,0.23-0.13c0.96-0.54,1.97-0.78,3.07-0.64
			c0.72,0.09,1.35,0.37,1.84,0.91c1.39,1.49,0.94,4.8-0.8,5.85c-0.09,0.05-0.23,0.03-0.34,0.04c1.4-1.16,1.58-2.72,1.24-4.34
			c-0.4-1.94-2.42-2.78-4.35-1.92c-0.39,0.17-0.66,0.55-1.12,0.57C124.41,142.8,124.49,142.68,124.56,142.57z"/>
		<path fill="#3B3434" d="M136.66,145.65c-0.52,0.63-1.11,0.41-1.57,0c-0.64-0.56-0.56-1.28-0.18-1.98
			c-0.02,0.58-0.23,1.18,0.18,1.71c0.44,0.56,1.01,0.43,1.58,0.28L136.66,145.65z"/>
		<path fill="#3B3434" d="M137.21,142.54c0.59,0.57,0.36,1.24,0.27,1.89c0.03-0.65-0.19-1.27-0.26-1.91L137.21,142.54z"/>
		<path fill="#3B3434" d="M137.04,145.29c0.09-0.17,0.17-0.34,0.3-0.6c0.05,0.36-0.02,0.55-0.32,0.58L137.04,145.29z"/>
		<path fill="#3B3434" d="M135.23,143.28c-0.02,0.05-0.04,0.11-0.08,0.15c-0.01,0.01-0.08-0.02-0.12-0.04
			c0.02-0.05,0.04-0.11,0.08-0.15C135.12,143.22,135.19,143.26,135.23,143.28z"/>
		<path fill="#3B3434" d="M136.49,148.23c0.08-0.11,0.16-0.22,0.24-0.34c0.02,0.04,0.07,0.09,0.06,0.11
			C136.72,148.12,136.66,148.26,136.49,148.23L136.49,148.23z"/>
		<path fill="#3B3434" d="M128.2,148.78c0.13-0.07,0.26-0.13,0.39-0.2C128.57,148.87,128.36,148.77,128.2,148.78z"/>
		<path fill="#3B3434" d="M136.97,142.41c-0.09-0.06-0.26-0.09-0.1-0.25l-0.02,0.01c0.12,0,0.18,0.05,0.2,0.17
			C137.02,142.37,136.99,142.39,136.97,142.41z"/>
		<path fill="#3B3434" d="M137.23,142.52c-0.17,0.15-0.2-0.02-0.26-0.11c0.03-0.02,0.05-0.04,0.08-0.07
			c0.12,0.01,0.17,0.08,0.17,0.2C137.21,142.54,137.23,142.52,137.23,142.52z"/>
		<path fill="#3B3434" d="M136.67,145.66c0.06-0.07,0.11-0.13,0.17-0.2l-0.01-0.02c0.07,0.17-0.04,0.19-0.17,0.2
			C136.66,145.65,136.67,145.66,136.67,145.66z"/>
		<path fill="#3B3434" d="M137,147.59c-0.02,0.02-0.04,0.04-0.07,0.06c-0.02-0.02-0.05-0.05-0.05-0.07s0.04-0.04,0.06-0.06
			C136.96,147.54,136.98,147.57,137,147.59z"/>
		<path fill="#3B3434" d="M136.47,148.22c0.02,0.15-0.04,0.21-0.18,0.18l0.01,0.01c0.01-0.12,0.07-0.18,0.19-0.18L136.47,148.22z"/>
		<path fill="#3B3434" d="M137.02,145.28c0.01,0.14-0.02,0.24-0.2,0.17c0,0,0.01,0.02,0.01,0.01
			C136.9,145.4,136.96,145.34,137.02,145.28C137.04,145.29,137.02,145.28,137.02,145.28z"/>
		<path fill="#3B3434" d="M123.97,143.28c0.04-0.09,0.08-0.18,0.12-0.27c0.09-0.04,0.18-0.08,0.26-0.12
			C124.36,143.16,124.24,143.29,123.97,143.28z"/>
		<path fill="#3B3434" d="M127.11,142.72c0.01-0.02,0.03-0.04,0.04-0.05c0.01-0.01,0.03,0,0.04,0c-0.03,0.01-0.06,0.03-0.1,0.04
			C127.09,142.71,127.11,142.72,127.11,142.72z"/>
		<path fill="#3B3434" d="M123.81,146.75c-0.06-0.02-0.11-0.04-0.17-0.06c0.01-0.02,0.02-0.05,0.03-0.07
			c0.04,0.05,0.08,0.1,0.12,0.15L123.81,146.75z"/>
		<path fill="#3B3434" d="M123.8,146.76c0.02,0.01,0.04,0.03,0.06,0.05c0.01,0.01,0,0.03,0,0.04c-0.01-0.03-0.03-0.07-0.04-0.1
			L123.8,146.76z"/>
	</g>
</g>
</svg>
