<?xml version="1.0" encoding="utf-8"?>
<!-- Generator: Adobe Illustrator 24.0.0, SVG Export Plug-In . SVG Version: 6.00 Build 0)  -->
<svg version="1.2" baseProfile="tiny" id="Layer_1" xmlns="http://www.w3.org/2000/svg" xmlns:xlink="http://www.w3.org/1999/xlink"
	 x="0px" y="0px" width="600" height="180" viewBox="0 0 600 180" xml:space="preserve">
<path fill-rule="evenodd" d="M440.5,87.5v26.3c0.4,2.2,2,3.5,4.7,3.7h14.7c2,0.2,2.9-0.8,2.7-3V87.2c0.2-2.2-0.7-3.2-2.7-3h-15.3
	C442.3,84.4,440.9,85.5,440.5,87.5L440.5,87.5z M445.8,80.5h19.7c6.7,0,10,3.7,10,11v18.7c0,7.3-3.3,11-10,11h-19.3
	c-2.7-0.2-4.4-1.7-5.3-4.3v19h-13.3v-55h13v4.3C441.8,82.3,443.6,80.7,445.8,80.5L445.8,80.5z M405.6,114.9V87.2
	c0.2-2.2-0.7-3.2-2.7-3h-17c-2-0.2-2.9,0.8-2.7,3v27.7c0,2,0.9,3,2.7,3h17C404.9,117.9,405.8,116.8,405.6,114.9L405.6,114.9z
	 M370.6,110.2V91.5c0-7.3,3.3-11,10-11h27.7c6.9,0,10.3,3.7,10.3,11v18.7c0,7.3-3.5,11-10.3,11h-27.7
	C373.7,121.2,370.4,117.5,370.6,110.2L370.6,110.2z M362.1,84.8h-16.3c-2.2,0.5-3.6,1.8-4,4v32.3h-12.7V80.8h12.7v5.3
	c1.1-2.9,3.2-4.4,6.3-4.7h14V84.8L362.1,84.8z M285.2,96.5h17c2.9,0.4,4.2-1.2,4-5V75.2c0.2-3.8-1.1-5.6-4-5.3h-17
	c-3.1,0.4-5,1.9-5.7,4.3v18C280.2,94.4,282.1,95.8,285.2,96.5L285.2,96.5z M279.5,121.2h-13.3v-55h13.3v5.3c0.9-3.1,2.9-4.9,6-5.3
	h21c8.7,0,13,3.8,13,11.3v11.3c0,7.6-4.3,11.3-13,11.3h-20.7c-3.3,0-5.5-1.7-6.3-5V121.2L279.5,121.2z M232.7,109.5l4.3,8h3.3
	c2.2,0.2,3.2-0.9,3-3.3v-41c0.2-2.4-0.8-3.6-3-3.3H219c-2.2-0.2-3.2,0.9-3,3.3v41c-0.2,2.4,0.8,3.6,3,3.3h10l-4.7-8H232.7
	L232.7,109.5z M231.7,122.5l-1-1.3h-17c-7.3,0-11-3.8-11-11.3V77.2c0-7.3,3.7-11,11-11h32c7.3,0,11,3.7,11,11v32.7
	c0,7.6-3.7,11.3-11,11.3h-7l3.3,5.7C236.5,127.5,233,126.1,231.7,122.5z"/>
<path fill-rule="evenodd" d="M146.5,99.7V80.8h12.1v5.1h26.3V66.2h7v56.4h-7V95.6h-26.3v4.1H146.5L146.5,99.7z M140.6,0.3
	c0.5-3-3.3,15.2-5.5,54.6c0.9,16,0.3,15.3,2.7,24.7l0.2,2.3l-0.7,0c-0.1,5.4-0.1,10.8-0.2,16.2c0.3,0,0.6,0.1,0.9,0.1
	c-1.9,14.8-3.1,28.9-3.8,42.3c-0.4-1.6,6.9-42.1,10.8-41.8c0.1-6.7,0.2-16.5,0.2-16.5c-1.6-1.8-1.7-3.8-1.7-5.9
	c0,0.6-1.9,5.4-3.5,7.7c0-0.3,0.1-0.7,0.1-1c2.7-4.9,4.4-20.3,2.5-41.5C141.4,13.4,141.9,28.3,140.6,0.3L140.6,0.3z M140.6,179.9
	c0,1.5-5.6-17.2-5.8-34.6c-0.2-17.5,8.2-40.5,8.6-37.2c0.3,3.3,0.1,14.5-0.9,29.9C141.3,165.9,140.9,151.9,140.6,179.9z"/>
<path fill-rule="evenodd" d="M135.8,95.6c-6.5-0.8-11.2-3-11.2-5.6c0-2.6,4.7-4.8,11.2-5.6V95.6z"/>
</svg>
