<?xml version="1.0" encoding="utf-8"?>
<!-- Generator: Adobe Illustrator 24.0.0, SVG Export Plug-In . SVG Version: 6.00 Build 0)  -->
<svg version="1.2" baseProfile="tiny" id="Layer_1" xmlns="http://www.w3.org/2000/svg" xmlns:xlink="http://www.w3.org/1999/xlink"
	 x="0px" y="0px" width="600" height="180" viewBox="0 0 600 180" xml:space="preserve">
<g>
	<g>
		<path fill="#020203" d="M0.6,130.8l17.2-49.3h38.8l8.6,12.3l-6.5,18.5h-8.6l6.5,18.5H39.4l-6.5-18.5h-8.6l-6.5,18.5H0.6z
			 M45.9,100l2.2-6.2H30.8l-2.2,6.2H45.9z"/>
		<path fill="#020203" d="M56.7,130.8l12.9-37l17.3-12.3h25.9l8.6,12.3l-12.9,37H91.1l4.3-12.3H78.2l-4.3,12.3H56.7z M99.8,106.2
			l4.3-12.3H86.9l-4.3,12.3H99.8z"/>
		<path fill="#020203" d="M112.7,130.8L130,81.5h38.8l8.6,12.3l-8.6,24.7l-17.2,12.3H112.7z M151.5,118.5l8.6-24.7h-17.2l-8.7,24.7
			H151.5z"/>
		<path fill="#020203" d="M168.8,130.8L186,81.5h17.2L186,130.8H168.8z"/>
		<path fill="#020203" d="M203.2,130.8l-8.6-12.3l8.6-24.7l17.3-12.3h25.9l8.6,12.3l-8.6,24.7l-17.2,12.3H203.2z M229.2,118.5
			l8.6-24.7h-17.2l-8.7,24.7H229.2z"/>
		<path fill="#020203" d="M246.4,130.8l17.2-49.3h8.6l13,18.5l25.9-18.5h13l-17.2,49.3h-17.3l8.7-24.7L281,118.4l-8.6-12.3
			l-8.6,24.7H246.4z"/>
		<path fill="#020203" d="M311.1,130.8l12.9-37l17.3-12.3h25.9l8.6,12.3l-12.9,37h-17.3l4.3-12.3h-17.3l-4.3,12.3H311.1z
			 M354.2,106.2l4.3-12.3h-17.2l-4.3,12.3H354.2z"/>
		<path fill="#020203" d="M367.2,130.8l4.3-12.3H406l2.2-6.2h-28.1l-4.3-6.2l4.3-12.3l17.3-12.3h38.8l-4.3,12.3h-34.5l-2.2,6.2h28
			l4.3,6.2l-4.3,12.3L406,130.8H367.2z"/>
		<path fill="#020203" d="M440.5,130.8l13-37h-17.3l4.3-12.3h51.8L488,93.8h-17.2l-13,37H440.5z"/>
		<path fill="#020203" d="M479.3,130.8l17.2-49.3h51.8L544,93.8h-34.5l-2.2,6.2h34.5l-4.3,12.3H503l-2.2,6.2h34.5l-4.3,12.3H479.3z"
			/>
		<path fill="#020203" d="M535.3,130.8l17.2-49.3h38.8l8.6,12.3l-6.5,18.5h-8.6l6.5,18.5h-17.2l-6.5-18.5H559l-6.5,18.5H535.3z
			 M580.6,100l2.2-6.2h-17.2l-2.2,6.2H580.6z"/>
	</g>
	<path fill-rule="evenodd" fill="#020203" d="M190.9,4.2c0.1,2.2,1.8,3.9,4,4c16.3,0.5,31.6,6.9,43.5,18.2s19.1,26.3,20.4,42.5
		c0.2,2.2,2,3.8,4.2,3.8c2.4-0.1,4.2-2.1,4-4.4c-1.5-17.6-9.2-34.7-23-47.8C230.2,7.4,212.7,0.6,195.1,0c-1.2,0-2.3,0.5-3.1,1.3
		C191.3,2,190.8,3.1,190.9,4.2 M191.9,44.5c0.1,2.1,1.6,3.8,3.6,4c5.5,0.6,10.9,2.9,15.2,7.1c4.3,4.1,6.9,9.3,7.8,14.8
		c0.3,2,2.1,3.5,4.2,3.4c2.5-0.1,4.4-2.3,3.9-4.8c-1.2-7.2-4.6-14-10.3-19.4s-12.7-8.5-19.9-9.3C194,40,191.8,42,191.9,44.5"/>
	<path fill-rule="evenodd" fill="#020203" d="M191.4,24.3L191.4,24.3c0.1,2.2,1.8,3.9,3.9,4c10.6,0.6,21,4.8,29.3,12.6
		c8.3,7.9,13,18,14.1,28.6c0.2,2.1,2,3.7,4.2,3.7h0.1c2.4-0.1,4.2-2.2,4-4.5c-1.3-12.4-6.9-24.4-16.7-33.7s-22-14.2-34.5-14.9
		C193.3,20,191.3,21.9,191.4,24.3"/>
	
		<ellipse transform="matrix(0.7071 -0.7071 0.7071 0.7071 9.7167 159.2582)" fill-rule="evenodd" fill="#020203" cx="197.1" cy="67.9" rx="8.3" ry="8.3"/>
</g>
</svg>
