{
  "asset": {
    "version": "2.0",
    "generator": "THREE.GLTFExporter r176"
  },
  "scenes": [
    {
      "name": "Scene",
      "nodes": [
        17
      ]
    }
  ],
  "scene": 0,
  "nodes": [
    {
      "name": "Object_4",
      "extras": {
        "name": "Object_4"
      },
      "mesh": 0
    },
    {
      "name": "Object_5",
      "extras": {
        "name": "Object_5"
      },
      "mesh": 1
    },
    {
      "name": "Object_6",
      "extras": {
        "name": "Object_6"
      },
      "mesh": 2
    },
    {
      "name": "Object_8",
      "extras": {
        "name": "Object_8"
      },
      "mesh": 3
    },
    {
      "name": "Object_9",
      "extras": {
        "name": "Object_9"
      },
      "mesh": 4
    },
    {
      "name": "Object_11",
      "extras": {
        "name": "Object_11"
      },
      "mesh": 5
    },
    {
      "name": "Object_12",
      "extras": {
        "name": "Object_12"
      },
      "mesh": 6
    },
    {
      "matrix": [
        0.5862138271331787,
        0,
        0,
        0,
        0,
        0.5862138271331787,
        0,
        0,
        0,
        0,
        0.5862138271331787,
        0,
        0.004424444865435362,
        0.6251263618469238,
        -0.00966958049684763,
        1
      ],
      "name": "Cylinder_0",
      "extras": {
        "name": "Cylinder_0"
      },
      "children": [
        5,
        6
      ]
    },
    {
      "matrix": [
        1.2802247870703608e-16,
        -0.5765619874000549,
        0,
        0,
        0.5765619874000549,
        1.2802247870703608e-16,
        0,
        0,
        0,
        0,
        0.5765619874000549,
        0,
        0.643250584602356,
        0.8645966053009033,
        -0.009081187658011913,
        1
      ],
      "name": "fuselage_1",
      "extras": {
        "name": "fuselage_1"
      },
      "children": [
        3,
        4,
        7
      ]
    },
    {
      "matrix": [
        1,
        0,
        0,
        0,
        0,
        1,
        0,
        0,
        0,
        0,
        1,
        0,
        1.892844796180725,
        -0.6096377372741699,
        0.02312111109495163,
        1
      ],
      "name": "plane_2",
      "extras": {
        "name": "plane_2"
      },
      "children": [
        0,
        1,
        2,
        8
      ]
    },
    {
      "name": "Object_14",
      "extras": {
        "name": "Object_14"
      },
      "mesh": 7
    },
    {
      "matrix": [
        0.00002981450160899779,
        0.45362885157979993,
        -0.010796565877853988,
        0,
        -0.1052813862504318,
        0.000005150942929734226,
        -0.00007431027079091138,
        0,
        -0.00031943837828750577,
        0.01078928678123305,
        0.45332213070445837,
        0,
        2.335226058959961,
        0.20332840085029602,
        0.008464819751679897,
        1
      ],
      "name": "Cylinder001_3",
      "extras": {
        "name": "Cylinder.001_3"
      },
      "children": [
        10
      ]
    },
    {
      "name": "Object_16",
      "extras": {
        "name": "Object_16"
      },
      "mesh": 8
    },
    {
      "matrix": [
        0.053173599391620266,
        -0.10989272420217686,
        0,
        0,
        0.10989272420217686,
        0.053173599391620266,
        0,
        0,
        0,
        0,
        0.15165363252162933,
        0,
        1.226359248161316,
        0.8155550956726074,
        0.00656476616859436,
        1
      ],
      "name": "Circle_4",
      "extras": {
        "name": "Circle_4"
      },
      "children": [
        12
      ]
    },
    {
      "matrix": [
        1,
        0,
        0,
        0,
        0,
        2.220446049250313e-16,
        1,
        0,
        0,
        -1,
        2.220446049250313e-16,
        0,
        0,
        0,
        0,
        1
      ],
      "name": "GLTF_SceneRootNode",
      "extras": {
        "name": "GLTF_SceneRootNode"
      },
      "children": [
        9,
        11,
        13
      ]
    },
    {
      "name": "root",
      "extras": {
        "name": "root"
      },
      "children": [
        14
      ]
    },
    {
      "matrix": [
        1,
        0,
        0,
        0,
        0,
        2.220446049250313e-16,
        -1,
        0,
        0,
        1,
        2.220446049250313e-16,
        0,
        0,
        0,
        0,
        1
      ],
      "name": "Sketchfab_model",
      "extras": {
        "name": "Sketchfab_model"
      },
      "children": [
        15
      ]
    },
    {
      "matrix": [
        2.220446049250313e-16,
        0,
        -1,
        0,
        0,
        1,
        0,
        0,
        1,
        0,
        2.220446049250313e-16,
        0,
        0,
        0,
        0,
        1
      ],
      "name": "Sketchfab_Scene",
      "children": [
        16
      ]
    }
  ],
  "bufferViews": [
    {
      "buffer": 0,
      "byteOffset": 0,
      "byteLength": 18768,
      "target": 34962,
      "byteStride": 12
    },
    {
      "buffer": 0,
      "byteOffset": 18768,
      "byteLength": 18768,
      "target": 34962,
      "byteStride": 12
    },
    {
      "buffer": 0,
      "byteOffset": 37536,
      "byteLength": 12512,
      "target": 34962,
      "byteStride": 8
    },
    {
      "buffer": 0,
      "byteOffset": 50048,
      "byteLength": 10752,
      "target": 34963
    },
    {
      "buffer": 0,
      "byteOffset": 60800,
      "byteLength": 4608,
      "target": 34962,
      "byteStride": 12
    },
    {
      "buffer": 0,
      "byteOffset": 65408,
      "byteLength": 4608,
      "target": 34962,
      "byteStride": 12
    },
    {
      "buffer": 0,
      "byteOffset": 70016,
      "byteLength": 3072,
      "target": 34962,
      "byteStride": 8
    },
    {
      "buffer": 0,
      "byteOffset": 73088,
      "byteLength": 2796,
      "target": 34963
    },
    {
      "buffer": 0,
      "byteOffset": 75884,
      "byteLength": 1440,
      "target": 34962,
      "byteStride": 12
    },
    {
      "buffer": 0,
      "byteOffset": 77324,
      "byteLength": 1440,
      "target": 34962,
      "byteStride": 12
    },
    {
      "buffer": 0,
      "byteOffset": 78764,
      "byteLength": 960,
      "target": 34962,
      "byteStride": 8
    },
    {
      "buffer": 0,
      "byteOffset": 79724,
      "byteLength": 912,
      "target": 34963
    },
    {
      "buffer": 0,
      "byteOffset": 80636,
      "byteLength": 8040,
      "target": 34962,
      "byteStride": 12
    },
    {
      "buffer": 0,
      "byteOffset": 88676,
      "byteLength": 8040,
      "target": 34962,
      "byteStride": 12
    },
    {
      "buffer": 0,
      "byteOffset": 96716,
      "byteLength": 5360,
      "target": 34962,
      "byteStride": 8
    },
    {
      "buffer": 0,
      "byteOffset": 102076,
      "byteLength": 4344,
      "target": 34963
    },
    {
      "buffer": 0,
      "byteOffset": 106420,
      "byteLength": 81648,
      "target": 34962,
      "byteStride": 12
    },
    {
      "buffer": 0,
      "byteOffset": 188068,
      "byteLength": 81648,
      "target": 34962,
      "byteStride": 12
    },
    {
      "buffer": 0,
      "byteOffset": 269716,
      "byteLength": 54432,
      "target": 34962,
      "byteStride": 8
    },
    {
      "buffer": 0,
      "byteOffset": 324148,
      "byteLength": 41040,
      "target": 34963
    },
    {
      "buffer": 0,
      "byteOffset": 365188,
      "byteLength": 1968,
      "target": 34962,
      "byteStride": 12
    },
    {
      "buffer": 0,
      "byteOffset": 367156,
      "byteLength": 1968,
      "target": 34962,
      "byteStride": 12
    },
    {
      "buffer": 0,
      "byteOffset": 369124,
      "byteLength": 1312,
      "target": 34962,
      "byteStride": 8
    },
    {
      "buffer": 0,
      "byteOffset": 370436,
      "byteLength": 1104,
      "target": 34963
    },
    {
      "buffer": 0,
      "byteOffset": 371540,
      "byteLength": 2688,
      "target": 34962,
      "byteStride": 12
    },
    {
      "buffer": 0,
      "byteOffset": 374228,
      "byteLength": 2688,
      "target": 34962,
      "byteStride": 12
    },
    {
      "buffer": 0,
      "byteOffset": 376916,
      "byteLength": 1792,
      "target": 34962,
      "byteStride": 8
    },
    {
      "buffer": 0,
      "byteOffset": 378708,
      "byteLength": 1344,
      "target": 34963
    },
    {
      "buffer": 0,
      "byteOffset": 380052,
      "byteLength": 864,
      "target": 34962,
      "byteStride": 12
    },
    {
      "buffer": 0,
      "byteOffset": 380916,
      "byteLength": 864,
      "target": 34962,
      "byteStride": 12
    },
    {
      "buffer": 0,
      "byteOffset": 381780,
      "byteLength": 576,
      "target": 34962,
      "byteStride": 8
    },
    {
      "buffer": 0,
      "byteOffset": 382356,
      "byteLength": 528,
      "target": 34963
    },
    {
      "buffer": 0,
      "byteOffset": 382884,
      "byteLength": 2304,
      "target": 34962,
      "byteStride": 12
    },
    {
      "buffer": 0,
      "byteOffset": 385188,
      "byteLength": 2304,
      "target": 34962,
      "byteStride": 12
    },
    {
      "buffer": 0,
      "byteOffset": 387492,
      "byteLength": 1536,
      "target": 34962,
      "byteStride": 8
    },
    {
      "buffer": 0,
      "byteOffset": 389028,
      "byteLength": 1488,
      "target": 34963
    }
  ],
  "buffers": [
    {
      "byteLength": 390516,
      "uri": "data:application/octet-stream;base64,"
    }
  ],
  "accessors": [
    {
      "bufferView": 0,
      "componentType": 5126,
      "count": 1564,
      "max": [
        1,
        0.9973472356796265,
        1
      ],
      "min": [
        -1,
        -0.9973471760749817,
        -1
      ],
      "type": "VEC3"
    },
    {
      "bufferView": 1,
      "componentType": 5126,
      "count": 1564,
      "max": [
        0.4112797975540161,
        1.7780413627624512,
        3.123692512512207
      ],
      "min": [
        -1.0700011253356934,
        -0.7613989114761353,
        -3.123692512512207
      ],
      "type": "VEC3"
    },
    {
      "bufferView": 2,
      "componentType": 5126,
      "count": 1564,
      "max": [
        1,
        1.0000001192092896
      ],
      "min": [
        0,
        0.01000000536441803
      ],
      "type": "VEC2"
    },
    {
      "bufferView": 3,
      "componentType": 5125,
      "count": 2688,
      "max": [
        1563
      ],
      "min": [
        0
      ],
      "type": "SCALAR"
    },
    {
      "bufferView": 4,
      "componentType": 5126,
      "count": 384,
      "max": [
        1,
        0.9999811053276062,
        1
      ],
      "min": [
        -1,
        -1,
        -1
      ],
      "type": "VEC3"
    },
    {
      "bufferView": 5,
      "componentType": 5126,
      "count": 384,
      "max": [
        0.2602877616882324,
        1.92475163936615,
        4.2220563888549805
      ],
      "min": [
        -4.709607124328613,
        0.2891623377799988,
        -4.2220563888549805
      ],
      "type": "VEC3"
    },
    {
      "bufferView": 6,
      "componentType": 5126,
      "count": 384,
      "max": [
        0.8750000596046448,
        1
      ],
      "min": [
        0,
        0
      ],
      "type": "VEC2"
    },
    {
      "bufferView": 7,
      "componentType": 5125,
      "count": 699,
      "max": [
        383
      ],
      "min": [
        0
      ],
      "type": "SCALAR"
    },
    {
      "bufferView": 8,
      "componentType": 5126,
      "count": 120,
      "max": [
        0.9238795638084412,
        0.9238795638084412,
        1
      ],
      "min": [
        -0.9238796234130859,
        -0.9238795042037964,
        -1
      ],
      "type": "VEC3"
    },
    {
      "bufferView": 9,
      "componentType": 5126,
      "count": 120,
      "max": [
        0.4929676055908203,
        -0.11347842216491699,
        0.9007786512374878
      ],
      "min": [
        -0.23664051294326782,
        -0.8430867195129395,
        -0.9007786512374878
      ],
      "type": "VEC3"
    },
    {
      "bufferView": 10,
      "componentType": 5126,
      "count": 120,
      "max": [
        1,
        1
      ],
      "min": [
        0,
        0.01000000536441803
      ],
      "type": "VEC2"
    },
    {
      "bufferView": 11,
      "componentType": 5125,
      "count": 228,
      "max": [
        119
      ],
      "min": [
        0
      ],
      "type": "SCALAR"
    },
    {
      "bufferView": 12,
      "componentType": 5126,
      "count": 670,
      "max": [
        0.9882238507270813,
        0.9999997019767761,
        0.9680708646774292
      ],
      "min": [
        -0.9883778691291809,
        -1,
        -0.9673572182655334
      ],
      "type": "VEC3"
    },
    {
      "bufferView": 13,
      "componentType": 5126,
      "count": 670,
      "max": [
        1.0975730419158936,
        -0.0009820080595090985,
        1.0454685688018799
      ],
      "min": [
        -1.0454684495925903,
        -8.4197416305542,
        -1.0513951778411865
      ],
      "type": "VEC3"
    },
    {
      "bufferView": 14,
      "componentType": 5126,
      "count": 670,
      "max": [
        1,
        0.9057803750038147
      ],
      "min": [
        0,
        0
      ],
      "type": "VEC2"
    },
    {
      "bufferView": 15,
      "componentType": 5125,
      "count": 1086,
      "max": [
        669
      ],
      "min": [
        0
      ],
      "type": "SCALAR"
    },
    {
      "bufferView": 16,
      "componentType": 5126,
      "count": 6804,
      "max": [
        0.9956944584846497,
        1,
        0.9966649413108826
      ],
      "min": [
        -0.9956942200660706,
        -0.9659262895584106,
        -0.996664822101593
      ],
      "type": "VEC3"
    },
    {
      "bufferView": 17,
      "componentType": 5126,
      "count": 6804,
      "max": [
        0.7344486117362976,
        0.01937916874885559,
        0.7212373614311218
      ],
      "min": [
        -0.7089975476264954,
        -0.24480868875980377,
        -0.7330541014671326
      ],
      "type": "VEC3"
    },
    {
      "bufferView": 18,
      "componentType": 5126,
      "count": 6804,
      "max": [
        1,
        1
      ],
      "min": [
        7.450580596923828e-8,
        0.01000000536441803
      ],
      "type": "VEC2"
    },
    {
      "bufferView": 19,
      "componentType": 5125,
      "count": 10260,
      "max": [
        6803
      ],
      "min": [
        0
      ],
      "type": "SCALAR"
    },
    {
      "bufferView": 20,
      "componentType": 5126,
      "count": 164,
      "max": [
        0.9238795638084412,
        1,
        0.9238795638084412
      ],
      "min": [
        -0.9238796234130859,
        -1,
        -0.9238795638084412
      ],
      "type": "VEC3"
    },
    {
      "bufferView": 21,
      "componentType": 5126,
      "count": 164,
      "max": [
        1,
        -0.14836402237415314,
        1
      ],
      "min": [
        -1,
        -2.1932458877563477,
        -1
      ],
      "type": "VEC3"
    },
    {
      "bufferView": 22,
      "componentType": 5126,
      "count": 164,
      "max": [
        1,
        1
      ],
      "min": [
        0,
        0.01000000536441803
      ],
      "type": "VEC2"
    },
    {
      "bufferView": 23,
      "componentType": 5125,
      "count": 276,
      "max": [
        163
      ],
      "min": [
        0
      ],
      "type": "SCALAR"
    },
    {
      "bufferView": 24,
      "componentType": 5126,
      "count": 224,
      "max": [
        0.926411509513855,
        1,
        0.9264115691184998
      ],
      "min": [
        -0.926411509513855,
        -1,
        -0.9264115691184998
      ],
      "type": "VEC3"
    },
    {
      "bufferView": 25,
      "componentType": 5126,
      "count": 224,
      "max": [
        3.6729979515075684,
        -0.5106407999992371,
        3.6729977130889893
      ],
      "min": [
        -3.67299747467041,
        -0.8996738195419312,
        -3.6729981899261475
      ],
      "type": "VEC3"
    },
    {
      "bufferView": 26,
      "componentType": 5126,
      "count": 224,
      "max": [
        0.875,
        1
      ],
      "min": [
        0.125,
        0
      ],
      "type": "VEC2"
    },
    {
      "bufferView": 27,
      "componentType": 5125,
      "count": 336,
      "max": [
        223
      ],
      "min": [
        0
      ],
      "type": "SCALAR"
    },
    {
      "bufferView": 28,
      "componentType": 5126,
      "count": 72,
      "max": [
        0.965925931930542,
        1,
        0.965925931930542
      ],
      "min": [
        -0.9659259915351868,
        -1,
        -0.9659258127212524
      ],
      "type": "VEC3"
    },
    {
      "bufferView": 29,
      "componentType": 5126,
      "count": 72,
      "max": [
        1,
        1,
        1
      ],
      "min": [
        -1,
        -1,
        -1
      ],
      "type": "VEC3"
    },
    {
      "bufferView": 30,
      "componentType": 5126,
      "count": 72,
      "max": [
        1,
        1
      ],
      "min": [
        7.450580596923828e-8,
        0.01000000536441803
      ],
      "type": "VEC2"
    },
    {
      "bufferView": 31,
      "componentType": 5125,
      "count": 132,
      "max": [
        71
      ],
      "min": [
        0
      ],
      "type": "SCALAR"
    },
    {
      "bufferView": 32,
      "componentType": 5126,
      "count": 192,
      "max": [
        0.9929785132408142,
        0.9863671660423279,
        0.9951517581939697
      ],
      "min": [
        -0.9922034740447998,
        -1,
        -0.9951517581939697
      ],
      "type": "VEC3"
    },
    {
      "bufferView": 33,
      "componentType": 5126,
      "count": 192,
      "max": [
        1,
        0,
        1
      ],
      "min": [
        -1.0096858739852905,
        -0.47360682487487793,
        -1
      ],
      "type": "VEC3"
    },
    {
      "bufferView": 34,
      "componentType": 5126,
      "count": 192,
      "max": [
        0,
        0
      ],
      "min": [
        0,
        0
      ],
      "type": "VEC2"
    },
    {
      "bufferView": 35,
      "componentType": 5125,
      "count": 372,
      "max": [
        191
      ],
      "min": [
        0
      ],
      "type": "SCALAR"
    }
  ],
  "materials": [
    {
      "pbrMetallicRoughness": {
        "baseColorFactor": [
          0.22979,
          0.22979,
          0.22979,
          1
        ],
        "metallicFactor": 0.5,
        "roughnessFactor": 0.5
      },
      "doubleSided": true,
      "name": "metal"
    },
    {
      "pbrMetallicRoughness": {
        "baseColorFactor": [
          0.8,
          0.0112475,
          0,
          1
        ],
        "metallicFactor": 0.1,
        "roughnessFactor": 0.2
      },
      "doubleSided": true,
      "name": "body_paint"
    },
    {
      "pbrMetallicRoughness": {
        "baseColorFactor": [
          0.0105473,
          0.0105473,
          0.0105473,
          1
        ],
        "metallicFactor": 0,
        "roughnessFactor": 1
      },
      "doubleSided": true,
      "name": "rubber"
    },
    {
      "pbrMetallicRoughness": {
        "baseColorFactor": [
          0.512191,
          0.4035,
          0.248018,
          1
        ],
        "metallicFactor": 0,
        "roughnessFactor": 0.5
      },
      "doubleSided": true,
      "name": "wood"
    },
    {
      "pbrMetallicRoughness": {
        "metallicFactor": 1,
        "roughnessFactor": 1
      },
      "doubleSided": true,
      "name": "Material.002"
    }
  ],
  "meshes": [
    {
      "primitives": [
        {
          "mode": 4,
          "attributes": {
            "NORMAL": 0,
            "POSITION": 1,
            "TEXCOORD_0": 2
          },
          "indices": 3,
          "material": 0
        }
      ]
    },
    {
      "primitives": [
        {
          "mode": 4,
          "attributes": {
            "NORMAL": 4,
            "POSITION": 5,
            "TEXCOORD_0": 6
          },
          "indices": 7,
          "material": 1
        }
      ]
    },
    {
      "primitives": [
        {
          "mode": 4,
          "attributes": {
            "NORMAL": 8,
            "POSITION": 9,
            "TEXCOORD_0": 10
          },
          "indices": 11,
          "material": 2
        }
      ]
    },
    {
      "primitives": [
        {
          "mode": 4,
          "attributes": {
            "NORMAL": 12,
            "POSITION": 13,
            "TEXCOORD_0": 14
          },
          "indices": 15,
          "material": 1
        }
      ]
    },
    {
      "primitives": [
        {
          "mode": 4,
          "attributes": {
            "NORMAL": 16,
            "POSITION": 17,
            "TEXCOORD_0": 18
          },
          "indices": 19,
          "material": 0
        }
      ]
    },
    {
      "primitives": [
        {
          "mode": 4,
          "attributes": {
            "NORMAL": 20,
            "POSITION": 21,
            "TEXCOORD_0": 22
          },
          "indices": 23,
          "material": 1
        }
      ]
    },
    {
      "primitives": [
        {
          "mode": 4,
          "attributes": {
            "NORMAL": 24,
            "POSITION": 25,
            "TEXCOORD_0": 26
          },
          "indices": 27,
          "material": 3
        }
      ]
    },
    {
      "primitives": [
        {
          "mode": 4,
          "attributes": {
            "NORMAL": 28,
            "POSITION": 29,
            "TEXCOORD_0": 30
          },
          "indices": 31,
          "material": 0
        }
      ]
    },
    {
      "primitives": [
        {
          "mode": 4,
          "attributes": {
            "NORMAL": 32,
            "POSITION": 33,
            "TEXCOORD_0": 34
          },
          "indices": 35,
          "material": 4
        }
      ]
    }
  ]
}