{
  "asset": {
    "version": "2.0",
    "generator": "THREE.GLTFExporter r177"
  },
  "scenes": [
    {
      "name": "Scene",
      "nodes": [
        0
      ]
    }
  ],
  "scene": 0,
  "nodes": [
    {
      "name": "quad_x.gltf",
      "children": [
        1
      ]
    },
    {
      "name": "quad_x_optimizedgltf",
      "extras": {
        "name": "quad_x_optimized.gltf"
      },
      "children": [
        2
      ]
    },
    {
      "name": "quad_xjson",
      "extras": {
        "name": "quad_x.json"
      },
      "children": [
        3,
        4,
        5,
        6,
        7,
        8,
        9,
        10,
        11,
        12,
        13,
        14
      ]
    },
    {
      "name": "mesh_0",
      "extras": {
        "name": "mesh_0"
      },
      "mesh": 0
    },
    {
      "name": "mesh_0_1",
      "extras": {
        "name": "mesh_0_1"
      },
      "mesh": 1
    },
    {
      "name": "mesh_0_2",
      "extras": {
        "name": "mesh_0_2"
      },
      "mesh": 2
    },
    {
      "name": "mesh_0_3",
      "extras": {
        "name": "mesh_0_3"
      },
      "mesh": 3
    },
    {
      "name": "mesh_0_4",
      "extras": {
        "name": "mesh_0_4"
      },
      "mesh": 4
    },
    {
      "name": "mesh_0_5",
      "extras": {
        "name": "mesh_0_5"
      },
      "mesh": 5
    },
    {
      "name": "mesh_0_6",
      "extras": {
        "name": "mesh_0_6"
      },
      "mesh": 6
    },
    {
      "name": "mesh_0_7",
      "extras": {
        "name": "mesh_0_7"
      },
      "mesh": 7
    },
    {
      "name": "mesh_0_8",
      "extras": {
        "name": "mesh_0_8"
      },
      "mesh": 8
    },
    {
      "name": "mesh_0_9",
      "extras": {
        "name": "mesh_0_9"
      },
      "mesh": 9
    },
    {
      "name": "mesh_0_10",
      "extras": {
        "name": "mesh_0_10"
      },
      "mesh": 10
    },
    {
      "name": "mesh_0_11",
      "extras": {
        "name": "mesh_0_11"
      },
      "mesh": 11
    }
  ],
  "bufferViews": [
    {
      "buffer": 0,
      "byteOffset": 0,
      "byteLength": 2508,
      "target": 34962,
      "byteStride": 12
    },
    {
      "buffer": 0,
      "byteOffset": 2508,
      "byteLength": 2508,
      "target": 34962,
      "byteStride": 12
    },
    {
      "buffer": 0,
      "byteOffset": 5016,
      "byteLength": 2508,
      "target": 34962,
      "byteStride": 12
    },
    {
      "buffer": 0,
      "byteOffset": 7524,
      "byteLength": 3864,
      "target": 34963
    },
    {
      "buffer": 0,
      "byteOffset": 11388,
      "byteLength": 2088,
      "target": 34962,
      "byteStride": 12
    },
    {
      "buffer": 0,
      "byteOffset": 13476,
      "byteLength": 2088,
      "target": 34962,
      "byteStride": 12
    },
    {
      "buffer": 0,
      "byteOffset": 15564,
      "byteLength": 2088,
      "target": 34962,
      "byteStride": 12
    },
    {
      "buffer": 0,
      "byteOffset": 17652,
      "byteLength": 4128,
      "target": 34963
    },
    {
      "buffer": 0,
      "byteOffset": 21780,
      "byteLength": 3900,
      "target": 34962,
      "byteStride": 12
    },
    {
      "buffer": 0,
      "byteOffset": 25680,
      "byteLength": 3900,
      "target": 34962,
      "byteStride": 12
    },
    {
      "buffer": 0,
      "byteOffset": 29580,
      "byteLength": 3900,
      "target": 34962,
      "byteStride": 12
    },
    {
      "buffer": 0,
      "byteOffset": 33480,
      "byteLength": 7800,
      "target": 34963
    },
    {
      "buffer": 0,
      "byteOffset": 41280,
      "byteLength": 2508,
      "target": 34962,
      "byteStride": 12
    },
    {
      "buffer": 0,
      "byteOffset": 43788,
      "byteLength": 2508,
      "target": 34962,
      "byteStride": 12
    },
    {
      "buffer": 0,
      "byteOffset": 46296,
      "byteLength": 2508,
      "target": 34962,
      "byteStride": 12
    },
    {
      "buffer": 0,
      "byteOffset": 48804,
      "byteLength": 3864,
      "target": 34963
    },
    {
      "buffer": 0,
      "byteOffset": 52668,
      "byteLength": 4176,
      "target": 34962,
      "byteStride": 12
    },
    {
      "buffer": 0,
      "byteOffset": 56844,
      "byteLength": 4176,
      "target": 34962,
      "byteStride": 12
    },
    {
      "buffer": 0,
      "byteOffset": 61020,
      "byteLength": 4176,
      "target": 34962,
      "byteStride": 12
    },
    {
      "buffer": 0,
      "byteOffset": 65196,
      "byteLength": 8256,
      "target": 34963
    },
    {
      "buffer": 0,
      "byteOffset": 73452,
      "byteLength": 23136,
      "target": 34962,
      "byteStride": 12
    },
    {
      "buffer": 0,
      "byteOffset": 96588,
      "byteLength": 23136,
      "target": 34962,
      "byteStride": 12
    },
    {
      "buffer": 0,
      "byteOffset": 119724,
      "byteLength": 23136,
      "target": 34962,
      "byteStride": 12
    },
    {
      "buffer": 0,
      "byteOffset": 142860,
      "byteLength": 23328,
      "target": 34963
    },
    {
      "buffer": 0,
      "byteOffset": 166188,
      "byteLength": 2088,
      "target": 34962,
      "byteStride": 12
    },
    {
      "buffer": 0,
      "byteOffset": 168276,
      "byteLength": 2088,
      "target": 34962,
      "byteStride": 12
    },
    {
      "buffer": 0,
      "byteOffset": 170364,
      "byteLength": 2088,
      "target": 34962,
      "byteStride": 12
    },
    {
      "buffer": 0,
      "byteOffset": 172452,
      "byteLength": 4128,
      "target": 34963
    },
    {
      "buffer": 0,
      "byteOffset": 176580,
      "byteLength": 23136,
      "target": 34962,
      "byteStride": 12
    },
    {
      "buffer": 0,
      "byteOffset": 199716,
      "byteLength": 23136,
      "target": 34962,
      "byteStride": 12
    },
    {
      "buffer": 0,
      "byteOffset": 222852,
      "byteLength": 23136,
      "target": 34962,
      "byteStride": 12
    },
    {
      "buffer": 0,
      "byteOffset": 245988,
      "byteLength": 23328,
      "target": 34963
    },
    {
      "buffer": 0,
      "byteOffset": 269316,
      "byteLength": 43164,
      "target": 34962,
      "byteStride": 12
    },
    {
      "buffer": 0,
      "byteOffset": 312480,
      "byteLength": 43164,
      "target": 34962,
      "byteStride": 12
    },
    {
      "buffer": 0,
      "byteOffset": 355644,
      "byteLength": 43164,
      "target": 34962,
      "byteStride": 12
    },
    {
      "buffer": 0,
      "byteOffset": 398808,
      "byteLength": 85896,
      "target": 34963
    },
    {
      "buffer": 0,
      "byteOffset": 484704,
      "byteLength": 5016,
      "target": 34962,
      "byteStride": 12
    },
    {
      "buffer": 0,
      "byteOffset": 489720,
      "byteLength": 5016,
      "target": 34962,
      "byteStride": 12
    },
    {
      "buffer": 0,
      "byteOffset": 494736,
      "byteLength": 5016,
      "target": 34962,
      "byteStride": 12
    },
    {
      "buffer": 0,
      "byteOffset": 499752,
      "byteLength": 7728,
      "target": 34963
    },
    {
      "buffer": 0,
      "byteOffset": 507480,
      "byteLength": 3900,
      "target": 34962,
      "byteStride": 12
    },
    {
      "buffer": 0,
      "byteOffset": 511380,
      "byteLength": 3900,
      "target": 34962,
      "byteStride": 12
    },
    {
      "buffer": 0,
      "byteOffset": 515280,
      "byteLength": 3900,
      "target": 34962,
      "byteStride": 12
    },
    {
      "buffer": 0,
      "byteOffset": 519180,
      "byteLength": 7800,
      "target": 34963
    },
    {
      "buffer": 0,
      "byteOffset": 526980,
      "byteLength": 3900,
      "target": 34962,
      "byteStride": 12
    },
    {
      "buffer": 0,
      "byteOffset": 530880,
      "byteLength": 3900,
      "target": 34962,
      "byteStride": 12
    },
    {
      "buffer": 0,
      "byteOffset": 534780,
      "byteLength": 3900,
      "target": 34962,
      "byteStride": 12
    },
    {
      "buffer": 0,
      "byteOffset": 538680,
      "byteLength": 7800,
      "target": 34963
    }
  ],
  "buffers": [
    {
      "byteLength": 546480,
      "uri": "data:application/octet-stream;base64,"
    }
  ],
  "accessors": [
    {
      "bufferView": 0,
      "componentType": 5126,
      "count": 209,
      "max": [
        3.3012421131134033,
        0.5945042967796326,
        -1.1618714332580566
      ],
      "min": [
        2.392016649246216,
        0.037953510880470276,
        -2.0697643756866455
      ],
      "type": "VEC3"
    },
    {
      "bufferView": 1,
      "componentType": 5126,
      "count": 209,
      "max": [
        0.9983029365539551,
        1,
        0.9924123883247375
      ],
      "min": [
        -0.9971039295196533,
        -1,
        -0.9999685287475586
      ],
      "type": "VEC3"
    },
    {
      "bufferView": 2,
      "componentType": 5126,
      "count": 209,
      "max": [
        1,
        1,
        1
      ],
      "min": [
        1,
        1,
        1
      ],
      "type": "VEC3"
    },
    {
      "bufferView": 3,
      "componentType": 5125,
      "count": 966,
      "max": [
        208
      ],
      "min": [
        0
      ],
      "type": "SCALAR"
    },
    {
      "bufferView": 4,
      "componentType": 5126,
      "count": 174,
      "max": [
        3.41261625289917,
        0.06774523109197617,
        -0.051494598388671875
      ],
      "min": [
        0.4492890238761902,
        -0.06688565760850906,
        -2.1447877883911133
      ],
      "type": "VEC3"
    },
    {
      "bufferView": 5,
      "componentType": 5126,
      "count": 174,
      "max": [
        0.9991612434387207,
        0.7035467624664307,
        0.9991612434387207
      ],
      "min": [
        -0.9997074007987976,
        -0.7035466432571411,
        -0.9994716644287109
      ],
      "type": "VEC3"
    },
    {
      "bufferView": 6,
      "componentType": 5126,
      "count": 174,
      "max": [
        1,
        1,
        1
      ],
      "min": [
        1,
        1,
        1
      ],
      "type": "VEC3"
    },
    {
      "bufferView": 7,
      "componentType": 5125,
      "count": 1032,
      "max": [
        173
      ],
      "min": [
        0
      ],
      "type": "SCALAR"
    },
    {
      "bufferView": 8,
      "componentType": 5126,
      "count": 325,
      "max": [
        -0.8779995441436768,
        0.5531318187713623,
        3.8455934524536133
      ],
      "min": [
        -4.046447277069092,
        0.3611984848976135,
        1.0594643354415894
      ],
      "type": "VEC3"
    },
    {
      "bufferView": 9,
      "componentType": 5126,
      "count": 325,
      "max": [
        0.9124590754508972,
        0.9969891309738159,
        0.9079221487045288
      ],
      "min": [
        -0.9231840968132019,
        -0.9993857741355896,
        -0.8984600305557251
      ],
      "type": "VEC3"
    },
    {
      "bufferView": 10,
      "componentType": 5126,
      "count": 325,
      "max": [
        1,
        1,
        1
      ],
      "min": [
        1,
        1,
        1
      ],
      "type": "VEC3"
    },
    {
      "bufferView": 11,
      "componentType": 5125,
      "count": 1950,
      "max": [
        324
      ],
      "min": [
        0
      ],
      "type": "SCALAR"
    },
    {
      "bufferView": 12,
      "componentType": 5126,
      "count": 209,
      "max": [
        -2.0121347904205322,
        0.594457745552063,
        2.907184362411499
      ],
      "min": [
        -2.920396566390991,
        0.037953123450279236,
        1.9980343580245972
      ],
      "type": "VEC3"
    },
    {
      "bufferView": 13,
      "componentType": 5126,
      "count": 209,
      "max": [
        0.9924123287200928,
        1,
        0.9987727999687195
      ],
      "min": [
        -0.9998720288276672,
        -1,
        -0.996367335319519
      ],
      "type": "VEC3"
    },
    {
      "bufferView": 14,
      "componentType": 5126,
      "count": 209,
      "max": [
        1,
        1,
        1
      ],
      "min": [
        1,
        1,
        1
      ],
      "type": "VEC3"
    },
    {
      "bufferView": 15,
      "componentType": 5125,
      "count": 966,
      "max": [
        208
      ],
      "min": [
        0
      ],
      "type": "SCALAR"
    },
    {
      "bufferView": 16,
      "componentType": 5126,
      "count": 348,
      "max": [
        2.973482608795166,
        0.06643403321504593,
        3.14461612701416
      ],
      "min": [
        -3.373168468475342,
        -0.06688594073057175,
        -2.129274368286133
      ],
      "type": "VEC3"
    },
    {
      "bufferView": 17,
      "componentType": 5126,
      "count": 348,
      "max": [
        0.9991612434387207,
        0.7114896178245544,
        0.9999685287475586
      ],
      "min": [
        -0.9999685287475586,
        -0.7114896178245544,
        -0.9997074007987976
      ],
      "type": "VEC3"
    },
    {
      "bufferView": 18,
      "componentType": 5126,
      "count": 348,
      "max": [
        1,
        1,
        1
      ],
      "min": [
        1,
        1,
        1
      ],
      "type": "VEC3"
    },
    {
      "bufferView": 19,
      "componentType": 5125,
      "count": 2064,
      "max": [
        347
      ],
      "min": [
        0
      ],
      "type": "SCALAR"
    },
    {
      "bufferView": 20,
      "componentType": 5126,
      "count": 1928,
      "max": [
        1.449798822402954,
        0.13761311769485474,
        1.9419810771942139
      ],
      "min": [
        -1.3630635738372803,
        0.07378803193569183,
        -2.724088430404663
      ],
      "type": "VEC3"
    },
    {
      "bufferView": 21,
      "componentType": 5126,
      "count": 1928,
      "max": [
        0.9999685287475586,
        1,
        1
      ],
      "min": [
        -0.9997074007987976,
        -1,
        -0.9999685287475586
      ],
      "type": "VEC3"
    },
    {
      "bufferView": 22,
      "componentType": 5126,
      "count": 1928,
      "max": [
        1,
        1,
        1
      ],
      "min": [
        1,
        1,
        1
      ],
      "type": "VEC3"
    },
    {
      "bufferView": 23,
      "componentType": 5125,
      "count": 5832,
      "max": [
        1927
      ],
      "min": [
        0
      ],
      "type": "SCALAR"
    },
    {
      "bufferView": 24,
      "componentType": 5126,
      "count": 174,
      "max": [
        -0.47519588470458984,
        0.06773096323013306,
        3.036130666732788
      ],
      "min": [
        -3.040536880493164,
        -0.06688593327999115,
        0.4365004897117615
      ],
      "type": "VEC3"
    },
    {
      "bufferView": 25,
      "componentType": 5126,
      "count": 174,
      "max": [
        0.9994716644287109,
        0.711105227470398,
        0.9987727999687195
      ],
      "min": [
        -0.9998720288276672,
        -0.711105227470398,
        -0.9998720288276672
      ],
      "type": "VEC3"
    },
    {
      "bufferView": 26,
      "componentType": 5126,
      "count": 174,
      "max": [
        1,
        1,
        1
      ],
      "min": [
        1,
        1,
        1
      ],
      "type": "VEC3"
    },
    {
      "bufferView": 27,
      "componentType": 5125,
      "count": 1032,
      "max": [
        173
      ],
      "min": [
        0
      ],
      "type": "SCALAR"
    },
    {
      "bufferView": 28,
      "componentType": 5126,
      "count": 1928,
      "max": [
        1.449798822402954,
        -0.06863539665937424,
        1.9419810771942139
      ],
      "min": [
        -1.3630635738372803,
        -0.13246047496795654,
        -2.724088430404663
      ],
      "type": "VEC3"
    },
    {
      "bufferView": 29,
      "componentType": 5126,
      "count": 1928,
      "max": [
        0.9999685287475586,
        1,
        1
      ],
      "min": [
        -0.9997074007987976,
        -1,
        -0.9999685287475586
      ],
      "type": "VEC3"
    },
    {
      "bufferView": 30,
      "componentType": 5126,
      "count": 1928,
      "max": [
        1,
        1,
        1
      ],
      "min": [
        1,
        1,
        1
      ],
      "type": "VEC3"
    },
    {
      "bufferView": 31,
      "componentType": 5125,
      "count": 5832,
      "max": [
        1927
      ],
      "min": [
        0
      ],
      "type": "SCALAR"
    },
    {
      "bufferView": 32,
      "componentType": 5126,
      "count": 3597,
      "max": [
        0.6130948066711426,
        0.5595057010650635,
        0.09626245498657227
      ],
      "min": [
        -4.049135208129883,
        0.12904092669487,
        -3.2495193481445312
      ],
      "type": "VEC3"
    },
    {
      "bufferView": 33,
      "componentType": 5126,
      "count": 3597,
      "max": [
        0.9955339431762695,
        1,
        1
      ],
      "min": [
        -0.9955339431762695,
        -1,
        -1
      ],
      "type": "VEC3"
    },
    {
      "bufferView": 34,
      "componentType": 5126,
      "count": 3597,
      "max": [
        1,
        1,
        1
      ],
      "min": [
        1,
        1,
        1
      ],
      "type": "VEC3"
    },
    {
      "bufferView": 35,
      "componentType": 5125,
      "count": 21474,
      "max": [
        3596
      ],
      "min": [
        0
      ],
      "type": "SCALAR"
    },
    {
      "bufferView": 36,
      "componentType": 5126,
      "count": 418,
      "max": [
        2.906769037246704,
        0.5953218936920166,
        3.04595947265625
      ],
      "min": [
        -3.2272841930389404,
        0.03795310854911804,
        -2.0272951126098633
      ],
      "type": "VEC3"
    },
    {
      "bufferView": 37,
      "componentType": 5126,
      "count": 418,
      "max": [
        0.9971039295196533,
        1,
        0.9935607314109802
      ],
      "min": [
        -0.9987727999687195,
        -1,
        -0.9999685287475586
      ],
      "type": "VEC3"
    },
    {
      "bufferView": 38,
      "componentType": 5126,
      "count": 418,
      "max": [
        1,
        1,
        1
      ],
      "min": [
        1,
        1,
        1
      ],
      "type": "VEC3"
    },
    {
      "bufferView": 39,
      "componentType": 5125,
      "count": 1932,
      "max": [
        417
      ],
      "min": [
        0
      ],
      "type": "SCALAR"
    },
    {
      "bufferView": 40,
      "componentType": 5126,
      "count": 325,
      "max": [
        4.101458549499512,
        0.5777420997619629,
        3.9003822803497314
      ],
      "min": [
        0.7979612350463867,
        0.38569706678390503,
        1.274690866470337
      ],
      "type": "VEC3"
    },
    {
      "bufferView": 41,
      "componentType": 5126,
      "count": 325,
      "max": [
        0.8878656029701233,
        0.9993857741355896,
        0.9216302037239075
      ],
      "min": [
        -0.9248908162117004,
        -0.9969890713691711,
        -0.9301238059997559
      ],
      "type": "VEC3"
    },
    {
      "bufferView": 42,
      "componentType": 5126,
      "count": 325,
      "max": [
        1,
        1,
        1
      ],
      "min": [
        1,
        1,
        1
      ],
      "type": "VEC3"
    },
    {
      "bufferView": 43,
      "componentType": 5125,
      "count": 1950,
      "max": [
        324
      ],
      "min": [
        0
      ],
      "type": "SCALAR"
    },
    {
      "bufferView": 44,
      "componentType": 5126,
      "count": 325,
      "max": [
        4.173482894897461,
        0.5531272888183594,
        0.02069854736328125
      ],
      "min": [
        1.5246124267578125,
        0.3615272343158722,
        -3.247678756713867
      ],
      "type": "VEC3"
    },
    {
      "bufferView": 45,
      "componentType": 5126,
      "count": 325,
      "max": [
        0.970660388469696,
        0.9972139596939087,
        0.8413716554641724
      ],
      "min": [
        -0.970660388469696,
        -0.9993176460266113,
        -0.8374993801116943
      ],
      "type": "VEC3"
    },
    {
      "bufferView": 46,
      "componentType": 5126,
      "count": 325,
      "max": [
        1,
        1,
        1
      ],
      "min": [
        1,
        1,
        1
      ],
      "type": "VEC3"
    },
    {
      "bufferView": 47,
      "componentType": 5125,
      "count": 1950,
      "max": [
        324
      ],
      "min": [
        0
      ],
      "type": "SCALAR"
    }
  ],
  "materials": [
    {
      "pbrMetallicRoughness": {
        "baseColorFactor": [
          0,
          0.4470588235294118,
          0.6392156862745098,
          1
        ],
        "metallicFactor": 0.5,
        "roughnessFactor": 0.5
      },
      "name": "Material.004"
    },
    {
      "pbrMetallicRoughness": {
        "baseColorFactor": [
          0.4,
          0.4,
          0.4,
          1
        ],
        "metallicFactor": 0.5,
        "roughnessFactor": 0.5
      },
      "name": "Material.003"
    },
    {
      "pbrMetallicRoughness": {
        "baseColorFactor": [
          1,
          0,
          0,
          1
        ],
        "metallicFactor": 0.5,
        "roughnessFactor": 0.5
      },
      "name": "Material.005"
    },
    {
      "pbrMetallicRoughness": {
        "baseColorFactor": [
          0.17647058823529413,
          0.17647058823529413,
          0.17647058823529413,
          1
        ],
        "metallicFactor": 0.5,
        "roughnessFactor": 0.5
      },
      "name": "Material.001"
    },
    {
      "pbrMetallicRoughness": {
        "baseColorFactor": [
          0,
          1,
          0,
          1
        ],
        "metallicFactor": 0.5,
        "roughnessFactor": 0.5
      },
      "name": "Material.002"
    }
  ],
  "meshes": [
    {
      "primitives": [
        {
          "mode": 4,
          "attributes": {
            "POSITION": 0,
            "NORMAL": 1,
            "COLOR_0": 2
          },
          "indices": 3,
          "material": 0
        }
      ]
    },
    {
      "primitives": [
        {
          "mode": 4,
          "attributes": {
            "POSITION": 4,
            "NORMAL": 5,
            "COLOR_0": 6
          },
          "indices": 7,
          "material": 1
        }
      ]
    },
    {
      "primitives": [
        {
          "mode": 4,
          "attributes": {
            "POSITION": 8,
            "NORMAL": 9,
            "COLOR_0": 10
          },
          "indices": 11,
          "material": 2
        }
      ]
    },
    {
      "primitives": [
        {
          "mode": 4,
          "attributes": {
            "POSITION": 12,
            "NORMAL": 13,
            "COLOR_0": 14
          },
          "indices": 15,
          "material": 0
        }
      ]
    },
    {
      "primitives": [
        {
          "mode": 4,
          "attributes": {
            "POSITION": 16,
            "NORMAL": 17,
            "COLOR_0": 18
          },
          "indices": 19,
          "material": 1
        }
      ]
    },
    {
      "primitives": [
        {
          "mode": 4,
          "attributes": {
            "POSITION": 20,
            "NORMAL": 21,
            "COLOR_0": 22
          },
          "indices": 23,
          "material": 3
        }
      ]
    },
    {
      "primitives": [
        {
          "mode": 4,
          "attributes": {
            "POSITION": 24,
            "NORMAL": 25,
            "COLOR_0": 26
          },
          "indices": 27,
          "material": 1
        }
      ]
    },
    {
      "primitives": [
        {
          "mode": 4,
          "attributes": {
            "POSITION": 28,
            "NORMAL": 29,
            "COLOR_0": 30
          },
          "indices": 31,
          "material": 3
        }
      ]
    },
    {
      "primitives": [
        {
          "mode": 4,
          "attributes": {
            "POSITION": 32,
            "NORMAL": 33,
            "COLOR_0": 34
          },
          "indices": 35,
          "material": 4
        }
      ]
    },
    {
      "primitives": [
        {
          "mode": 4,
          "attributes": {
            "POSITION": 36,
            "NORMAL": 37,
            "COLOR_0": 38
          },
          "indices": 39,
          "material": 0
        }
      ]
    },
    {
      "primitives": [
        {
          "mode": 4,
          "attributes": {
            "POSITION": 40,
            "NORMAL": 41,
            "COLOR_0": 42
          },
          "indices": 43,
          "material": 2
        }
      ]
    },
    {
      "primitives": [
        {
          "mode": 4,
          "attributes": {
            "POSITION": 44,
            "NORMAL": 45,
            "COLOR_0": 46
          },
          "indices": 47,
          "material": 4
        }
      ]
    }
  ]
}