{
  "asset": {
    "version": "2.0",
    "generator": "THREE.GLTFExporter"
  },
  "scenes": [
    {
      "nodes": [
        0
      ],
      "name": "Scene"
    }
  ],
  "scene": 0,
  "nodes": [
    {
      "name": "y4.json",
      "mesh": 0
    }
  ],
  "bufferViews": [
    {
      "buffer": 0,
      "byteOffset": 0,
      "byteLength": 551376,
      "target": 34962,
      "byteStride": 12
    },
    {
      "buffer": 0,
      "byteOffset": 551376,
      "byteLength": 551376,
      "target": 34962,
      "byteStride": 12
    },
    {
      "buffer": 0,
      "byteOffset": 1102752,
      "byteLength": 551376,
      "target": 34962,
      "byteStride": 12
    },
    {
      "buffer": 0,
      "byteOffset": 1654128,
      "byteLength": 1932,
      "target": 34963
    },
    {
      "buffer": 0,
      "byteOffset": 1656060,
      "byteLength": 3900,
      "target": 34963
    },
    {
      "buffer": 0,
      "byteOffset": 1659960,
      "byteLength": 3900,
      "target": 34963
    },
    {
      "buffer": 0,
      "byteOffset": 1663860,
      "byteLength": 2064,
      "target": 34963
    },
    {
      "buffer": 0,
      "byteOffset": 1665924,
      "byteLength": 3900,
      "target": 34963
    },
    {
      "buffer": 0,
      "byteOffset": 1669824,
      "byteLength": 2064,
      "target": 34963
    },
    {
      "buffer": 0,
      "byteOffset": 1671888,
      "byteLength": 11664,
      "target": 34963
    },
    {
      "buffer": 0,
      "byteOffset": 1683552,
      "byteLength": 2064,
      "target": 34963
    },
    {
      "buffer": 0,
      "byteOffset": 1685616,
      "byteLength": 11664,
      "target": 34963
    },
    {
      "buffer": 0,
      "byteOffset": 1697280,
      "byteLength": 42948,
      "target": 34963
    },
    {
      "buffer": 0,
      "byteOffset": 1740228,
      "byteLength": 5796,
      "target": 34963
    }
  ],
  "buffers": [
    {
      "byteLength": 1746024,
      "uri": "data:application/octet-stream;base64,"
    }
  ],
  "accessors": [
    {
      "bufferView": 0,
      "componentType": 5126,
      "count": 45948,
      "max": [
        5.025472164154053,
        0.7648524045944214,
        5.294832706451416
      ],
      "min": [
        -5.045167922973633,
        -0.5003297924995422,
        -2.8327064514160156
      ],
      "type": "VEC3"
    },
    {
      "bufferView": 1,
      "componentType": 5126,
      "count": 45948,
      "max": [
        0.999969482421875,
        1,
        1
      ],
      "min": [
        -0.999969482421875,
        -1,
        -1
      ],
      "type": "VEC3"
    },
    {
      "bufferView": 2,
      "componentType": 5126,
      "count": 45948,
      "max": [
        1,
        1,
        1
      ],
      "min": [
        1,
        1,
        1
      ],
      "type": "VEC3"
    },
    {
      "bufferView": 3,
      "componentType": 5123,
      "count": 966,
      "max": [
        965
      ],
      "min": [
        0
      ],
      "type": "SCALAR"
    },
    {
      "bufferView": 4,
      "componentType": 5123,
      "count": 1950,
      "max": [
        2915
      ],
      "min": [
        966
      ],
      "type": "SCALAR"
    },
    {
      "bufferView": 5,
      "componentType": 5123,
      "count": 1950,
      "max": [
        4865
      ],
      "min": [
        2916
      ],
      "type": "SCALAR"
    },
    {
      "bufferView": 6,
      "componentType": 5123,
      "count": 1032,
      "max": [
        5897
      ],
      "min": [
        4866
      ],
      "type": "SCALAR"
    },
    {
      "bufferView": 7,
      "componentType": 5123,
      "count": 1950,
      "max": [
        7847
      ],
      "min": [
        5898
      ],
      "type": "SCALAR"
    },
    {
      "bufferView": 8,
      "componentType": 5123,
      "count": 1032,
      "max": [
        8879
      ],
      "min": [
        7848
      ],
      "type": "SCALAR"
    },
    {
      "bufferView": 9,
      "componentType": 5123,
      "count": 5832,
      "max": [
        14711
      ],
      "min": [
        8880
      ],
      "type": "SCALAR"
    },
    {
      "bufferView": 10,
      "componentType": 5123,
      "count": 1032,
      "max": [
        15743
      ],
      "min": [
        14712
      ],
      "type": "SCALAR"
    },
    {
      "bufferView": 11,
      "componentType": 5123,
      "count": 5832,
      "max": [
        21575
      ],
      "min": [
        15744
      ],
      "type": "SCALAR"
    },
    {
      "bufferView": 12,
      "componentType": 5123,
      "count": 21474,
      "max": [
        43049
      ],
      "min": [
        21576
      ],
      "type": "SCALAR"
    },
    {
      "bufferView": 13,
      "componentType": 5123,
      "count": 2898,
      "max": [
        45947
      ],
      "min": [
        43050
      ],
      "type": "SCALAR"
    }
  ],
  "materials": [
    {
      "pbrMetallicRoughness": {
        "baseColorFactor": [
          0,
          0.4470588235294118,
          0.6392156862745098,
          1
        ],
        "metallicFactor": 0.5,
        "roughnessFactor": 0.5
      },
      "name": "Material.004"
    },
    {
      "pbrMetallicRoughness": {
        "baseColorFactor": [
          1,
          0,
          0,
          1
        ],
        "metallicFactor": 0.5,
        "roughnessFactor": 0.5
      },
      "name": "Material.005"
    },
    {
      "pbrMetallicRoughness": {
        "baseColorFactor": [
          0,
          1,
          0,
          1
        ],
        "metallicFactor": 0.5,
        "roughnessFactor": 0.5
      },
      "name": "Material.002"
    },
    {
      "pbrMetallicRoughness": {
        "baseColorFactor": [
          0.4,
          0.4,
          0.4,
          1
        ],
        "metallicFactor": 0.5,
        "roughnessFactor": 0.5
      },
      "name": "Material.003"
    },
    {
      "pbrMetallicRoughness": {
        "baseColorFactor": [
          0.17647058823529413,
          0.17647058823529413,
          0.17647058823529413,
          1
        ],
        "metallicFactor": 0.5,
        "roughnessFactor": 0.5
      },
      "name": "Material.001"
    }
  ],
  "meshes": [
    {
      "primitives": [
        {
          "mode": 4,
          "attributes": {
            "POSITION": 0,
            "NORMAL": 1,
            "COLOR_0": 2
          },
          "indices": 3,
          "material": 0
        },
        {
          "mode": 4,
          "attributes": {
            "POSITION": 0,
            "NORMAL": 1,
            "COLOR_0": 2
          },
          "indices": 4,
          "material": 1
        },
        {
          "mode": 4,
          "attributes": {
            "POSITION": 0,
            "NORMAL": 1,
            "COLOR_0": 2
          },
          "indices": 5,
          "material": 2
        },
        {
          "mode": 4,
          "attributes": {
            "POSITION": 0,
            "NORMAL": 1,
            "COLOR_0": 2
          },
          "indices": 6,
          "material": 3
        },
        {
          "mode": 4,
          "attributes": {
            "POSITION": 0,
            "NORMAL": 1,
            "COLOR_0": 2
          },
          "indices": 7,
          "material": 1
        },
        {
          "mode": 4,
          "attributes": {
            "POSITION": 0,
            "NORMAL": 1,
            "COLOR_0": 2
          },
          "indices": 8,
          "material": 3
        },
        {
          "mode": 4,
          "attributes": {
            "POSITION": 0,
            "NORMAL": 1,
            "COLOR_0": 2
          },
          "indices": 9,
          "material": 4
        },
        {
          "mode": 4,
          "attributes": {
            "POSITION": 0,
            "NORMAL": 1,
            "COLOR_0": 2
          },
          "indices": 10,
          "material": 3
        },
        {
          "mode": 4,
          "attributes": {
            "POSITION": 0,
            "NORMAL": 1,
            "COLOR_0": 2
          },
          "indices": 11,
          "material": 4
        },
        {
          "mode": 4,
          "attributes": {
            "POSITION": 0,
            "NORMAL": 1,
            "COLOR_0": 2
          },
          "indices": 12,
          "material": 2
        },
        {
          "mode": 4,
          "attributes": {
            "POSITION": 0,
            "NORMAL": 1,
            "COLOR_0": 2
          },
          "indices": 13,
          "material": 0
        }
      ]
    }
  ]
}