{
  "asset": {
    "version": "2.0",
    "generator": "THREE.GLTFExporter r177"
  },
  "scenes": [
    {
      "name": "Scene",
      "nodes": [
        0
      ]
    }
  ],
  "scene": 0,
  "nodes": [
    {
      "name": "y6_optimized.gltf",
      "children": [
        1
      ]
    },
    {
      "name": "y6json",
      "extras": {
        "name": "y6.json"
      },
      "children": [
        2,
        3,
        4,
        5,
        6,
        7,
        8,
        9,
        10,
        11,
        12,
        13
      ]
    },
    {
      "name": "mesh_0",
      "mesh": 0
    },
    {
      "name": "mesh_0_1",
      "mesh": 1
    },
    {
      "name": "mesh_0_2",
      "mesh": 2
    },
    {
      "name": "mesh_0_3",
      "mesh": 3
    },
    {
      "name": "mesh_0_4",
      "mesh": 4
    },
    {
      "name": "mesh_0_5",
      "mesh": 5
    },
    {
      "name": "mesh_0_6",
      "mesh": 6
    },
    {
      "name": "mesh_0_7",
      "mesh": 7
    },
    {
      "name": "mesh_0_8",
      "mesh": 8
    },
    {
      "name": "mesh_0_9",
      "mesh": 9
    },
    {
      "name": "mesh_0_10",
      "mesh": 10
    },
    {
      "name": "mesh_0_11",
      "mesh": 11
    }
  ],
  "bufferViews": [
    {
      "buffer": 0,
      "byteOffset": 0,
      "byteLength": 2508,
      "target": 34962,
      "byteStride": 12
    },
    {
      "buffer": 0,
      "byteOffset": 2508,
      "byteLength": 2508,
      "target": 34962,
      "byteStride": 12
    },
    {
      "buffer": 0,
      "byteOffset": 5016,
      "byteLength": 2508,
      "target": 34962,
      "byteStride": 12
    },
    {
      "buffer": 0,
      "byteOffset": 7524,
      "byteLength": 3864,
      "target": 34963
    },
    {
      "buffer": 0,
      "byteOffset": 11388,
      "byteLength": 7800,
      "target": 34962,
      "byteStride": 12
    },
    {
      "buffer": 0,
      "byteOffset": 19188,
      "byteLength": 7800,
      "target": 34962,
      "byteStride": 12
    },
    {
      "buffer": 0,
      "byteOffset": 26988,
      "byteLength": 7800,
      "target": 34962,
      "byteStride": 12
    },
    {
      "buffer": 0,
      "byteOffset": 34788,
      "byteLength": 15600,
      "target": 34963
    },
    {
      "buffer": 0,
      "byteOffset": 50388,
      "byteLength": 3900,
      "target": 34962,
      "byteStride": 12
    },
    {
      "buffer": 0,
      "byteOffset": 54288,
      "byteLength": 3900,
      "target": 34962,
      "byteStride": 12
    },
    {
      "buffer": 0,
      "byteOffset": 58188,
      "byteLength": 3900,
      "target": 34962,
      "byteStride": 12
    },
    {
      "buffer": 0,
      "byteOffset": 62088,
      "byteLength": 7800,
      "target": 34963
    },
    {
      "buffer": 0,
      "byteOffset": 69888,
      "byteLength": 3900,
      "target": 34962,
      "byteStride": 12
    },
    {
      "buffer": 0,
      "byteOffset": 73788,
      "byteLength": 3900,
      "target": 34962,
      "byteStride": 12
    },
    {
      "buffer": 0,
      "byteOffset": 77688,
      "byteLength": 3900,
      "target": 34962,
      "byteStride": 12
    },
    {
      "buffer": 0,
      "byteOffset": 81588,
      "byteLength": 7800,
      "target": 34963
    },
    {
      "buffer": 0,
      "byteOffset": 89388,
      "byteLength": 2088,
      "target": 34962,
      "byteStride": 12
    },
    {
      "buffer": 0,
      "byteOffset": 91476,
      "byteLength": 2088,
      "target": 34962,
      "byteStride": 12
    },
    {
      "buffer": 0,
      "byteOffset": 93564,
      "byteLength": 2088,
      "target": 34962,
      "byteStride": 12
    },
    {
      "buffer": 0,
      "byteOffset": 95652,
      "byteLength": 4128,
      "target": 34963
    },
    {
      "buffer": 0,
      "byteOffset": 99780,
      "byteLength": 3900,
      "target": 34962,
      "byteStride": 12
    },
    {
      "buffer": 0,
      "byteOffset": 103680,
      "byteLength": 3900,
      "target": 34962,
      "byteStride": 12
    },
    {
      "buffer": 0,
      "byteOffset": 107580,
      "byteLength": 3900,
      "target": 34962,
      "byteStride": 12
    },
    {
      "buffer": 0,
      "byteOffset": 111480,
      "byteLength": 7800,
      "target": 34963
    },
    {
      "buffer": 0,
      "byteOffset": 119280,
      "byteLength": 2088,
      "target": 34962,
      "byteStride": 12
    },
    {
      "buffer": 0,
      "byteOffset": 121368,
      "byteLength": 2088,
      "target": 34962,
      "byteStride": 12
    },
    {
      "buffer": 0,
      "byteOffset": 123456,
      "byteLength": 2088,
      "target": 34962,
      "byteStride": 12
    },
    {
      "buffer": 0,
      "byteOffset": 125544,
      "byteLength": 4128,
      "target": 34963
    },
    {
      "buffer": 0,
      "byteOffset": 129672,
      "byteLength": 23136,
      "target": 34962,
      "byteStride": 12
    },
    {
      "buffer": 0,
      "byteOffset": 152808,
      "byteLength": 23136,
      "target": 34962,
      "byteStride": 12
    },
    {
      "buffer": 0,
      "byteOffset": 175944,
      "byteLength": 23136,
      "target": 34962,
      "byteStride": 12
    },
    {
      "buffer": 0,
      "byteOffset": 199080,
      "byteLength": 23328,
      "target": 34963
    },
    {
      "buffer": 0,
      "byteOffset": 222408,
      "byteLength": 2088,
      "target": 34962,
      "byteStride": 12
    },
    {
      "buffer": 0,
      "byteOffset": 224496,
      "byteLength": 2088,
      "target": 34962,
      "byteStride": 12
    },
    {
      "buffer": 0,
      "byteOffset": 226584,
      "byteLength": 2088,
      "target": 34962,
      "byteStride": 12
    },
    {
      "buffer": 0,
      "byteOffset": 228672,
      "byteLength": 4128,
      "target": 34963
    },
    {
      "buffer": 0,
      "byteOffset": 232800,
      "byteLength": 23136,
      "target": 34962,
      "byteStride": 12
    },
    {
      "buffer": 0,
      "byteOffset": 255936,
      "byteLength": 23136,
      "target": 34962,
      "byteStride": 12
    },
    {
      "buffer": 0,
      "byteOffset": 279072,
      "byteLength": 23136,
      "target": 34962,
      "byteStride": 12
    },
    {
      "buffer": 0,
      "byteOffset": 302208,
      "byteLength": 23328,
      "target": 34963
    },
    {
      "buffer": 0,
      "byteOffset": 325536,
      "byteLength": 43164,
      "target": 34962,
      "byteStride": 12
    },
    {
      "buffer": 0,
      "byteOffset": 368700,
      "byteLength": 43164,
      "target": 34962,
      "byteStride": 12
    },
    {
      "buffer": 0,
      "byteOffset": 411864,
      "byteLength": 43164,
      "target": 34962,
      "byteStride": 12
    },
    {
      "buffer": 0,
      "byteOffset": 455028,
      "byteLength": 85896,
      "target": 34963
    },
    {
      "buffer": 0,
      "byteOffset": 540924,
      "byteLength": 12540,
      "target": 34962,
      "byteStride": 12
    },
    {
      "buffer": 0,
      "byteOffset": 553464,
      "byteLength": 12540,
      "target": 34962,
      "byteStride": 12
    },
    {
      "buffer": 0,
      "byteOffset": 566004,
      "byteLength": 12540,
      "target": 34962,
      "byteStride": 12
    },
    {
      "buffer": 0,
      "byteOffset": 578544,
      "byteLength": 19320,
      "target": 34963
    }
  ],
  "buffers": [
    {
      "byteLength": 597864,
      "uri": "data:application/octet-stream;base64,"
    }
  ],
  "accessors": [
    {
      "bufferView": 0,
      "componentType": 5126,
      "count": 209,
      "max": [
        0.40624433755874634,
        0.7223523855209351,
        3.5669562816619873
      ],
      "min": [
        -0.5363225936889648,
        0.1417090892791748,
        2.62715220451355
      ],
      "type": "VEC3"
    },
    {
      "bufferView": 1,
      "componentType": 5126,
      "count": 209,
      "max": [
        0.998239278793335,
        0.9999685287475586,
        0.9999685287475586
      ],
      "min": [
        -0.9970182180404663,
        -0.9999685287475586,
        -0.9911504983901978
      ],
      "type": "VEC3"
    },
    {
      "bufferView": 2,
      "componentType": 5126,
      "count": 209,
      "max": [
        1,
        1,
        1
      ],
      "min": [
        1,
        1,
        1
      ],
      "type": "VEC3"
    },
    {
      "bufferView": 3,
      "componentType": 5125,
      "count": 966,
      "max": [
        208
      ],
      "min": [
        0
      ],
      "type": "SCALAR"
    },
    {
      "bufferView": 4,
      "componentType": 5126,
      "count": 650,
      "max": [
        3.2284247875213623,
        -0.2883602976799011,
        -0.22020816802978516
      ],
      "min": [
        -3.4073784351348877,
        -0.5250059366226196,
        -4.5284552574157715
      ],
      "type": "VEC3"
    },
    {
      "bufferView": 5,
      "componentType": 5126,
      "count": 650,
      "max": [
        0.9989945888519287,
        0.99942946434021,
        0.8450584411621094
      ],
      "min": [
        -0.9913783669471741,
        -0.99942946434021,
        -0.8290581107139587
      ],
      "type": "VEC3"
    },
    {
      "bufferView": 6,
      "componentType": 5126,
      "count": 650,
      "max": [
        1,
        1,
        1
      ],
      "min": [
        1,
        1,
        1
      ],
      "type": "VEC3"
    },
    {
      "bufferView": 7,
      "componentType": 5125,
      "count": 3900,
      "max": [
        649
      ],
      "min": [
        0
      ],
      "type": "SCALAR"
    },
    {
      "bufferView": 8,
      "componentType": 5126,
      "count": 325,
      "max": [
        1.574293613433838,
        0.6854356527328491,
        4.537628173828125
      ],
      "min": [
        -1.6816468238830566,
        0.4802493453025818,
        1.639570713043213
      ],
      "type": "VEC3"
    },
    {
      "bufferView": 9,
      "componentType": 5126,
      "count": 325,
      "max": [
        0.8548774719238281,
        0.9965933561325073,
        0.9580509066581726
      ],
      "min": [
        -0.8449323773384094,
        -0.99942946434021,
        -0.9580509066581726
      ],
      "type": "VEC3"
    },
    {
      "bufferView": 10,
      "componentType": 5126,
      "count": 325,
      "max": [
        1,
        1,
        1
      ],
      "min": [
        1,
        1,
        1
      ],
      "type": "VEC3"
    },
    {
      "bufferView": 11,
      "componentType": 5125,
      "count": 1950,
      "max": [
        324
      ],
      "min": [
        0
      ],
      "type": "SCALAR"
    },
    {
      "bufferView": 12,
      "componentType": 5126,
      "count": 325,
      "max": [
        5.025472164154053,
        0.677017331123352,
        -2.0071377754211426
      ],
      "min": [
        0.7501128315925598,
        0.47860056161880493,
        -2.7632100582122803
      ],
      "type": "VEC3"
    },
    {
      "bufferView": 13,
      "componentType": 5126,
      "count": 325,
      "max": [
        0.8363898992538452,
        0.9970182180404663,
        0.9891145825386047
      ],
      "min": [
        -0.8351892828941345,
        -0.99942946434021,
        -0.9975254535675049
      ],
      "type": "VEC3"
    },
    {
      "bufferView": 14,
      "componentType": 5126,
      "count": 325,
      "max": [
        1,
        1,
        1
      ],
      "min": [
        1,
        1,
        1
      ],
      "type": "VEC3"
    },
    {
      "bufferView": 15,
      "componentType": 5125,
      "count": 1950,
      "max": [
        324
      ],
      "min": [
        0
      ],
      "type": "SCALAR"
    },
    {
      "bufferView": 16,
      "componentType": 5126,
      "count": 174,
      "max": [
        -0.46050405502319336,
        0.17449524998664856,
        -0.7529363632202148
      ],
      "min": [
        -3.56122088432312,
        0.03513718396425247,
        -2.9190452098846436
      ],
      "type": "VEC3"
    },
    {
      "bufferView": 17,
      "componentType": 5126,
      "count": 174,
      "max": [
        0.9882676005363464,
        0.70632004737854,
        0.9999685287475586
      ],
      "min": [
        -0.9999685287475586,
        -0.7063199281692505,
        -0.982975959777832
      ],
      "type": "VEC3"
    },
    {
      "bufferView": 18,
      "componentType": 5126,
      "count": 174,
      "max": [
        1,
        1,
        1
      ],
      "min": [
        1,
        1,
        1
      ],
      "type": "VEC3"
    },
    {
      "bufferView": 19,
      "componentType": 5125,
      "count": 1032,
      "max": [
        173
      ],
      "min": [
        0
      ],
      "type": "SCALAR"
    },
    {
      "bufferView": 20,
      "componentType": 5126,
      "count": 325,
      "max": [
        1.5212318897247314,
        -0.28056564927101135,
        4.593271255493164
      ],
      "min": [
        -1.6389095783233643,
        -0.4858899414539337,
        1.5859653949737549
      ],
      "type": "VEC3"
    },
    {
      "bufferView": 21,
      "componentType": 5126,
      "count": 325,
      "max": [
        0.8610535860061646,
        0.99942946434021,
        0.9466019868850708
      ],
      "min": [
        -0.863968551158905,
        -0.9965933561325073,
        -0.9466019868850708
      ],
      "type": "VEC3"
    },
    {
      "bufferView": 22,
      "componentType": 5126,
      "count": 325,
      "max": [
        1,
        1,
        1
      ],
      "min": [
        1,
        1,
        1
      ],
      "type": "VEC3"
    },
    {
      "bufferView": 23,
      "componentType": 5125,
      "count": 1950,
      "max": [
        324
      ],
      "min": [
        0
      ],
      "type": "SCALAR"
    },
    {
      "bufferView": 24,
      "componentType": 5126,
      "count": 174,
      "max": [
        3.462953805923462,
        0.1744977831840515,
        -0.7682714462280273
      ],
      "min": [
        0.39552244544029236,
        0.03513718396425247,
        -2.9351038932800293
      ],
      "type": "VEC3"
    },
    {
      "bufferView": 25,
      "componentType": 5126,
      "count": 174,
      "max": [
        0.9991612434387207,
        0.7035467624664307,
        0.9991612434387207
      ],
      "min": [
        -0.9997074007987976,
        -0.7035466432571411,
        -0.9994716644287109
      ],
      "type": "VEC3"
    },
    {
      "bufferView": 26,
      "componentType": 5126,
      "count": 174,
      "max": [
        1,
        1,
        1
      ],
      "min": [
        1,
        1,
        1
      ],
      "type": "VEC3"
    },
    {
      "bufferView": 27,
      "componentType": 5125,
      "count": 1032,
      "max": [
        173
      ],
      "min": [
        0
      ],
      "type": "SCALAR"
    },
    {
      "bufferView": 28,
      "componentType": 5126,
      "count": 1928,
      "max": [
        1.4311811923980713,
        0.2468201220035553,
        1.295236587524414
      ],
      "min": [
        -1.480499505996704,
        0.18075281381607056,
        -3.5347557067871094
      ],
      "type": "VEC3"
    },
    {
      "bufferView": 29,
      "componentType": 5126,
      "count": 1928,
      "max": [
        0.9999685287475586,
        1,
        1
      ],
      "min": [
        -0.9997074007987976,
        -1,
        -0.9999685287475586
      ],
      "type": "VEC3"
    },
    {
      "bufferView": 30,
      "componentType": 5126,
      "count": 1928,
      "max": [
        1,
        1,
        1
      ],
      "min": [
        1,
        1,
        1
      ],
      "type": "VEC3"
    },
    {
      "bufferView": 31,
      "componentType": 5125,
      "count": 5832,
      "max": [
        1927
      ],
      "min": [
        0
      ],
      "type": "SCALAR"
    },
    {
      "bufferView": 32,
      "componentType": 5126,
      "count": 174,
      "max": [
        0.3948999047279358,
        0.17928755283355713,
        3.7280640602111816
      ],
      "min": [
        -0.5176483988761902,
        0.030810773372650146,
        0.3130980134010315
      ],
      "type": "VEC3"
    },
    {
      "bufferView": 33,
      "componentType": 5126,
      "count": 174,
      "max": [
        0.9996696710586548,
        0.7125584483146667,
        0.9998720288276672
      ],
      "min": [
        -0.99942946434021,
        -0.7063199281692505,
        -0.9435449838638306
      ],
      "type": "VEC3"
    },
    {
      "bufferView": 34,
      "componentType": 5126,
      "count": 174,
      "max": [
        1,
        1,
        1
      ],
      "min": [
        1,
        1,
        1
      ],
      "type": "VEC3"
    },
    {
      "bufferView": 35,
      "componentType": 5125,
      "count": 1032,
      "max": [
        173
      ],
      "min": [
        0
      ],
      "type": "SCALAR"
    },
    {
      "bufferView": 36,
      "componentType": 5126,
      "count": 1928,
      "max": [
        1.4311811923980713,
        0.0333259254693985,
        1.295236587524414
      ],
      "min": [
        -1.480499505996704,
        -0.03274138271808624,
        -3.5347557067871094
      ],
      "type": "VEC3"
    },
    {
      "bufferView": 37,
      "componentType": 5126,
      "count": 1928,
      "max": [
        0.9999685287475586,
        1,
        1
      ],
      "min": [
        -0.9997074007987976,
        -1,
        -0.9999685287475586
      ],
      "type": "VEC3"
    },
    {
      "bufferView": 38,
      "componentType": 5126,
      "count": 1928,
      "max": [
        1,
        1,
        1
      ],
      "min": [
        1,
        1,
        1
      ],
      "type": "VEC3"
    },
    {
      "bufferView": 39,
      "componentType": 5125,
      "count": 5832,
      "max": [
        1927
      ],
      "min": [
        0
      ],
      "type": "SCALAR"
    },
    {
      "bufferView": 40,
      "componentType": 5126,
      "count": 3597,
      "max": [
        0.5650830268859863,
        0.7148318886756897,
        -1.4921590089797974
      ],
      "min": [
        -5.045167922973633,
        0.23794683814048767,
        -3.407921314239502
      ],
      "type": "VEC3"
    },
    {
      "bufferView": 41,
      "componentType": 5126,
      "count": 3597,
      "max": [
        0.9955339431762695,
        1,
        1
      ],
      "min": [
        -0.9955339431762695,
        -1,
        -1
      ],
      "type": "VEC3"
    },
    {
      "bufferView": 42,
      "componentType": 5126,
      "count": 3597,
      "max": [
        1,
        1,
        1
      ],
      "min": [
        1,
        1,
        1
      ],
      "type": "VEC3"
    },
    {
      "bufferView": 43,
      "componentType": 5125,
      "count": 21474,
      "max": [
        3596
      ],
      "min": [
        0
      ],
      "type": "SCALAR"
    },
    {
      "bufferView": 44,
      "componentType": 5126,
      "count": 1045,
      "max": [
        3.3568718433380127,
        0.7299172282218933,
        3.566505193710327
      ],
      "min": [
        -3.4109227657318115,
        -0.5363580584526062,
        -2.8574445247650146
      ],
      "type": "VEC3"
    },
    {
      "bufferView": 45,
      "componentType": 5126,
      "count": 1045,
      "max": [
        0.9983029365539551,
        1,
        0.9999685287475586
      ],
      "min": [
        -0.9999685287475586,
        -1,
        -0.9999685287475586
      ],
      "type": "VEC3"
    },
    {
      "bufferView": 46,
      "componentType": 5126,
      "count": 1045,
      "max": [
        1,
        1,
        1
      ],
      "min": [
        1,
        1,
        1
      ],
      "type": "VEC3"
    },
    {
      "bufferView": 47,
      "componentType": 5125,
      "count": 4830,
      "max": [
        1044
      ],
      "min": [
        0
      ],
      "type": "SCALAR"
    }
  ],
  "materials": [
    {
      "pbrMetallicRoughness": {
        "baseColorFactor": [
          0,
          0.4470588235294118,
          0.6392156862745098,
          1
        ],
        "metallicFactor": 0.5,
        "roughnessFactor": 0.5
      },
      "name": "Material.004"
    },
    {
      "pbrMetallicRoughness": {
        "baseColorFactor": [
          0,
          1,
          0,
          1
        ],
        "metallicFactor": 0.5,
        "roughnessFactor": 0.5
      },
      "name": "Material.002"
    },
    {
      "pbrMetallicRoughness": {
        "baseColorFactor": [
          1,
          0,
          0,
          1
        ],
        "metallicFactor": 0.5,
        "roughnessFactor": 0.5
      },
      "name": "Material.005"
    },
    {
      "pbrMetallicRoughness": {
        "baseColorFactor": [
          0.4,
          0.4,
          0.4,
          1
        ],
        "metallicFactor": 0.5,
        "roughnessFactor": 0.5
      },
      "name": "Material.003"
    },
    {
      "pbrMetallicRoughness": {
        "baseColorFactor": [
          0.17647058823529413,
          0.17647058823529413,
          0.17647058823529413,
          1
        ],
        "metallicFactor": 0.5,
        "roughnessFactor": 0.5
      },
      "name": "Material.001"
    }
  ],
  "meshes": [
    {
      "primitives": [
        {
          "mode": 4,
          "attributes": {
            "POSITION": 0,
            "NORMAL": 1,
            "COLOR_0": 2
          },
          "indices": 3,
          "material": 0
        }
      ]
    },
    {
      "primitives": [
        {
          "mode": 4,
          "attributes": {
            "POSITION": 4,
            "NORMAL": 5,
            "COLOR_0": 6
          },
          "indices": 7,
          "material": 1
        }
      ]
    },
    {
      "primitives": [
        {
          "mode": 4,
          "attributes": {
            "POSITION": 8,
            "NORMAL": 9,
            "COLOR_0": 10
          },
          "indices": 11,
          "material": 2
        }
      ]
    },
    {
      "primitives": [
        {
          "mode": 4,
          "attributes": {
            "POSITION": 12,
            "NORMAL": 13,
            "COLOR_0": 14
          },
          "indices": 15,
          "material": 1
        }
      ]
    },
    {
      "primitives": [
        {
          "mode": 4,
          "attributes": {
            "POSITION": 16,
            "NORMAL": 17,
            "COLOR_0": 18
          },
          "indices": 19,
          "material": 3
        }
      ]
    },
    {
      "primitives": [
        {
          "mode": 4,
          "attributes": {
            "POSITION": 20,
            "NORMAL": 21,
            "COLOR_0": 22
          },
          "indices": 23,
          "material": 2
        }
      ]
    },
    {
      "primitives": [
        {
          "mode": 4,
          "attributes": {
            "POSITION": 24,
            "NORMAL": 25,
            "COLOR_0": 26
          },
          "indices": 27,
          "material": 3
        }
      ]
    },
    {
      "primitives": [
        {
          "mode": 4,
          "attributes": {
            "POSITION": 28,
            "NORMAL": 29,
            "COLOR_0": 30
          },
          "indices": 31,
          "material": 4
        }
      ]
    },
    {
      "primitives": [
        {
          "mode": 4,
          "attributes": {
            "POSITION": 32,
            "NORMAL": 33,
            "COLOR_0": 34
          },
          "indices": 35,
          "material": 3
        }
      ]
    },
    {
      "primitives": [
        {
          "mode": 4,
          "attributes": {
            "POSITION": 36,
            "NORMAL": 37,
            "COLOR_0": 38
          },
          "indices": 39,
          "material": 4
        }
      ]
    },
    {
      "primitives": [
        {
          "mode": 4,
          "attributes": {
            "POSITION": 40,
            "NORMAL": 41,
            "COLOR_0": 42
          },
          "indices": 43,
          "material": 1
        }
      ]
    },
    {
      "primitives": [
        {
          "mode": 4,
          "attributes": {
            "POSITION": 44,
            "NORMAL": 45,
            "COLOR_0": 46
          },
          "indices": 47,
          "material": 0
        }
      ]
    }
  ]
}