<?xml version="1.0" encoding="UTF-8" standalone="no"?>
<svg
   xmlns:dc="http://purl.org/dc/elements/1.1/"
   xmlns:cc="http://creativecommons.org/ns#"
   xmlns:rdf="http://www.w3.org/1999/02/22-rdf-syntax-ns#"
   xmlns:svg="http://www.w3.org/2000/svg"
   xmlns="http://www.w3.org/2000/svg"
   xmlns:sodipodi="http://sodipodi.sourceforge.net/DTD/sodipodi-0.dtd"
   xmlns:inkscape="http://www.inkscape.org/namespaces/inkscape"
   viewBox="0 0 520 120"
   version="1.1"
   id="svg130"
   sodipodi:docname="actual.svg"
   width="520"
   height="120"
   inkscape:version="0.92.4 (5da689c313, 2019-01-14)">
  <metadata
     id="metadata136">
    <rdf:RDF>
      <cc:Work
         rdf:about="">
        <dc:format>image/svg+xml</dc:format>
        <dc:type
           rdf:resource="http://purl.org/dc/dcmitype/StillImage" />
        <dc:title></dc:title>
      </cc:Work>
    </rdf:RDF>
  </metadata>
  <defs
     id="defs134" />
  <sodipodi:namedview
     pagecolor="#ffffff"
     bordercolor="#666666"
     borderopacity="1"
     objecttolerance="10"
     gridtolerance="10"
     guidetolerance="10"
     inkscape:pageopacity="0"
     inkscape:pageshadow="2"
     inkscape:window-width="1366"
     inkscape:window-height="745"
     id="namedview132"
     showgrid="false"
     inkscape:pagecheckerboard="true"
     inkscape:zoom="1.625"
     inkscape:cx="260"
     inkscape:cy="60"
     inkscape:window-x="-8"
     inkscape:window-y="-8"
     inkscape:window-maximized="1"
     inkscape:current-layer="svg130" />
  <linearGradient
     id="a"
     gradientUnits="userSpaceOnUse"
     x1="896.98102"
     y1="895.90002"
     x2="977.74298"
     y2="895.90002"
     gradientTransform="matrix(0.31920295,0,0,0.31920295,-61.65618,-220.93039)">
    <stop
       offset="0"
       stop-color="#0065ac"
       id="stop2" />
    <stop
       offset="1"
       stop-color="#8dc4ec"
       id="stop4" />
  </linearGradient>
  <path
     d="m 238.66911,61.353563 v -17.37745 h -13.84702 v 42.13483 h 25.15638 c -7.53638,-5.91164 -11.30936,-14.71207 -11.30936,-24.75738 z"
     stroke-miterlimit="10"
     id="path7"
     inkscape:connector-curvature="0"
     style="fill:none;stroke:url(#a);stroke-width:0.31920296;stroke-miterlimit:10" />
  <linearGradient
     id="b"
     gradientUnits="userSpaceOnUse"
     x1="637.03497"
     y1="895.90002"
     x2="839.06897"
     y2="895.90002"
     gradientTransform="matrix(0.31920295,0,0,0.31920295,-61.65618,-220.93039)">
    <stop
       offset="0"
       stop-color="#0065ac"
       id="stop9" />
    <stop
       offset="1"
       stop-color="#8dc4ec"
       id="stop11" />
  </linearGradient>
  <path
     d="m 181.0849,43.976113 h -21.46321 c -5.14236,0 -9.39095,1.3886 -12.74258,4.1688 -3.35163,2.7771 -5.03064,6.3298 -5.03064,10.6486 0,4.26459 1.67582,7.74709 5.03064,10.44117 3.35163,2.69407 7.60022,4.04111 12.74258,4.04111 h 42.41888 l -9.93998,12.83834 h 13.91725 v -42.13802 z"
     stroke-miterlimit="10"
     id="path14"
     inkscape:connector-curvature="0"
     style="fill:none;stroke:url(#b);stroke-width:0.31920296;stroke-miterlimit:10" />
  <linearGradient
     id="c"
     gradientUnits="userSpaceOnUse"
     x1="453.599"
     y1="907.55701"
     x2="611.539"
     y2="907.55701"
     gradientTransform="matrix(0.31920295,0,0,0.31920295,-61.65618,-220.93039)">
    <stop
       offset="0"
       stop-color="#0065ac"
       id="stop16" />
    <stop
       offset="1"
       stop-color="#8dc4ec"
       id="stop18" />
  </linearGradient>
  <path
     stroke-miterlimit="10"
     d="m 83.44391,86.110943 h 49.79247 L 108.0353,51.531713 Z"
     id="path21"
     inkscape:connector-curvature="0"
     style="fill:none;stroke:url(#c);stroke-width:0.31920296;stroke-miterlimit:10" />
  <linearGradient
     id="d"
     gradientUnits="userSpaceOnUse"
     x1="1217.797"
     y1="908.56"
     x2="1378.769"
     y2="908.56"
     gradientTransform="matrix(0.31920295,0,0,0.31920295,-61.65618,-220.93039)">
    <stop
       offset="0"
       stop-color="#0065ac"
       id="stop23" />
    <stop
       offset="1"
       stop-color="#8dc4ec"
       id="stop25" />
  </linearGradient>
  <path
     stroke-miterlimit="10"
     d="m 327.38522,86.742963 35.1219,-0.63202 h 15.6313 l -25.201,-34.57923 z"
     id="path28"
     inkscape:connector-curvature="0"
     style="fill:none;stroke:url(#d);stroke-width:0.31920296;stroke-miterlimit:10" />
  <linearGradient
     id="e"
     gradientUnits="userSpaceOnUse"
     x1="346.47501"
     y1="895.76898"
     x2="1776.921"
     y2="895.76898"
     gradientTransform="matrix(0.31920295,0,0,0.31920295,-61.65618,-220.93039)">
    <stop
       offset="0"
       stop-color="#0063a6"
       id="stop30" />
    <stop
       offset="1"
       stop-color="#8fc5ec"
       id="stop32" />
  </linearGradient>
  <path
     d="m 443.38352,88.208103 11.6414,-14.93231 h -46.8463 v -44.91188 h -18.8042 v 41.04633 l -24.684,-34.24733 c -1.2289,-1.7907 -2.9398,-3.358 -5.12,-4.7018 -2.4068,-1.4556 -4.7274,-2.1834 -6.9682,-2.1834 -2.2951,0 -4.6157,0.7278 -6.9682,2.1834 -2.0716,1.2896 -3.7506,2.8537 -5.037,4.7018 l -22.9826,32.66408 c 0.3702,-2.08439 0.5554,-4.24859 0.5554,-6.47343 v -32.99285 h -18.8043 v 32.99285 c 0,4.86784 -1.8162,8.17159 -5.4456,9.90486 -2.6813,1.34385 -7.1788,2.01417 -13.4895,2.01417 -7.9322,0 -13.1831,-0.44688 -15.7527,-1.34384 -4.804,-1.56729 -7.2044,-5.09129 -7.2044,-10.57839 v -32.98965 h -97.91228 c -10.6901,0 -19.44903,2.742 -26.27678,8.2259 -2.87921,2.3142 -5.15194,4.9285 -6.81499,7.8396 l -6.67772,-9.2664 c -1.22893,-1.7908 -2.93986,-3.3581 -5.12002,-4.7019 -2.40679,-1.4556 -4.72739,-2.1834 -6.9682,-2.1834 -2.29507,0 -4.61567,0.7278 -6.9682,2.1834 -2.06843,1.2896 -3.74744,2.8537 -5.03702,4.7019 L 48.94126,101.72635 h 456.60386 z m -359.93961,-2.09716 24.59139,-34.58243 25.19788,34.58243 z m 122.57393,0 h -13.91725 l 9.93998,-12.83835 H 159.6185 c -5.14236,0 -9.39095,-1.34703 -12.74258,-4.04111 -3.35163,-2.69407 -5.03064,-6.17338 -5.03064,-10.44117 0,-4.322 1.67582,-7.8715 5.03064,-10.6486 3.35163,-2.777 7.60022,-4.1688 12.74258,-4.1688 h 46.39615 v 42.13803 z m 18.80425,0 v -42.13483 h 13.84702 v 17.37745 c 0,10.04531 3.76979,18.84574 11.30936,24.75738 z m 146.94193,0 h -9.2569 l -35.1219,0.63202 25.5522,-35.21445 27.2024,34.58243 z"
     id="path35"
     inkscape:connector-curvature="0"
     style="fill:url(#e);stroke-width:0.31920296" />
  <linearGradient
     id="f"
     gradientUnits="userSpaceOnUse"
     x1="343.58899"
     y1="895.76898"
     x2="1790.876"
     y2="895.76898"
     gradientTransform="matrix(0.31920295,0,0,0.31920295,-61.65618,-220.93039)">
    <stop
       offset="0"
       stop-color="#0065ac"
       id="stop37" />
    <stop
       offset="1"
       stop-color="#8dc4ec"
       id="stop39" />
  </linearGradient>
  <path
     d="m 443.38352,88.208103 11.6414,-14.93231 h -46.8463 v -44.91188 h -18.8042 v 41.04633 l -24.684,-34.24733 c -1.2289,-1.7907 -2.9398,-3.358 -5.12,-4.7018 -2.4068,-1.4556 -4.7274,-2.1834 -6.9682,-2.1834 -2.2951,0 -4.6157,0.7278 -6.9682,2.1834 -2.0716,1.2896 -3.7506,2.8537 -5.037,4.7018 l -22.9826,32.66408 c 0.3702,-2.08439 0.5554,-4.24859 0.5554,-6.47343 v -32.99285 h -18.8043 v 32.99285 c 0,4.86784 -1.8162,8.17159 -5.4456,9.90486 -2.6813,1.34385 -7.1788,2.01417 -13.4895,2.01417 -7.9322,0 -13.1831,-0.44688 -15.7527,-1.34384 -4.804,-1.56729 -7.2044,-5.09129 -7.2044,-10.57839 v -32.98965 h -97.91228 c -10.6901,0 -19.44903,2.742 -26.27678,8.2259 -2.87921,2.3142 -5.15194,4.9285 -6.81499,7.8396 l -6.67772,-9.2664 c -1.22893,-1.7908 -2.93986,-3.3581 -5.12002,-4.7019 -2.40679,-1.4556 -4.72739,-2.1834 -6.9682,-2.1834 -2.29507,0 -4.61567,0.7278 -6.9682,2.1834 -2.06843,1.2896 -3.74744,2.8537 -5.03702,4.7019 L 48.94126,101.72635 h 456.60386 z m -359.93961,-2.09716 24.59139,-34.58243 25.19788,34.58243 z m 122.57393,0 h -13.91725 l 9.93998,-12.83835 H 159.6185 c -5.14236,0 -9.39095,-1.34703 -12.74258,-4.04111 -3.35163,-2.69407 -5.03064,-6.17338 -5.03064,-10.44117 0,-4.322 1.67582,-7.8715 5.03064,-10.6486 3.35163,-2.777 7.60022,-4.1688 12.74258,-4.1688 h 46.39615 v 42.13803 z m 18.80425,0 v -42.13483 h 13.84702 v 17.37745 c 0,10.04531 3.76979,18.84574 11.30936,24.75738 z m 146.94193,0 h -9.2569 l -35.1219,0.63202 25.5522,-35.21445 27.2024,34.58243 z"
     stroke-miterlimit="10"
     id="path42"
     inkscape:connector-curvature="0"
     style="fill:none;stroke:url(#f);stroke-width:0.95760888;stroke-miterlimit:10" />
  <g
     id="g128"
     transform="matrix(0.31920295,0,0,0.31920295,-61.65618,-220.93039)">
    <linearGradient
       id="g"
       gradientUnits="userSpaceOnUse"
       x1="342.04501"
       y1="1015.499"
       x2="343.203"
       y2="1015.499">
      <stop
         offset="0"
         stop-color="#009bdb"
         id="stop44" />
      <stop
         offset="1"
         stop-color="#87c1eb"
         id="stop46" />
    </linearGradient>
    <linearGradient
       id="h"
       gradientUnits="userSpaceOnUse"
       x1="340.90799"
       y1="1015.552"
       x2="344.26599"
       y2="1015.552">
      <stop
         offset="0"
         stop-color="#075c84"
         id="stop49" />
      <stop
         offset="1"
         stop-color="#009bdb"
         id="stop51" />
    </linearGradient>
    <path
       d="m 343.2,1016.1 c -0.4,-0.4 -0.78,-0.81 -1.16,-1.21 0.68,0.79 1.16,1.21 1.16,1.21 z"
       stroke-miterlimit="10"
       id="path54"
       inkscape:connector-curvature="0"
       style="fill:url(#g);stroke:url(#h);stroke-width:3;stroke-miterlimit:10" />
    <linearGradient
       id="i"
       gradientUnits="userSpaceOnUse"
       x1="333.66901"
       y1="963.75201"
       x2="539.43201"
       y2="963.75201">
      <stop
         offset="0"
         stop-color="#009bdb"
         id="stop56" />
      <stop
         offset="1"
         stop-color="#87c1eb"
         id="stop58" />
    </linearGradient>
    <linearGradient
       id="j"
       gradientUnits="userSpaceOnUse"
       x1="332.16901"
       y1="963.51398"
       x2="540.93201"
       y2="963.51398">
      <stop
         offset="0"
         stop-color="#075c84"
         id="stop61" />
      <stop
         offset="1"
         stop-color="#009bdb"
         id="stop63" />
    </linearGradient>
    <path
       d="m 510.01,932.98 c 2.12,5.82 7.69,9.98 14.25,9.98 8.38,0 15.18,-6.79 15.18,-15.18 0,-8.39 -6.79,-15.18 -15.18,-15.18 -7.68,0 -14.02,5.72 -15.02,13.12 -33.31,5.18 -216.51,36.38 -167.19,89.17 -6.47,-7.5 -31.04,-48.55 167.96,-81.91 z m 14.25,-14.12 c 4.93,0 8.92,4 8.92,8.92 0,4.92 -4,8.92 -8.92,8.92 -4.93,0 -8.92,-4 -8.92,-8.92 0,-4.92 3.99,-8.92 8.92,-8.92 z"
       stroke-miterlimit="10"
       id="path66"
       inkscape:connector-curvature="0"
       style="fill:url(#i);stroke:url(#j);stroke-width:3;stroke-miterlimit:10" />
    <linearGradient
       id="k"
       gradientUnits="userSpaceOnUse"
       x1="335.715"
       y1="1013.462"
       x2="343.203"
       y2="1013.462">
      <stop
         offset="0"
         stop-color="#009bdb"
         id="stop68" />
      <stop
         offset="1"
         stop-color="#87c1eb"
         id="stop70" />
    </linearGradient>
    <linearGradient
       id="l"
       gradientUnits="userSpaceOnUse"
       x1="334.79401"
       y1="1013.5"
       x2="344.04199"
       y2="1013.5">
      <stop
         offset="0"
         stop-color="#075c84"
         id="stop73" />
      <stop
         offset="1"
         stop-color="#009bdb"
         id="stop75" />
    </linearGradient>
    <path
       d="m 335.71,1010.82 c 4.35,3.38 7.49,5.28 7.49,5.28 -2.63,-1.78 -5.12,-3.54 -7.49,-5.28 z"
       stroke-miterlimit="10"
       id="path78"
       inkscape:connector-curvature="0"
       style="fill:url(#k);stroke:url(#l);stroke-width:3;stroke-miterlimit:10" />
    <linearGradient
       id="m"
       gradientUnits="userSpaceOnUse"
       x1="302.211"
       y1="927.12201"
       x2="714.26898"
       y2="927.12201">
      <stop
         offset="0"
         stop-color="#009bdb"
         id="stop80" />
      <stop
         offset="1"
         stop-color="#87c1eb"
         id="stop82" />
    </linearGradient>
    <linearGradient
       id="n"
       gradientUnits="userSpaceOnUse"
       x1="300.711"
       y1="926.97601"
       x2="715.76898"
       y2="926.97601">
      <stop
         offset="0"
         stop-color="#075c84"
         id="stop85" />
      <stop
         offset="1"
         stop-color="#009bdb"
         id="stop87" />
    </linearGradient>
    <path
       d="m 699.09,843.42 c -7.28,0 -13.35,5.12 -14.83,11.96 -37.34,2.47 -510.03,36.32 -348.55,155.44 -29.63,-23.04 -115.56,-115 349.53,-146.03 2.37,5.29 7.67,8.99 13.85,8.99 8.38,0 15.18,-6.79 15.18,-15.18 0,-8.39 -6.8,-15.18 -15.18,-15.18 z m 0,24.1 c -4.93,0 -8.92,-4 -8.92,-8.92 0,-4.92 4,-8.92 8.92,-8.92 4.93,0 8.92,4 8.92,8.92 0,4.92 -3.99,8.92 -8.92,8.92 z"
       stroke-miterlimit="10"
       id="path90"
       inkscape:connector-curvature="0"
       style="fill:url(#m);stroke:url(#n);stroke-width:3;stroke-miterlimit:10" />
    <linearGradient
       id="o"
       gradientUnits="userSpaceOnUse"
       x1="323.08801"
       y1="1011.382"
       x2="343.203"
       y2="1011.382">
      <stop
         offset="0"
         stop-color="#009bdb"
         id="stop92" />
      <stop
         offset="1"
         stop-color="#87c1eb"
         id="stop94" />
    </linearGradient>
    <linearGradient
       id="p"
       gradientUnits="userSpaceOnUse"
       x1="322.36099"
       y1="1011.42"
       x2="343.79401"
       y2="1011.42">
      <stop
         offset="0"
         stop-color="#075c84"
         id="stop97" />
      <stop
         offset="1"
         stop-color="#009bdb"
         id="stop99" />
    </linearGradient>
    <path
       d="m 330.1,1010.33 c -1.9,-0.86 -3.78,-1.72 -5.62,-2.58 3.14,1.52 5.98,2.84 8.46,3.96 6.12,2.89 10.26,4.4 10.26,4.4 -7.34,-3.14 -14.03,-6.29 -20.12,-9.44 2.48,1.36 4.83,2.58 7.02,3.66 z"
       stroke-miterlimit="10"
       id="path102"
       inkscape:connector-curvature="0"
       style="fill:url(#o);stroke:url(#p);stroke-width:3;stroke-miterlimit:10" />
    <linearGradient
       id="q"
       gradientUnits="userSpaceOnUse"
       x1="272.40399"
       y1="896.20599"
       x2="603.758"
       y2="896.20599">
      <stop
         offset="0"
         stop-color="#009bdb"
         id="stop104" />
      <stop
         offset="1"
         stop-color="#87c1eb"
         id="stop106" />
    </linearGradient>
    <linearGradient
       id="r"
       gradientUnits="userSpaceOnUse"
       x1="270.90399"
       y1="896.12201"
       x2="605.258"
       y2="896.12201">
      <stop
         offset="0"
         stop-color="#075c84"
         id="stop109" />
      <stop
         offset="1"
         stop-color="#009bdb"
         id="stop111" />
    </linearGradient>
    <path
       d="m 575.5,808.6 c 2.64,4.49 7.5,7.51 13.08,7.51 8.38,0 15.18,-6.79 15.18,-15.18 0,-8.39 -6.79,-15.18 -15.18,-15.18 -8.08,0 -14.67,6.32 -15.13,14.29 C 522.84,812.23 136.13,909.98 323.09,1006.67 276.68,980.95 193.48,905.07 575.5,808.6 Z M 588.58,792 c 4.93,0 8.92,4 8.92,8.92 0,4.92 -4,8.92 -8.92,8.92 -4.93,0 -8.92,-4 -8.92,-8.92 0,-4.92 3.99,-8.92 8.92,-8.92 z"
       stroke-miterlimit="10"
       id="path114"
       inkscape:connector-curvature="0"
       style="fill:url(#q);stroke:url(#r);stroke-width:3;stroke-miterlimit:10" />
    <linearGradient
       id="s"
       gradientUnits="userSpaceOnUse"
       x1="225.99001"
       y1="875.96503"
       x2="541.78497"
       y2="875.96503">
      <stop
         offset="0"
         stop-color="#009bdb"
         id="stop116" />
      <stop
         offset="1"
         stop-color="#87c1eb"
         id="stop118" />
    </linearGradient>
    <linearGradient
       id="t"
       gradientUnits="userSpaceOnUse"
       x1="224.49001"
       y1="875.909"
       x2="543.28497"
       y2="875.909">
      <stop
         offset="0"
         stop-color="#075c84"
         id="stop121" />
      <stop
         offset="1"
         stop-color="#009bdb"
         id="stop123" />
    </linearGradient>
    <path
       d="m 514.36,769.24 v -0.95 c 2.76,3.78 7.21,6.25 12.25,6.25 8.38,0 15.18,-6.79 15.18,-15.18 0,-8.39 -6.79,-15.18 -15.18,-15.18 -8.38,0 -15.18,6.79 -15.18,15.18 0,0.22 0.02,0.43 0.03,0.65 C 471.57,769.1 35.1,889.54 324.48,1007.75 259.05,981.02 92.29,884.29 514.36,769.24 Z m 12.25,-18.8 c 4.93,0 8.92,4 8.92,8.92 0,4.92 -4,8.92 -8.92,8.92 -4.93,0 -8.92,-4 -8.92,-8.92 0,-4.92 3.99,-8.92 8.92,-8.92 z"
       stroke-miterlimit="10"
       id="path126"
       inkscape:connector-curvature="0"
       style="fill:url(#s);stroke:url(#t);stroke-width:3;stroke-miterlimit:10" />
  </g>
</svg>
