<?xml version="1.0" encoding="UTF-8" standalone="no"?>
<svg
   xmlns:dc="http://purl.org/dc/elements/1.1/"
   xmlns:cc="http://creativecommons.org/ns#"
   xmlns:rdf="http://www.w3.org/1999/02/22-rdf-syntax-ns#"
   xmlns:svg="http://www.w3.org/2000/svg"
   xmlns="http://www.w3.org/2000/svg"
   xmlns:sodipodi="http://sodipodi.sourceforge.net/DTD/sodipodi-0.dtd"
   xmlns:inkscape="http://www.inkscape.org/namespaces/inkscape"
   width="520"
   height="120"
   viewBox="0 0 390.00001 90"
   version="1.1"
   id="svg76"
   sodipodi:docname="actual.svg"
   inkscape:version="0.92.4 (5da689c313, 2019-01-14)">
  <metadata
     id="metadata82">
    <rdf:RDF>
      <cc:Work
         rdf:about="">
        <dc:format>image/svg+xml</dc:format>
        <dc:type
           rdf:resource="http://purl.org/dc/dcmitype/StillImage" />
        <dc:title />
      </cc:Work>
    </rdf:RDF>
  </metadata>
  <defs
     id="defs80" />
  <sodipodi:namedview
     pagecolor="#ffffff"
     bordercolor="#666666"
     borderopacity="1"
     objecttolerance="10"
     gridtolerance="10"
     guidetolerance="10"
     inkscape:pageopacity="0"
     inkscape:pageshadow="2"
     inkscape:window-width="1366"
     inkscape:window-height="745"
     id="namedview78"
     showgrid="false"
     inkscape:pagecheckerboard="true"
     units="px"
     inkscape:zoom="1.6730769"
     inkscape:cx="260"
     inkscape:cy="60"
     inkscape:window-x="-8"
     inkscape:window-y="-8"
     inkscape:window-maximized="1"
     inkscape:current-layer="svg76" />
  <g
     id="#272357ff"
     transform="matrix(0.36024842,0,0,0.36024842,20.018351,-46.260408)">
    <path
       d="m 217.3,150.27 c 0.51,-2.73 2.78,0.68 3.35,1.61 29.48,46.14 58.89,92.31 88.3,138.49 4.94,0.43 9.95,0.28 14.91,0.11 2.04,-1.54 3.21,-4.87 6.21,-5.02 3.16,-0.27 7.1,-0.73 9.28,2.17 4.42,4.42 2.34,12.7 -3.46,14.81 -2.18,0.32 -4.44,0.3 -6.6,-0.14 -2.23,-0.98 -3.52,-3.12 -5.14,-4.8 -3.05,-0.28 -6.12,-0.16 -9.17,-0.09 l -0.76,1.34 c 8.33,12.44 16.15,25.22 24.23,37.82 3.37,0.56 6.87,0.44 10.26,0.1 1.61,-1.43 2.81,-3.58 5.02,-4.16 2.19,-0.25 4.44,-0.37 6.63,-0.01 3.46,1.42 5.28,4.98 5.94,8.49 -0.7,3.79 -3.02,7.99 -7.2,8.56 -2.32,0.13 -4.89,0.42 -6.93,-0.92 -2.38,-1.4 -3.18,-5.29 -6.47,-4.97 -3.05,0.21 -0.71,3.05 0,4.32 1.52,2.36 3.16,4.65 4.44,7.16 -4.36,0.51 -8.74,1.1 -13.14,0.97 -32.33,-0.02 -64.67,0 -97,-0.01 -3.2,-0.45 -6.44,-0.43 -9.63,-0.86 -7.62,-12.26 -15.24,-24.62 -22.36,-37.18 1.17,-3.02 3.19,-5.6 4.79,-8.39 2.21,-3.38 3.92,-7.12 6.58,-10.18 1.75,1.65 2.54,4.12 3.93,6.08 5.82,10.18 11.79,20.28 17.62,30.47 0.83,1.31 2.74,0.63 4.04,0.88 25.35,-0.06 50.69,0 76.03,-0.04 2.94,0.27 5.87,0.77 8.84,0.67 l 0.98,-1.23 c -7.86,-12.18 -15.68,-24.39 -23.38,-36.67 -0.75,-1.17 -1.65,-2.68 -3.32,-2.27 -16.21,-0.1 -32.44,0.13 -48.65,-0.11 -1.71,-1.89 -2.9,-4.17 -4.27,-6.3 -10.72,-16.83 -21.27,-33.76 -32.04,-50.56 -0.43,-0.02 -1.28,-0.05 -1.71,-0.07 -6.1,9.26 -11.52,18.98 -17.59,28.27 -12.75,20.34 -25.36,40.77 -38.01,61.17 -0.86,1.21 -0.16,4.43 -2.36,3.6 -2.05,3.37 -3.98,6.82 -6.15,10.13 -0.75,1.02 -1.83,2.24 -3.27,1.92 -13.18,-0.05 -26.37,0.04 -39.55,-0.04 -0.72,-2.34 0.95,-4.22 2.08,-6.06 18.54,-29.69 37.01,-59.42 55.51,-89.13 1.31,-2.29 3.2,-4.32 3.84,-6.93 -2.14,-0.15 -4.32,-0.3 -6.43,0.16 -20.84,33.15 -41.91,66.16 -62.76,99.31 -1.55,2.57 -3.54,4.89 -4.67,7.7 14.95,0.52 29.95,0.07 44.92,0.22 4.41,-0.13 8.86,0.29 13.24,-0.24 15.14,-24.23 30.12,-48.48 45.28,-72.69 1.26,-2.25 3.99,-4.63 2.68,-7.44 -1.08,-2.96 -1.43,-6.62 0.68,-9.21 2.17,-3.67 7.08,-4.15 10.83,-3.17 1.75,1.12 3.26,2.6 4.54,4.25 0.75,2.82 0.67,5.88 0.02,8.72 -2.13,3.25 -5.83,5.01 -9.68,4.81 -2.38,2.6 -3.95,5.84 -5.79,8.83 -15.23,24.13 -30.19,48.46 -45.29,72.68 -22.15,0.46 -44.35,0.03 -66.52,0.21 -1.65,-0.06 -3.36,0.17 -4.97,-0.27 0.07,-1.4 0.03,-2.89 0.69,-4.17 22.35,-35.08 44.44,-70.34 66.79,-105.42 0.96,-1.25 1.39,-2.76 1.52,-4.31 -6.35,-0.16 -12.72,-0.17 -19.07,-0.01 -1.43,-0.21 -1.84,1.37 -2.65,2.18 -3.46,4.99 -12.09,4.03 -14.76,-1.31 -0.49,-2.95 -0.65,-6.06 0.15,-8.96 1.17,-1.42 2.53,-2.69 4.09,-3.67 2.33,-0.37 4.72,-0.37 7.05,-0.02 2.99,-0.06 3.09,4.65 6.12,4.3 8.39,-0.05 16.83,0.4 25.18,-0.24 15.41,-24.6 31.01,-49.07 46.53,-73.59 2.06,-3.6 4.78,-6.81 6.25,-10.72 0.75,0.52 1.21,0.22 1.38,-0.93 m 0.23,11.99 c -1.32,0.38 -1.75,2 -2.5,3.02 -3.42,6.63 -8.74,12.22 -11.42,19.22 -0.82,0.87 -1.79,1.62 -2.45,2.63 -9.29,14.93 -18.73,29.77 -28.04,44.67 -1.04,1.06 -1,2.58 -1.09,3.95 3.77,0.16 7.53,-0.16 11.3,0.05 0.49,1.52 -0.71,2.8 -1.29,4.09 -6.53,10.57 -13.11,21.11 -19.73,31.63 -1.07,1.39 -0.77,3.6 -2.32,4.64 -2.48,1.71 -3.22,4.78 -4.34,7.38 -3.29,2.59 -4.52,6.78 -7.02,10.02 -1.45,1.76 -2.1,3.94 -3.02,5.97 -3.31,2.93 -4.77,7.26 -7.42,10.71 -1.73,1.92 -1.61,4.93 -3.79,6.48 -2.37,2.61 -3.56,6.06 -5.73,8.83 -2.07,2.3 -2.12,5.75 -4.65,7.68 -0.51,2.06 -1.98,3.54 -2.95,5.33 7.64,0.23 15.29,-0.02 22.93,0.1 1.65,-0.07 3.38,0.18 4.98,-0.35 20.98,-33.73 41.97,-67.54 62.96,-101.3 0.89,-3.85 4.27,-6.15 6.05,-9.56 2.12,2.11 3.79,4.6 5.24,7.21 11.54,18.55 23.52,36.83 34.89,55.48 1.12,0.71 2.59,0.32 3.85,0.47 12.95,-0.09 25.91,0.07 38.86,-0.07 -0.12,-0.47 -0.36,-1.42 -0.48,-1.89 -10.23,-16 -20.43,-32.02 -30.62,-48.05 -1.25,-2.51 -4.09,-3.9 -4.5,-6.85 -8.12,-13.14 -16.64,-26.1 -24.87,-39.2 -1.75,-1.47 -2.79,-3.38 -3.51,-5.53 -5.48,-8.49 -10.93,-17.02 -16.3,-25.58 -0.44,-1.31 -1.88,-1.47 -3.02,-1.18 m -91.23,74.16 c -1.86,0.81 -0.89,4.27 -0.89,6.13 2.26,0.42 4.61,0.4 6.82,-0.28 0.27,-1.94 0.49,-4.14 -1.1,-5.6 -1.54,-0.59 -3.23,-0.44 -4.83,-0.25 m 84.26,26.26 c -2.17,0.93 -1.36,4.77 -1.14,6.86 1.98,0.34 4.03,0.41 5.98,-0.16 0.5,-2.28 0.81,-5.11 -1.28,-6.72 -1.18,-0.17 -2.39,-0.12 -3.56,0.02 m 120.03,27.8 c -2.01,1.48 -1.88,5.57 0.2,6.97 1.97,0.35 4.08,0.28 5.46,-1.36 0.39,-1.42 0.39,-2.95 0.03,-4.37 -1.1,-2 -3.81,-1.38 -5.69,-1.24 m -112.24,22.84 c -2.34,1.33 -2.8,5.41 -1.36,7.74 5.53,9.12 11.08,18.25 16.51,27.42 1.47,0.3 2.99,0.23 4.49,0.26 33.31,-0.1 66.62,0.1 99.93,-0.1 -0.27,-2.01 -1.41,-4.8 -3.9,-4.38 -31.01,-0.02 -62.02,0.01 -93.03,0.06 -2.46,0.49 -3.75,-1.96 -4.78,-3.73 -5.03,-8.92 -10.36,-17.67 -15.32,-26.63 -0.64,-0.8 -1.49,-1.01 -2.54,-0.64 m 135.69,24.81 c -1.37,1.33 -0.6,3.64 -0.59,5.37 2.05,0.41 4.16,0.45 6.25,0.25 0.29,-2.09 0.27,-4.23 -0.25,-6.27 -1.75,0.03 -4.02,-0.75 -5.41,0.65 z"
       id="path49"
       inkscape:connector-curvature="0"
       style="opacity:1;fill:#272357" />
    <path
       d="m 214.27,185.82 c 2.76,-0.26 5.6,-0.33 8.36,0.09 1.95,2.62 4.78,4.96 5.11,8.44 -0.22,2.62 -1.07,5.37 -0.15,7.95 12.68,18.48 24.83,37.34 37.36,55.93 1.55,1.14 3.89,0.09 5.71,0.7 1.91,2.58 4.49,4.65 6.03,7.51 0.66,5.8 -4.76,11.84 -10.68,11.03 -3.36,-0.19 -5.25,-3.42 -8.07,-4.81 -0.28,-2.51 -0.32,-5.07 -0.03,-7.58 0.91,-1.6 1.29,-3.64 0.29,-5.31 -10.37,-15.95 -21.25,-31.56 -31.54,-47.56 -2.25,-2.23 -3.1,-5.46 -5.37,-7.67 -4.96,0.13 -9.9,-2.44 -11.85,-7.15 -1.61,-2.06 0.15,-4.47 0.63,-6.61 1.5,-1.57 3.14,-3.03 4.2,-4.96 m 3.1,5.58 c -2.75,-0.53 -1.93,2.86 -2.12,4.55 -0.4,3.44 3.94,2.8 6.08,2.34 0.68,-2.16 0.53,-4.48 0.06,-6.66 -1.33,-0.24 -2.68,-0.35 -4.02,-0.23 m 49.86,73.05 c -3.66,-0.58 -5.35,5.06 -2.65,7.04 1.85,0.48 3.89,0.53 5.66,-0.28 1.15,-2.6 0.62,-6.94 -3.01,-6.76 z"
       id="path51"
       inkscape:connector-curvature="0"
       style="opacity:1;fill:#272357" />
    <path
       d="m 393.21,255.18 c 24.25,-0.4 48.53,-0.03 72.8,-0.19 2.28,-0.34 4.11,1.05 5.91,2.22 3.3,-3.16 7.96,-2.07 12.09,-2.2 27.65,0.03 55.3,-0.03 82.94,0.03 2.14,-0.19 3.46,1.63 4.91,2.86 1.44,-1.4 2.93,-3.15 5.18,-2.88 6.3,-0.02 12.61,-0.07 18.91,0.03 2.32,-0.04 4.56,1.81 4.81,4.15 1.65,8.23 -0.25,16.53 0.13,24.8 -0.02,12.33 0.02,24.66 -0.02,36.99 0.08,1.47 -0.24,3.05 0.34,4.45 5.16,1.31 10.52,0.71 15.78,0.84 8.54,-0.18 17.14,0.36 25.64,-0.26 0.15,-22 -0.02,-44 0.09,-65.99 -0.05,-2.78 2.55,-5.21 5.32,-5 6.31,-0.04 12.62,-0.06 18.93,0 2.8,-0.15 5.16,2.31 5.25,5.04 0.57,8.63 0.24,17.28 0.33,25.92 -0.09,17 0.19,33.99 -0.14,50.98 -2.03,8.82 -9.66,16.26 -18.58,18.04 -2.9,0.62 -5.88,0.5 -8.81,0.53 -16.92,-0.05 -33.84,0.07 -50.75,-0.07 -11.85,-0.1 -22.46,-10.61 -22.54,-22.47 -0.06,-16.92 0.01,-33.84 -0.05,-50.76 -1.49,0.88 -2.85,2.32 -4.71,2.2 -10.08,0.2 -20.17,-0.25 -30.24,0.28 -0.17,21.79 0.03,43.59 -0.09,65.38 0.37,2.72 -2.16,5.43 -4.86,5.39 -6.61,0.11 -13.23,0 -19.83,-0.08 -2.43,0.1 -4.87,-2.05 -4.73,-4.54 -0.1,-19.29 -0.01,-38.58 -0.04,-57.87 -0.05,-2.84 0.22,-5.71 -0.31,-8.51 -9.95,-0.07 -19.9,0.03 -29.85,-0.11 -2,0.23 -3.5,-1.16 -5.14,-2 -1.6,0.91 -3.09,2.3 -5.07,2.08 -17.99,0.03 -35.99,0.02 -53.98,0 -3.53,-0.1 -6.96,0.88 -10.48,0.92 0,13.41 0.02,26.83 -0.01,40.24 3.83,0.88 7.77,0.63 11.66,0.66 17.66,0 35.31,-0.01 52.97,0 2.7,-0.34 5.38,1.98 5.33,4.72 0.37,6.34 0.32,12.7 0.27,19.05 0.48,3.12 -2.72,5.82 -5.71,5.47 -22.28,0.03 -44.55,0 -66.82,0 -3.86,-0.05 -7.81,0.15 -11.52,-1.07 -9.2,-2.8 -16.42,-11.74 -16.35,-21.5 -0.03,-18.62 -0.06,-37.23 0.02,-55.84 0.17,-11.22 9.92,-21.11 21.02,-21.93 m -0.93,5.01 c -8.39,1.3 -15.59,9.15 -15.23,17.81 -0.03,18.34 -0.02,36.68 0,55.03 -0.08,7.18 5.01,13.72 11.53,16.36 3.31,1.32 6.93,1.19 10.42,1.22 22.62,-0.04 45.25,0.05 67.87,-0.04 0.89,-1.72 0.48,-3.74 0.59,-5.6 -0.16,-4.63 0.24,-9.28 -0.22,-13.89 -23.61,-0.24 -47.23,0.11 -70.84,-0.17 0.04,-17.06 -0.02,-34.13 -0.01,-51.19 23.45,-0.45 46.92,0.02 70.37,-0.22 1.16,-1.58 0.53,-3.71 0.7,-5.52 -0.24,-4.63 0.37,-9.29 -0.29,-13.88 -24.96,-0.04 -49.94,-0.23 -74.89,0.09 m 84.1,-0.01 c -0.03,6.44 -0.14,12.88 0.07,19.31 11.83,0.25 23.68,-0.21 35.5,0.21 0.33,23.62 -0.18,47.26 0.25,70.87 6.42,0.05 12.85,0.14 19.27,-0.06 0.23,-23.62 -0.12,-47.25 0.16,-70.87 11.72,-0.27 23.46,0.03 35.18,-0.12 0.53,-6.44 0.15,-12.95 0.08,-19.41 -28.3,-0.19 -56.6,0.01 -84.89,-0.09 -1.88,-0.01 -3.76,-0.03 -5.62,0.16 m 100.41,-0.09 c -0.43,2.27 -0.28,4.6 -0.28,6.9 0.05,21.67 -0.03,43.34 0.04,65.01 -0.35,9.59 7.99,18.52 17.64,18.54 18.27,0.12 36.54,0.07 54.81,0.03 7.63,0.13 14.71,-5.28 17.28,-12.33 1.63,-4.93 0.64,-10.17 0.75,-15.24 0.7,-15 -0.04,-30.02 0.25,-45.02 -0.39,-5.95 0.48,-11.93 -0.16,-17.86 -6.43,-0.16 -12.88,-0.13 -19.32,-0.02 -0.67,6.6 -0.03,13.25 -0.06,19.86 -0.4,11.01 -0.07,22.03 -0.15,33.04 0.15,5.92 0.71,11.85 0.15,17.77 -4.56,0.52 -9.17,0.13 -13.75,0.24 -12.64,-0.08 -25.3,0.15 -37.94,-0.11 -0.34,-23.58 0.08,-47.18 -0.2,-70.76 -6.35,-0.21 -12.71,-0.14 -19.06,-0.05 z"
       id="path53"
       inkscape:connector-curvature="0"
       style="opacity:1;fill:#272357" />
    <path
       d="m 694.52,255.72 c 2.77,-0.63 5.63,-0.77 8.47,-0.73 17,0.08 34.01,-0.04 51.01,0.05 11.62,0.01 22,9.71 23.46,21.11 0.22,1.96 0.92,3.85 0.9,5.84 -0.02,21.67 -0.01,43.34 0,65.01 0.04,3.52 -1.46,8.16 -5.58,8.47 -6.6,0.18 -13.21,-0.02 -19.81,-0.03 -2.56,0.19 -5.17,-1.82 -5.18,-4.47 -0.21,-8.2 0.15,-16.41 -0.17,-24.6 -11.53,-0.12 -23.08,-0.02 -34.62,-0.04 -2.41,0.13 -5.28,-0.42 -7.06,1.63 -0.63,7.38 0.71,14.69 0.46,22.06 0.17,2.95 -2.68,5.63 -5.6,5.49 -6.57,0.04 -13.15,0.03 -19.71,-0.13 -2.66,-0.13 -4.74,-2.77 -4.41,-5.37 -0.22,-23.67 -0.06,-47.35 -0.12,-71.02 -0.46,-10.67 7.63,-20.85 17.96,-23.27 m 1.86,4.56 c -8.22,1.51 -14.91,9.25 -14.76,17.69 -0.1,14.35 -0.02,28.7 -0.05,43.04 0.17,7.99 0.34,15.98 -0.02,23.97 0.06,1.85 -0.32,3.88 0.6,5.59 6.21,0.07 12.43,0.08 18.64,-0.01 0.48,-9.74 -0.18,-19.51 0.31,-29.24 17.1,-0.45 34.23,0.68 51.33,-0.25 0.24,8.3 0.04,16.61 0.07,24.91 0.16,1.49 -0.38,3.34 0.71,4.58 6.2,0.1 12.43,0.07 18.64,0.01 0.71,-2.8 0.38,-5.72 0.44,-8.57 -0.02,-20.34 -0.01,-40.68 -0.01,-61.02 -0.05,-3.53 -0.12,-7.24 -1.75,-10.46 -3.11,-6.06 -9.53,-10.69 -16.51,-10.49 -16.34,0 -32.68,0.01 -49.01,0 -2.88,0.03 -5.78,-0.19 -8.63,0.25 z"
       id="path55"
       inkscape:connector-curvature="0"
       style="opacity:1;fill:#272357" />
    <path
       d="m 784.6,255.56 c 1.97,-0.95 4.27,-0.5 6.4,-0.62 5.56,0.18 11.15,-0.28 16.69,0.23 2.98,0.78 3.86,4.1 3.68,6.82 -0.21,3.07 1.16,5.95 1.01,9.02 -0.08,18.2 0.03,36.4 -0.06,54.61 2.51,0.52 5.08,0.69 7.65,0.66 18.69,-0.02 37.37,0.02 56.06,-0.02 1.55,0.07 3.37,-0.18 4.63,1.02 1.95,1.31 1.74,3.83 2.06,5.88 1.05,5.23 0.59,10.58 0.65,15.87 0.04,3.31 -2.79,6.97 -6.37,6.5 -29.33,-0.03 -58.67,0.07 -88,-0.06 -1.8,-0.06 -3.83,0.13 -5.25,-1.18 -2.18,-1.72 -1.91,-4.81 -1.96,-7.29 0.15,-29.52 -0.32,-59.06 0.52,-88.56 0.09,-1.33 1.24,-2.24 2.29,-2.88 m 2.53,4.42 c -0.26,28 -0.02,56.01 -0.11,84.02 -0.01,2.18 -0.06,4.38 0.17,6.57 30.13,0.04 60.28,0.09 90.41,-0.02 0.22,-6.46 0.11,-12.94 0.07,-19.4 -23.77,-0.42 -47.57,0.1 -71.34,-0.25 -0.15,-23.6 0.31,-47.23 -0.17,-70.82 -6.34,0 -12.7,-0.55 -19.03,-0.1 z"
       id="path57"
       inkscape:connector-curvature="0"
       style="opacity:1;fill:#272357" />
    <path
       d="m 701.03,279.7 c 17.11,-0.3 34.25,-0.17 51.37,-0.07 0.13,7.37 0.32,14.77 -0.09,22.13 -17.08,0.01 -34.17,-0.1 -51.25,0.02 -0.23,-7.35 -0.16,-14.73 -0.03,-22.08 m 5.59,4.96 c -0.13,3.92 -1.52,8.07 -0.33,11.88 7.2,0.79 14.47,0.38 21.71,0.48 6.56,-0.08 13.14,0.17 19.7,-0.11 0.08,-4.13 0.12,-8.28 -0.09,-12.4 -13.66,-0.01 -27.33,-0.22 -40.99,0.15 z"
       id="path59"
       inkscape:connector-curvature="0"
       style="opacity:1;fill:#272357" />
  </g>
  <g
     id="#ffffffff"
     transform="matrix(0.36024842,0,0,0.36024842,20.018351,-46.260408)" />
  <g
     id="#55bce7ff"
     transform="matrix(0.36024842,0,0,0.36024842,20.018351,-46.260408)">
    <path
       d="m 217.17,165.1 0.79,-1 c 3.39,3.23 5.27,7.58 7.75,11.48 12.9,20.09 25.81,40.17 38.54,60.37 6.68,10.04 13.1,20.25 19.43,30.5 4.1,5.17 6.86,11.21 10.73,16.54 1.02,1.69 2.9,3.33 2.13,5.53 -11.85,0.53 -23.75,0.12 -35.62,0.21 -1.73,0.37 -2.53,-1.43 -3.38,-2.52 -12.79,-20.61 -25.97,-40.98 -38.82,-61.53 -1.43,-0.51 -1.91,1.09 -2.6,1.98 -13.94,23.1 -28.38,45.89 -42.56,68.84 -4.17,6.2 -7.86,12.69 -11.7,19.08 -4.35,6.17 -8.27,12.62 -12,19.18 -0.88,1.3 -1.91,3.22 -3.78,2.95 -6.85,-0.07 -13.73,0.33 -20.55,-0.23 -0.96,-1.72 0.44,-3.3 1.26,-4.69 18.47,-29.51 36.73,-59.15 55.14,-88.7 1.62,-2.76 3.77,-5.27 4.71,-8.38 -3.7,-0.21 -7.41,0.15 -11.1,-0.19 l -1.14,-1.19 c 7.98,-14.07 17.42,-27.23 25.63,-41.15 5.65,-9.07 11.68,-17.9 17.14,-27.08 m -2.6,19.98 c -2.7,2.15 -5.99,4.49 -6.32,8.24 -1.55,4.76 1.84,9.25 5.59,11.79 1.8,1.38 4.24,0.89 6.33,1.43 2.75,3.02 4.59,6.72 7.07,9.94 4.13,5.19 6.87,11.3 10.96,16.51 4.43,5.77 7.73,12.28 12.04,18.12 2.36,3.11 4.47,6.42 6.35,9.85 0.98,3.8 -0.52,7.85 0.39,11.7 1.33,2.73 3.83,4.72 6.51,6.05 4.92,2.01 11.28,-0.36 13.4,-5.3 0.94,-2.93 1.02,-6.22 0.19,-9.19 -1.82,-3.98 -5.99,-6.41 -10.25,-6.83 -2.31,-2.36 -3.85,-5.34 -5.75,-8.01 -7.64,-11.31 -15.05,-22.76 -22.71,-34.06 -2.94,-5.3 -7.23,-9.78 -9.87,-15.24 0.34,-2.34 1.31,-4.67 0.76,-7.06 -0.57,-3.72 -3.75,-6.3 -6.89,-7.94 -2.54,-0.54 -5.25,-0.48 -7.8,0 z"
       id="path63"
       inkscape:connector-curvature="0"
       style="opacity:1;fill:#55bce7" />
    <path
       d="m 392.28,260.19 c 24.95,-0.32 49.93,-0.13 74.89,-0.09 0.66,4.59 0.05,9.25 0.29,13.88 -0.17,1.81 0.46,3.94 -0.7,5.52 -23.45,0.24 -46.92,-0.23 -70.37,0.22 -0.01,17.06 0.05,34.13 0.01,51.19 23.61,0.28 47.23,-0.07 70.84,0.17 0.46,4.61 0.06,9.26 0.22,13.89 -0.11,1.86 0.3,3.88 -0.59,5.6 -22.62,0.09 -45.25,0 -67.87,0.04 -3.49,-0.03 -7.11,0.1 -10.42,-1.22 -6.52,-2.64 -11.61,-9.18 -11.53,-16.36 -0.02,-18.35 -0.03,-36.69 0,-55.03 -0.36,-8.66 6.84,-16.51 15.23,-17.81 z"
       id="path65"
       inkscape:connector-curvature="0"
       style="opacity:1;fill:#55bce7" />
    <path
       d="m 476.38,260.18 c 1.86,-0.19 3.74,-0.17 5.62,-0.16 28.29,0.1 56.59,-0.1 84.89,0.09 0.07,6.46 0.45,12.97 -0.08,19.41 -11.72,0.15 -23.46,-0.15 -35.18,0.12 -0.28,23.62 0.07,47.25 -0.16,70.87 -6.42,0.2 -12.85,0.11 -19.27,0.06 -0.43,-23.61 0.08,-47.25 -0.25,-70.87 -11.82,-0.42 -23.67,0.04 -35.5,-0.21 -0.21,-6.43 -0.1,-12.87 -0.07,-19.31 z"
       id="path67"
       inkscape:connector-curvature="0"
       style="opacity:1;fill:#55bce7" />
    <path
       d="m 576.79,260.09 c 6.35,-0.09 12.71,-0.16 19.06,0.05 0.28,23.58 -0.14,47.18 0.2,70.76 12.64,0.26 25.3,0.03 37.94,0.11 4.58,-0.11 9.19,0.28 13.75,-0.24 0.56,-5.92 0,-11.85 -0.15,-17.77 0.08,-11.01 -0.25,-22.03 0.15,-33.04 0.03,-6.61 -0.61,-13.26 0.06,-19.86 6.44,-0.11 12.89,-0.14 19.32,0.02 0.64,5.93 -0.23,11.91 0.16,17.86 -0.29,15 0.45,30.02 -0.25,45.02 -0.11,5.07 0.88,10.31 -0.75,15.24 -2.57,7.05 -9.65,12.46 -17.28,12.33 -18.27,0.04 -36.54,0.09 -54.81,-0.03 -9.65,-0.02 -17.99,-8.95 -17.64,-18.54 -0.07,-21.67 0.01,-43.34 -0.04,-65.01 0,-2.3 -0.15,-4.63 0.28,-6.9 z"
       id="path69"
       inkscape:connector-curvature="0"
       style="opacity:1;fill:#55bce7" />
    <path
       d="m 696.38,260.28 c 2.85,-0.44 5.75,-0.22 8.63,-0.25 16.33,0.01 32.67,0 49.01,0 6.98,-0.2 13.4,4.43 16.51,10.49 1.63,3.22 1.7,6.93 1.75,10.46 0,20.34 -0.01,40.68 0.01,61.02 -0.06,2.85 0.27,5.77 -0.44,8.57 -6.21,0.06 -12.44,0.09 -18.64,-0.01 -1.09,-1.24 -0.55,-3.09 -0.71,-4.58 -0.03,-8.3 0.17,-16.61 -0.07,-24.91 -17.1,0.93 -34.23,-0.2 -51.33,0.25 -0.49,9.73 0.17,19.5 -0.31,29.24 -6.21,0.09 -12.43,0.08 -18.64,0.01 -0.92,-1.71 -0.54,-3.74 -0.6,-5.59 0.36,-7.99 0.19,-15.98 0.02,-23.97 0.03,-14.34 -0.05,-28.69 0.05,-43.04 -0.15,-8.44 6.54,-16.18 14.76,-17.69 m 4.65,19.42 c -0.13,7.35 -0.2,14.73 0.03,22.08 17.08,-0.12 34.17,-0.01 51.25,-0.02 0.41,-7.36 0.22,-14.76 0.09,-22.13 -17.12,-0.1 -34.26,-0.23 -51.37,0.07 z"
       id="path71"
       inkscape:connector-curvature="0"
       style="opacity:1;fill:#55bce7" />
    <path
       d="m 787.13,259.98 c 6.33,-0.45 12.69,0.1 19.03,0.1 0.48,23.59 0.02,47.22 0.17,70.82 23.77,0.35 47.57,-0.17 71.34,0.25 0.04,6.46 0.15,12.94 -0.07,19.4 -30.13,0.11 -60.28,0.06 -90.41,0.02 -0.23,-2.19 -0.18,-4.39 -0.17,-6.57 0.09,-28.01 -0.15,-56.02 0.11,-84.02 z"
       id="path73"
       inkscape:connector-curvature="0"
       style="opacity:1;fill:#55bce7" />
  </g>
</svg>
