<?xml version="1.0" encoding="UTF-8" standalone="no"?>
<svg
   xmlns:dc="http://purl.org/dc/elements/1.1/"
   xmlns:cc="http://creativecommons.org/ns#"
   xmlns:rdf="http://www.w3.org/1999/02/22-rdf-syntax-ns#"
   xmlns:svg="http://www.w3.org/2000/svg"
   xmlns="http://www.w3.org/2000/svg"
   xmlns:sodipodi="http://sodipodi.sourceforge.net/DTD/sodipodi-0.dtd"
   xmlns:inkscape="http://www.inkscape.org/namespaces/inkscape"
   width="520"
   height="120"
   viewBox="0 0 390.00001 90"
   version="1.1"
   id="svg4653"
   sodipodi:docname="kiss.svg"
   inkscape:version="0.92.4 (5da689c313, 2019-01-14)">
  <metadata
     id="metadata4659">
    <rdf:RDF>
      <cc:Work
         rdf:about="">
        <dc:format>image/svg+xml</dc:format>
        <dc:type
           rdf:resource="http://purl.org/dc/dcmitype/StillImage" />
        <dc:title></dc:title>
      </cc:Work>
    </rdf:RDF>
  </metadata>
  <defs
     id="defs4657" />
  <sodipodi:namedview
     pagecolor="#ffffff"
     bordercolor="#666666"
     borderopacity="1"
     objecttolerance="10"
     gridtolerance="10"
     guidetolerance="10"
     inkscape:pageopacity="0"
     inkscape:pageshadow="2"
     inkscape:window-width="1366"
     inkscape:window-height="745"
     id="namedview4655"
     showgrid="false"
     units="px"
     inkscape:pagecheckerboard="true"
     inkscape:zoom="2.3288462"
     inkscape:cx="260"
     inkscape:cy="42.824112"
     inkscape:window-x="-8"
     inkscape:window-y="-8"
     inkscape:window-maximized="1"
     inkscape:current-layer="#000000ff" />
  <g
     id="#ffffffff"
     transform="translate(0,-9.9999994)" />
  <g
     id="#000000ff"
     transform="translate(0,-9.9999994)">
    <path
       d="m 172.42849,17.715267 0.43053,-0.215269 c -2.78582,13.207343 -5.40703,26.452674 -8.09155,39.685342 -4.91318,-3.406304 -10.10495,-6.394734 -15.03079,-9.750387 l -0.43054,-0.810422 c 1.93742,-6.685979 2.93778,-13.675867 5.19177,-20.247882 5.79958,-3.241687 12.14366,-5.369044 17.93058,-8.661382 z"
       id="path4624"
       inkscape:connector-curvature="0"
       style="opacity:1;fill:#000000;stroke-width:1.26628411" />
    <path
       d="m 243.65696,20.830325 c 5.00183,-0.569828 10.07963,0.607817 14.80287,2.190672 2.45659,1.228295 -0.038,4.394005 -0.038,6.293431 -2.82382,0.126629 -5.33106,-1.684157 -8.15487,-1.836111 -3.95081,-0.861074 -9.15524,-0.557165 -11.26993,3.456955 -1.72215,2.899791 1.11433,5.989524 3.72287,7.002551 4.60928,1.937414 10.78874,2.367951 13.28332,7.382436 3.39365,7.078528 -2.30463,15.524642 -9.44647,17.310103 -6.54669,1.658832 -13.89114,1.468889 -20.07061,-1.443564 -1.26628,-1.96274 0.63314,-4.444657 0.67113,-6.572014 5.50834,2.443928 12.16899,3.874829 17.90526,1.443564 3.46962,-1.354924 5.78692,-6.850597 2.16535,-9.2692 -4.41934,-2.494579 -10.18093,-2.507242 -13.86581,-6.344083 -3.84951,-4.292703 -2.97577,-11.409219 1.00036,-15.322037 2.36795,-2.646533 5.87556,-3.811515 9.29452,-4.292703 z"
       id="path4626"
       inkscape:connector-curvature="0"
       style="opacity:1;fill:#000000;stroke-width:1.26628411" />
    <path
       d="m 202.76865,21.552107 c 3.03908,-0.03799 6.07817,-0.215268 9.10458,-0.341896 -6.61,6.977225 -13.51124,14.017764 -20.08326,21.172269 4.0901,7.002551 9.15523,13.485925 12.80213,20.678418 -2.58322,0.03799 -5.15377,0.07598 -7.72433,-0.07598 -1.51954,-0.620476 -1.9754,-2.405936 -2.91245,-3.596243 -3.19104,-5.141114 -6.4074,-10.256901 -9.49713,-15.448666 l -0.48119,0.202606 c -1.58286,6.230117 -2.02606,12.75148 -4.12809,18.842306 -2.44393,0.139292 -4.88785,0.113966 -7.33178,-0.01266 3.12772,-13.751845 5.54632,-27.668307 8.75002,-41.407489 2.50724,-0.164617 5.03981,-0.126628 7.55972,-0.03799 -1.39292,6.103489 -2.59589,12.244966 -4.07744,18.32313 2.8618,-1.620844 4.39401,-4.773891 6.78728,-6.9519 3.82418,-3.684886 7.04054,-8.167532 11.23194,-11.345905 z"
       id="path4628"
       inkscape:connector-curvature="0"
       style="opacity:1;fill:#000000;stroke-width:1.26628411" />
    <path
       d="m 275.04815,21.818027 c 6.20479,-2.152683 12.92876,-0.861073 18.96893,1.177644 2.7605,1.139656 0.15196,4.482646 -0.0127,6.521363 -5.16644,-1.089004 -10.53548,-3.722875 -15.82855,-1.722146 -3.27968,0.987701 -5.19177,5.558987 -2.59588,8.218183 4.01412,3.824178 10.52282,3.07707 14.52427,7.027877 3.8875,3.963469 2.91246,10.586134 -0.31657,14.650906 -3.6469,4.54596 -9.78837,6.116152 -15.39801,5.926209 -4.39401,-0.139291 -9.42115,-0.253256 -12.9161,-3.25435 0.45586,-1.950077 0.93705,-3.912817 1.29161,-5.88822 5.10313,2.595882 11.02934,3.532932 16.63897,2.203334 2.86181,-1.051016 5.58432,-3.621573 5.521,-6.888585 -0.4432,-2.089369 -2.29197,-3.646898 -4.31803,-4.115424 -4.58394,-1.532203 -10.16826,-2.481916 -12.82745,-7.00255 -3.4443,-6.306095 0.63314,-14.714221 7.26847,-16.854241 z"
       id="path4630"
       inkscape:connector-curvature="0"
       style="opacity:1;fill:#000000;stroke-width:1.26628411" />
    <path
       d="m 218.35661,21.602759 c 2.48192,-0.202606 4.9765,-0.164617 7.45841,-0.101303 -2.91245,13.726519 -5.63496,27.516352 -8.59807,41.230209 -2.4186,0.620479 -4.96383,0.316571 -7.43308,0.215268 2.70984,-13.802496 5.45768,-27.630318 8.57274,-41.344174 z"
       id="path4632"
       inkscape:connector-curvature="0"
       style="opacity:1;fill:#000000;stroke-width:1.26628411" />
    <path
       d="m 143.58254,54.614784 c 0.39255,-0.291246 1.1903,-0.873736 1.58285,-1.164982 5.85023,1.595518 11.54851,3.735538 17.43673,5.191765 l -0.038,1.038353 c -11.42188,9.877016 -22.32458,20.336522 -33.67049,30.289515 -0.69645,-6.749294 -0.79776,-13.536577 -1.79812,-20.23522 5.45768,-5.077799 11.01667,-10.054295 16.48702,-15.119431 z"
       id="path4634"
       inkscape:connector-curvature="0"
       style="opacity:1;fill:#000000;stroke-width:1.26628411" />
    <path
       d="m 288.74934,69.645576 c 1.2283,-0.101303 2.46925,-0.113966 3.71021,-0.01266 -1.65883,6.230117 -3.08973,12.561537 -3.97613,18.956272 3.5456,0.08864 7.10385,-0.17728 10.64945,0.06331 -0.43054,0.823085 -1.27895,2.469254 -1.70948,3.305001 -4.38135,0.06332 -8.77535,0.08864 -13.16936,0 l -0.68379,-0.519176 c 1.46889,-7.205156 2.95044,-14.410312 4.54596,-21.57748 z"
       id="path4636"
       inkscape:connector-curvature="0"
       style="opacity:1;fill:#000000;stroke-width:1.26628411" />
    <path
       d="m 176.41728,69.670901 c 4.55863,-0.151954 9.11725,-0.113965 13.67587,-0.03799 -0.13929,0.810421 -0.40521,2.431265 -0.5445,3.229024 -3.26701,0.341897 -6.54669,-0.01266 -9.80104,0.303908 -0.63314,1.798124 -0.97504,3.684887 -1.31694,5.558987 2.74784,0.101303 5.48301,-0.03799 8.23085,0 -0.076,0.861073 -0.21527,2.58322 -0.27858,3.444293 -2.84914,0.189942 -5.69828,-0.03799 -8.53476,0.151954 -0.86107,3.153047 -1.29161,6.394734 -2.03871,9.560444 -0.96238,0.05065 -2.86181,0.151955 -3.82418,0.202606 0.93705,-7.53439 2.93778,-14.954815 4.43199,-22.413228 z"
       id="path4638"
       inkscape:connector-curvature="0"
       style="opacity:1;fill:#000000;stroke-width:1.26628411" />
    <path
       d="m 193.43614,69.911495 c 1.07634,-0.06331 3.21636,-0.189942 4.2927,-0.253257 -1.54486,6.280769 -2.77316,12.624852 -4.03944,18.956273 3.53293,0.05065 7.06586,-0.189943 10.59879,0.02532 -0.17728,0.810422 -0.53184,2.431266 -0.70912,3.241687 -4.88785,0.202606 -9.78837,0.113966 -14.67623,0.07598 1.4309,-7.35711 3.08974,-14.688895 4.5333,-22.046005 z"
       id="path4640"
       inkscape:connector-curvature="0"
       style="opacity:1;fill:#000000;stroke-width:1.26628411" />
    <path
       d="m 207.04869,69.721553 c 6.19213,-0.253257 12.39692,-0.164617 18.60172,-0.02533 -0.3419,0.823085 -1.02569,2.469254 -1.36759,3.292338 -2.26665,0.35456 -4.79922,-0.58249 -6.87592,0.53184 -1.38025,6.014849 -2.41861,12.118338 -3.73554,18.14585 -1.06368,0.06331 -3.19104,0.202606 -4.25472,0.278583 1.34227,-6.293432 2.87447,-12.561538 4.01412,-18.892958 -2.32996,-0.08864 -4.65992,0.02532 -6.97722,-0.02533 0.15195,-0.823085 0.4432,-2.481917 0.59515,-3.305001 z"
       id="path4642"
       inkscape:connector-curvature="0"
       style="opacity:1;fill:#000000;stroke-width:1.26628411" />
    <path
       d="m 232.70361,70.177415 c 3.34299,-1.494215 7.11651,-0.848411 10.5988,-0.35456 -0.12663,0.810422 -0.37989,2.418603 -0.51918,3.229025 -2.15268,0.215268 -4.2927,-0.949713 -6.43272,-0.329234 -5.01449,1.11433 -7.87629,6.647991 -7.23049,11.497859 -0.16461,1.8741 1.35493,3.305001 2.77317,4.254714 2.93777,0.873736 6.01485,-0.08864 9.01594,-0.139291 -0.31657,0.721782 -0.92439,2.190672 -1.2283,2.925116 -4.36868,2.266649 -11.75111,1.608181 -14.0051,-3.520269 -1.76013,-6.470712 0.45586,-14.726884 7.02788,-17.56336 z"
       id="path4644"
       inkscape:connector-curvature="0"
       style="opacity:1;fill:#000000;stroke-width:1.26628411" />
    <path
       d="m 246.15154,69.734215 c 6.17947,-0.253256 12.39693,-0.215268 18.57639,0 -0.35456,0.810422 -1.05101,2.443929 -1.40557,3.267013 -2.16535,0.08864 -4.31803,-0.03799 -6.48338,0.126629 -1.69682,6.128814 -2.69718,12.472898 -4.00146,18.715678 -1.03835,0.03799 -3.12772,0.126628 -4.17873,0.164617 1.29161,-6.33142 2.7605,-12.624852 3.9508,-18.968935 -2.29197,-0.07598 -4.59661,0.05065 -6.88858,-0.01266 0.1013,-0.823085 0.32923,-2.469254 0.43053,-3.292339 z"
       id="path4646"
       inkscape:connector-curvature="0"
       style="opacity:1;fill:#000000;stroke-width:1.26628411" />
    <path
       d="m 267.67837,69.746878 c 3.06441,-0.240594 6.15414,-0.278582 9.23121,-0.03799 3.26702,0.405211 6.42006,3.317664 5.48301,6.850596 -0.34189,3.43163 -3.57092,5.052474 -6.3694,6.217455 0.59515,3.406304 3.81151,5.862895 4.34335,9.345176 -5.82491,1.405576 -6.14148,-5.609638 -8.95263,-8.825999 -0.5445,-0.02533 -1.62084,-0.08864 -2.16534,-0.113966 -1.19031,2.722511 -1.21564,5.824907 -2.25399,8.610732 -0.92439,0.06331 -2.78583,0.215268 -3.72288,0.278582 1.06368,-7.496402 2.93778,-14.878838 4.40667,-22.324588 m 3.50761,3.368316 c -0.74711,2.203334 -1.19031,4.482645 -1.55753,6.761957 3.52027,0.417873 8.50943,-0.303909 8.97795,-4.659926 -1.27894,-2.912453 -4.84986,-2.304637 -7.42042,-2.102031 z"
       id="path4648"
       inkscape:connector-curvature="0"
       style="opacity:1;fill:#000000;stroke-width:1.26628411" />
    <path
       d="m 118.66207,72.406075 1.54486,-0.202606 c 2.81115,5.875558 4.44466,12.295618 6.5087,18.462422 -11.95372,0.379885 -23.90744,0.75977 -35.848497,1.481552 3.532932,-6.204792 6.926574,-12.637515 11.231937,-18.335793 5.50834,-0.582491 11.07999,-0.531839 16.563,-1.405575 z"
       id="path4650"
       inkscape:connector-curvature="0"
       style="opacity:1;fill:#000000;stroke-width:1.26628411" />
  </g>
</svg>
