<?xml version="1.0" encoding="UTF-8" standalone="no"?>
<!-- Created with Inkscape (http://www.inkscape.org/) -->

<svg
   xmlns:dc="http://purl.org/dc/elements/1.1/"
   xmlns:cc="http://creativecommons.org/ns#"
   xmlns:rdf="http://www.w3.org/1999/02/22-rdf-syntax-ns#"
   xmlns:svg="http://www.w3.org/2000/svg"
   xmlns="http://www.w3.org/2000/svg"
   xmlns:sodipodi="http://sodipodi.sourceforge.net/DTD/sodipodi-0.dtd"
   xmlns:inkscape="http://www.inkscape.org/namespaces/inkscape"
   width="520"
   height="120"
   viewBox="0 0 137.58333 31.750001"
   version="1.1"
   id="svg88"
   inkscape:version="0.92.4 (5da689c313, 2019-01-14)"
   sodipodi:docname="kiss.svg">
  <defs
     id="defs82">
    <clipPath
       clipPathUnits="userSpaceOnUse"
       id="clipPath38">
      <path
         d="M 0,595.276 H 841.89 V 0 H 0 Z"
         id="path36"
         inkscape:connector-curvature="0" />
    </clipPath>
  </defs>
  <sodipodi:namedview
     id="base"
     pagecolor="#ffffff"
     bordercolor="#666666"
     borderopacity="1.0"
     inkscape:pageopacity="0.0"
     inkscape:pageshadow="2"
     inkscape:zoom="1.625"
     inkscape:cx="147.38462"
     inkscape:cy="60"
     inkscape:document-units="mm"
     inkscape:current-layer="layer1"
     showgrid="false"
     units="px"
     inkscape:pagecheckerboard="true"
     inkscape:window-width="1366"
     inkscape:window-height="745"
     inkscape:window-x="-8"
     inkscape:window-y="-8"
     inkscape:window-maximized="1" />
  <metadata
     id="metadata85">
    <rdf:RDF>
      <cc:Work
         rdf:about="">
        <dc:format>image/svg+xml</dc:format>
        <dc:type
           rdf:resource="http://purl.org/dc/dcmitype/StillImage" />
        <dc:title />
      </cc:Work>
    </rdf:RDF>
  </metadata>
  <g
     inkscape:label="Livello 1"
     inkscape:groupmode="layer"
     id="layer1"
     transform="translate(0,-265.24998)">
    <g
       id="g20"
       transform="matrix(0.11725134,0,0,-0.11725134,47.975973,272.29314)">
      <path
         d="M 0,0 -17.019,-52.378 11.333,-91.4 45.873,14.905 Z"
         style="fill:#110f0d;fill-opacity:1;fill-rule:nonzero;stroke:none"
         id="path22"
         inkscape:connector-curvature="0" />
    </g>
    <g
       id="g24"
       transform="matrix(0.11725134,0,0,-0.11725134,34.008065,287.13293)">
      <path
         d="m 0,0 h -55.073 l -28.35,-39.022 H 28.351 Z"
         style="fill:#110f0d;fill-opacity:1;fill-rule:nonzero;stroke:none"
         id="path26"
         inkscape:connector-curvature="0" />
    </g>
    <g
       id="g28"
       transform="matrix(0.11725134,0,0,-0.11725134,43.402935,281.98224)">
      <path
         d="m 0,0 -44.556,-32.372 v -48.233 l 90.429,65.7 z"
         style="fill:#110f0d;fill-opacity:1;fill-rule:nonzero;stroke:none"
         id="path30"
         inkscape:connector-curvature="0" />
    </g>
    <g
       transform="matrix(0.11725134,0,0,-0.11725134,19.086682,316.0234)"
       id="g32">
      <g
         id="g34"
         clip-path="url(#clipPath38)">
        <g
           id="g40"
           transform="translate(331.9009,385.198)">
          <path
             d="m 0,0 h 38.714 l -24.65,-76.225 h 0.769 c 5.997,4.433 12.08,12.144 17.914,18.38 L 90.501,0 h 47.945 L 57.531,-74.863 85.766,-175.329 H 40.131 l -18.228,75.43 -20.744,-18.449 -18.198,-56.981 h -38.714 z"
             style="fill:#110f0d;fill-opacity:1;fill-rule:nonzero;stroke:none"
             id="path42"
             inkscape:connector-curvature="0" />
        </g>
        <g
           id="g44"
           transform="translate(528.5254,384.8386)">
          <path
             d="M 0,0 -55.753,-174.753 H -94.979 L -39.226,0 Z"
             style="fill:#110f0d;fill-opacity:1;fill-rule:nonzero;stroke:none"
             id="path46"
             inkscape:connector-curvature="0" />
        </g>
        <g
           id="g48"
           transform="translate(520.875,250.8645)">
          <path
             d="m 0,0 c 8.775,-5.427 23.191,-10.84 39.856,-10.81 17.946,0.035 29.827,7.573 33.465,18.98 3.475,10.891 -2.744,17.099 -21.109,24.581 -25.485,10.063 -39.075,26.106 -30.968,51.525 9.514,29.824 41.322,52.429 82.089,52.504 19.482,0.036 32.598,-3.827 41.363,-8.479 l -18.888,-31.91 c -5.852,3.357 -16.584,8.26 -33.508,8.228 -16.918,-0.031 -27.604,-7.825 -30.497,-16.9 -3.557,-11.149 4.61,-16.06 24.188,-24.579 26.866,-11.355 36.099,-27.41 28.238,-52.042 -9.346,-29.305 -39.676,-54.5 -87.105,-54.586 -19.739,-0.039 -37.491,5.37 -45.493,10.8 z"
             style="fill:#110f0d;fill-opacity:1;fill-rule:nonzero;stroke:none"
             id="path50"
             inkscape:connector-curvature="0" />
        </g>
        <g
           id="g52"
           transform="translate(659.3037,251.1223)">
          <path
             d="m 0,0 c 8.771,-5.431 23.191,-10.845 39.853,-10.814 17.949,0.034 29.83,7.573 33.467,18.979 3.476,10.892 -2.743,17.104 -21.108,24.586 -25.485,10.061 -39.075,26.104 -30.968,51.523 9.514,29.824 41.322,52.428 82.085,52.503 19.485,0.037 32.601,-3.827 41.367,-8.478 l -18.889,-31.91 c -5.851,3.357 -16.584,8.259 -33.507,8.227 -16.919,-0.03 -27.604,-7.824 -30.497,-16.899 -3.558,-11.149 4.61,-16.06 24.188,-24.58 26.866,-11.355 36.098,-27.408 28.238,-52.044 -9.346,-29.304 -39.676,-54.495 -87.106,-54.586 -19.739,-0.034 -37.49,5.375 -45.493,10.802 z"
             style="fill:#110f0d;fill-opacity:1;fill-rule:nonzero;stroke:none"
             id="path54"
             inkscape:connector-curvature="0" />
        </g>
      </g>
    </g>
  </g>
</svg>
