<svg id="Gruppo_1" data-name="Gruppo 1" xmlns="http://www.w3.org/2000/svg" width="520" height="120" viewBox="0 0 520 120">
  <defs>
    <style>
      .cls-1 {
        fill: none;
        stroke-width: 6.019px;
      }

      .cls-1, .cls-2 {
        stroke: #e61313;
        stroke-linecap: round;
        stroke-linejoin: round;
      }

      .cls-1, .cls-2, .cls-3, .cls-4 {
        fill-rule: evenodd;
      }

      .cls-2, .cls-4 {
        fill: #e61313;
      }

      .cls-2 {
        stroke-width: 1.204px;
      }
    </style>
  </defs>
  <path id="Forma_2" data-name="Forma 2" class="cls-1" d="M153.66,34.313l10.032-8.463,8.828,8.463"/>
  <path id="Forma_1" data-name="Forma 1" class="cls-2" d="M43.307,73L81.027,90.328s78.3,40.21,84.045-52.428a1.812,1.812,0,0,0-3.6-.335c-0.93,2.753-.585,83.842-79.646,49.942C21.126,61.478,43.307,73,43.307,73Z"/>
  <path id="Ou_ckRates" data-name="Ou ckRates" class="cls-3" d="M32.126,21.511a31.054,31.054,0,0,0-12,7.087,30.572,30.572,0,0,0-7.513,11.691,41.49,41.49,0,0,0-2.544,14.438A39.255,39.255,0,0,0,12.18,67.67a26.28,26.28,0,0,0,6.865,10.606,29.6,29.6,0,0,0,11.5,6.677,46.767,46.767,0,0,0,28.827-.217,30.32,30.32,0,0,0,11.809-7.159,29.275,29.275,0,0,0,7.1-11.618,44.425,44.425,0,0,0,2.3-14.27,38.913,38.913,0,0,0-2.064-12.872,27.606,27.606,0,0,0-6.937-10.7A28.462,28.462,0,0,0,60.329,21.27,43.432,43.432,0,0,0,46.84,19.2,46.767,46.767,0,0,0,32.126,21.511Zm24.459,5.808a20.865,20.865,0,0,1,8.377,5.323A21.876,21.876,0,0,1,70.1,41.48a36.42,36.42,0,0,1,1.608,10.861A37.185,37.185,0,0,1,69.93,63.853a24.268,24.268,0,0,1-5.448,9.368,21.852,21.852,0,0,1-8.737,5.659,31.789,31.789,0,0,1-10.633,1.782A32.757,32.757,0,0,1,34.694,79a22.25,22.25,0,0,1-8.545-5.082,21.761,21.761,0,0,1-5.377-8.549,31.733,31.733,0,0,1-1.824-10.717A36.272,36.272,0,0,1,20.8,43.093a26.008,26.008,0,0,1,5.665-9.633,22.583,22.583,0,0,1,8.953-5.949,31.848,31.848,0,0,1,10.9-1.855A31.484,31.484,0,0,1,56.585,27.318ZM136.325,63.6q0.909-17.692,1.581-26.37-2.6.049-4.037,0.048l-4.469-.048q-0.144,8.967-.525,17.644-0.337,7.135-.673,9.883a25.5,25.5,0,0,1-1.537,6.219,16.772,16.772,0,0,1-3.458,5.351,14.069,14.069,0,0,1-4.708,2.989,18.862,18.862,0,0,1-6.82,1.253,18.129,18.129,0,0,1-7.229-1.374,8.961,8.961,0,0,1-4.563-3.9,14.269,14.269,0,0,1-1.369-6.773q0-2.8.608-12.823t1.288-18.464q-2.791.049-4.136,0.048l-4.425-.048q0,2.748-.047,4.532l-0.142,5.158L90.856,62.97q-0.19,3.326-.285,5.4T90.477,71.31q0,5.689,2.136,8.967A13.694,13.694,0,0,0,98.9,85.339a25.3,25.3,0,0,0,10.009,1.784,29.846,29.846,0,0,0,5.064-.41,27.7,27.7,0,0,0,4.152-1.012,16.875,16.875,0,0,0,3.1-1.374,15.365,15.365,0,0,0,2.569-1.9,14.562,14.562,0,0,0,2.088-2.314,31.7,31.7,0,0,0,1.992-3.35l-0.239,9.3q2.067-.1,3.987-0.1,1.681,0,4.036.1,0.144-12.727.67-22.465h0ZM197.1,81a19.715,19.715,0,0,1-9.433-2.242,12.4,12.4,0,0,1-5.881-6.34,25.032,25.032,0,0,1-1.68-9.545,31,31,0,0,1,1.032-7.954,17.406,17.406,0,0,1,3.385-6.749,16.006,16.006,0,0,1,5.688-4.387,17.817,17.817,0,0,1,7.561-1.543,30.941,30.941,0,0,1,5.329.506,60.435,60.435,0,0,1,7.44,1.953q-0.24-2.651-.528-6.749a48.658,48.658,0,0,0-13.3-1.832q-9.265,0-14.642,3.616a20.875,20.875,0,0,0-7.873,9.979,36.5,36.5,0,0,0-2.5,13.45,32.3,32.3,0,0,0,1.536,10,19.22,19.22,0,0,0,4.8,7.954,18.984,18.984,0,0,0,7.657,4.6,31.432,31.432,0,0,0,9.577,1.4q2.448,0,5.688-.289a48.665,48.665,0,0,0,6.745-1.109q0.288-2.025.7-4.122t0.5-2.868A37.664,37.664,0,0,1,197.1,81h0Zm26.886,4.965q1.2,0,4.179.1,0.144-13.257,1.03-35.65T230.7,20.257q-2.883.049-4.18,0.048l-4.467-.048q0,2.169-.048,6.749l-0.527,20.971L220.472,73l-0.814,13.065q2.979-.1,4.324-0.1h0ZM232,62.033l7.447,9.119q3.459,4.2,4.467,5.5l7.063,9.409q3.114-.1,4.936-0.1t4.792,0.1q-16.678-19.59-22.494-27.214l20.766-21.622q-3.264.049-5.134,0.048-1.488,0-4.8-.048-4.563,5.586-9.7,11.076l-9.8,10.5Z"/>
  <path id="Ou_ckRates_copia" data-name="Ou ckRates copia" class="cls-4" d="M498.953,45.181a19.122,19.122,0,0,0-4.873.554,5.557,5.557,0,0,0-3,1.687,3.931,3.931,0,0,0-.912,2.531,4.71,4.71,0,0,0,.288,1.615,5.708,5.708,0,0,0,1.008,1.663,12.3,12.3,0,0,0,1.656,1.639q0.936,0.772,3.912,3.037t5.209,4.1a23.474,23.474,0,0,1,3.672,3.688,14.542,14.542,0,0,1,2.208,3.977,12.524,12.524,0,0,1,.769,4.291,11.279,11.279,0,0,1-2.209,6.7,14.273,14.273,0,0,1-6.672,4.821,27.371,27.371,0,0,1-9.985,1.735,65.219,65.219,0,0,1-7.009-.458,69.041,69.041,0,0,1-8.833-1.615L473.126,74.54a52.843,52.843,0,0,0,7.969,2.676,27.013,27.013,0,0,0,6,.747,14.158,14.158,0,0,0,4.609-.651,5.511,5.511,0,0,0,2.784-1.928,4.535,4.535,0,0,0,.912-2.676,5.248,5.248,0,0,0-.12-1.157,4.4,4.4,0,0,0-.432-1.109,7.074,7.074,0,0,0-.72-1.085A10.571,10.571,0,0,0,493,68.2q-0.72-.651-2.064-1.663l-2.593-2.073q-3.744-2.94-5.712-4.628a22.8,22.8,0,0,1-3.313-3.447,13.653,13.653,0,0,1-2.04-3.712A11.626,11.626,0,0,1,478.718,42a12.2,12.2,0,0,1,6.217-4.652,28.327,28.327,0,0,1,9.6-1.47,82.161,82.161,0,0,1,14.5,1.494l0.624,10.076A28.373,28.373,0,0,0,498.953,45.181Zm-66.392,16.1q-0.1,1.784-.1,2.844a15.519,15.519,0,0,0,1.1,5.93,12.231,12.231,0,0,0,3.217,4.58,13.285,13.285,0,0,0,5.04,2.772,19.684,19.684,0,0,0,5.761.892,39.2,39.2,0,0,0,7.177-.723,75.037,75.037,0,0,0,9.193-2.459q-0.625,2.845-1.776,10.22-5.185,1.108-8.737,1.494a66.3,66.3,0,0,1-7.153.386,46.227,46.227,0,0,1-11.257-1.252,20.313,20.313,0,0,1-8.713-4.6,20.039,20.039,0,0,1-5.521-8.211,29.539,29.539,0,0,1-1.776-10.211,32.767,32.767,0,0,1,2.064-11.486,23.7,23.7,0,0,1,5.785-9.1,21.262,21.262,0,0,1,8.473-5.009,33.456,33.456,0,0,1,9.937-1.469A34.645,34.645,0,0,1,454.6,37.1a17.608,17.608,0,0,1,7.417,4.018,18.794,18.794,0,0,1,4.608,6.712,22.822,22.822,0,0,1,1.608,8.733,23.83,23.83,0,0,1-.48,4.667Zm22.707-9a12.47,12.47,0,0,0-.648-2.52,8.549,8.549,0,0,0-1.368-2.5,8,8,0,0,0-2.017-1.8,9.327,9.327,0,0,0-2.664-1.1,13.123,13.123,0,0,0-3.24-.384,12.446,12.446,0,0,0-3.913.624,11.862,11.862,0,0,0-3.48,1.824,10.97,10.97,0,0,0-2.568,2.688,13.075,13.075,0,0,0-1.465,2.857,30.038,30.038,0,0,0-.96,3.672l22.467,0.048A29.042,29.042,0,0,0,455.268,52.281ZM414.079,46.82H401.837q-1.01,19.622-1.009,22.706a13.042,13.042,0,0,0,.648,4.628,4.288,4.288,0,0,0,2.088,2.362,6.756,6.756,0,0,0,3.073.723,17.441,17.441,0,0,0,2.521-.193q1.32-.192,4.633-1.061-0.576,2.652-1.824,9.834a57.716,57.716,0,0,1-6.337,1.157,41.7,41.7,0,0,1-4.32.241,27.318,27.318,0,0,1-6.361-.675,10.054,10.054,0,0,1-4.632-2.386,8.638,8.638,0,0,1-2.473-4,17.352,17.352,0,0,1-.648-4.749q0-.626.048-1.687t0.384-6.846l1.1-20.055H381.82q0.238-2.892.431-9.3h7.231q0.286-2.8.572-9.5l5.675-1.109q1.779-.337,6.877-1.591-0.343,6.508-.394,12.2h12.2Q414.079,44.024,414.079,46.82ZM371.846,86.062q-3.653-.1-6.726-0.1-2.933,0-6.871.1,0.631-5.832,1.02-13.5l0.631-12a30.117,30.117,0,0,1-2.786,1.687,17.172,17.172,0,0,1-2.163.892q-1.2.41-4.228,1.253t-4.852,1.47a21.585,21.585,0,0,0-3.292,1.422,11.021,11.021,0,0,0-2.474,1.784,6.418,6.418,0,0,0-1.466,2.073,5.972,5.972,0,0,0-.456,2.338,5.424,5.424,0,0,0,1.176,3.5,6.136,6.136,0,0,0,2.953,2.049,13.51,13.51,0,0,0,4.176.579,23.09,23.09,0,0,0,3.24-.241,27.5,27.5,0,0,0,4.585-1.205,83.836,83.836,0,0,0-2.352,8.2q-3.41.579-5.425,0.723t-3.744.145a25.8,25.8,0,0,1-9.937-1.639,11.062,11.062,0,0,1-5.737-5.206,15.48,15.48,0,0,1-1.848-7.183,12.325,12.325,0,0,1,2.834-7.81,18.523,18.523,0,0,1,3.6-3.254,26.585,26.585,0,0,1,6.389-3.037,95.922,95.922,0,0,1,11.048-2.965q1.824-.385,3.794-0.94a23.123,23.123,0,0,0,3.147-1.085,7.012,7.012,0,0,0,2.041-1.374,5.772,5.772,0,0,0,1.273-1.76,4.573,4.573,0,0,0,.408-1.88,4.472,4.472,0,0,0-1.224-3.182,6.484,6.484,0,0,0-3.171-1.808,17.079,17.079,0,0,0-4.3-.506q-8.744,0-19.313,4.194,0.672-3.471.841-4.869t0.6-4.242A111.149,111.149,0,0,1,344.76,36.5a77.578,77.578,0,0,1,9.649-.627,36.09,36.09,0,0,1,9.7,1.229,14.432,14.432,0,0,1,6.913,3.929q2.495,2.7,2.5,7.762,0,2.748-.763,14T371.846,86.062Zm-53.8-39.748a16.545,16.545,0,0,1-2.9,3.76,16.972,16.972,0,0,1-3.337,2.555,19.858,19.858,0,0,1-3.768,1.615q-2.113.676-5.665,1.639l3.265,6.363q1.584,3.037,6,10.9l4.849,8.533q0.384,0.676,2.3,4.387-5.872-.1-7.75-0.1-2.31,0-8.135.1l-5.32-12.823q-1.391-2.94-3.355-6.942l-5.8-11.715q-0.863-1.638-2.4-4.917a33.366,33.366,0,0,0,5.861.578,20.324,20.324,0,0,0,7.542-1.35,10.74,10.74,0,0,0,5.237-4.17,11.091,11.091,0,0,0,1.826-6.147,8.949,8.949,0,0,0-.792-3.76,6.939,6.939,0,0,0-2.665-2.941,10.694,10.694,0,0,0-4.464-1.543A40.2,40.2,0,0,0,293.394,30q-1.44,0-3.936.048t-6.145.048l-0.857,19.814-0.905,36.156-7.448-.1q-1.777,0-7.256.1,1.448-14.365,2.172-33.023t0.724-32.782q5.758,0.1,9.646.1,4.175,0,8.182-.145t8.471-.145a71.1,71.1,0,0,1,9.957.627,18.641,18.641,0,0,1,7.8,2.893,14.621,14.621,0,0,1,5.063,5.5,16.27,16.27,0,0,1,1.656,7.521,20.6,20.6,0,0,1-.624,5.134A18.417,18.417,0,0,1,318.045,46.314Z"/>
</svg>
