<?xml version="1.0" encoding="UTF-8" standalone="no"?>
<!-- Created with Inkscape (http://www.inkscape.org/) -->

<svg
   xmlns:dc="http://purl.org/dc/elements/1.1/"
   xmlns:cc="http://creativecommons.org/ns#"
   xmlns:rdf="http://www.w3.org/1999/02/22-rdf-syntax-ns#"
   xmlns:svg="http://www.w3.org/2000/svg"
   xmlns="http://www.w3.org/2000/svg"
   xmlns:sodipodi="http://sodipodi.sourceforge.net/DTD/sodipodi-0.dtd"
   xmlns:inkscape="http://www.inkscape.org/namespaces/inkscape"
   width="520"
   height="120"
   viewBox="0 0 137.58333 31.750001"
   version="1.1"
   id="svg838"
   inkscape:version="0.92.4 (5da689c313, 2019-01-14)"
   sodipodi:docname="quickrates.svg">
  <defs
     id="defs832" />
  <sodipodi:namedview
     id="base"
     pagecolor="#ffffff"
     bordercolor="#666666"
     borderopacity="1.0"
     inkscape:pageopacity="0.0"
     inkscape:pageshadow="2"
     inkscape:zoom="1.6730769"
     inkscape:cx="150.62069"
     inkscape:cy="60"
     inkscape:document-units="mm"
     inkscape:current-layer="layer1"
     showgrid="false"
     units="px"
     inkscape:pagecheckerboard="true"
     inkscape:window-width="1366"
     inkscape:window-height="745"
     inkscape:window-x="-8"
     inkscape:window-y="-8"
     inkscape:window-maximized="1" />
  <metadata
     id="metadata835">
    <rdf:RDF>
      <cc:Work
         rdf:about="">
        <dc:format>image/svg+xml</dc:format>
        <dc:type
           rdf:resource="http://purl.org/dc/dcmitype/StillImage" />
        <dc:title />
      </cc:Work>
    </rdf:RDF>
  </metadata>
  <g
     inkscape:label="Livello 1"
     inkscape:groupmode="layer"
     id="layer1"
     transform="translate(0,-265.24998)">
    <path
       inkscape:connector-curvature="0"
       id="Forma_2"
       data-name="Forma 2"
       class="cls-1"
       d="m 40.691935,274.56536 2.6543,-2.23917 2.33574,2.23917"
       style="stroke-width:1.5875;fill:none;stroke:#e61313;stroke-opacity:1;stroke-miterlimit:4;stroke-dasharray:none;stroke-linecap:round;stroke-linejoin:round" />
    <path
       inkscape:connector-curvature="0"
       id="Forma_1"
       data-name="Forma 1"
       class="cls-2"
       d="m 11.494365,284.8013 9.98009,4.5847 c 0,0 20.71687,10.63889 22.2369,-13.87158 a 0.479425,0.479425 0 0 0 -0.9525,-0.0886 c -0.24606,0.72839 -0.15478,22.18319 -21.073,13.21382 -16.0602103,-6.88687 -10.19149,-3.83834 -10.19149,-3.83834 z"
       style="stroke-width:0.317;fill:#e61313;fill-opacity:1;stroke:#e61313;stroke-opacity:1;stroke-miterlimit:4;stroke-dasharray:none;stroke-linecap:round;stroke-linejoin:round" />
    <path
       inkscape:connector-curvature="0"
       id="Ou_ckRates"
       data-name="Ou ckRates"
       class="cls-3"
       d="m 8.5360647,271.17817 a 8.2163708,8.2163708 0 0 0 -3.175,1.8751 8.0888417,8.0888417 0 0 0 -1.98782,3.09324 10.977562,10.977562 0 0 0 -0.6731,3.82006 10.386219,10.386219 0 0 0 0.55854,3.4245 6.95325,6.95325 0 0 0 1.81636,2.80617 7.8316667,7.8316667 0 0 0 3.04271,1.76662 12.373769,12.373769 0 0 0 7.6271403,-0.0574 8.0221667,8.0221667 0 0 0 3.12447,-1.89416 7.7456771,7.7456771 0 0 0 1.87854,-3.07392 11.754115,11.754115 0 0 0 0.60854,-3.77561 10.295731,10.295731 0 0 0 -0.5461,-3.40572 7.3040875,7.3040875 0 0 0 -1.83541,-2.83104 7.5305708,7.5305708 0 0 0 -2.97683,-1.8116 11.491383,11.491383 0 0 0 -3.56896,-0.54769 12.373769,12.373769 0 0 0 -3.8930803,0.61146 z m 6.4714403,1.5367 a 5.5205312,5.5205312 0 0 1 2.21641,1.40837 5.788025,5.788025 0 0 1 1.35943,2.33839 9.636125,9.636125 0 0 1 0.42545,2.87364 9.8385312,9.8385312 0 0 1 -0.47043,3.04588 6.4209083,6.4209083 0 0 1 -1.44145,2.47862 5.781675,5.781675 0 0 1 -2.31166,1.49728 8.4108396,8.4108396 0 0 1 -2.81331,0.47148 8.6669562,8.6669562 0 0 1 -2.7564303,-0.43973 5.8869792,5.8869792 0 0 1 -2.26087,-1.34462 5.7575979,5.7575979 0 0 1 -1.42266,-2.26192 8.3960229,8.3960229 0 0 1 -0.4826,-2.83554 9.5969667,9.5969667 0 0 1 0.49001,-3.05832 6.8812833,6.8812833 0 0 1 1.49886,-2.54873 5.9750854,5.9750854 0 0 1 2.36882,-1.574 8.42645,8.42645 0 0 1 2.8839503,-0.49081 8.3301417,8.3301417 0 0 1 2.71648,0.43974 z m 21.09787,9.59934 q 0.24051,-4.68101 0.41831,-6.97706 -0.68792,0.013 -1.06812,0.0127 l -1.18242,-0.0127 q -0.0381,2.37252 -0.13891,4.66831 -0.0892,1.8878 -0.17807,2.61488 a 6.746875,6.746875 0 0 1 -0.40666,1.64544 4.4375917,4.4375917 0 0 1 -0.91493,1.41579 3.7224229,3.7224229 0 0 1 -1.24566,0.79083 4.9905708,4.9905708 0 0 1 -1.80446,0.33153 4.7966312,4.7966312 0 0 1 -1.91267,-0.36354 2.3709312,2.3709312 0 0 1 -1.20729,-1.03187 3.7753396,3.7753396 0 0 1 -0.36222,-1.79203 q 0,-0.74083 0.16087,-3.39275 0.16087,-2.65192 0.34078,-4.88527 -0.73845,0.013 -1.09431,0.0127 l -1.17078,-0.0127 q 0,0.72708 -0.0124,1.1991 l -0.0376,1.36472 -0.21379,4.24524 q -0.0503,0.88 -0.0754,1.42875 -0.0251,0.54874 -0.0249,0.77787 0,1.50522 0.56515,2.37252 a 3.6232042,3.6232042 0 0 0 1.66344,1.33932 6.6939583,6.6939583 0 0 0 2.64821,0.47202 7.8967542,7.8967542 0 0 0 1.33985,-0.10848 7.3289583,7.3289583 0 0 0 1.09855,-0.26776 4.4648437,4.4648437 0 0 0 0.82021,-0.36354 4.0653229,4.0653229 0 0 0 0.67971,-0.50271 3.8528625,3.8528625 0 0 0 0.55245,-0.61224 8.3872917,8.3872917 0 0 0 0.52705,-0.88636 l -0.0632,2.46063 q 0.5469,-0.0265 1.0549,-0.0265 0.44476,0 1.06786,0.0265 0.0381,-3.36735 0.17727,-5.94387 v 0 z m 16.08006,4.60375 a 5.2162604,5.2162604 0 0 1 -2.49582,-0.59319 3.2808333,3.2808333 0 0 1 -1.55601,-1.67746 6.62305,6.62305 0 0 1 -0.4445,-2.52545 8.2020833,8.2020833 0 0 1 0.27305,-2.10449 4.6053375,4.6053375 0 0 1 0.89561,-1.78568 4.2349208,4.2349208 0 0 1 1.50495,-1.16072 4.7140812,4.7140812 0 0 1 2.00052,-0.40826 8.1864729,8.1864729 0 0 1 1.40996,0.13388 15.990094,15.990094 0 0 1 1.9685,0.51673 q -0.0635,-0.70141 -0.1397,-1.78567 a 12.874096,12.874096 0 0 0 -3.51896,-0.48472 q -2.45136,0 -3.87403,0.95674 a 5.5231771,5.5231771 0 0 0 -2.08306,2.64027 9.6572917,9.6572917 0 0 0 -0.66146,3.55865 8.5460417,8.5460417 0 0 0 0.4064,2.64583 5.0852917,5.0852917 0 0 0 1.27,2.1045 5.02285,5.02285 0 0 0 2.02592,1.21708 8.3163833,8.3163833 0 0 0 2.53391,0.37042 q 0.6477,0 1.50495,-0.0765 a 12.875948,12.875948 0 0 0 1.78461,-0.29342 q 0.0762,-0.53578 0.18521,-1.09061 0.10901,-0.55483 0.13229,-0.75883 a 9.9652667,9.9652667 0 0 1 -3.12234,0.60087 z m 7.11358,1.31366 q 0.3175,0 1.1057,0.0265 0.0381,-3.50758 0.27252,-9.4324 0.23442,-5.92481 0.3982,-7.9793 -0.7628,0.013 -1.10596,0.0127 l -1.1819,-0.0127 q 0,0.57388 -0.0127,1.78567 l -0.13943,5.54858 -0.26617,6.62067 -0.21537,3.45678 q 0.78819,-0.0265 1.14406,-0.0265 v 0 z m 2.12038,-6.33201 1.97035,2.41274 q 0.91519,1.11125 1.18189,1.4552 l 1.86875,2.48947 q 0.82392,-0.0265 1.30599,-0.0265 0.48207,0 1.26788,0.0265 -4.41272,-5.18319 -5.95154,-7.20037 l 5.49434,-5.72082 q -0.8636,0.013 -1.35837,0.0127 -0.3937,0 -1.27,-0.0127 -1.20729,1.47796 -2.56646,2.93052 l -2.59292,2.77813 z"
       style="stroke-width:0.26458332;stroke:none" />
    <path
       inkscape:connector-curvature="0"
       id="Ou_ckRates_copia"
       data-name="Ou ckRates copia"
       class="cls-4"
       d="m 132.0507,277.44085 a 5.0593625,5.0593625 0 0 0 -1.28931,0.14658 1.4702896,1.4702896 0 0 0 -0.79375,0.44635 1.0400771,1.0400771 0 0 0 -0.2413,0.66966 1.2461875,1.2461875 0 0 0 0.0762,0.42731 1.5102417,1.5102417 0 0 0 0.2667,0.44 3.254375,3.254375 0 0 0 0.43815,0.43365 q 0.24765,0.20426 1.03505,0.80354 0.7874,0.59928 1.37821,1.08479 a 6.2108292,6.2108292 0 0 1 0.97155,0.97579 3.8475708,3.8475708 0 0 1 0.5842,1.05224 3.3136417,3.3136417 0 0 1 0.20347,1.13533 2.9842354,2.9842354 0 0 1 -0.58447,1.77271 3.7763979,3.7763979 0 0 1 -1.7653,1.27555 7.2419104,7.2419104 0 0 1 -2.64186,0.45906 17.25586,17.25586 0 0 1 -1.85447,-0.12118 18.267098,18.267098 0 0 1 -2.33706,-0.4273 l -0.2794,-2.80618 a 13.981377,13.981377 0 0 0 2.10846,0.70803 7.1471896,7.1471896 0 0 0 1.5875,0.19764 3.7459708,3.7459708 0 0 0 1.21947,-0.17224 1.4581187,1.4581187 0 0 0 0.7366,-0.51012 1.1998854,1.1998854 0 0 0 0.2413,-0.70802 1.3885333,1.3885333 0 0 0 -0.0317,-0.30612 1.1641667,1.1641667 0 0 0 -0.1143,-0.29343 1.8716625,1.8716625 0 0 0 -0.1905,-0.28707 2.7969104,2.7969104 0 0 0 -0.29845,-0.30612 q -0.1905,-0.17225 -0.5461,-0.44001 l -0.68607,-0.54848 q -0.9906,-0.77787 -1.5113,-1.22449 a 6.0325,6.0325 0 0 1 -0.87656,-0.91202 3.6123562,3.6123562 0 0 1 -0.53975,-0.98213 3.0760458,3.0760458 0 0 1 0.381,-2.82496 3.2279167,3.2279167 0 0 1 1.64491,-1.23084 7.4948521,7.4948521 0 0 1 2.54,-0.38894 21.738431,21.738431 0 0 1 3.83646,0.39529 l 0.1651,2.66594 a 7.5070229,7.5070229 0 0 0 -2.83263,-0.59981 z m -17.56621,4.25979 q -0.0265,0.47202 -0.0265,0.75248 a 4.1060687,4.1060687 0 0 0 0.29104,1.56898 3.2361187,3.2361187 0 0 0 0.85117,1.21179 3.5149896,3.5149896 0 0 0 1.3335,0.73343 5.2080583,5.2080583 0 0 0 1.52426,0.236 10.371667,10.371667 0 0 0 1.89891,-0.19129 19.85354,19.85354 0 0 0 2.43232,-0.65061 q -0.16537,0.75274 -0.4699,2.70404 -1.37187,0.29316 -2.31167,0.39529 a 17.541875,17.541875 0 0 1 -1.89256,0.10213 12.230894,12.230894 0 0 1 -2.97841,-0.33126 5.3744812,5.3744812 0 0 1 -2.30532,-1.21708 5.3019854,5.3019854 0 0 1 -1.46076,-2.1725 7.8155271,7.8155271 0 0 1 -0.4699,-2.70166 8.6696021,8.6696021 0 0 1 0.5461,-3.039 6.270625,6.270625 0 0 1 1.53061,-2.40771 5.6255708,5.6255708 0 0 1 2.24182,-1.3253 8.8519,8.8519 0 0 1 2.62916,-0.38867 9.1664896,9.1664896 0 0 1 2.46724,0.32305 4.6587833,4.6587833 0 0 1 1.96241,1.0631 4.9725792,4.9725792 0 0 1 1.2192,1.77588 6.0383208,6.0383208 0 0 1 0.42545,2.31061 6.3050208,6.3050208 0 0 1 -0.127,1.23481 z m 6.00789,-2.38125 a 3.2993542,3.2993542 0 0 0 -0.17145,-0.66675 2.2619229,2.2619229 0 0 0 -0.36195,-0.66145 2.1166667,2.1166667 0 0 0 -0.53366,-0.47625 2.4677687,2.4677687 0 0 0 -0.70485,-0.29105 3.4721271,3.4721271 0 0 0 -0.85725,-0.1016 3.2930042,3.2930042 0 0 0 -1.03532,0.1651 3.1384875,3.1384875 0 0 0 -0.92075,0.4826 2.9024792,2.9024792 0 0 0 -0.67945,0.7112 3.4594271,3.4594271 0 0 0 -0.38761,0.75592 7.9475542,7.9475542 0 0 0 -0.254,0.97155 l 5.94439,0.0127 a 7.6840292,7.6840292 0 0 0 -0.0381,-0.90197 z m -10.89792,-1.44489 h -3.23903 q -0.26723,5.19166 -0.26697,6.00763 a 3.4506958,3.4506958 0 0 0 0.17145,1.2245 1.1345333,1.1345333 0 0 0 0.55245,0.62494 1.787525,1.787525 0 0 0 0.81307,0.1913 4.6145979,4.6145979 0 0 0 0.66701,-0.0511 q 0.34925,-0.0508 1.22582,-0.28072 -0.1524,0.70167 -0.4826,2.60191 a 15.270692,15.270692 0 0 1 -1.67667,0.30612 11.033125,11.033125 0 0 1 -1.143,0.0638 7.2278875,7.2278875 0 0 1 -1.68301,-0.1786 2.6601208,2.6601208 0 0 1 -1.22555,-0.63129 2.2854708,2.2854708 0 0 1 -0.65432,-1.05834 4.59105,4.59105 0 0 1 -0.17145,-1.2565 q 0,-0.16563 0.0127,-0.44635 0.0127,-0.28073 0.1016,-1.81134 l 0.29105,-5.30622 h -1.82775 q 0.063,-0.76517 0.11404,-2.46062 h 1.9132 q 0.0757,-0.74084 0.15134,-2.51355 l 1.50151,-0.29342 q 0.4707,-0.0892 1.81954,-0.42095 -0.0907,1.72191 -0.10424,3.22792 h 3.22791 q -0.0881,1.72111 -0.0881,2.46088 z m -11.174145,10.38278 q -0.96653,-0.0265 -1.77959,-0.0265 -0.77602,0 -1.81795,0.0265 0.16695,-1.54305 0.26987,-3.57187 l 0.16695,-3.175 a 7.9684562,7.9684562 0 0 1 -0.73713,0.44635 4.543425,4.543425 0 0 1 -0.57229,0.23601 q -0.3175,0.10848 -1.11866,0.33152 -0.80116,0.22305 -1.28376,0.38894 a 5.7110312,5.7110312 0 0 0 -0.871,0.37624 2.9159729,2.9159729 0 0 0 -0.65458,0.47201 1.6980958,1.6980958 0 0 0 -0.38788,0.54849 1.5800917,1.5800917 0 0 0 -0.12065,0.61859 1.4351,1.4351 0 0 0 0.31115,0.92604 1.6234833,1.6234833 0 0 0 0.78131,0.54213 3.5745208,3.5745208 0 0 0 1.1049,0.1532 6.1092292,6.1092292 0 0 0 0.85725,-0.0638 7.2760417,7.2760417 0 0 0 1.21312,-0.31882 22.181608,22.181608 0 0 0 -0.6223,2.16958 q -0.90223,0.1532 -1.43537,0.1913 -0.53313,0.0381 -0.9906,0.0384 a 6.82625,6.82625 0 0 1 -2.62916,-0.43365 2.9268208,2.9268208 0 0 1 -1.51792,-1.37742 4.09575,4.09575 0 0 1 -0.48895,-1.9005 3.2609896,3.2609896 0 0 1 0.74983,-2.0664 4.9008771,4.9008771 0 0 1 0.9525,-0.86095 7.0339479,7.0339479 0 0 1 1.69042,-0.80354 25.379362,25.379362 0 0 1 2.92312,-0.78449 q 0.4826,-0.10187 1.00383,-0.24871 a 6.1179604,6.1179604 0 0 0 0.83264,-0.28707 1.8552583,1.8552583 0 0 0 0.54002,-0.36354 1.527175,1.527175 0 0 0 0.33681,-0.46567 1.2099396,1.2099396 0 0 0 0.10795,-0.49741 1.1832167,1.1832167 0 0 0 -0.32385,-0.84191 1.7155583,1.7155583 0 0 0 -0.83899,-0.47837 4.5188187,4.5188187 0 0 0 -1.13771,-0.13387 q -2.31352,0 -5.1099,1.10966 0.1778,-0.91837 0.22252,-1.28826 0.0447,-0.36989 0.15875,-1.12236 a 29.408173,29.408173 0 0 1 3.04879,-0.57812 20.525846,20.525846 0 0 1 2.55297,-0.16589 9.5488125,9.5488125 0 0 1 2.56645,0.32517 3.8184667,3.8184667 0 0 1 1.82907,1.03955 q 0.66013,0.71438 0.66146,2.0537 0,0.72707 -0.20188,3.70416 -0.20188,2.9771 -0.24156,6.15659 z m -14.23459,-10.51665 a 4.3775312,4.3775312 0 0 1 -0.76729,0.99483 4.4905083,4.4905083 0 0 1 -0.88291,0.67601 5.2540958,5.2540958 0 0 1 -0.99695,0.4273 q -0.55907,0.17886 -1.49887,0.43365 l 0.86387,1.68355 q 0.4191,0.80354 1.5875,2.88396 l 1.28296,2.25769 q 0.1016,0.17885 0.60854,1.16072 -1.55363,-0.0265 -2.05052,-0.0265 -0.61119,0 -2.15238,0.0265 l -1.40759,-3.39275 q -0.36803,-0.77787 -0.88767,-1.83674 l -1.53459,-3.09959 q -0.22833,-0.43339 -0.635,-1.30096 a 8.8280875,8.8280875 0 0 0 1.55073,0.15293 5.3773917,5.3773917 0 0 0 1.99548,-0.35719 2.841625,2.841625 0 0 0 1.38563,-1.10331 2.9344937,2.9344937 0 0 0 0.48313,-1.62639 2.3677562,2.3677562 0 0 0 -0.20955,-0.99484 1.8359437,1.8359437 0 0 0 -0.70512,-0.77813 2.8294542,2.8294542 0 0 0 -1.1811,-0.40826 10.63625,10.63625 0 0 0 -1.37081,-0.0889 q -0.381,0 -1.0414,0.0127 -0.6604,0.0127 -1.62586,0.0127 l -0.22675,5.24246 -0.23945,9.56627 -1.97061,-0.0265 q -0.47017,0 -1.91982,0.0265 0.38312,-3.80074 0.57468,-8.73733 0.19155,-4.9366 0.19155,-8.67357 1.52347,0.0264 2.55217,0.0264 1.10464,0 2.16483,-0.0384 1.06018,-0.0384 2.24128,-0.0384 a 18.811875,18.811875 0 0 1 2.63446,0.16589 4.9320979,4.9320979 0 0 1 2.06375,0.76544 3.8684729,3.8684729 0 0 1 1.33958,1.45521 4.3047708,4.3047708 0 0 1 0.43815,1.98993 5.4504167,5.4504167 0 0 1 -0.1651,1.35837 4.8728312,4.8728312 0 0 1 -0.48921,1.20862 z"
       style="stroke-width:0.26458332;fill:#e61313;fill-opacity:1;stroke:none" />
  </g>
</svg>
