<?xml version="1.0" encoding="UTF-8" standalone="no"?>
<svg
   xmlns:dc="http://purl.org/dc/elements/1.1/"
   xmlns:cc="http://creativecommons.org/ns#"
   xmlns:rdf="http://www.w3.org/1999/02/22-rdf-syntax-ns#"
   xmlns:svg="http://www.w3.org/2000/svg"
   xmlns="http://www.w3.org/2000/svg"
   xmlns:sodipodi="http://sodipodi.sourceforge.net/DTD/sodipodi-0.dtd"
   xmlns:inkscape="http://www.inkscape.org/namespaces/inkscape"
   width="520"
   height="120"
   viewBox="0 0 389.99999 89.999999"
   version="1.1"
   id="svg3761"
   sodipodi:docname="raceflight.svg"
   inkscape:version="0.92.4 (5da689c313, 2019-01-14)">
  <metadata
     id="metadata3767">
    <rdf:RDF>
      <cc:Work
         rdf:about="">
        <dc:format>image/svg+xml</dc:format>
        <dc:type
           rdf:resource="http://purl.org/dc/dcmitype/StillImage" />
        <dc:title></dc:title>
      </cc:Work>
    </rdf:RDF>
  </metadata>
  <defs
     id="defs3765" />
  <sodipodi:namedview
     pagecolor="#ffffff"
     bordercolor="#666666"
     borderopacity="1"
     objecttolerance="10"
     gridtolerance="10"
     guidetolerance="10"
     inkscape:pageopacity="0"
     inkscape:pageshadow="2"
     inkscape:window-width="1366"
     inkscape:window-height="745"
     id="namedview3763"
     showgrid="false"
     inkscape:pagecheckerboard="true"
     borderlayer="false"
     inkscape:showpageshadow="false"
     units="px"
     fit-margin-top="0"
     fit-margin-left="10"
     fit-margin-right="10"
     fit-margin-bottom="0"
     inkscape:zoom="1.5472743"
     inkscape:cx="176.58888"
     inkscape:cy="22.967168"
     inkscape:window-x="-8"
     inkscape:window-y="-8"
     inkscape:window-maximized="1"
     inkscape:current-layer="#fffaf6ff" />
  <g
     id="#b31b16ff"
     transform="translate(-101.195,26.774616)" />
  <g
     id="#fffaf6ff"
     transform="translate(-101.195,26.774616)">
    <path
       d="m 121.63302,1.5585691 c 6.16867,-0.107985 12.35084,0 18.52627,-0.04049 3.85373,-0.134982 7.81545,0.29696 11.36547,1.882997 3.05734,1.397063 5.54776,4.346418 5.64225,7.8087039 0.55342,5.682738 -3.50278,11.095513 -8.84132,12.789536 1.70752,3.334053 4.62988,5.972949 6.74235,9.091031 6.45888,-7.356514 13.073,-14.578046 19.53863,-21.93456 1.93024,-2.0179789 3.68501,-4.3936609 6.3104,-5.5612539 2.88862,-0.850387 6.58037,-0.512932 8.18666,2.395928 4.75136,8.7738249 9.30025,17.6758809 13.8154,26.5846869 -11.73668,0.04049 -23.48686,0.107986 -35.22353,-0.04049 2.41617,-2.854867 5.00108,-5.574753 7.54549,-8.314886 3.52302,-0.209222 7.05955,0 10.58933,-0.06749 -0.90438,-3.124831 -2.59166,-6.067437 -4.27218,-8.848064 -4.99433,5.729982 -10.02241,11.432968 -15.15172,17.027968 l -0.51293,0.249717 c -8.35538,-0.02025 -16.73776,0.195723 -25.07964,-0.114735 -1.8695,-2.584904 -3.52978,-5.318287 -5.39928,-7.903191 -4.54889,-0.323956 -9.16527,-0.08774 -13.73441,-0.107985 -0.77614,2.76038 -0.84363,5.682738 -1.72102,8.409373 -3.74574,0.168727 -7.51174,0.04724 -11.26424,0.06074 0.57368,-6.020193 1.98424,-11.952648 2.98985,-17.918848 9.86718,-0.350953 19.77485,0.0067 29.64878,-0.168727 1.74127,-0.101237 3.54327,-1.187841 3.86723,-3.016846 -0.19572,-1.79526 -2.12596,-2.321689 -3.64451,-2.294693 -9.90092,-0.155229 -19.8086,0.114735 -29.70952,-0.134981 3.11133,-3.3880459 6.26316,-6.9380709 9.78619,-9.8334329 z"
       id="path3742"
       style="opacity:1;fill:#b31b16;fill-opacity:1;stroke-width:0.67490953"
       inkscape:connector-curvature="0" />
    <path
       d="m 284.77891,1.9567661 c 12.03363,0.0067 24.06727,-0.06074 36.09416,0.03375 l 0.43869,0.3712 c -2.47692,3.226067 -5.52076,6.020193 -8.36213,8.9290529 -6.25641,0.269964 -12.53982,0 -18.80298,0.121484 -0.30371,0.884131 -0.50618,1.802008 -0.59392,2.740133 8.03817,0.08099 16.08309,-0.0135 24.12802,0.04049 -2.37569,3.118082 -5.33854,5.81772 -7.97744,8.713082 -5.81772,0.15523 -11.64893,-0.04724 -17.46665,0.07424 -1.32958,3.550025 -1.37682,7.646726 -2.32169,11.392474 -3.65801,0.107985 -7.32952,0.06749 -10.98753,0.0135 1.90999,-10.812051 3.78624,-21.644349 5.85147,-32.4294039 z"
       id="path3744"
       style="opacity:1;fill:#b31b16;fill-opacity:1;stroke-width:0.67490953"
       inkscape:connector-curvature="0" />
    <path
       d="m 217.55117,5.6957651 c 8.1529,-0.44544 16.35305,-0.14848 24.52621,-0.168727 -0.18898,1.106851 -1.10685,1.795259 -1.82226,2.564656 -2.13946,2.1327139 -4.13719,4.4139079 -6.3374,6.4858809 -5.25754,0.317207 -10.56908,-0.03375 -15.84013,0.14848 -3.57027,0.14848 -7.17428,3.408293 -6.68835,7.174288 0.35095,2.38918 2.80088,3.894228 5.08882,3.846985 6.97856,0.195723 13.96388,-0.05399 20.94244,0.121483 0.28346,0.134982 0.85714,0.411695 1.14735,0.546677 -2.72664,2.625398 -5.11582,5.595 -7.90994,8.152907 -5.18331,0.09449 -10.37336,0.04724 -15.55667,0.0067 -5.48701,0.09449 -11.2035,-2.996598 -13.28222,-8.233896 -2.08547,-5.2238 -0.17547,-11.41272 3.81999,-15.192214 3.26656,-3.0370929 7.57249,-4.7041189 11.91216,-5.4532689 z"
       id="path3746"
       style="opacity:1;fill:#b31b16;fill-opacity:1;stroke-width:0.67490953"
       inkscape:connector-curvature="0" />
    <path
       d="m 242.96826,5.4730451 c 11.39922,0.04049 22.80519,-0.04049 34.20441,0.04724 -0.80314,2.038227 -2.74688,3.266563 -4.11019,4.8930949 -1.4983,1.437557 -2.73339,3.232816 -4.56239,4.25193 -5.62875,0.07424 -11.25749,-0.0067 -16.88624,0.02025 -0.0135,0.344204 -0.0405,1.039361 -0.054,1.383565 7.424,0.128232 14.85476,-0.05399 22.28551,0.08774 -2.2542,2.854867 -4.97408,5.345284 -7.51849,7.936936 -5.52076,0.188975 -11.05502,-0.128233 -16.56903,0.141731 l -0.18223,1.545543 c 8.00443,0.08099 16.00886,0.02025 24.00654,0.02025 -0.22947,1.532045 -1.60629,2.422926 -2.57816,3.482534 -1.95049,1.829004 -3.55002,4.035959 -5.71648,5.628745 -9.19227,0.05399 -18.39129,0.027 -27.5903,0.0067 0.65466,-5.945953 2.05172,-11.790669 2.99659,-17.696128 0.80315,-3.907726 1.21484,-7.8964419 2.27445,-11.7501749 z"
       id="path3748"
       style="opacity:1;fill:#b31b16;fill-opacity:1;stroke-width:0.67490953"
       inkscape:connector-curvature="0" />
    <path
       d="m 380.23811,6.3774241 c 8.58485,-0.836888 17.27769,-0.168728 25.90303,-0.37795 -1.93024,3.016846 -4.77836,5.4600179 -7.22828,8.0989149 -5.42627,0.249716 -10.87279,-0.07424 -16.29907,0.141731 -3.46903,0.512931 -7.18778,3.172075 -7.0798,7.01231 -0.0742,2.956104 2.85487,4.899843 5.55451,4.953836 3.63101,0.05399 7.26202,0.09449 10.89304,-0.02025 0.18897,-0.863884 0.3442,-1.734518 0.41844,-2.6119 -4.83235,-0.08099 -9.67145,-0.0135 -14.5038,-0.0067 0.12148,-1.437558 1.63328,-2.058474 2.48366,-3.030344 1.65353,-1.322823 2.84812,-3.280061 4.67713,-4.305923 6.12143,-0.03375 12.24285,-0.06749 18.36428,0.02025 -0.97187,6.033692 -2.10571,12.047136 -3.18557,18.06058 -6.3644,0.283462 -12.75579,0.02025 -19.12694,0.121483 -4.70411,0.175477 -9.76594,-1.478051 -12.76928,-5.244047 -3.13158,-3.833486 -3.27332,-9.435235 -1.03262,-13.741158 2.58491,-4.845851 7.64673,-7.9706819 12.93127,-9.0707839 z"
       id="path3750"
       style="opacity:1;fill:#b31b16;fill-opacity:1;stroke-width:0.67490953"
       inkscape:connector-curvature="0" />
    <path
       d="m 450.90789,6.0737141 c 10.92004,-0.14848 21.86032,-0.08774 32.78711,-0.027 -2.10572,2.956104 -5.01458,5.3047889 -7.43076,8.0179249 -3.19907,0.330706 -6.42514,-0.06074 -9.63096,0.168728 -1.29582,6.695102 -2.37568,13.444198 -3.67825,20.139301 -3.22607,0.101236 -6.45889,0.08774 -9.68496,0.0067 1.04611,-6.735598 2.42293,-13.417202 3.47579,-20.152799 -4.4814,-0.161979 -8.9763,0.06749 -13.4577,-0.107986 2.34194,-2.861616 5.09557,-5.3520329 7.61973,-8.0449219 z"
       id="path3752"
       style="opacity:1;fill:#b31b16;fill-opacity:1;stroke-width:0.67490953"
       inkscape:connector-curvature="0" />
    <path
       d="m 322.43886,6.0602161 c 3.21257,-0.134982 6.43189,-0.07424 9.6512,-0.027 -0.99886,6.7490949 -2.60515,13.4172019 -3.39479,20.1932929 7.14729,0.05399 14.29458,-0.0067 21.44188,0.0135 -0.33071,1.086604 -1.24184,1.78851 -1.99099,2.564656 -1.8425,1.808757 -3.38129,3.921224 -5.37903,5.561254 -8.46336,0.121484 -16.94023,0.06749 -25.40359,0.02025 1.61303,-9.455483 3.3138,-18.897468 5.07532,-28.3259539 z"
       id="path3754"
       style="opacity:1;fill:#b31b16;fill-opacity:1;stroke-width:0.67490953"
       inkscape:connector-curvature="0" />
    <path
       d="m 355.28671,6.6743841 0.13498,-0.587172 c 3.21257,-0.195723 6.43863,-0.09449 9.65795,-0.04724 -1.59953,9.4554829 -3.3138,18.8974669 -5.01458,28.3394519 -3.23281,0.101236 -6.46563,0.06749 -9.6917,0.0067 1.51855,-9.259759 3.28006,-18.472275 4.91335,-27.7117859 z"
       id="path3756"
       style="opacity:1;fill:#b31b16;fill-opacity:1;stroke-width:0.67490953"
       inkscape:connector-curvature="0" />
    <path
       d="m 409.00276,6.2761871 c 3.06409,-0.654662 6.52637,-0.114734 9.74569,-0.263215 -0.36445,3.185573 -1.21484,6.2969059 -1.59954,9.4824799 5.06858,0.04049 10.14389,0.09449 15.21247,-0.027 0.70865,-3.118082 1.06635,-6.3171529 1.78851,-9.4352349 3.21931,-0.08099 6.44538,-0.04049 9.67145,-0.02025 -1.64003,9.4622319 -3.32056,18.9244639 -5.08207,28.3596999 -3.20582,0.114734 -6.41839,0.05399 -9.62421,0.04049 0.3577,-3.590519 1.49155,-7.08655 1.64678,-10.697316 -4.98758,-0.0135 -9.97516,0 -14.96274,-0.0067 -0.99212,3.489282 -1.26883,7.133794 -2.05173,10.677069 -3.23282,-0.027 -6.53987,0.276713 -9.73894,-0.134982 1.61303,-9.333999 3.3408,-18.6545 4.99433,-27.9750009 z"
       id="path3758"
       style="opacity:1;fill:#b31b16;fill-opacity:1;stroke-width:0.67490953"
       inkscape:connector-curvature="0" />
  </g>
</svg>
