<?xml version="1.0" encoding="UTF-8" standalone="no"?>
<!-- Created with Inkscape (http://www.inkscape.org/) -->

<svg
   xmlns:dc="http://purl.org/dc/elements/1.1/"
   xmlns:cc="http://creativecommons.org/ns#"
   xmlns:rdf="http://www.w3.org/1999/02/22-rdf-syntax-ns#"
   xmlns:svg="http://www.w3.org/2000/svg"
   xmlns="http://www.w3.org/2000/svg"
   xmlns:sodipodi="http://sodipodi.sourceforge.net/DTD/sodipodi-0.dtd"
   xmlns:inkscape="http://www.inkscape.org/namespaces/inkscape"
   width="520"
   height="120"
   viewBox="0 0 137.58333 31.750001"
   version="1.1"
   id="svg7771"
   inkscape:version="0.92.4 (5da689c313, 2019-01-14)"
   sodipodi:docname="raceflight.svg">
  <defs
     id="defs7765" />
  <sodipodi:namedview
     id="base"
     pagecolor="#ffffff"
     bordercolor="#666666"
     borderopacity="1.0"
     inkscape:pageopacity="0.0"
     inkscape:pageshadow="2"
     inkscape:zoom="1.6730769"
     inkscape:cx="56.183903"
     inkscape:cy="60"
     inkscape:document-units="mm"
     inkscape:current-layer="layer1"
     showgrid="false"
     inkscape:pagecheckerboard="true"
     units="px"
     inkscape:window-width="1366"
     inkscape:window-height="745"
     inkscape:window-x="-8"
     inkscape:window-y="-8"
     inkscape:window-maximized="1" />
  <metadata
     id="metadata7768">
    <rdf:RDF>
      <cc:Work
         rdf:about="">
        <dc:format>image/svg+xml</dc:format>
        <dc:type
           rdf:resource="http://purl.org/dc/dcmitype/StillImage" />
        <dc:title />
      </cc:Work>
    </rdf:RDF>
  </metadata>
  <g
     inkscape:label="Livello 1"
     inkscape:groupmode="layer"
     id="layer1"
     transform="translate(0,-265.24998)">
    <path
       id="FLIGHT_EXPAND_2_"
       stroke-miterlimit="10"
       d="m 77.347858,275.59724 -2.73443,2.87532 h -6.81962 l -0.24989,1.43766 h 8.40317 l -2.56749,2.69358 h -6.31921 l -0.71695,4.04892 h -3.46806 l 1.98413,-11.05569 h 12.48835 z m 10.09759,8.56865 -2.40721,2.48725 h -8.62222 l 1.73612,-9.67368 h 3.00537 l -1.28385,7.18643 z m 3.61791,2.48704 h -3.01996 l 1.73611,-9.67367 h 3.00538 z m 8.986732,-6.0443 h 6.24418 l -1.0796,6.0443 h -6.696442 c -0.75885,0 -1.45162,-0.10859 -2.07917,-0.32555 -0.62733,-0.21675 -1.16234,-0.51562 -1.60481,-0.89661 -0.44268,-0.38057 -0.78552,-0.83137 -1.02854,-1.35179 -0.24322,-0.52063 -0.36473,-1.0846 -0.36473,-1.69193 0,-0.79032 0.17987,-1.51832 0.5398,-2.18358 0.35994,-0.66527 0.84638,-1.23633 1.45892,-1.7134 0.61275,-0.47727 1.33262,-0.84826 2.1592,-1.11336 0.82658,-0.2649 1.70673,-0.39766 2.640652,-0.39766 h 6.98822 l -2.40722,2.51601 h -5.033272 c -0.44747,0 -0.87306,0.0675 -1.27655,0.20237 -0.40392,0.13505 -0.75635,0.32305 -1.05772,0.56398 -0.30158,0.24113 -0.5423,0.52542 -0.72216,0.85305 -0.18008,0.32784 -0.26991,0.68465 -0.26991,1.07001 0,0.60733 0.22614,1.0894 0.6784,1.446 0.45227,0.35681 1.05772,0.535 1.81636,0.535 h 3.705652 l 0.24781,-1.40264 h -5.062452 z m 18.74711,6.0443 h -3.00537 l 0.67111,-3.73066 h -5.82109 l -0.65651,3.73066 h -3.03456 l 1.73612,-9.67367 h 3.01996 l -0.62754,3.427 h 5.82129 l 0.61254,-3.427 h 3.01996 z m 15.71256,-9.67367 -2.4218,2.51601 h -3.47223 l -1.28385,7.15766 h -3.01975 l 1.26926,-7.15766 h -4.58101 l 2.42181,-2.51601 z"
       style="fill:#000000;fill-opacity:1;stroke:#000001;stroke-width:0.41671875;stroke-miterlimit:10;stroke-dasharray:none;stroke-opacity:1"
       inkscape:connector-curvature="0" />
    <path
       id="RACE_EXPAND_2_"
       stroke-miterlimit="10"
       d="m 18.812898,286.65272 h -4.61852 l -1.96724,-2.92513 H 6.9250078 l -0.51667,2.92513 h -3.4518 l 1.0004,-5.65164 h 9.7041102 c 0.28886,0 0.56397,-0.0331 0.82533,-0.0992 0.26114,-0.0661 0.48915,-0.15965 0.6836,-0.28095 0.19446,-0.12109 0.35014,-0.27282 0.46686,-0.45456 0.11671,-0.18174 0.17507,-0.38265 0.17507,-0.60315 0,-0.36369 -0.15027,-0.6363 -0.45018,-0.81804 -0.30012,-0.18195 -0.71696,-0.27282 -1.2505,-0.27282 H 4.4071178 l 2.76778,-2.87532 h 7.1695402 c 0.57774,0 1.16964,0.0496 1.77572,0.1486 0.60566,0.0992 1.15609,0.27845 1.65066,0.53709 0.49457,0.25906 0.89765,0.60316 1.20902,1.03292 0.31096,0.42975 0.46665,0.97497 0.46665,1.63607 0,0.49562 -0.0861,0.96956 -0.25823,1.4212 -0.17257,0.45184 -0.41683,0.8593 -0.73383,1.22299 -0.3168,0.36348 -0.69778,0.67214 -1.14192,0.92537 -0.44476,0.25364 -0.93371,0.42975 -1.46726,0.52896 0.15548,0.14339 0.33055,0.32513 0.52522,0.54522 0.19445,0.2205 0.44726,0.52354 0.75863,0.90891 z m 5.23127,0 2.27591,-2.48704 h 2.4364 c 0.30137,0 0.60774,0 0.91912,0 0.31116,0 0.58356,0.01 0.81699,0.029 -0.10713,-0.17361 -0.22863,-0.39286 -0.36473,-0.65797 -0.1363,-0.2649 -0.2626,-0.51333 -0.37932,-0.74467 l -1.29823,-2.55937 -5.71896,6.42008 h -3.57435 l 7.82001,-8.7483 c 0.25281,-0.27949 0.55439,-0.53001 0.90453,-0.75176 0.35035,-0.22155 0.76343,-0.33264 1.24008,-0.33264 0.45706,0 0.81929,0.1038 1.0869,0.31096 0.2674,0.20738 0.48373,0.46519 0.64922,0.77344 l 4.53744,8.7483 z m 23.78038,-2.48683 -2.37804,2.48704 h -4.90197 c -0.75885,0 -1.45162,-0.10859 -2.07917,-0.32555 -0.62733,-0.21675 -1.16234,-0.51541 -1.60481,-0.8964 -0.44268,-0.38057 -0.78552,-0.83158 -1.02853,-1.352 -0.24323,-0.52063 -0.36473,-1.08439 -0.36473,-1.69172 0,-0.79032 0.17986,-1.51832 0.5398,-2.18359 0.35993,-0.66526 0.84638,-1.23633 1.45891,-1.71339 0.61275,-0.47728 1.33262,-0.84826 2.1592,-1.11337 0.82659,-0.26489 1.70673,-0.39765 2.64065,-0.39765 h 6.84233 l -2.39263,2.51601 h -4.90197 c -0.44747,0 -0.87306,0.0675 -1.27655,0.20237 -0.40391,0.13505 -0.75635,0.32304 -1.05772,0.56397 -0.30158,0.24114 -0.5398,0.52292 -0.71487,0.84597 -0.17507,0.32305 -0.26281,0.67735 -0.26281,1.06272 0,0.29908 0.0607,0.57127 0.18236,0.81699 0.12151,0.24593 0.29179,0.4556 0.51063,0.629 0.21883,0.17341 0.47894,0.30867 0.78052,0.40496 0.30137,0.0965 0.63692,0.14464 1.00665,0.14464 z m 12.40081,0 -2.39263,2.48704 h -9.39544 l 1.73612,-9.67367 h 11.29203 l -2.40722,2.51601 h -6.31712 l -0.20425,1.15671 h 7.71769 l -2.10085,2.19796 h -6.01074 l -0.23343,1.31595 z"
       style="fill:#de1b14;fill-opacity:1;stroke:#000000;stroke-width:0.417;stroke-miterlimit:10;stroke-dasharray:none;stroke-opacity:1"
       inkscape:connector-curvature="0" />
  </g>
</svg>
